<svg width="30.003906" height="30.017578" viewBox="0 0 30.0039 30.0176" fill="none" xmlns="http://www.w3.org/2000/svg" xmlns:xlink="http://www.w3.org/1999/xlink">
	<desc>
			Created with Pixso.
	</desc>
	<defs>
		<linearGradient x1="0.000000" y1="15.008970" x2="30.003445" y2="7.340386" id="paint_linear_43_3509_0" gradientUnits="userSpaceOnUse">
			<stop stop-color="#7D3172"/>
			<stop offset="0.690480" stop-color="#AE3C6F"/>
		</linearGradient>
	</defs>
	<path id="path" d="M13.94 0.01C13.83 0.02 13.48 0.06 13.18 0.09C11.24 0.3 9.09 1.03 7.36 2.07C5.16 3.38 3.37 5.17 2.05 7.38C1.02 9.09 0.34 11.09 0.07 13.19C-0.03 13.91 -0.03 16.11 0.07 16.83C0.55 20.49 2.16 23.59 4.88 26.12C6.39 27.52 8.26 28.61 10.3 29.28C11.91 29.82 13.18 30.01 15 30.01C16.34 30.01 16.93 29.96 18.11 29.72C22.16 28.89 25.77 26.29 27.94 22.65C28.97 20.93 29.65 18.93 29.93 16.83C30.02 16.11 30.02 13.91 29.93 13.19C29.65 11.09 28.97 9.09 27.94 7.38C26.63 5.17 24.83 3.38 22.63 2.07C20.93 1.05 18.91 0.36 16.88 0.09C16.36 0.02 14.3 -0.03 13.94 0.01ZM14.1 7.88C14.05 7.93 9.63 7.65 9.55 7.59C9.51 7.56 10.05 6.29 10.35 5.68C11.32 3.75 12.61 2.38 13.87 1.94L14.09 1.87L14.1 4.87C14.11 6.52 14.11 7.87 14.1 7.88ZM16.59 2.15C17.67 2.69 18.8 4 19.64 5.68C20.01 6.41 20.48 7.56 20.43 7.6C20.38 7.65 17.97 7.83 16.89 7.87L15.88 7.9L15.88 4.88L15.88 1.86L16.1 1.94C16.23 1.98 16.45 2.08 16.59 2.15ZM10.09 2.75C10.06 2.79 9.92 2.99 9.77 3.2C9.12 4.09 8.45 5.41 7.98 6.71C7.85 7.06 7.73 7.32 7.68 7.32C7.43 7.32 4.81 6.72 4.74 6.65C4.69 6.61 5.31 5.91 5.84 5.4C6.83 4.46 7.9 3.73 9.15 3.11C10.06 2.66 10.16 2.62 10.09 2.75ZM20.84 3.11C22.1 3.73 23.15 4.46 24.15 5.41C24.71 5.94 25.35 6.68 25.29 6.74C25.19 6.82 22.3 7.43 22.26 7.37C22.25 7.36 22.14 7.07 22.02 6.73C21.55 5.43 20.88 4.1 20.22 3.2C19.89 2.74 19.85 2.68 19.91 2.68C19.94 2.68 20.36 2.87 20.84 3.11ZM4.17 8.34C4.73 8.51 6.27 8.87 6.86 8.97L7.25 9.03L7.23 9.25C7.21 9.37 7.13 9.82 7.05 10.25C6.87 11.21 6.73 12.37 6.68 13.38L6.64 14.13L4.21 14.13L1.78 14.13L1.78 13.92C1.78 13.25 2.12 11.66 2.47 10.64C2.76 9.78 3.53 8.2 3.66 8.2C3.68 8.2 3.91 8.26 4.17 8.34ZM26.95 9.27C27.37 10.15 27.66 10.95 27.88 11.85C28.04 12.5 28.21 13.57 28.21 13.92L28.21 14.13L25.79 14.13L23.35 14.13L23.31 13.38C23.26 12.37 23.13 11.22 22.95 10.25C22.87 9.82 22.79 9.38 22.77 9.28L22.74 9.09L23.17 9.02C23.75 8.93 25.3 8.59 25.92 8.41C26.51 8.24 26.41 8.16 26.95 9.27ZM9.96 9.4C10.68 9.48 11.68 9.55 13.43 9.64L14.12 9.68L14.12 11.9L14.12 14.13L11.27 14.13L8.42 14.13L8.42 13.82C8.42 12.61 8.92 9.31 9.1 9.31C9.14 9.31 9.52 9.35 9.96 9.4ZM20.99 9.4C20.99 9.41 21.04 9.67 21.11 9.98C21.35 11.16 21.58 13.03 21.58 13.82L21.58 14.13L18.73 14.13L15.88 14.13L15.88 11.9L15.88 9.68L16.83 9.64C17.96 9.6 20.36 9.43 20.4 9.4C20.43 9.37 20.99 9.37 20.99 9.4ZM6.7 16.91C6.78 18.02 6.94 19.25 7.13 20.14C7.27 20.76 7.25 20.88 7.07 20.88C6.86 20.88 4.92 21.3 4.28 21.47C3.94 21.57 3.62 21.65 3.57 21.65C3.44 21.65 2.73 20.16 2.44 19.29C2.08 18.21 1.78 16.76 1.78 16.1L1.78 15.89L4.21 15.89L6.63 15.89L6.7 16.91ZM14.12 18.1L14.12 20.3L13.43 20.3C12.58 20.3 11.1 20.39 9.92 20.5C9.44 20.56 9.04 20.59 9.03 20.58C9.02 20.57 8.95 20.23 8.86 19.82C8.68 18.92 8.5 17.53 8.44 16.58L8.4 15.89L11.26 15.89L14.12 15.89L14.12 18.1ZM21.55 16.58C21.49 17.53 21.31 18.94 21.13 19.83C21.05 20.23 20.96 20.58 20.96 20.6C20.95 20.61 20.75 20.61 20.54 20.58C19.61 20.47 18.06 20.36 17.01 20.32L15.88 20.28L15.88 18.08L15.88 15.89L18.73 15.89L21.59 15.89L21.55 16.58ZM28.21 16.1C28.21 16.77 27.91 18.21 27.56 19.3C27.24 20.23 26.48 21.79 26.36 21.74C25.94 21.58 22.99 20.88 22.73 20.88C22.72 20.88 22.76 20.66 22.82 20.37C23 19.52 23.21 18 23.29 16.91L23.36 15.89L25.79 15.89L28.21 15.89L28.21 16.1ZM14.12 25.06C14.12 26.7 14.1 28.05 14.09 28.05C14.04 28.05 13.59 27.86 13.32 27.72C12.25 27.15 11.11 25.81 10.32 24.19C10.02 23.56 9.52 22.35 9.55 22.32C9.57 22.31 11.79 22.12 12.26 22.1C12.46 22.09 12.95 22.08 13.37 22.07L14.12 22.06L14.12 25.06ZM19.02 22.21C19.54 22.25 20.07 22.31 20.21 22.32L20.45 22.36L20.22 22.93C19.33 25.24 18.01 27.01 16.67 27.72C16.4 27.86 15.95 28.05 15.9 28.05C15.89 28.05 15.88 26.7 15.88 25.05L15.88 22.04L16.98 22.08C17.59 22.11 18.5 22.17 19.02 22.21ZM7.87 22.9C8.35 24.37 9.09 25.78 10.17 27.29C10.26 27.41 10.25 27.41 9.96 27.29C8.59 26.75 7.02 25.73 5.83 24.6C5.3 24.09 4.56 23.25 4.61 23.21C4.7 23.13 7.64 22.53 7.73 22.57C7.74 22.58 7.81 22.73 7.87 22.9ZM22.99 22.74C23.68 22.87 25.24 23.24 25.29 23.29C25.36 23.35 24.69 24.11 24.07 24.68C22.93 25.76 21.36 26.77 20.04 27.29C19.74 27.41 19.74 27.41 19.82 27.29C20.9 25.78 21.64 24.37 22.13 22.9C22.22 22.63 22.25 22.59 22.36 22.62C22.43 22.63 22.71 22.68 22.99 22.74Z" fill="url(#paint_linear_43_3509_0)" fill-opacity="1.000000" fill-rule="nonzero"/>
	<path id="path" d="M13.18 0.09C11.24 0.3 9.09 1.03 7.36 2.07C5.16 3.38 3.37 5.17 2.05 7.38C1.02 9.09 0.34 11.09 0.07 13.19C-0.03 13.91 -0.03 16.11 0.07 16.83C0.55 20.49 2.16 23.59 4.88 26.12C6.39 27.52 8.26 28.61 10.3 29.28C11.91 29.82 13.18 30.01 15 30.01C16.34 30.01 16.93 29.96 18.11 29.72C22.16 28.89 25.77 26.29 27.94 22.65C28.97 20.93 29.65 18.93 29.93 16.83C30.02 16.11 30.02 13.91 29.93 13.19C29.65 11.09 28.97 9.09 27.94 7.38C26.63 5.17 24.83 3.38 22.63 2.07C20.93 1.05 18.91 0.36 16.88 0.09C16.36 0.02 14.3 -0.03 13.94 0.01C13.83 0.02 13.48 0.06 13.18 0.09ZM9.55 7.59C9.51 7.56 10.05 6.29 10.35 5.68C11.32 3.75 12.61 2.38 13.87 1.94L14.09 1.87L14.1 4.87C14.11 6.52 14.11 7.87 14.1 7.88C14.05 7.93 9.63 7.65 9.55 7.59ZM19.64 5.68C20.01 6.41 20.48 7.56 20.43 7.6C20.38 7.65 17.97 7.83 16.89 7.87L15.88 7.9L15.88 4.88L15.88 1.86L16.1 1.94C16.23 1.98 16.45 2.08 16.59 2.15C17.67 2.69 18.8 4 19.64 5.68ZM9.77 3.2C9.12 4.09 8.45 5.41 7.98 6.71C7.85 7.06 7.73 7.32 7.68 7.32C7.43 7.32 4.81 6.72 4.74 6.65C4.69 6.61 5.31 5.91 5.84 5.4C6.83 4.46 7.9 3.73 9.15 3.11C10.06 2.66 10.16 2.62 10.09 2.75C10.06 2.79 9.92 2.99 9.77 3.2ZM24.15 5.41C24.71 5.94 25.35 6.68 25.29 6.74C25.19 6.82 22.3 7.43 22.26 7.37C22.25 7.36 22.14 7.07 22.02 6.73C21.55 5.43 20.88 4.1 20.22 3.2C19.89 2.74 19.85 2.68 19.91 2.68C19.94 2.68 20.36 2.87 20.84 3.11C22.1 3.73 23.15 4.46 24.15 5.41ZM6.86 8.97L7.25 9.03L7.23 9.25C7.21 9.37 7.13 9.82 7.05 10.25C6.87 11.21 6.73 12.37 6.68 13.38L6.64 14.13L4.21 14.13L1.78 14.13L1.78 13.92C1.78 13.25 2.12 11.66 2.47 10.64C2.76 9.78 3.53 8.2 3.66 8.2C3.68 8.2 3.91 8.26 4.17 8.34C4.73 8.51 6.27 8.87 6.86 8.97ZM27.88 11.85C28.04 12.5 28.21 13.57 28.21 13.92L28.21 14.13L25.79 14.13L23.35 14.13L23.31 13.38C23.26 12.37 23.13 11.22 22.95 10.25C22.87 9.82 22.79 9.38 22.77 9.28L22.74 9.09L23.17 9.02C23.75 8.93 25.3 8.59 25.92 8.41C26.51 8.24 26.41 8.16 26.95 9.27C27.37 10.15 27.66 10.95 27.88 11.85ZM13.43 9.64L14.12 9.68L14.12 11.9L14.12 14.13L11.27 14.13L8.42 14.13L8.42 13.82C8.42 12.61 8.92 9.31 9.1 9.31C9.14 9.31 9.52 9.35 9.96 9.4C10.68 9.48 11.68 9.55 13.43 9.64ZM21.11 9.98C21.35 11.16 21.58 13.03 21.58 13.82L21.58 14.13L18.73 14.13L15.88 14.13L15.88 11.9L15.88 9.68L16.83 9.64C17.96 9.6 20.36 9.43 20.4 9.4C20.43 9.37 20.99 9.37 20.99 9.4C20.99 9.41 21.04 9.67 21.11 9.98ZM7.13 20.14C7.27 20.76 7.25 20.88 7.07 20.88C6.86 20.88 4.92 21.3 4.28 21.47C3.94 21.57 3.62 21.65 3.57 21.65C3.44 21.65 2.73 20.16 2.44 19.29C2.08 18.21 1.78 16.76 1.78 16.1L1.78 15.89L4.21 15.89L6.63 15.89L6.7 16.91C6.78 18.02 6.94 19.25 7.13 20.14ZM14.12 20.3L13.43 20.3C12.58 20.3 11.1 20.39 9.92 20.5C9.44 20.56 9.04 20.59 9.03 20.58C9.02 20.57 8.95 20.23 8.86 19.82C8.68 18.92 8.5 17.53 8.44 16.58L8.4 15.89L11.26 15.89L14.12 15.89L14.12 18.1L14.12 20.3ZM21.13 19.83C21.05 20.23 20.96 20.58 20.96 20.6C20.95 20.61 20.75 20.61 20.54 20.58C19.61 20.47 18.06 20.36 17.01 20.32L15.88 20.28L15.88 18.08L15.88 15.89L18.73 15.89L21.59 15.89L21.55 16.58C21.49 17.53 21.31 18.94 21.13 19.83ZM27.56 19.3C27.24 20.23 26.48 21.79 26.36 21.74C25.94 21.58 22.99 20.88 22.73 20.88C22.72 20.88 22.76 20.66 22.82 20.37C23 19.52 23.21 18 23.29 16.91L23.36 15.89L25.79 15.89L28.21 15.89L28.21 16.1C28.21 16.77 27.91 18.21 27.56 19.3ZM14.09 28.05C14.04 28.05 13.59 27.86 13.32 27.72C12.25 27.15 11.11 25.81 10.32 24.19C10.02 23.56 9.52 22.35 9.55 22.32C9.57 22.31 11.79 22.12 12.26 22.1C12.46 22.09 12.95 22.08 13.37 22.07L14.12 22.06L14.12 25.06C14.12 26.7 14.1 28.05 14.09 28.05ZM20.21 22.32L20.45 22.36L20.22 22.93C19.33 25.24 18.01 27.01 16.67 27.72C16.4 27.86 15.95 28.05 15.9 28.05C15.89 28.05 15.88 26.7 15.88 25.05L15.88 22.04L16.98 22.08C17.59 22.11 18.5 22.17 19.02 22.21C19.54 22.25 20.07 22.31 20.21 22.32ZM10.17 27.29C10.26 27.41 10.25 27.41 9.96 27.29C8.59 26.75 7.02 25.73 5.83 24.6C5.3 24.09 4.56 23.25 4.61 23.21C4.7 23.13 7.64 22.53 7.73 22.57C7.74 22.58 7.81 22.73 7.87 22.9C8.35 24.37 9.09 25.78 10.17 27.29ZM25.29 23.29C25.36 23.35 24.69 24.11 24.07 24.68C22.93 25.76 21.36 26.77 20.04 27.29C19.74 27.41 19.74 27.41 19.82 27.29C20.9 25.78 21.64 24.37 22.13 22.9C22.22 22.63 22.25 22.59 22.36 22.62C22.43 22.63 22.71 22.68 22.99 22.74C23.68 22.87 25.24 23.24 25.29 23.29Z" stroke="#000000" stroke-opacity="0" stroke-width="0.133333"/>
</svg>
