<svg width="30.000000" height="30.000000" viewBox="0 0 30 30" fill="none" xmlns="http://www.w3.org/2000/svg" xmlns:xlink="http://www.w3.org/1999/xlink">
	<desc>
			Created with Pixso.
	</desc>
	<defs>
		<linearGradient x1="-0.000001" y1="15.000010" x2="29.999998" y2="7.335831" id="paint_linear_43_3529_0" gradientUnits="userSpaceOnUse">
			<stop stop-color="#7D3172"/>
			<stop offset="0.690480" stop-color="#AE3C6F"/>
		</linearGradient>
		<linearGradient x1="8.849609" y1="10.610197" x2="21.145254" y2="7.017032" id="paint_linear_43_3530_0" gradientUnits="userSpaceOnUse">
			<stop stop-color="#7D3172"/>
			<stop offset="0.690480" stop-color="#AE3C6F"/>
		</linearGradient>
	</defs>
	<path id="path" d="M6.23 0.02C5.08 0.21 4.12 1.03 3.68 2.18C3.55 2.53 3.55 2.56 3.53 6.37L3.51 10.22L1.85 11.89C0.93 12.81 0.14 13.65 0.08 13.75C-0.01 13.93 -0.01 14.56 0 20.7L0.02 27.47L0.15 27.82C0.53 28.82 1.25 29.53 2.21 29.86L2.61 30L15 30L27.38 30L27.78 29.86C28.74 29.53 29.46 28.82 29.84 27.82L29.97 27.47L29.99 20.7C30 14.56 30 13.93 29.91 13.75C29.85 13.65 29.06 12.81 28.14 11.89L26.48 10.22L26.46 6.37L26.44 2.53L26.29 2.13C25.91 1.17 25.24 0.51 24.26 0.14L23.91 0L15.14 0C10.32 -0.01 6.31 0 6.23 0.02ZM23.74 1.83C23.91 1.89 24.12 2.03 24.26 2.17C24.74 2.64 24.71 2.2 24.69 9.3L24.68 15.6L19.88 18.29C17.24 19.78 15.05 20.99 15.01 20.99C14.98 20.99 12.78 19.77 10.13 18.29L5.31 15.59L5.3 9.29C5.28 2.2 5.25 2.64 5.73 2.17C6.18 1.71 5.49 1.75 14.97 1.74C22.72 1.73 23.48 1.74 23.74 1.83ZM3.51 14.11L3.49 14.57L2.91 14.25L2.33 13.93L2.91 13.34L3.49 12.77L3.51 13.2C3.52 13.44 3.52 13.85 3.51 14.11ZM27.08 13.35L27.66 13.93L27.32 14.12C27.12 14.22 26.86 14.38 26.72 14.46L26.47 14.6L26.47 13.68C26.47 13.18 26.48 12.77 26.49 12.77C26.5 12.77 26.76 13.03 27.08 13.35ZM8.2 19.24C11.73 21.21 14.7 22.85 14.8 22.88C14.94 22.92 15.06 22.92 15.21 22.88C15.34 22.84 18.31 21.2 21.82 19.23L28.21 15.64L28.23 21.32C28.24 27.72 28.26 27.36 27.8 27.82C27.32 28.3 28.45 28.26 15 28.26C1.54 28.26 2.67 28.3 2.19 27.82C1.73 27.36 1.75 27.72 1.75 21.33C1.75 18.2 1.76 15.64 1.78 15.64C1.79 15.64 4.68 17.26 8.2 19.24Z" fill="url(#paint_linear_43_3529_0)" fill-opacity="1.000000" fill-rule="nonzero"/>
	<path id="path" d="M3.68 2.18C3.55 2.53 3.55 2.56 3.53 6.37L3.51 10.22L1.85 11.89C0.93 12.81 0.14 13.65 0.08 13.75C-0.01 13.93 -0.01 14.56 0 20.7L0.02 27.47L0.15 27.82C0.53 28.82 1.25 29.53 2.21 29.86L2.61 30L15 30L27.38 30L27.78 29.86C28.74 29.53 29.46 28.82 29.84 27.82L29.97 27.47L29.99 20.7C30 14.56 30 13.93 29.91 13.75C29.85 13.65 29.06 12.81 28.14 11.89L26.48 10.22L26.46 6.37L26.44 2.53L26.29 2.13C25.91 1.17 25.24 0.51 24.26 0.14L23.91 0L15.14 0C10.32 -0.01 6.31 0 6.23 0.02C5.08 0.21 4.12 1.03 3.68 2.18ZM24.26 2.17C24.74 2.64 24.71 2.2 24.69 9.3L24.68 15.6L19.88 18.29C17.24 19.78 15.05 20.99 15.01 20.99C14.98 20.99 12.78 19.77 10.13 18.29L5.31 15.59L5.3 9.29C5.28 2.2 5.25 2.64 5.73 2.17C6.18 1.71 5.49 1.75 14.97 1.74C22.72 1.73 23.48 1.74 23.74 1.83C23.91 1.89 24.12 2.03 24.26 2.17ZM3.49 14.57L2.91 14.25L2.33 13.93L2.91 13.34L3.49 12.77L3.51 13.2C3.52 13.44 3.52 13.85 3.51 14.11L3.49 14.57ZM27.66 13.93L27.32 14.12C27.12 14.22 26.86 14.38 26.72 14.46L26.47 14.6L26.47 13.68C26.47 13.18 26.48 12.77 26.49 12.77C26.5 12.77 26.76 13.03 27.08 13.35L27.66 13.93ZM14.8 22.88C14.94 22.92 15.06 22.92 15.21 22.88C15.34 22.84 18.31 21.2 21.82 19.23L28.21 15.64L28.23 21.32C28.24 27.72 28.26 27.36 27.8 27.82C27.32 28.3 28.45 28.26 15 28.26C1.54 28.26 2.67 28.3 2.19 27.82C1.73 27.36 1.75 27.72 1.75 21.33C1.75 18.2 1.76 15.64 1.78 15.64C1.79 15.64 4.68 17.26 8.2 19.24C11.73 21.21 14.7 22.85 14.8 22.88Z" stroke="#000000" stroke-opacity="0" stroke-width="0.133333"/>
	<path id="path" d="M14.08 3.61C12.82 3.81 11.55 4.46 10.63 5.37C9.84 6.17 9.29 7.14 8.99 8.28C8.85 8.78 8.84 8.89 8.84 10.63C8.85 12.63 8.86 12.72 9.28 13.8C9.83 15.22 11.24 16.62 12.67 17.18C13.65 17.56 13.89 17.59 15.47 17.62C16.85 17.65 16.92 17.65 17.16 17.53C17.44 17.39 17.64 17.06 17.64 16.76C17.64 16.47 17.44 16.13 17.17 16C16.97 15.89 16.83 15.88 15.76 15.88C14.91 15.88 14.45 15.86 14.12 15.79C12.4 15.43 11.03 14.07 10.67 12.35C10.55 11.71 10.55 9.49 10.67 8.85C11.03 7.12 12.39 5.77 14.12 5.41C16.48 4.92 18.82 6.47 19.32 8.85C19.46 9.53 19.45 11.66 19.3 11.94C19.08 12.38 18.61 12.52 18.14 12.3C17.7 12.08 17.64 11.91 17.64 10.59C17.64 9.98 17.61 9.35 17.58 9.18C17.47 8.67 17.23 8.25 16.85 7.87C16.44 7.45 15.99 7.22 15.4 7.12C14.05 6.89 12.7 7.82 12.41 9.18C12.31 9.66 12.33 11.73 12.44 12.15C12.89 13.88 15.02 14.67 16.48 13.66L16.72 13.5L17.05 13.71C17.54 14.04 17.92 14.15 18.58 14.14C19.01 14.14 19.22 14.11 19.48 14.01C20.16 13.74 20.73 13.17 21.01 12.49C21.14 12.16 21.15 12.1 21.14 10.45C21.14 8.91 21.13 8.71 21.01 8.31C20.67 7.09 20.14 6.15 19.33 5.35C18.53 4.55 17.58 4.02 16.47 3.74C15.9 3.59 14.66 3.52 14.08 3.61ZM15.41 8.95C15.82 9.16 15.88 9.36 15.88 10.6C15.88 11.54 15.87 11.68 15.76 11.89C15.62 12.15 15.29 12.36 15 12.36C14.7 12.36 14.36 12.15 14.23 11.89C14.12 11.68 14.11 11.54 14.11 10.6C14.11 9.65 14.12 9.51 14.23 9.31C14.45 8.88 14.96 8.72 15.41 8.95Z" fill="url(#paint_linear_43_3530_0)" fill-opacity="1.000000" fill-rule="nonzero"/>
	<path id="path" d="M10.63 5.37C9.84 6.17 9.29 7.14 8.99 8.28C8.85 8.78 8.84 8.89 8.84 10.63C8.85 12.63 8.86 12.72 9.28 13.8C9.83 15.22 11.24 16.62 12.67 17.18C13.65 17.56 13.89 17.59 15.47 17.62C16.85 17.65 16.92 17.65 17.16 17.53C17.44 17.39 17.64 17.06 17.64 16.76C17.64 16.47 17.44 16.13 17.17 16C16.97 15.89 16.83 15.88 15.76 15.88C14.91 15.88 14.45 15.86 14.12 15.79C12.4 15.43 11.03 14.07 10.67 12.35C10.55 11.71 10.55 9.49 10.67 8.85C11.03 7.12 12.39 5.77 14.12 5.41C16.48 4.92 18.82 6.47 19.32 8.85C19.46 9.53 19.45 11.66 19.3 11.94C19.08 12.38 18.61 12.52 18.14 12.3C17.7 12.08 17.64 11.91 17.64 10.59C17.64 9.98 17.61 9.35 17.58 9.18C17.47 8.67 17.23 8.25 16.85 7.87C16.44 7.45 15.99 7.22 15.4 7.12C14.05 6.89 12.7 7.82 12.41 9.18C12.31 9.66 12.33 11.73 12.44 12.15C12.89 13.88 15.02 14.67 16.48 13.66L16.72 13.5L17.05 13.71C17.54 14.04 17.92 14.15 18.58 14.14C19.01 14.14 19.22 14.11 19.48 14.01C20.16 13.74 20.73 13.17 21.01 12.49C21.14 12.16 21.15 12.1 21.14 10.45C21.14 8.91 21.13 8.71 21.01 8.31C20.67 7.09 20.14 6.15 19.33 5.35C18.53 4.55 17.58 4.02 16.47 3.74C15.9 3.59 14.66 3.52 14.08 3.61C12.82 3.81 11.55 4.46 10.63 5.37ZM15.88 10.6C15.88 11.54 15.87 11.68 15.76 11.89C15.62 12.15 15.29 12.36 15 12.36C14.7 12.36 14.36 12.15 14.23 11.89C14.12 11.68 14.11 11.54 14.11 10.6C14.11 9.65 14.12 9.51 14.23 9.31C14.45 8.88 14.96 8.72 15.41 8.95C15.82 9.16 15.88 9.36 15.88 10.6Z" stroke="#000000" stroke-opacity="0" stroke-width="0.133333"/>
</svg>
