<svg width="30.000000" height="34.003418" viewBox="0 0 30 34.0034" fill="none" xmlns="http://www.w3.org/2000/svg" xmlns:xlink="http://www.w3.org/1999/xlink">
	<desc>
			Created with Pixso.
	</desc>
	<defs>
		<linearGradient x1="0.000002" y1="17.001669" x2="30.000002" y2="8.314695" id="paint_linear_43_3370_0" gradientUnits="userSpaceOnUse">
			<stop stop-color="#7D3172"/>
			<stop offset="0.690480" stop-color="#AE3C6F"/>
		</linearGradient>
		<linearGradient x1="10.031249" y1="11.002537" x2="19.974167" y2="8.469563" id="paint_linear_43_3371_0" gradientUnits="userSpaceOnUse">
			<stop stop-color="#7D3172"/>
			<stop offset="0.690480" stop-color="#AE3C6F"/>
		</linearGradient>
	</defs>
	<path id="path" d="M14.16 0.01C14.06 0.03 13.71 0.07 13.4 0.11C9.65 0.61 6.19 3.35 4.79 6.93C4.23 8.35 4.03 9.42 4.03 11.04C4.02 12.66 4.29 13.96 4.93 15.4C5.27 16.17 5.27 16.18 7.45 19.58C8.44 21.13 9.23 22.42 9.21 22.45C9.18 22.47 8.86 22.54 8.49 22.61C6.03 23.04 3.5 23.92 2.05 24.87C0.59 25.82 -0.18 27.2 0.03 28.45C0.26 29.76 1.33 30.91 3.15 31.8C7.92 34.14 16.63 34.69 23.19 33.07C26.04 32.38 28.26 31.26 29.23 30.06C30.53 28.43 30.16 26.52 28.27 25.1C26.9 24.07 24.19 23.07 21.5 22.61C21.14 22.54 20.82 22.47 20.79 22.45C20.76 22.42 21.61 21.04 22.68 19.38C23.75 17.72 24.75 16.08 24.91 15.76C25.31 14.92 25.58 14.12 25.79 13.14C25.94 12.41 25.97 12.14 25.97 11.11C25.97 10.45 25.93 9.67 25.88 9.38C25.13 4.64 21.5 0.95 16.8 0.14C16.24 0.04 14.54 -0.04 14.16 0.01ZM16.78 2.16C20.2 2.86 22.87 5.44 23.73 8.85C24.25 10.91 23.99 13.21 23.03 15.04C22.71 15.63 15.07 27.62 15 27.62C14.98 27.62 13.54 25.39 11.79 22.66C10.05 19.93 8.28 17.17 7.87 16.53C7.46 15.89 7.01 15.13 6.88 14.86C5.03 11.02 6.18 6.37 9.59 3.8C10.91 2.81 12.39 2.23 14.13 2.01C14.66 1.94 16.12 2.03 16.78 2.16ZM12.36 27.26C13.72 29.37 14.3 30.22 14.46 30.33C14.76 30.54 15.23 30.54 15.54 30.33C15.7 30.22 16.29 29.37 17.63 27.26L19.51 24.33L19.77 24.35C19.91 24.36 20.4 24.43 20.84 24.51C23.96 25.03 26.3 25.92 27.42 27.03C28.2 27.8 28.2 28.26 27.42 29.02C25.97 30.43 22.64 31.45 18.1 31.89C16.96 32 12.96 32 11.86 31.89C9.43 31.65 7.6 31.3 5.96 30.77C4.37 30.27 3.28 29.7 2.57 29.02C1.84 28.32 1.81 27.84 2.44 27.15C3.33 26.16 5.45 25.24 8.1 24.71C9.19 24.48 10.24 24.31 10.39 24.33C10.45 24.33 11.33 25.65 12.36 27.26Z" fill="url(#paint_linear_43_3370_0)" fill-opacity="1.000000" fill-rule="nonzero"/>
	<path id="path" d="M13.4 0.11C9.65 0.61 6.19 3.35 4.79 6.93C4.23 8.35 4.03 9.42 4.03 11.04C4.02 12.66 4.29 13.96 4.93 15.4C5.27 16.17 5.27 16.18 7.45 19.58C8.44 21.13 9.23 22.42 9.21 22.45C9.18 22.47 8.86 22.54 8.49 22.61C6.03 23.04 3.5 23.92 2.05 24.87C0.59 25.82 -0.18 27.2 0.03 28.45C0.26 29.76 1.33 30.91 3.15 31.8C7.92 34.14 16.63 34.69 23.19 33.07C26.04 32.38 28.26 31.26 29.23 30.06C30.53 28.43 30.16 26.52 28.27 25.1C26.9 24.07 24.19 23.07 21.5 22.61C21.14 22.54 20.82 22.47 20.79 22.45C20.76 22.42 21.61 21.04 22.68 19.38C23.75 17.72 24.75 16.08 24.91 15.76C25.31 14.92 25.58 14.12 25.79 13.14C25.94 12.41 25.97 12.14 25.97 11.11C25.97 10.45 25.93 9.67 25.88 9.38C25.13 4.64 21.5 0.95 16.8 0.14C16.24 0.04 14.54 -0.04 14.16 0.01C14.06 0.03 13.71 0.07 13.4 0.11ZM23.73 8.85C24.25 10.91 23.99 13.21 23.03 15.04C22.71 15.63 15.07 27.62 15 27.62C14.98 27.62 13.54 25.39 11.79 22.66C10.05 19.93 8.28 17.17 7.87 16.53C7.46 15.89 7.01 15.13 6.88 14.86C5.03 11.02 6.18 6.37 9.59 3.8C10.91 2.81 12.39 2.23 14.13 2.01C14.66 1.94 16.12 2.03 16.78 2.16C20.2 2.86 22.87 5.44 23.73 8.85ZM14.46 30.33C14.76 30.54 15.23 30.54 15.54 30.33C15.7 30.22 16.29 29.37 17.63 27.26L19.51 24.33L19.77 24.35C19.91 24.36 20.4 24.43 20.84 24.51C23.96 25.03 26.3 25.92 27.42 27.03C28.2 27.8 28.2 28.26 27.42 29.02C25.97 30.43 22.64 31.45 18.1 31.89C16.96 32 12.96 32 11.86 31.89C9.43 31.65 7.6 31.3 5.96 30.77C4.37 30.27 3.28 29.7 2.57 29.02C1.84 28.32 1.81 27.84 2.44 27.15C3.33 26.16 5.45 25.24 8.1 24.71C9.19 24.48 10.24 24.31 10.39 24.33C10.45 24.33 11.33 25.65 12.36 27.26C13.72 29.37 14.3 30.22 14.46 30.33Z" stroke="#000000" stroke-opacity="0" stroke-width="0.133333"/>
	<path id="path" d="M14.36 6.06C14.29 6.07 14.06 6.12 13.86 6.16C12.41 6.45 11 7.65 10.38 9.11C10.11 9.76 10.03 10.19 10.03 11.01C10.03 11.82 10.11 12.26 10.38 12.9C11 14.36 12.32 15.47 13.86 15.87C14.34 15.98 15.66 15.98 16.13 15.87C17.68 15.47 19 14.36 19.62 12.9C19.89 12.26 19.97 11.82 19.97 11.01C19.97 10.57 19.93 10.08 19.88 9.88C19.42 8.09 18.03 6.67 16.23 6.17C15.89 6.08 14.61 6 14.36 6.06ZM15.54 8.08C17.11 8.38 18.2 9.91 17.95 11.44C17.73 12.75 16.75 13.73 15.44 13.94C13.51 14.26 11.73 12.49 12.05 10.57C12.33 8.89 13.9 7.78 15.54 8.08Z" fill="url(#paint_linear_43_3371_0)" fill-opacity="1.000000" fill-rule="nonzero"/>
	<path id="path" d="M13.86 6.16C12.41 6.45 11 7.65 10.38 9.11C10.11 9.76 10.03 10.19 10.03 11.01C10.03 11.82 10.11 12.26 10.38 12.9C11 14.36 12.32 15.47 13.86 15.87C14.34 15.98 15.66 15.98 16.13 15.87C17.68 15.47 19 14.36 19.62 12.9C19.89 12.26 19.97 11.82 19.97 11.01C19.97 10.57 19.93 10.08 19.88 9.88C19.42 8.09 18.03 6.67 16.23 6.17C15.89 6.08 14.61 6 14.36 6.06C14.29 6.07 14.06 6.12 13.86 6.16ZM17.95 11.44C17.73 12.75 16.75 13.73 15.44 13.94C13.51 14.26 11.73 12.49 12.05 10.57C12.33 8.89 13.9 7.78 15.54 8.08C17.11 8.38 18.2 9.91 17.95 11.44Z" stroke="#000000" stroke-opacity="0" stroke-width="0.133333"/>
</svg>
