<svg width="30.013672" height="30.030273" viewBox="0 0 30.0137 30.0303" fill="none" xmlns="http://www.w3.org/2000/svg" xmlns:xlink="http://www.w3.org/1999/xlink">
	<desc>
			Created with Pixso.
	</desc>
	<defs>
		<linearGradient x1="0.000002" y1="15.010862" x2="22.454535" y2="7.341248" id="paint_linear_43_3492_0" gradientUnits="userSpaceOnUse">
			<stop stop-color="#7D3172"/>
			<stop offset="0.690480" stop-color="#AE3C6F"/>
		</linearGradient>
		<linearGradient x1="4.716797" y1="12.201721" x2="17.753933" y2="11.752174" id="paint_linear_43_3493_0" gradientUnits="userSpaceOnUse">
			<stop stop-color="#7D3172"/>
			<stop offset="0.690480" stop-color="#AE3C6F"/>
		</linearGradient>
		<linearGradient x1="4.716796" y1="15.953239" x2="17.747807" y2="15.503723" id="paint_linear_43_3494_0" gradientUnits="userSpaceOnUse">
			<stop stop-color="#7D3172"/>
			<stop offset="0.690480" stop-color="#AE3C6F"/>
		</linearGradient>
		<linearGradient x1="4.718750" y1="19.715839" x2="17.754169" y2="19.269772" id="paint_linear_43_3495_0" gradientUnits="userSpaceOnUse">
			<stop stop-color="#7D3172"/>
			<stop offset="0.690480" stop-color="#AE3C6F"/>
		</linearGradient>
		<linearGradient x1="4.720703" y1="23.517406" x2="12.111307" y2="23.069992" id="paint_linear_43_3496_0" gradientUnits="userSpaceOnUse">
			<stop stop-color="#7D3172"/>
			<stop offset="0.690480" stop-color="#AE3C6F"/>
		</linearGradient>
		<linearGradient x1="24.517578" y1="15.023875" x2="30.014082" y2="7.356670" id="paint_linear_43_3497_0" gradientUnits="userSpaceOnUse">
			<stop stop-color="#7D3172"/>
			<stop offset="0.690480" stop-color="#AE3C6F"/>
		</linearGradient>
	</defs>
	<path id="path" d="M6.17 0.08C6.08 0.12 4.66 1.5 3.02 3.14C0.49 5.68 0.04 6.15 0.01 6.33C0 6.44 -0.01 11.33 0 17.18C0.01 27.44 0.02 27.84 0.13 28.11C0.47 29 1.01 29.54 1.9 29.88C2.17 29.99 2.53 30 10.98 30.01C16.5 30.02 19.92 30.01 20.15 29.97C20.91 29.85 21.66 29.35 22.06 28.69C22.48 27.99 22.45 29.12 22.45 15.01C22.45 0.9 22.48 2.03 22.06 1.33C21.66 0.68 20.92 0.17 20.18 0.05C19.97 0.02 17.15 0 13.09 0C7.54 0 6.32 0.01 6.17 0.08ZM20.14 1.87C20.27 1.92 20.44 2.07 20.52 2.17L20.66 2.37L20.66 15.01L20.66 27.65L20.52 27.85C20.44 27.95 20.27 28.1 20.14 28.15C19.91 28.26 19.56 28.27 11.23 28.27C4 28.27 2.53 28.25 2.37 28.18C2.14 28.09 1.89 27.83 1.81 27.6C1.76 27.49 1.75 24.49 1.75 17.88L1.75 8.33L3.99 8.31C6.18 8.29 6.24 8.29 6.57 8.16C7.26 7.88 7.87 7.27 8.15 6.58C8.28 6.25 8.28 6.19 8.3 4L8.32 1.75L14.11 1.75C19.63 1.75 19.91 1.76 20.14 1.87ZM6.55 4.01C6.55 5.88 6.55 5.9 6.42 6.1C6.35 6.21 6.2 6.36 6.09 6.43C5.89 6.56 5.87 6.56 3.98 6.56L2.07 6.56L4.3 4.34C5.52 3.11 6.53 2.11 6.54 2.11C6.55 2.11 6.55 2.96 6.55 4.01Z" fill="url(#paint_linear_43_3492_0)" fill-opacity="1.000000" fill-rule="nonzero"/>
	<path id="path" d="M3.02 3.14C0.49 5.68 0.04 6.15 0.01 6.33C0 6.44 -0.01 11.33 0 17.18C0.01 27.44 0.02 27.84 0.13 28.11C0.47 29 1.01 29.54 1.9 29.88C2.17 29.99 2.53 30 10.98 30.01C16.5 30.02 19.92 30.01 20.15 29.97C20.91 29.85 21.66 29.35 22.06 28.69C22.48 27.99 22.45 29.12 22.45 15.01C22.45 0.9 22.48 2.03 22.06 1.33C21.66 0.68 20.92 0.17 20.18 0.05C19.97 0.02 17.15 0 13.09 0C7.54 0 6.32 0.01 6.17 0.08C6.08 0.12 4.66 1.5 3.02 3.14ZM20.52 2.17L20.66 2.37L20.66 15.01L20.66 27.65L20.52 27.85C20.44 27.95 20.27 28.1 20.14 28.15C19.91 28.26 19.56 28.27 11.23 28.27C4 28.27 2.53 28.25 2.37 28.18C2.14 28.09 1.89 27.83 1.81 27.6C1.76 27.49 1.75 24.49 1.75 17.88L1.75 8.33L3.99 8.31C6.18 8.29 6.24 8.29 6.57 8.16C7.26 7.88 7.87 7.27 8.15 6.58C8.28 6.25 8.28 6.19 8.3 4L8.32 1.75L14.11 1.75C19.63 1.75 19.91 1.76 20.14 1.87C20.27 1.92 20.44 2.07 20.52 2.17ZM6.42 6.1C6.35 6.21 6.2 6.36 6.09 6.43C5.89 6.56 5.87 6.56 3.98 6.56L2.07 6.56L4.3 4.34C5.52 3.11 6.53 2.11 6.54 2.11C6.55 2.11 6.55 2.96 6.55 4.01C6.55 5.88 6.55 5.9 6.42 6.1Z" stroke="#000000" stroke-opacity="0" stroke-width="0.133333"/>
	<path id="path" d="M5.14 11.44C4.7 11.7 4.57 12.3 4.88 12.7C5.19 13.09 4.84 13.08 11.23 13.08C16.9 13.08 17.02 13.08 17.26 12.96C17.9 12.65 17.92 11.74 17.28 11.42C17.09 11.32 16.69 11.32 11.22 11.32C5.38 11.32 5.35 11.32 5.14 11.44Z" fill="url(#paint_linear_43_3493_0)" fill-opacity="1.000000" fill-rule="nonzero"/>
	<path id="path" d="M4.88 12.7C5.19 13.09 4.84 13.08 11.23 13.08C16.9 13.08 17.02 13.08 17.26 12.96C17.9 12.65 17.92 11.74 17.28 11.42C17.09 11.32 16.69 11.32 11.22 11.32C5.38 11.32 5.35 11.32 5.14 11.44C4.7 11.7 4.57 12.3 4.88 12.7Z" stroke="#000000" stroke-opacity="0" stroke-width="0.133333"/>
	<path id="path" d="M5.26 15.13C4.52 15.43 4.53 16.48 5.28 16.76C5.39 16.81 7.3 16.83 11.26 16.83C16.82 16.83 17.09 16.82 17.29 16.72C17.57 16.56 17.71 16.35 17.74 16.02C17.77 15.67 17.62 15.38 17.31 15.2L17.08 15.07L11.25 15.07C7.52 15.07 5.36 15.1 5.26 15.13Z" fill="url(#paint_linear_43_3494_0)" fill-opacity="1.000000" fill-rule="nonzero"/>
	<path id="path" d="M5.28 16.76C5.39 16.81 7.3 16.83 11.26 16.83C16.82 16.83 17.09 16.82 17.29 16.72C17.57 16.56 17.71 16.35 17.74 16.02C17.77 15.67 17.62 15.38 17.31 15.2L17.08 15.07L11.25 15.07C7.52 15.07 5.36 15.1 5.26 15.13C4.52 15.43 4.53 16.48 5.28 16.76Z" stroke="#000000" stroke-opacity="0" stroke-width="0.133333"/>
	<path id="path" d="M5.29 18.91C4.74 19.11 4.54 19.73 4.88 20.25C5.11 20.6 4.82 20.58 11.26 20.58L17.15 20.58L17.35 20.45C17.89 20.09 17.88 19.39 17.33 18.98C17.16 18.85 17.15 18.85 11.35 18.84C6.44 18.83 5.49 18.84 5.29 18.91Z" fill="url(#paint_linear_43_3495_0)" fill-opacity="1.000000" fill-rule="nonzero"/>
	<path id="path" d="M4.88 20.25C5.11 20.6 4.82 20.58 11.26 20.58L17.15 20.58L17.35 20.45C17.89 20.09 17.88 19.39 17.33 18.98C17.16 18.85 17.15 18.85 11.35 18.84C6.44 18.83 5.49 18.84 5.29 18.91C4.74 19.11 4.54 19.73 4.88 20.25Z" stroke="#000000" stroke-opacity="0" stroke-width="0.133333"/>
	<path id="path" d="M5.08 22.78C4.57 23.13 4.6 23.93 5.15 24.25C5.35 24.36 5.46 24.37 8.27 24.38C10.31 24.4 11.26 24.38 11.43 24.33C11.76 24.25 12.04 23.94 12.1 23.64C12.15 23.32 11.97 22.92 11.7 22.75C11.52 22.64 11.42 22.64 8.4 22.64L5.29 22.64L5.08 22.78Z" fill="url(#paint_linear_43_3496_0)" fill-opacity="1.000000" fill-rule="nonzero"/>
	<path id="path" d="M5.15 24.25C5.35 24.36 5.46 24.37 8.27 24.38C10.31 24.4 11.26 24.38 11.43 24.33C11.76 24.25 12.04 23.94 12.1 23.64C12.15 23.32 11.97 22.92 11.7 22.75C11.52 22.64 11.42 22.64 8.4 22.64L5.29 22.64L5.08 22.78C4.57 23.13 4.6 23.93 5.15 24.25Z" stroke="#000000" stroke-opacity="0" stroke-width="0.133333"/>
	<path id="path" d="M26.63 0.09C25.62 0.31 24.77 1.18 24.56 2.2C24.52 2.4 24.5 5.67 24.52 12.7C24.54 23.79 24.52 23.15 24.86 24.84C25.16 26.3 25.68 27.89 26.3 29.18C26.57 29.75 26.73 29.92 27.07 30C27.45 30.1 27.87 29.85 28.1 29.39C28.89 27.84 29.52 25.78 29.81 23.87C30.01 22.5 30.02 21.78 30 11.93C29.99 2.57 29.98 2.18 29.87 1.91C29.33 0.51 28.01 -0.23 26.63 0.09ZM27.59 1.82C27.82 1.9 28.08 2.16 28.17 2.38C28.23 2.53 28.25 2.87 28.25 3.63L28.25 4.69L27.26 4.69L26.26 4.69L26.26 3.59C26.26 2.54 26.27 2.49 26.41 2.26C26.64 1.85 27.16 1.66 27.59 1.82ZM28.25 13.58L28.25 20.7L27.26 20.7L26.26 20.7L26.26 13.58L26.26 6.45L27.26 6.45L28.25 6.45L28.25 13.58ZM28.2 22.54C28.2 22.75 28.01 24.02 27.9 24.57C27.79 25.15 27.45 26.38 27.31 26.72C27.25 26.88 27.24 26.87 27.08 26.36C26.72 25.25 26.44 23.94 26.34 22.88L26.3 22.46L27.25 22.46C28.04 22.46 28.2 22.47 28.2 22.54Z" fill="url(#paint_linear_43_3497_0)" fill-opacity="1.000000" fill-rule="nonzero"/>
	<path id="path" d="M24.56 2.2C24.52 2.4 24.5 5.67 24.52 12.7C24.54 23.79 24.52 23.15 24.86 24.84C25.16 26.3 25.68 27.89 26.3 29.18C26.57 29.75 26.73 29.92 27.07 30C27.45 30.1 27.87 29.85 28.1 29.39C28.89 27.84 29.52 25.78 29.81 23.87C30.01 22.5 30.02 21.78 30 11.93C29.99 2.57 29.98 2.18 29.87 1.91C29.33 0.51 28.01 -0.23 26.63 0.09C25.62 0.31 24.77 1.18 24.56 2.2ZM28.17 2.38C28.23 2.53 28.25 2.87 28.25 3.63L28.25 4.69L27.26 4.69L26.26 4.69L26.26 3.59C26.26 2.54 26.27 2.49 26.41 2.26C26.64 1.85 27.16 1.66 27.59 1.82C27.82 1.9 28.08 2.16 28.17 2.38ZM28.25 20.7L27.26 20.7L26.26 20.7L26.26 13.58L26.26 6.45L27.26 6.45L28.25 6.45L28.25 13.58L28.25 20.7ZM27.9 24.57C27.79 25.15 27.45 26.38 27.31 26.72C27.25 26.88 27.24 26.87 27.08 26.36C26.72 25.25 26.44 23.94 26.34 22.88L26.3 22.46L27.25 22.46C28.04 22.46 28.2 22.47 28.2 22.54C28.2 22.75 28.01 24.02 27.9 24.57Z" stroke="#000000" stroke-opacity="0" stroke-width="0.133333"/>
</svg>
