<svg width="30.029297" height="29.992188" viewBox="0 0 30.0293 29.9922" fill="none" xmlns="http://www.w3.org/2000/svg" xmlns:xlink="http://www.w3.org/1999/xlink">
	<desc>
			Created with Pixso.
	</desc>
	<defs>
		<linearGradient x1="0.000001" y1="14.996280" x2="30.029667" y2="7.334180" id="paint_linear_43_3539_0" gradientUnits="userSpaceOnUse">
			<stop stop-color="#7D3172"/>
			<stop offset="0.690480" stop-color="#AE3C6F"/>
		</linearGradient>
		<linearGradient x1="3.933594" y1="17.271385" x2="9.787683" y2="16.765129" id="paint_linear_43_3540_0" gradientUnits="userSpaceOnUse">
			<stop stop-color="#7D3172"/>
			<stop offset="0.690480" stop-color="#AE3C6F"/>
		</linearGradient>
		<linearGradient x1="12.089844" y1="17.274525" x2="17.940903" y2="16.767126" id="paint_linear_43_3541_0" gradientUnits="userSpaceOnUse">
			<stop stop-color="#7D3172"/>
			<stop offset="0.690480" stop-color="#AE3C6F"/>
		</linearGradient>
		<linearGradient x1="20.238281" y1="17.281855" x2="26.094452" y2="16.778204" id="paint_linear_43_3542_0" gradientUnits="userSpaceOnUse">
			<stop stop-color="#7D3172"/>
			<stop offset="0.690480" stop-color="#AE3C6F"/>
		</linearGradient>
		<linearGradient x1="3.957031" y1="21.165020" x2="9.777783" y2="20.671280" id="paint_linear_43_3543_0" gradientUnits="userSpaceOnUse">
			<stop stop-color="#7D3172"/>
			<stop offset="0.690480" stop-color="#AE3C6F"/>
		</linearGradient>
		<linearGradient x1="12.095703" y1="21.165024" x2="17.933746" y2="20.671284" id="paint_linear_43_3544_0" gradientUnits="userSpaceOnUse">
			<stop stop-color="#7D3172"/>
			<stop offset="0.690480" stop-color="#AE3C6F"/>
		</linearGradient>
		<linearGradient x1="20.248047" y1="21.165022" x2="26.068798" y2="20.671282" id="paint_linear_43_3545_0" gradientUnits="userSpaceOnUse">
			<stop stop-color="#7D3172"/>
			<stop offset="0.690480" stop-color="#AE3C6F"/>
		</linearGradient>
		<linearGradient x1="3.927734" y1="25.075901" x2="9.792086" y2="24.590763" id="paint_linear_43_3546_0" gradientUnits="userSpaceOnUse">
			<stop stop-color="#7D3172"/>
			<stop offset="0.690480" stop-color="#AE3C6F"/>
		</linearGradient>
		<linearGradient x1="12.093750" y1="25.096388" x2="17.937479" y2="24.606747" id="paint_linear_43_3547_0" gradientUnits="userSpaceOnUse">
			<stop stop-color="#7D3172"/>
			<stop offset="0.690480" stop-color="#AE3C6F"/>
		</linearGradient>
		<linearGradient x1="20.234375" y1="25.077690" x2="26.070099" y2="24.593216" id="paint_linear_43_3548_0" gradientUnits="userSpaceOnUse">
			<stop stop-color="#7D3172"/>
			<stop offset="0.690480" stop-color="#AE3C6F"/>
		</linearGradient>
	</defs>
	<path id="path" d="M6.15 0.08C5.68 0.21 5.25 0.45 4.88 0.79C4.2 1.4 3.92 2.1 3.92 3.22L3.92 3.91L3.23 3.91C2.43 3.91 1.92 4.03 1.41 4.33C1.02 4.57 0.55 5.08 0.33 5.51C-0.03 6.21 0 5.52 0 16.94C0 25.99 0.01 27.41 0.08 27.71C0.36 28.78 1.19 29.6 2.26 29.89C2.77 30.02 27.25 30.02 27.75 29.89C28.83 29.6 29.66 28.78 29.94 27.71C30.01 27.41 30.02 25.99 30.02 16.94C30.02 5.52 30.05 6.21 29.68 5.51C29.47 5.08 29 4.57 28.6 4.33C28.09 4.03 27.58 3.91 26.79 3.91L26.09 3.91L26.09 3.22C26.09 2.1 25.82 1.4 25.15 0.79C23.95 -0.29 22.24 -0.26 21.11 0.87C20.49 1.49 20.23 2.19 20.23 3.28L20.23 3.91L15.01 3.91L9.79 3.91L9.79 3.28C9.79 2.19 9.53 1.49 8.91 0.87C8.18 0.14 7.1 -0.17 6.15 0.08ZM7.4 2.13C7.83 2.41 7.83 2.38 7.83 4.88C7.83 7.1 7.83 7.1 7.69 7.32C7.5 7.63 7.22 7.78 6.87 7.79C6.42 7.79 6.12 7.6 5.95 7.17C5.88 7 5.86 6.62 5.86 4.86C5.86 2.81 5.86 2.76 6 2.51C6.28 1.95 6.86 1.79 7.4 2.13ZM23.63 2.07C23.83 2.17 23.96 2.33 24.07 2.58C24.2 2.9 24.2 6.86 24.07 7.17C23.9 7.6 23.6 7.79 23.15 7.79C22.8 7.78 22.52 7.63 22.33 7.32C22.19 7.1 22.19 7.1 22.19 4.88C22.19 2.88 22.21 2.64 22.29 2.47C22.55 2 23.15 1.83 23.63 2.07ZM3.92 6.54C3.92 7.63 4.15 8.25 4.81 8.89C5.95 10.04 7.75 10.04 8.91 8.89C9.53 8.27 9.79 7.57 9.79 6.47L9.79 5.85L15.01 5.85L20.23 5.85L20.23 6.47C20.23 7.57 20.49 8.27 21.11 8.89C22.26 10.04 24.07 10.04 25.22 8.89C25.87 8.25 26.09 7.63 26.09 6.54L26.09 5.85L26.67 5.85C27.15 5.85 27.29 5.87 27.5 5.97C27.81 6.13 27.96 6.33 28.03 6.64C28.06 6.76 28.09 8.1 28.09 9.6L28.09 12.35L15.01 12.35L1.93 12.35L1.93 9.6C1.93 8.1 1.96 6.76 1.99 6.64C2.06 6.33 2.21 6.13 2.52 5.97C2.74 5.87 2.87 5.85 3.35 5.85L3.92 5.85L3.92 6.54ZM28.08 20.82C28.06 27.19 28.06 27.32 27.94 27.51C27.79 27.77 27.58 27.92 27.29 27.98C26.99 28.06 3.03 28.06 2.73 27.98C2.44 27.92 2.23 27.77 2.08 27.51C1.96 27.32 1.96 27.19 1.94 20.82L1.93 14.34L15.01 14.34L28.09 14.34L28.08 20.82Z" fill="url(#paint_linear_43_3539_0)" fill-opacity="1.000000" fill-rule="nonzero"/>
	<path id="path" d="M4.88 0.79C4.2 1.4 3.92 2.1 3.92 3.22L3.92 3.91L3.23 3.91C2.43 3.91 1.92 4.03 1.41 4.33C1.02 4.57 0.55 5.08 0.33 5.51C-0.03 6.21 0 5.52 0 16.94C0 25.99 0.01 27.41 0.08 27.71C0.36 28.78 1.19 29.6 2.26 29.89C2.77 30.02 27.25 30.02 27.75 29.89C28.83 29.6 29.66 28.78 29.94 27.71C30.01 27.41 30.02 25.99 30.02 16.94C30.02 5.52 30.05 6.21 29.68 5.51C29.47 5.08 29 4.57 28.6 4.33C28.09 4.03 27.58 3.91 26.79 3.91L26.09 3.91L26.09 3.22C26.09 2.1 25.82 1.4 25.15 0.79C23.95 -0.29 22.24 -0.26 21.11 0.87C20.49 1.49 20.23 2.19 20.23 3.28L20.23 3.91L15.01 3.91L9.79 3.91L9.79 3.28C9.79 2.19 9.53 1.49 8.91 0.87C8.18 0.14 7.1 -0.17 6.15 0.08C5.68 0.21 5.25 0.45 4.88 0.79ZM7.83 4.88C7.83 7.1 7.83 7.1 7.69 7.32C7.5 7.63 7.22 7.78 6.87 7.79C6.42 7.79 6.12 7.6 5.95 7.17C5.88 7 5.86 6.62 5.86 4.86C5.86 2.81 5.86 2.76 6 2.51C6.28 1.95 6.86 1.79 7.4 2.13C7.83 2.41 7.83 2.38 7.83 4.88ZM24.07 2.58C24.2 2.9 24.2 6.86 24.07 7.17C23.9 7.6 23.6 7.79 23.15 7.79C22.8 7.78 22.52 7.63 22.33 7.32C22.19 7.1 22.19 7.1 22.19 4.88C22.19 2.88 22.21 2.64 22.29 2.47C22.55 2 23.15 1.83 23.63 2.07C23.83 2.17 23.96 2.33 24.07 2.58ZM4.81 8.89C5.95 10.04 7.75 10.04 8.91 8.89C9.53 8.27 9.79 7.57 9.79 6.47L9.79 5.85L15.01 5.85L20.23 5.85L20.23 6.47C20.23 7.57 20.49 8.27 21.11 8.89C22.26 10.04 24.07 10.04 25.22 8.89C25.87 8.25 26.09 7.63 26.09 6.54L26.09 5.85L26.67 5.85C27.15 5.85 27.29 5.87 27.5 5.97C27.81 6.13 27.96 6.33 28.03 6.64C28.06 6.76 28.09 8.1 28.09 9.6L28.09 12.35L15.01 12.35L1.93 12.35L1.93 9.6C1.93 8.1 1.96 6.76 1.99 6.64C2.06 6.33 2.21 6.13 2.52 5.97C2.74 5.87 2.87 5.85 3.35 5.85L3.92 5.85L3.92 6.54C3.92 7.63 4.15 8.25 4.81 8.89ZM27.94 27.51C27.79 27.77 27.58 27.92 27.29 27.98C26.99 28.06 3.03 28.06 2.73 27.98C2.44 27.92 2.23 27.77 2.08 27.51C1.96 27.32 1.96 27.19 1.94 20.82L1.93 14.34L15.01 14.34L28.09 14.34L28.08 20.82C28.06 27.19 28.06 27.32 27.94 27.51Z" stroke="#000000" stroke-opacity="0" stroke-width="0.133333"/>
	<path id="path" d="M4.62 16.33C4.37 16.41 4.19 16.55 4.06 16.79C3.8 17.24 3.94 17.79 4.38 18.09L4.59 18.23L6.69 18.25C9.04 18.27 9.16 18.26 9.5 17.92C9.74 17.68 9.83 17.4 9.76 17.04C9.71 16.77 9.3 16.36 9.03 16.31C8.76 16.25 4.81 16.27 4.62 16.33Z" fill="url(#paint_linear_43_3540_0)" fill-opacity="1.000000" fill-rule="nonzero"/>
	<path id="path" d="M4.06 16.79C3.8 17.24 3.94 17.79 4.38 18.09L4.59 18.23L6.69 18.25C9.04 18.27 9.16 18.26 9.5 17.92C9.74 17.68 9.83 17.4 9.76 17.04C9.71 16.77 9.3 16.36 9.03 16.31C8.76 16.25 4.81 16.27 4.62 16.33C4.37 16.41 4.19 16.55 4.06 16.79Z" stroke="#000000" stroke-opacity="0" stroke-width="0.133333"/>
	<path id="path" d="M12.75 16.33C12.5 16.4 12.15 16.8 12.1 17.05C12.01 17.56 12.33 18.06 12.81 18.2C13.13 18.28 16.89 18.28 17.21 18.2C17.7 18.06 18.01 17.56 17.92 17.05C17.87 16.78 17.52 16.4 17.25 16.33C16.98 16.26 13 16.26 12.75 16.33Z" fill="url(#paint_linear_43_3541_0)" fill-opacity="1.000000" fill-rule="nonzero"/>
	<path id="path" d="M12.1 17.05C12.01 17.56 12.33 18.06 12.81 18.2C13.13 18.28 16.89 18.28 17.21 18.2C17.7 18.06 18.01 17.56 17.92 17.05C17.87 16.78 17.52 16.4 17.25 16.33C16.98 16.26 13 16.26 12.75 16.33C12.5 16.4 12.15 16.8 12.1 17.05Z" stroke="#000000" stroke-opacity="0" stroke-width="0.133333"/>
	<path id="path" d="M20.94 16.31C20.87 16.32 20.69 16.45 20.55 16.58C20.27 16.85 20.19 17.11 20.26 17.48C20.31 17.76 20.66 18.11 20.96 18.2C21.27 18.28 25.01 18.28 25.35 18.2C26.19 17.99 26.36 16.88 25.62 16.43C25.42 16.3 25.38 16.3 23.25 16.29C22.06 16.29 21.02 16.29 20.94 16.31Z" fill="url(#paint_linear_43_3542_0)" fill-opacity="1.000000" fill-rule="nonzero"/>
	<path id="path" d="M20.55 16.58C20.27 16.85 20.19 17.11 20.26 17.48C20.31 17.76 20.66 18.11 20.96 18.2C21.27 18.28 25.01 18.28 25.35 18.2C26.19 17.99 26.36 16.88 25.62 16.43C25.42 16.3 25.38 16.3 23.25 16.29C22.06 16.29 21.02 16.29 20.94 16.31C20.87 16.32 20.69 16.45 20.55 16.58Z" stroke="#000000" stroke-opacity="0" stroke-width="0.133333"/>
	<path id="path" d="M4.47 20.31C4.11 20.47 3.95 20.73 3.95 21.17C3.95 21.58 4.05 21.76 4.39 21.99C4.58 22.13 4.6 22.13 6.84 22.13C9.33 22.13 9.3 22.13 9.58 21.75C9.93 21.29 9.78 20.6 9.26 20.33C9.01 20.19 8.99 20.19 6.86 20.19C4.9 20.19 4.7 20.21 4.47 20.31Z" fill="url(#paint_linear_43_3543_0)" fill-opacity="1.000000" fill-rule="nonzero"/>
	<path id="path" d="M3.95 21.17C3.95 21.58 4.05 21.76 4.39 21.99C4.58 22.13 4.6 22.13 6.84 22.13C9.33 22.13 9.3 22.13 9.58 21.75C9.93 21.29 9.78 20.6 9.26 20.33C9.01 20.19 8.99 20.19 6.86 20.19C4.9 20.19 4.7 20.21 4.47 20.31C4.11 20.47 3.95 20.73 3.95 21.17Z" stroke="#000000" stroke-opacity="0" stroke-width="0.133333"/>
	<path id="path" d="M12.6 20.33C12.25 20.51 12.06 20.87 12.09 21.27C12.12 21.58 12.26 21.8 12.55 21.99C12.74 22.13 12.75 22.13 15.01 22.13C17.27 22.13 17.28 22.13 17.47 21.99C17.76 21.8 17.9 21.58 17.92 21.27C17.96 20.87 17.77 20.51 17.41 20.33C17.16 20.19 17.15 20.19 15.01 20.19C12.87 20.19 12.86 20.19 12.6 20.33Z" fill="url(#paint_linear_43_3544_0)" fill-opacity="1.000000" fill-rule="nonzero"/>
	<path id="path" d="M12.09 21.27C12.12 21.58 12.26 21.8 12.55 21.99C12.74 22.13 12.75 22.13 15.01 22.13C17.27 22.13 17.28 22.13 17.47 21.99C17.76 21.8 17.9 21.58 17.92 21.27C17.96 20.87 17.77 20.51 17.41 20.33C17.16 20.19 17.15 20.19 15.01 20.19C12.87 20.19 12.86 20.19 12.6 20.33C12.25 20.51 12.06 20.87 12.09 21.27Z" stroke="#000000" stroke-opacity="0" stroke-width="0.133333"/>
	<path id="path" d="M20.76 20.33C20.23 20.6 20.08 21.29 20.43 21.75C20.72 22.13 20.69 22.13 23.18 22.13C25.42 22.13 25.43 22.13 25.62 21.99C25.96 21.76 26.06 21.58 26.06 21.17C26.06 20.73 25.91 20.47 25.54 20.31C25.32 20.21 25.12 20.19 23.16 20.19C21.03 20.19 21.01 20.19 20.76 20.33Z" fill="url(#paint_linear_43_3545_0)" fill-opacity="1.000000" fill-rule="nonzero"/>
	<path id="path" d="M20.43 21.75C20.72 22.13 20.69 22.13 23.18 22.13C25.42 22.13 25.43 22.13 25.62 21.99C25.96 21.76 26.06 21.58 26.06 21.17C26.06 20.73 25.91 20.47 25.54 20.31C25.32 20.21 25.12 20.19 23.16 20.19C21.03 20.19 21.01 20.19 20.76 20.33C20.23 20.6 20.08 21.29 20.43 21.75Z" stroke="#000000" stroke-opacity="0" stroke-width="0.133333"/>
	<path id="path" d="M4.48 24.2C4.23 24.3 3.99 24.6 3.95 24.85C3.86 25.28 4 25.64 4.36 25.9C4.51 26.01 4.58 26.02 6.84 26.02L9.17 26.02L9.37 25.88C9.59 25.72 9.78 25.35 9.79 25.08C9.79 24.79 9.55 24.4 9.29 24.25C9.06 24.12 9.02 24.12 6.85 24.12C5.16 24.12 4.61 24.14 4.48 24.2Z" fill="url(#paint_linear_43_3546_0)" fill-opacity="1.000000" fill-rule="nonzero"/>
	<path id="path" d="M3.95 24.85C3.86 25.28 4 25.64 4.36 25.9C4.51 26.01 4.58 26.02 6.84 26.02L9.17 26.02L9.37 25.88C9.59 25.72 9.78 25.35 9.79 25.08C9.79 24.79 9.55 24.4 9.29 24.25C9.06 24.12 9.02 24.12 6.85 24.12C5.16 24.12 4.61 24.14 4.48 24.2C4.23 24.3 3.99 24.6 3.95 24.85Z" stroke="#000000" stroke-opacity="0" stroke-width="0.133333"/>
	<path id="path" d="M12.72 24.16C12.12 24.39 11.9 25.17 12.27 25.66C12.57 26.05 12.58 26.05 15.01 26.05C17.44 26.05 17.45 26.05 17.75 25.66C18.07 25.24 17.96 24.6 17.52 24.28L17.33 24.15L15.07 24.13C13.83 24.13 12.77 24.14 12.72 24.16Z" fill="url(#paint_linear_43_3547_0)" fill-opacity="1.000000" fill-rule="nonzero"/>
	<path id="path" d="M12.27 25.66C12.57 26.05 12.58 26.05 15.01 26.05C17.44 26.05 17.45 26.05 17.75 25.66C18.07 25.24 17.96 24.6 17.52 24.28L17.33 24.15L15.07 24.13C13.83 24.13 12.77 24.14 12.72 24.16C12.12 24.39 11.9 25.17 12.27 25.66Z" stroke="#000000" stroke-opacity="0" stroke-width="0.133333"/>
	<path id="path" d="M20.73 24.25C20.46 24.4 20.23 24.79 20.23 25.08C20.24 25.35 20.43 25.72 20.65 25.88L20.84 26.02L23.17 26.02C25.43 26.02 25.5 26.02 25.66 25.9C25.98 25.66 26.07 25.49 26.07 25.08C26.07 24.68 25.98 24.5 25.66 24.27C25.51 24.15 25.42 24.15 23.23 24.13C20.97 24.12 20.96 24.12 20.73 24.25Z" fill="url(#paint_linear_43_3548_0)" fill-opacity="1.000000" fill-rule="nonzero"/>
	<path id="path" d="M20.23 25.08C20.24 25.35 20.43 25.72 20.65 25.88L20.84 26.02L23.17 26.02C25.43 26.02 25.5 26.02 25.66 25.9C25.98 25.66 26.07 25.49 26.07 25.08C26.07 24.68 25.98 24.5 25.66 24.27C25.51 24.15 25.42 24.15 23.23 24.13C20.97 24.12 20.96 24.12 20.73 24.25C20.46 24.4 20.23 24.79 20.23 25.08Z" stroke="#000000" stroke-opacity="0" stroke-width="0.133333"/>
</svg>
