<svg width="49.000000" height="49.000000" viewBox="0 0 49 49" fill="none" xmlns="http://www.w3.org/2000/svg" xmlns:xlink="http://www.w3.org/1999/xlink">
	<desc>
			Created with Pixso.
	</desc>
	<defs>
		<clipPath id="clip317_15095">
			<rect id="иконка-светодиодный-экран" width="49.000000" height="49.000000" fill="white" fill-opacity="0"/>
		</clipPath>
	</defs>
	<g clip-path="url(#clip317_15095)">
		<path id="path" d="M0.21 3.47L0 3.69L0 19.15C0 37.11 -0.17 35.01 1.19 35.01L2 35.01L2 40.12L2 45.25L2.24 45.48C2.46 45.71 2.53 45.72 3.66 45.72C5.3 45.72 5.29 45.74 5.35 44.15L5.4 42.95L6.86 44.05C7.66 44.66 8.32 45.21 8.32 45.29C8.32 45.61 8.71 45.72 9.94 45.72C11.08 45.72 11.17 45.71 11.36 45.5L11.57 45.28L11.57 40.14L11.57 35.01L24.39 35.01L37.2 35.01L37.23 40.18L37.25 45.36L37.48 45.54C37.67 45.69 37.87 45.72 38.88 45.72C40.51 45.72 40.49 45.74 40.55 44.14L40.6 42.93L42.06 44.02C42.86 44.61 43.51 45.15 43.52 45.21C43.52 45.28 43.61 45.42 43.71 45.53C43.88 45.7 44.03 45.72 45.13 45.72C46.03 45.72 46.4 45.68 46.54 45.58C46.71 45.45 46.72 45.26 46.77 40.25L46.82 35.05L47.76 35.01C48.55 34.97 48.72 34.93 48.84 34.78C48.95 34.61 48.97 32.31 48.97 19.12L48.97 3.64L48.72 3.45L48.46 3.25L24.44 3.25L0.41 3.25L0.21 3.47ZM47.63 19.13L47.63 33.67L24.48 33.67L1.33 33.67L1.33 19.13L1.33 4.59L24.48 4.59L47.63 4.59L47.63 19.13ZM3.99 39.71L4.01 44.38L3.68 44.38L3.34 44.38L3.34 39.68L3.34 35L3.66 35.02L3.97 35.05L3.99 39.71ZM8.22 35.97C8.22 36.5 8.18 36.92 8.15 36.9C7.96 36.83 5.74 35.15 5.73 35.07C5.73 35.03 6.3 35.01 6.98 35.01L8.22 35.01L8.22 35.97ZM10.23 39.69L10.23 44.38L9.9 44.38L9.56 44.38L9.56 39.76C9.56 37.21 9.59 35.1 9.63 35.07C9.66 35.03 9.81 35.01 9.96 35.01L10.23 35.01L10.23 39.69ZM39.21 39.69L39.21 44.38L38.88 44.38L38.55 44.38L38.55 39.76C38.55 37.21 38.57 35.1 38.61 35.07C38.64 35.03 38.79 35.01 38.95 35.01L39.21 35.01L39.21 39.69ZM43.48 35.13C43.51 35.21 43.51 35.66 43.5 36.13L43.47 37L42.32 36.14C40.67 34.9 40.68 35.01 42.16 35.01C43.13 35.01 43.44 35.03 43.48 35.13ZM45.43 39.69L45.43 44.38L45.15 44.38L44.86 44.38L44.86 39.69L44.86 35.01L45.15 35.01L45.43 35.01L45.43 39.69ZM6.91 37.68C7.37 38.02 7.74 38.32 7.74 38.36C7.74 38.42 5.8 39.91 5.48 40.11C5.38 40.17 5.35 39.79 5.35 38.35L5.35 36.52L5.72 36.79C5.92 36.94 6.45 37.34 6.91 37.68ZM41.87 37.47C42.46 37.92 42.95 38.31 42.95 38.35C42.95 38.41 41.03 39.89 40.68 40.11C40.58 40.17 40.55 39.79 40.55 38.35C40.55 36.92 40.58 36.54 40.68 36.59C40.74 36.63 41.28 37.03 41.87 37.47ZM8.18 43.3C8.16 43.33 7.62 42.94 6.98 42.47C6.34 41.98 5.85 41.55 5.9 41.51C5.94 41.46 6.47 41.05 7.07 40.6L8.17 39.78L8.2 41.52C8.21 42.48 8.2 43.28 8.18 43.3ZM43.52 41.62L43.52 43.44L43.21 43.21C43.04 43.08 42.48 42.66 41.96 42.27C41.44 41.89 41.06 41.54 41.1 41.5C41.29 41.31 43.37 39.79 43.44 39.79C43.48 39.79 43.52 40.61 43.52 41.62Z" fill="#FFFFFF" fill-opacity="1.000000" fill-rule="nonzero"/>
		<path id="path" d="M0 3.69L0 19.15C0 37.11 -0.17 35.01 1.19 35.01L2 35.01L2 40.12L2 45.25L2.24 45.48C2.46 45.71 2.53 45.72 3.66 45.72C5.3 45.72 5.29 45.74 5.35 44.15L5.4 42.95L6.86 44.05C7.66 44.66 8.32 45.21 8.32 45.29C8.32 45.61 8.71 45.72 9.94 45.72C11.08 45.72 11.17 45.71 11.36 45.5L11.57 45.28L11.57 40.14L11.57 35.01L24.39 35.01L37.2 35.01L37.23 40.18L37.25 45.36L37.48 45.54C37.67 45.69 37.87 45.72 38.88 45.72C40.51 45.72 40.49 45.74 40.55 44.14L40.6 42.93L42.06 44.02C42.86 44.61 43.51 45.15 43.52 45.21C43.52 45.28 43.61 45.42 43.71 45.53C43.88 45.7 44.03 45.72 45.13 45.72C46.03 45.72 46.4 45.68 46.54 45.58C46.71 45.45 46.72 45.26 46.77 40.25L46.82 35.05L47.76 35.01C48.55 34.97 48.72 34.93 48.84 34.78C48.95 34.61 48.97 32.31 48.97 19.12L48.97 3.64L48.72 3.45L48.46 3.25L24.44 3.25L0.41 3.25L0.21 3.47L0 3.69ZM47.63 33.67L24.48 33.67L1.33 33.67L1.33 19.13L1.33 4.59L24.48 4.59L47.63 4.59L47.63 19.13L47.63 33.67ZM4.01 44.38L3.68 44.38L3.34 44.38L3.34 39.68L3.34 35L3.66 35.02L3.97 35.05L3.99 39.71L4.01 44.38ZM8.15 36.9C7.96 36.83 5.74 35.15 5.73 35.07C5.73 35.03 6.3 35.01 6.98 35.01L8.22 35.01L8.22 35.97C8.22 36.5 8.18 36.92 8.15 36.9ZM10.23 44.38L9.9 44.38L9.56 44.38L9.56 39.76C9.56 37.21 9.59 35.1 9.63 35.07C9.66 35.03 9.81 35.01 9.96 35.01L10.23 35.01L10.23 39.69L10.23 44.38ZM39.21 44.38L38.88 44.38L38.55 44.38L38.55 39.76C38.55 37.21 38.57 35.1 38.61 35.07C38.64 35.03 38.79 35.01 38.95 35.01L39.21 35.01L39.21 39.69L39.21 44.38ZM43.5 36.13L43.47 37L42.32 36.14C40.67 34.9 40.68 35.01 42.16 35.01C43.13 35.01 43.44 35.03 43.48 35.13C43.51 35.21 43.51 35.66 43.5 36.13ZM45.43 44.38L45.15 44.38L44.86 44.38L44.86 39.69L44.86 35.01L45.15 35.01L45.43 35.01L45.43 39.69L45.43 44.38ZM7.74 38.36C7.74 38.42 5.8 39.91 5.48 40.11C5.38 40.17 5.35 39.79 5.35 38.35L5.35 36.52L5.72 36.79C5.92 36.94 6.45 37.34 6.91 37.68C7.37 38.02 7.74 38.32 7.74 38.36ZM42.95 38.35C42.95 38.41 41.03 39.89 40.68 40.11C40.58 40.17 40.55 39.79 40.55 38.35C40.55 36.92 40.58 36.54 40.68 36.59C40.74 36.63 41.28 37.03 41.87 37.47C42.46 37.92 42.95 38.31 42.95 38.35ZM6.98 42.47C6.34 41.98 5.85 41.55 5.9 41.51C5.94 41.46 6.47 41.05 7.07 40.6L8.17 39.78L8.2 41.52C8.21 42.48 8.2 43.28 8.18 43.3C8.16 43.33 7.62 42.94 6.98 42.47ZM43.52 43.44L43.21 43.21C43.04 43.08 42.48 42.66 41.96 42.27C41.44 41.89 41.06 41.54 41.1 41.5C41.29 41.31 43.37 39.79 43.44 39.79C43.48 39.79 43.52 40.61 43.52 41.62L43.52 43.44Z" stroke="#000000" stroke-opacity="0" stroke-width="0.133333"/>
		<path id="path" d="M2.77 6.12C2.58 6.31 2.58 6.43 2.58 19.16C2.58 31.49 2.59 32.02 2.75 32.16C2.91 32.32 4.56 32.33 24.5 32.33C45.28 32.33 46.08 32.32 46.23 32.15C46.38 31.99 46.39 30.95 46.39 19.15C46.39 6.43 46.39 6.31 46.2 6.12C46.01 5.93 45.88 5.93 24.48 5.93C3.09 5.93 2.96 5.93 2.77 6.12ZM29.46 7.69C29.22 7.93 23.62 13.26 17.02 19.55L5.02 30.99L4.47 30.99L3.92 30.99L3.92 19.13L3.92 7.27L16.9 7.27L29.89 7.27L29.46 7.69ZM37.99 8.25C37.21 9.04 37.01 9.28 37.01 9.5C37.01 9.89 37.26 10.13 37.64 10.13C37.89 10.13 38.15 9.93 39.45 8.7L40.97 7.27L43.01 7.27L45.05 7.27L45.05 19.13L45.05 30.99L30.61 30.99C22.67 30.99 16.16 30.97 16.16 30.94C16.16 30.92 20.23 27.02 25.2 22.28C33.21 14.65 34.24 13.64 34.24 13.39C34.24 13.22 34.15 13.01 34.05 12.91C33.57 12.43 34.02 12.04 23.72 21.85L14.12 30.99L10.53 30.99L6.93 30.99L7.84 30.14C8.34 29.67 13.93 24.33 20.27 18.28L31.8 7.27L35.39 7.27L38.98 7.27L37.99 8.25Z" fill="#FFFFFF" fill-opacity="1.000000" fill-rule="nonzero"/>
		<path id="path" d="M2.58 19.16C2.58 31.49 2.59 32.02 2.75 32.16C2.91 32.32 4.56 32.33 24.5 32.33C45.28 32.33 46.08 32.32 46.23 32.15C46.38 31.99 46.39 30.95 46.39 19.15C46.39 6.43 46.39 6.31 46.2 6.12C46.01 5.93 45.88 5.93 24.48 5.93C3.09 5.93 2.96 5.93 2.77 6.12C2.58 6.31 2.58 6.43 2.58 19.16ZM17.02 19.55L5.02 30.99L4.47 30.99L3.92 30.99L3.92 19.13L3.92 7.27L16.9 7.27L29.89 7.27L29.46 7.69C29.22 7.93 23.62 13.26 17.02 19.55ZM37.01 9.5C37.01 9.89 37.26 10.13 37.64 10.13C37.89 10.13 38.15 9.93 39.45 8.7L40.97 7.27L43.01 7.27L45.05 7.27L45.05 19.13L45.05 30.99L30.61 30.99C22.67 30.99 16.16 30.97 16.16 30.94C16.16 30.92 20.23 27.02 25.2 22.28C33.21 14.65 34.24 13.64 34.24 13.39C34.24 13.22 34.15 13.01 34.05 12.91C33.57 12.43 34.02 12.04 23.72 21.85L14.12 30.99L10.53 30.99L6.93 30.99L7.84 30.14C8.34 29.67 13.93 24.33 20.27 18.28L31.8 7.27L35.39 7.27L38.98 7.27L37.99 8.25C37.21 9.04 37.01 9.28 37.01 9.5Z" stroke="#000000" stroke-opacity="0" stroke-width="0.133333"/>
	</g>
</svg>
