<svg width="27.969238" height="61.988281" viewBox="0 0 27.9692 61.9883" fill="none" xmlns="http://www.w3.org/2000/svg" xmlns:xlink="http://www.w3.org/1999/xlink">
	<desc>
			Created with Pixso.
	</desc>
	<defs>
		<linearGradient x1="-0.000000" y1="30.994049" x2="27.969234" y2="15.157678" id="paint_linear_317_15206_0" gradientUnits="userSpaceOnUse">
			<stop stop-color="#7D3172"/>
			<stop offset="0.690480" stop-color="#AE3C6F"/>
		</linearGradient>
	</defs>
	<path id="path" d="M6.94 0.28C5.05 0.95 3.83 2.39 3.52 4.4C3.43 4.88 3.38 7.58 3.38 10.95L3.38 16.7L1.93 16.7C0.6 16.7 0.44 16.73 0.23 16.97C0.01 17.22 0 17.55 0 25.3C0 32.71 0.01 33.41 0.22 34.17C0.92 36.71 2.59 38.8 4.8 39.88C6.02 40.49 6.99 40.69 9.15 40.79L11.02 40.86L11 46.59L10.96 52.31L9.67 52.47C5.18 53.04 2.11 54.36 1.3 56.06C0.23 58.33 2.68 60.46 7.44 61.42C9.79 61.89 10.91 62 14.04 61.98C16.3 61.98 17.52 61.92 18.6 61.77C23.09 61.1 26.02 59.76 26.72 58.01C27.26 56.69 26.6 55.35 24.9 54.33C23.58 53.54 20.85 52.77 18.29 52.47L17 52.32L16.96 46.59L16.94 40.86L18.81 40.79C20.97 40.69 21.94 40.49 23.16 39.88C25.36 38.8 27.04 36.71 27.74 34.17C27.95 33.41 27.96 32.71 27.96 25.3C27.96 17.55 27.95 17.22 27.73 16.97C27.52 16.73 27.36 16.7 26.03 16.7L24.58 16.7L24.58 10.95C24.58 7.58 24.53 4.88 24.44 4.4C24.12 2.32 22.68 0.71 20.69 0.17C20.21 0.03 18.67 0 13.92 0C7.84 0.01 7.75 0.01 6.94 0.28ZM11.02 3.16C11.02 4.74 11.15 5.02 11.82 5.02C12.53 5.02 12.69 4.69 12.72 3.12L12.77 1.75L13.98 1.75L15.19 1.75L15.24 3.12C15.27 4.67 15.45 5.02 16.11 5.02C16.83 5.02 16.94 4.77 16.94 3.17L16.94 1.75L17.8 1.75L18.66 1.75L18.66 3.16C18.66 4.74 18.78 5.02 19.46 5.02C20.15 5.02 20.31 4.68 20.36 3.2L20.41 1.9L20.77 2.03C21.36 2.24 22.19 3.09 22.48 3.79C22.73 4.35 22.78 4.67 22.78 5.9L22.79 7.34L19.27 7.38C15.91 7.41 15.73 7.42 15.52 7.66C15.2 8.02 15.22 8.65 15.57 8.94C15.83 9.15 16.14 9.17 19.35 9.17L22.85 9.17L22.85 9.98L22.85 10.8L19.35 10.8C16.14 10.8 15.83 10.81 15.57 11.03C15.19 11.35 15.19 12.01 15.57 12.33C15.83 12.55 16.14 12.56 19.35 12.56L22.85 12.56L22.85 13.37L22.85 14.19L19.35 14.19C16.14 14.19 15.83 14.2 15.57 14.42C15.38 14.58 15.3 14.79 15.3 15.07C15.3 15.35 15.38 15.56 15.57 15.72C15.83 15.94 16.14 15.95 19.35 15.95L22.85 15.95L22.85 16.77L22.85 17.58L19.35 17.58C16.14 17.58 15.83 17.6 15.57 17.81C15.19 18.14 15.19 18.79 15.57 19.12C15.83 19.33 16.14 19.34 19.35 19.34L22.85 19.34L22.85 20.16L22.85 20.98L19.5 20.98C17.65 20.98 16.01 21.01 15.85 21.05C15.47 21.16 15.17 21.75 15.32 22.13C15.54 22.72 15.61 22.73 19.29 22.76L22.79 22.8L22.83 23.58L22.86 24.37L19.48 24.37C17.26 24.37 15.99 24.42 15.79 24.51C15.21 24.77 15.11 25.56 15.61 25.98C15.74 26.08 16.8 26.13 19.29 26.15L22.79 26.19L22.78 27.45C22.76 28.9 22.54 29.54 21.84 30.29C21.06 31.09 20.66 31.21 18.7 31.25L16.94 31.29L16.94 29.91C16.94 28.68 16.91 28.49 16.69 28.26C16.38 27.95 15.94 27.94 15.57 28.25C15.3 28.48 15.27 28.6 15.24 29.88L15.19 31.28L13.98 31.28L12.77 31.28L12.72 29.88C12.69 28.6 12.66 28.48 12.39 28.25C12.02 27.94 11.58 27.95 11.27 28.26C11.05 28.49 11.02 28.68 11.02 29.91L11.02 31.29L9.27 31.25C7.3 31.21 6.96 31.1 6.14 30.3C5.43 29.58 5.19 28.92 5.18 27.45L5.17 26.19L8.67 26.15C11.16 26.13 12.22 26.08 12.35 25.98C12.85 25.56 12.75 24.77 12.17 24.51C11.97 24.42 10.7 24.37 8.48 24.37L5.1 24.37L5.13 23.58L5.17 22.8L8.67 22.76C12.35 22.73 12.41 22.72 12.64 22.13C12.78 21.75 12.49 21.16 12.11 21.05C11.95 21.01 10.31 20.98 8.47 20.98L5.11 20.98L5.11 20.16L5.11 19.34L8.61 19.34C11.82 19.34 12.13 19.33 12.39 19.12C12.77 18.79 12.77 18.14 12.39 17.81C12.13 17.6 11.82 17.58 8.61 17.58L5.11 17.58L5.11 16.77L5.11 15.95L8.61 15.95C11.82 15.95 12.13 15.94 12.39 15.72C12.77 15.4 12.77 14.74 12.39 14.42C12.13 14.2 11.82 14.19 8.61 14.19L5.11 14.19L5.11 13.37L5.11 12.56L8.61 12.56C11.82 12.56 12.13 12.55 12.39 12.33C12.77 12.01 12.77 11.35 12.39 11.03C12.13 10.81 11.82 10.8 8.61 10.8L5.11 10.8L5.11 9.98L5.11 9.17L8.61 9.17C11.82 9.17 12.13 9.15 12.39 8.94C12.74 8.65 12.76 8.02 12.44 7.66C12.23 7.42 12.05 7.41 8.69 7.38L5.17 7.34L5.18 5.9C5.18 4.67 5.23 4.35 5.48 3.79C5.77 3.09 6.6 2.24 7.19 2.03L7.55 1.9L7.6 3.2C7.65 4.67 7.82 5.02 8.47 5.02C9.19 5.02 9.3 4.77 9.3 3.17L9.3 1.75L10.16 1.75L11.02 1.75L11.02 3.16ZM3.38 25.21C3.38 28.93 3.44 32.33 3.51 32.77C3.74 34.43 4.92 36.06 6.38 36.74C7.41 37.23 8.42 37.31 13.98 37.31C19.54 37.31 20.55 37.23 21.58 36.74C23.04 36.06 24.22 34.43 24.45 32.77C24.51 32.33 24.58 28.93 24.58 25.21L24.58 18.46L25.45 18.46L26.31 18.46L26.28 25.84C26.23 32.56 26.2 33.29 26.01 33.92C25.2 36.38 23.58 38.02 21.18 38.78C20.51 38.98 19.91 39 13.98 39C8.05 39 7.45 38.98 6.78 38.78C4.38 38.02 2.76 36.38 1.95 33.92C1.76 33.29 1.73 32.56 1.68 25.84L1.65 18.46L2.51 18.46L3.38 18.46L3.38 25.21ZM5.81 32.28C6.97 33.04 7.02 33.04 13.98 33.04C20.95 33.04 20.99 33.04 22.16 32.28C22.48 32.07 22.78 31.92 22.8 31.94C22.89 32.03 22.62 33.29 22.42 33.66C22.14 34.23 21.4 34.92 20.77 35.22C20.21 35.49 20.07 35.49 13.98 35.49C7.89 35.49 7.75 35.49 7.19 35.22C6.48 34.88 5.76 34.15 5.48 33.49C5.27 32.97 5.05 31.91 5.17 31.91C5.19 31.91 5.49 32.08 5.81 32.28ZM15.21 48.55L15.21 56.28L13.98 56.28L12.75 56.28L12.75 48.55L12.75 40.83L13.98 40.83L15.21 40.83L15.21 48.55ZM11.02 55.8C11.02 56.72 11.07 57.54 11.12 57.61C11.36 57.97 11.81 58.04 13.98 58.04C16.15 58.04 16.6 57.97 16.84 57.61C16.89 57.54 16.94 56.72 16.94 55.8L16.94 54.14L17.34 54.14C17.55 54.14 18.29 54.23 18.97 54.33C22.38 54.86 25.19 56.14 25.19 57.18C25.19 57.32 24.99 57.62 24.76 57.86C23.31 59.26 18.69 60.3 13.98 60.3C9.3 60.3 4.64 59.24 3.19 57.85C2.68 57.36 2.66 57.06 3.09 56.54C3.93 55.52 8 54.22 10.51 54.16L11.02 54.14L11.02 55.8Z" fill="url(#paint_linear_317_15206_0)" fill-opacity="1.000000" fill-rule="nonzero"/>
	<path id="path" d="M3.52 4.4C3.43 4.88 3.38 7.58 3.38 10.95L3.38 16.7L1.93 16.7C0.6 16.7 0.44 16.73 0.23 16.97C0.01 17.22 0 17.55 0 25.3C0 32.71 0.01 33.41 0.22 34.17C0.92 36.71 2.59 38.8 4.8 39.88C6.02 40.49 6.99 40.69 9.15 40.79L11.02 40.86L11 46.59L10.96 52.31L9.67 52.47C5.18 53.04 2.11 54.36 1.3 56.06C0.23 58.33 2.68 60.46 7.44 61.42C9.79 61.89 10.91 62 14.04 61.98C16.3 61.98 17.52 61.92 18.6 61.77C23.09 61.1 26.02 59.76 26.72 58.01C27.26 56.69 26.6 55.35 24.9 54.33C23.58 53.54 20.85 52.77 18.29 52.47L17 52.32L16.96 46.59L16.94 40.86L18.81 40.79C20.97 40.69 21.94 40.49 23.16 39.88C25.36 38.8 27.04 36.71 27.74 34.17C27.95 33.41 27.96 32.71 27.96 25.3C27.96 17.55 27.95 17.22 27.73 16.97C27.52 16.73 27.36 16.7 26.03 16.7L24.58 16.7L24.58 10.95C24.58 7.58 24.53 4.88 24.44 4.4C24.12 2.32 22.68 0.71 20.69 0.17C20.21 0.03 18.67 0 13.92 0C7.84 0.01 7.75 0.01 6.94 0.28C5.05 0.95 3.83 2.39 3.52 4.4ZM11.82 5.02C12.53 5.02 12.69 4.69 12.72 3.12L12.77 1.75L13.98 1.75L15.19 1.75L15.24 3.12C15.27 4.67 15.45 5.02 16.11 5.02C16.83 5.02 16.94 4.77 16.94 3.17L16.94 1.75L17.8 1.75L18.66 1.75L18.66 3.16C18.66 4.74 18.78 5.02 19.46 5.02C20.15 5.02 20.31 4.68 20.36 3.2L20.41 1.9L20.77 2.03C21.36 2.24 22.19 3.09 22.48 3.79C22.73 4.35 22.78 4.67 22.78 5.9L22.79 7.34L19.27 7.38C15.91 7.41 15.73 7.42 15.52 7.66C15.2 8.02 15.22 8.65 15.57 8.94C15.83 9.15 16.14 9.17 19.35 9.17L22.85 9.17L22.85 9.98L22.85 10.8L19.35 10.8C16.14 10.8 15.83 10.81 15.57 11.03C15.19 11.35 15.19 12.01 15.57 12.33C15.83 12.55 16.14 12.56 19.35 12.56L22.85 12.56L22.85 13.37L22.85 14.19L19.35 14.19C16.14 14.19 15.83 14.2 15.57 14.42C15.38 14.58 15.3 14.79 15.3 15.07C15.3 15.35 15.38 15.56 15.57 15.72C15.83 15.94 16.14 15.95 19.35 15.95L22.85 15.95L22.85 16.77L22.85 17.58L19.35 17.58C16.14 17.58 15.83 17.6 15.57 17.81C15.19 18.14 15.19 18.79 15.57 19.12C15.83 19.33 16.14 19.34 19.35 19.34L22.85 19.34L22.85 20.16L22.85 20.98L19.5 20.98C17.65 20.98 16.01 21.01 15.85 21.05C15.47 21.16 15.17 21.75 15.32 22.13C15.54 22.72 15.61 22.73 19.29 22.76L22.79 22.8L22.83 23.58L22.86 24.37L19.48 24.37C17.26 24.37 15.99 24.42 15.79 24.51C15.21 24.77 15.11 25.56 15.61 25.98C15.74 26.08 16.8 26.13 19.29 26.15L22.79 26.19L22.78 27.45C22.76 28.9 22.54 29.54 21.84 30.29C21.06 31.09 20.66 31.21 18.7 31.25L16.94 31.29L16.94 29.91C16.94 28.68 16.91 28.49 16.69 28.26C16.38 27.95 15.94 27.94 15.57 28.25C15.3 28.48 15.27 28.6 15.24 29.88L15.19 31.28L13.98 31.28L12.77 31.28L12.72 29.88C12.69 28.6 12.66 28.48 12.39 28.25C12.02 27.94 11.58 27.95 11.27 28.26C11.05 28.49 11.02 28.68 11.02 29.91L11.02 31.29L9.27 31.25C7.3 31.21 6.96 31.1 6.14 30.3C5.43 29.58 5.19 28.92 5.18 27.45L5.17 26.19L8.67 26.15C11.16 26.13 12.22 26.08 12.35 25.98C12.85 25.56 12.75 24.77 12.17 24.51C11.97 24.42 10.7 24.37 8.48 24.37L5.1 24.37L5.13 23.58L5.17 22.8L8.67 22.76C12.35 22.73 12.41 22.72 12.64 22.13C12.78 21.75 12.49 21.16 12.11 21.05C11.95 21.01 10.31 20.98 8.47 20.98L5.11 20.98L5.11 20.16L5.11 19.34L8.61 19.34C11.82 19.34 12.13 19.33 12.39 19.12C12.77 18.79 12.77 18.14 12.39 17.81C12.13 17.6 11.82 17.58 8.61 17.58L5.11 17.58L5.11 16.77L5.11 15.95L8.61 15.95C11.82 15.95 12.13 15.94 12.39 15.72C12.77 15.4 12.77 14.74 12.39 14.42C12.13 14.2 11.82 14.19 8.61 14.19L5.11 14.19L5.11 13.37L5.11 12.56L8.61 12.56C11.82 12.56 12.13 12.55 12.39 12.33C12.77 12.01 12.77 11.35 12.39 11.03C12.13 10.81 11.82 10.8 8.61 10.8L5.11 10.8L5.11 9.98L5.11 9.17L8.61 9.17C11.82 9.17 12.13 9.15 12.39 8.94C12.74 8.65 12.76 8.02 12.44 7.66C12.23 7.42 12.05 7.41 8.69 7.38L5.17 7.34L5.18 5.9C5.18 4.67 5.23 4.35 5.48 3.79C5.77 3.09 6.6 2.24 7.19 2.03L7.55 1.9L7.6 3.2C7.65 4.67 7.82 5.02 8.47 5.02C9.19 5.02 9.3 4.77 9.3 3.17L9.3 1.75L10.16 1.75L11.02 1.75L11.02 3.16C11.02 4.74 11.15 5.02 11.82 5.02ZM3.51 32.77C3.74 34.43 4.92 36.06 6.38 36.74C7.41 37.23 8.42 37.31 13.98 37.31C19.54 37.31 20.55 37.23 21.58 36.74C23.04 36.06 24.22 34.43 24.45 32.77C24.51 32.33 24.58 28.93 24.58 25.21L24.58 18.46L25.45 18.46L26.31 18.46L26.28 25.84C26.23 32.56 26.2 33.29 26.01 33.92C25.2 36.38 23.58 38.02 21.18 38.78C20.51 38.98 19.91 39 13.98 39C8.05 39 7.45 38.98 6.78 38.78C4.38 38.02 2.76 36.38 1.95 33.92C1.76 33.29 1.73 32.56 1.68 25.84L1.65 18.46L2.51 18.46L3.38 18.46L3.38 25.21C3.38 28.93 3.44 32.33 3.51 32.77ZM13.98 33.04C20.95 33.04 20.99 33.04 22.16 32.28C22.48 32.07 22.78 31.92 22.8 31.94C22.89 32.03 22.62 33.29 22.42 33.66C22.14 34.23 21.4 34.92 20.77 35.22C20.21 35.49 20.07 35.49 13.98 35.49C7.89 35.49 7.75 35.49 7.19 35.22C6.48 34.88 5.76 34.15 5.48 33.49C5.27 32.97 5.05 31.91 5.17 31.91C5.19 31.91 5.49 32.08 5.81 32.28C6.97 33.04 7.02 33.04 13.98 33.04ZM15.21 56.28L13.98 56.28L12.75 56.28L12.75 48.55L12.75 40.83L13.98 40.83L15.21 40.83L15.21 48.55L15.21 56.28ZM11.12 57.61C11.36 57.97 11.81 58.04 13.98 58.04C16.15 58.04 16.6 57.97 16.84 57.61C16.89 57.54 16.94 56.72 16.94 55.8L16.94 54.14L17.34 54.14C17.55 54.14 18.29 54.23 18.97 54.33C22.38 54.86 25.19 56.14 25.19 57.18C25.19 57.32 24.99 57.62 24.76 57.86C23.31 59.26 18.69 60.3 13.98 60.3C9.3 60.3 4.64 59.24 3.19 57.85C2.68 57.36 2.66 57.06 3.09 56.54C3.93 55.52 8 54.22 10.51 54.16L11.02 54.14L11.02 55.8C11.02 56.72 11.07 57.54 11.12 57.61Z" stroke="#000000" stroke-opacity="0" stroke-width="0.133333"/>
</svg>
