<svg width="64.000000" height="43.000000" viewBox="0 0 64 43" fill="none" xmlns="http://www.w3.org/2000/svg" xmlns:xlink="http://www.w3.org/1999/xlink">
	<desc>
			Created with Pixso.
	</desc>
	<defs>
		<clipPath id="clip317_15109">
			<rect id="photo_2024-10-07_12-27-41" width="64.000000" height="43.000000" fill="white" fill-opacity="0"/>
		</clipPath>
		<linearGradient x1="14.256835" y1="22.204239" x2="62.267193" y2="13.486044" id="paint_linear_317_15111_0" gradientUnits="userSpaceOnUse">
			<stop stop-color="#7D3172"/>
			<stop offset="0.690480" stop-color="#AE3C6F"/>
		</linearGradient>
		<linearGradient x1="49.097656" y1="19.484217" x2="57.411381" y2="16.937889" id="paint_linear_317_15112_0" gradientUnits="userSpaceOnUse">
			<stop stop-color="#7D3172"/>
			<stop offset="0.690480" stop-color="#AE3C6F"/>
		</linearGradient>
		<linearGradient x1="22.117188" y1="33.415993" x2="26.352482" y2="32.342693" id="paint_linear_317_15113_0" gradientUnits="userSpaceOnUse">
			<stop stop-color="#7D3172"/>
			<stop offset="0.690480" stop-color="#AE3C6F"/>
		</linearGradient>
		<linearGradient x1="51.240234" y1="33.422035" x2="55.529583" y2="32.354321" id="paint_linear_317_15114_0" gradientUnits="userSpaceOnUse">
			<stop stop-color="#7D3172"/>
			<stop offset="0.690480" stop-color="#AE3C6F"/>
		</linearGradient>
		<linearGradient x1="1.019531" y1="14.113327" x2="21.601994" y2="13.851639" id="paint_linear_317_15115_0" gradientUnits="userSpaceOnUse">
			<stop stop-color="#7D3172"/>
			<stop offset="0.690480" stop-color="#AE3C6F"/>
		</linearGradient>
		<linearGradient x1="5.505859" y1="17.761139" x2="21.607822" y2="17.522324" id="paint_linear_317_15116_0" gradientUnits="userSpaceOnUse">
			<stop stop-color="#7D3172"/>
			<stop offset="0.690480" stop-color="#AE3C6F"/>
		</linearGradient>
		<linearGradient x1="9.791017" y1="21.344131" x2="21.615694" y2="21.105320" id="paint_linear_317_15117_0" gradientUnits="userSpaceOnUse">
			<stop stop-color="#7D3172"/>
			<stop offset="0.690480" stop-color="#AE3C6F"/>
		</linearGradient>
		<linearGradient x1="13.176758" y1="25.005489" x2="21.545385" y2="24.726875" id="paint_linear_317_15118_0" gradientUnits="userSpaceOnUse">
			<stop stop-color="#7D3172"/>
			<stop offset="0.690480" stop-color="#AE3C6F"/>
		</linearGradient>
	</defs>
	<g clip-path="url(#clip317_15109)">
		<path id="path" d="M16.18 5.46C14.77 6.16 14.29 7.27 14.27 9.84C14.27 11.76 14.4 12.15 15.05 12.15C15.65 12.15 15.84 11.57 15.84 9.73C15.84 7.82 15.96 7.43 16.76 6.9L17.3 6.54L30.85 6.54C46.11 6.54 45.19 6.46 45.8 7.69C46.11 8.33 46.11 8.6 46.11 19.36L46.11 30.38L37.77 30.36L29.41 30.36L28.78 29.55C28.29 28.94 27.84 28.58 26.91 28.12C25.74 27.52 25.61 27.49 24.25 27.49C22.94 27.49 22.72 27.54 21.8 27.99C20.78 28.49 19.81 29.29 19.34 30C19.12 30.36 19.01 30.38 17.47 30.38L15.84 30.38L15.84 28.93C15.84 27.71 15.79 27.42 15.56 27.21C15.2 26.89 14.83 26.87 14.52 27.2C14.18 27.54 14.16 32.45 14.49 33.26C14.85 34.11 15.54 34.43 17.03 34.43C18.3 34.43 18.32 34.43 18.43 34.85C18.8 36.36 20.15 37.99 21.63 38.73C22.43 39.15 22.65 39.18 24.23 39.18C25.77 39.18 26.05 39.13 26.85 38.76C28.34 38.07 29.52 36.62 30.18 34.69C30.25 34.44 30.77 34.43 38.83 34.46L47.41 34.5L47.7 35.31C48.28 37.01 49.56 38.32 51.26 38.96C52.58 39.44 54.79 39.33 55.96 38.73C57.55 37.93 58.65 36.61 59.13 34.96L59.32 34.3L60.28 34.24C61.12 34.18 61.27 34.11 61.77 33.58C62.27 33.04 62.3 32.93 62.24 32.23C62.14 31.34 61.69 30.75 60.95 30.56L60.47 30.44L60.39 27.09L60.31 23.75L58.72 20.25C57.85 18.32 56.84 16.07 56.48 15.26C56.14 14.44 55.65 13.58 55.43 13.35C54.55 12.41 54.47 12.38 50.9 12.3L47.6 12.23L47.52 9.81C47.46 7.79 47.4 7.3 47.15 6.93C46.68 6.18 46.22 5.74 45.61 5.43C45.05 5.15 44.48 5.14 30.94 5.14C16.89 5.14 16.86 5.14 16.18 5.46ZM54.07 13.55C54.35 13.71 54.68 14.02 54.83 14.23C54.98 14.45 56.03 16.77 57.19 19.39L59.29 24.16L59.29 27.28C59.29 30.97 59.29 30.97 57.63 29.32C56.42 28.13 55.35 27.6 53.8 27.46C52.69 27.35 51.15 27.74 50.16 28.37C49.41 28.85 48.31 29.94 48.31 30.22C48.31 30.31 48.14 30.38 47.92 30.38L47.52 30.38L47.52 21.92C47.52 17.26 47.57 13.39 47.63 13.35C47.68 13.28 49.05 13.24 50.65 13.24C53.27 13.24 53.61 13.27 54.07 13.55ZM26.38 28.94C28.23 29.85 29.23 31.58 29.14 33.65C29.06 35.49 28.12 36.93 26.43 37.82C25.38 38.38 23.37 38.41 22.24 37.9C21.3 37.48 20.14 36.33 19.71 35.39C19.24 34.36 19.24 32.46 19.71 31.45C20.31 30.14 21.5 29.1 22.9 28.65C23.67 28.4 25.6 28.57 26.38 28.94ZM55.49 28.96C56.51 29.47 57.34 30.31 57.83 31.28C58.21 32.03 58.27 32.35 58.25 33.41C58.25 34.89 57.86 35.86 56.86 36.86C55.82 37.89 54.9 38.24 53.33 38.24C52.2 38.24 51.89 38.18 51.21 37.82C48.07 36.19 47.46 32.25 49.97 29.81C50.98 28.85 52 28.49 53.56 28.55C54.47 28.6 55.01 28.71 55.49 28.96ZM18.43 32.12C18.36 32.49 18.29 32.84 18.24 32.9C18.13 33.1 16.23 33.04 16.03 32.84C15.92 32.73 15.84 32.39 15.84 32.06L15.84 31.47L17.19 31.47L18.54 31.47L18.43 32.12ZM47.48 32.25L47.32 33.02L38.82 33.02L30.3 33.02L30.21 32.46C30.14 32.17 30.05 31.81 30 31.68C29.94 31.5 31.16 31.47 38.77 31.47L47.63 31.47L47.48 32.25ZM60.78 31.56C61.2 31.73 61.38 32.39 61.09 32.81C60.89 33.12 60.72 33.18 60.07 33.18C59.35 33.18 59.29 33.15 59.29 32.81C59.29 32.6 59.24 32.21 59.2 31.95L59.1 31.47L59.81 31.47C60.2 31.47 60.64 31.51 60.78 31.56Z" fill="url(#paint_linear_317_15111_0)" fill-opacity="1.000000" fill-rule="nonzero"/>
		<path id="path" d="M14.27 9.84C14.27 11.76 14.4 12.15 15.05 12.15C15.65 12.15 15.84 11.57 15.84 9.73C15.84 7.82 15.96 7.43 16.76 6.9L17.3 6.54L30.85 6.54C46.11 6.54 45.19 6.46 45.8 7.69C46.11 8.33 46.11 8.6 46.11 19.36L46.11 30.38L37.77 30.36L29.41 30.36L28.78 29.55C28.29 28.94 27.84 28.58 26.91 28.12C25.74 27.52 25.61 27.49 24.25 27.49C22.94 27.49 22.72 27.54 21.8 27.99C20.78 28.49 19.81 29.29 19.34 30C19.12 30.36 19.01 30.38 17.47 30.38L15.84 30.38L15.84 28.93C15.84 27.71 15.79 27.42 15.56 27.21C15.2 26.89 14.83 26.87 14.52 27.2C14.18 27.54 14.16 32.45 14.49 33.26C14.85 34.11 15.54 34.43 17.03 34.43C18.3 34.43 18.32 34.43 18.43 34.85C18.8 36.36 20.15 37.99 21.63 38.73C22.43 39.15 22.65 39.18 24.23 39.18C25.77 39.18 26.05 39.13 26.85 38.76C28.34 38.07 29.52 36.62 30.18 34.69C30.25 34.44 30.77 34.43 38.83 34.46L47.41 34.5L47.7 35.31C48.28 37.01 49.56 38.32 51.26 38.96C52.58 39.44 54.79 39.33 55.96 38.73C57.55 37.93 58.65 36.61 59.13 34.96L59.32 34.3L60.28 34.24C61.12 34.18 61.27 34.11 61.77 33.58C62.27 33.04 62.3 32.93 62.24 32.23C62.14 31.34 61.69 30.75 60.95 30.56L60.47 30.44L60.39 27.09L60.31 23.75L58.72 20.25C57.85 18.32 56.84 16.07 56.48 15.26C56.14 14.44 55.65 13.58 55.43 13.35C54.55 12.41 54.47 12.38 50.9 12.3L47.6 12.23L47.52 9.81C47.46 7.79 47.4 7.3 47.15 6.93C46.68 6.18 46.22 5.74 45.61 5.43C45.05 5.15 44.48 5.14 30.94 5.14C16.89 5.14 16.86 5.14 16.18 5.46C14.77 6.16 14.29 7.27 14.27 9.84ZM54.83 14.23C54.98 14.45 56.03 16.77 57.19 19.39L59.29 24.16L59.29 27.28C59.29 30.97 59.29 30.97 57.63 29.32C56.42 28.13 55.35 27.6 53.8 27.46C52.69 27.35 51.15 27.74 50.16 28.37C49.41 28.85 48.31 29.94 48.31 30.22C48.31 30.31 48.14 30.38 47.92 30.38L47.52 30.38L47.52 21.92C47.52 17.26 47.57 13.39 47.63 13.35C47.68 13.28 49.05 13.24 50.65 13.24C53.27 13.24 53.61 13.27 54.07 13.55C54.35 13.71 54.68 14.02 54.83 14.23ZM29.14 33.65C29.06 35.49 28.12 36.93 26.43 37.82C25.38 38.38 23.37 38.41 22.24 37.9C21.3 37.48 20.14 36.33 19.71 35.39C19.24 34.36 19.24 32.46 19.71 31.45C20.31 30.14 21.5 29.1 22.9 28.65C23.67 28.4 25.6 28.57 26.38 28.94C28.23 29.85 29.23 31.58 29.14 33.65ZM57.83 31.28C58.21 32.03 58.27 32.35 58.25 33.41C58.25 34.89 57.86 35.86 56.86 36.86C55.82 37.89 54.9 38.24 53.33 38.24C52.2 38.24 51.89 38.18 51.21 37.82C48.07 36.19 47.46 32.25 49.97 29.81C50.98 28.85 52 28.49 53.56 28.55C54.47 28.6 55.01 28.71 55.49 28.96C56.51 29.47 57.34 30.31 57.83 31.28ZM18.24 32.9C18.13 33.1 16.23 33.04 16.03 32.84C15.92 32.73 15.84 32.39 15.84 32.06L15.84 31.47L17.19 31.47L18.54 31.47L18.43 32.12C18.36 32.49 18.29 32.84 18.24 32.9ZM47.32 33.02L38.82 33.02L30.3 33.02L30.21 32.46C30.14 32.17 30.05 31.81 30 31.68C29.94 31.5 31.16 31.47 38.77 31.47L47.63 31.47L47.48 32.25L47.32 33.02ZM61.09 32.81C60.89 33.12 60.72 33.18 60.07 33.18C59.35 33.18 59.29 33.15 59.29 32.81C59.29 32.6 59.24 32.21 59.2 31.95L59.1 31.47L59.81 31.47C60.2 31.47 60.64 31.51 60.78 31.56C61.2 31.73 61.38 32.39 61.09 32.81Z" stroke="#000000" stroke-opacity="0" stroke-width="0.133333"/>
		<path id="path" d="M49.36 14.67C49.12 14.8 49.09 15.25 49.09 19.47C49.09 23.93 49.11 24.14 49.39 24.3C49.8 24.52 56.7 24.52 57.11 24.3C57.27 24.21 57.41 24.03 57.41 23.93C57.41 23.55 53.47 14.87 53.2 14.67C52.89 14.44 49.78 14.44 49.36 14.67ZM54.25 19.19C55.15 21.18 55.92 22.94 55.95 23.08C56.03 23.35 55.82 23.36 53.11 23.36L50.19 23.36L50.19 19.47L50.19 15.57L51.41 15.57L52.64 15.57L54.25 19.19Z" fill="url(#paint_linear_317_15112_0)" fill-opacity="1.000000" fill-rule="nonzero"/>
		<path id="path" d="M49.09 19.47C49.09 23.93 49.11 24.14 49.39 24.3C49.8 24.52 56.7 24.52 57.11 24.3C57.27 24.21 57.41 24.03 57.41 23.93C57.41 23.55 53.47 14.87 53.2 14.67C52.89 14.44 49.78 14.44 49.36 14.67C49.12 14.8 49.09 15.25 49.09 19.47ZM55.95 23.08C56.03 23.35 55.82 23.36 53.11 23.36L50.19 23.36L50.19 19.47L50.19 15.57L51.41 15.57L52.64 15.57L54.25 19.19C55.15 21.18 55.92 22.94 55.95 23.08Z" stroke="#000000" stroke-opacity="0" stroke-width="0.133333"/>
		<path id="path" d="M23.18 31.54C22.61 31.86 22.11 32.71 22.11 33.35C22.11 34.94 23.85 36 25.27 35.28C25.94 34.92 26.35 34.18 26.35 33.27C26.35 32.6 26.28 32.45 25.74 31.92C25.2 31.37 25.05 31.31 24.37 31.31C23.95 31.33 23.41 31.42 23.18 31.54ZM25.01 32.63C25.48 33.09 25.52 33.63 25.12 34.13C24.51 34.86 23.21 34.4 23.21 33.43C23.21 32.87 23.32 32.68 23.76 32.43C24.25 32.15 24.61 32.21 25.01 32.63Z" fill="url(#paint_linear_317_15113_0)" fill-opacity="1.000000" fill-rule="nonzero"/>
		<path id="path" d="M22.11 33.35C22.11 34.94 23.85 36 25.27 35.28C25.94 34.92 26.35 34.18 26.35 33.27C26.35 32.6 26.28 32.45 25.74 31.92C25.2 31.37 25.05 31.31 24.37 31.31C23.95 31.33 23.41 31.42 23.18 31.54C22.61 31.86 22.11 32.71 22.11 33.35ZM25.12 34.13C24.51 34.86 23.21 34.4 23.21 33.43C23.21 32.87 23.32 32.68 23.76 32.43C24.25 32.15 24.61 32.21 25.01 32.63C25.48 33.09 25.52 33.63 25.12 34.13Z" stroke="#000000" stroke-opacity="0" stroke-width="0.133333"/>
		<path id="path" d="M52.21 31.58C51.29 32.14 50.94 33.63 51.51 34.5C52.17 35.5 53.58 35.81 54.52 35.17C55.09 34.78 55.52 34.01 55.52 33.4C55.52 32.77 55.05 31.93 54.52 31.61C53.92 31.25 52.78 31.23 52.21 31.58ZM53.85 32.42C54.32 32.67 54.43 32.85 54.43 33.43C54.43 34.39 53.12 34.86 52.51 34.13C52.12 33.63 52.15 33.09 52.62 32.63C53.05 32.2 53.33 32.15 53.85 32.42Z" fill="url(#paint_linear_317_15114_0)" fill-opacity="1.000000" fill-rule="nonzero"/>
		<path id="path" d="M51.51 34.5C52.17 35.5 53.58 35.81 54.52 35.17C55.09 34.78 55.52 34.01 55.52 33.4C55.52 32.77 55.05 31.93 54.52 31.61C53.92 31.25 52.78 31.23 52.21 31.58C51.29 32.14 50.94 33.63 51.51 34.5ZM54.43 33.43C54.43 34.39 53.12 34.86 52.51 34.13C52.12 33.63 52.15 33.09 52.62 32.63C53.05 32.2 53.33 32.15 53.85 32.42C54.32 32.67 54.43 32.85 54.43 33.43Z" stroke="#000000" stroke-opacity="0" stroke-width="0.133333"/>
		<path id="path" d="M1.41 13.69C1.12 13.77 1.01 13.91 1.01 14.17L1.01 14.56L11.16 14.61C20.83 14.64 21.33 14.62 21.47 14.36C21.86 13.61 22 13.63 11.57 13.6C6.19 13.6 1.63 13.63 1.41 13.69Z" fill="url(#paint_linear_317_15115_0)" fill-opacity="1.000000" fill-rule="nonzero"/>
		<path id="path" d="M1.01 14.17L1.01 14.56L11.16 14.61C20.83 14.64 21.33 14.62 21.47 14.36C21.86 13.61 22 13.63 11.57 13.6C6.19 13.6 1.63 13.63 1.41 13.69C1.12 13.77 1.01 13.91 1.01 14.17Z" stroke="#000000" stroke-opacity="0" stroke-width="0.133333"/>
		<path id="path" d="M5.55 17.52C5.49 17.65 5.49 17.87 5.55 17.99C5.63 18.19 6.65 18.22 13.45 18.22C20.23 18.22 21.31 18.19 21.49 17.99C21.64 17.8 21.64 17.71 21.49 17.52C21.31 17.32 20.23 17.29 13.45 17.29C6.65 17.29 5.63 17.32 5.55 17.52Z" fill="url(#paint_linear_317_15116_0)" fill-opacity="1.000000" fill-rule="nonzero"/>
		<path id="path" d="M5.55 17.99C5.63 18.19 6.65 18.22 13.45 18.22C20.23 18.22 21.31 18.19 21.49 17.99C21.64 17.8 21.64 17.71 21.49 17.52C21.31 17.32 20.23 17.29 13.45 17.29C6.65 17.29 5.63 17.32 5.55 17.52C5.49 17.65 5.49 17.87 5.55 17.99Z" stroke="#000000" stroke-opacity="0" stroke-width="0.133333"/>
		<path id="path" d="M9.89 21.09C9.8 21.2 9.75 21.42 9.81 21.56C9.91 21.78 10.49 21.81 15.68 21.81C20.87 21.81 21.45 21.78 21.55 21.56C21.8 20.9 21.56 20.87 15.68 20.87C11.12 20.87 10.03 20.92 9.89 21.09Z" fill="url(#paint_linear_317_15117_0)" fill-opacity="1.000000" fill-rule="nonzero"/>
		<path id="path" d="M9.81 21.56C9.91 21.78 10.49 21.81 15.68 21.81C20.87 21.81 21.45 21.78 21.55 21.56C21.8 20.9 21.56 20.87 15.68 20.87C11.12 20.87 10.03 20.92 9.89 21.09C9.8 21.2 9.75 21.42 9.81 21.56Z" stroke="#000000" stroke-opacity="0" stroke-width="0.133333"/>
		<path id="path" d="M13.42 24.7C13.28 24.83 13.17 24.97 13.17 25C13.17 25.03 13.28 25.17 13.42 25.3C13.63 25.51 14.22 25.55 17.49 25.55C21 25.55 21.33 25.53 21.47 25.27C21.56 25.09 21.56 24.89 21.47 24.72C21.33 24.49 20.95 24.46 17.49 24.46C14.22 24.46 13.63 24.49 13.42 24.7Z" fill="url(#paint_linear_317_15118_0)" fill-opacity="1.000000" fill-rule="nonzero"/>
		<path id="path" d="M13.17 25C13.17 25.03 13.28 25.17 13.42 25.3C13.63 25.51 14.22 25.55 17.49 25.55C21 25.55 21.33 25.53 21.47 25.27C21.56 25.09 21.56 24.89 21.47 24.72C21.33 24.49 20.95 24.46 17.49 24.46C14.22 24.46 13.63 24.49 13.42 24.7C13.28 24.83 13.17 24.97 13.17 25Z" stroke="#000000" stroke-opacity="0" stroke-width="0.133333"/>
	</g>
</svg>
