<svg width="48.000000" height="48.000000" viewBox="0 0 48 48" fill="none" xmlns="http://www.w3.org/2000/svg" xmlns:xlink="http://www.w3.org/1999/xlink">
	<desc>
			Created with Pixso.
	</desc>
	<defs>
		<clipPath id="clip317_15066">
			<rect id="Иконка-сценический-комплекс-ПНГ1" width="48.000000" height="48.000000" fill="white" fill-opacity="0"/>
		</clipPath>
		<linearGradient x1="0.000002" y1="24.000017" x2="48.003941" y2="11.737317" id="paint_linear_317_15068_0" gradientUnits="userSpaceOnUse">
			<stop stop-color="#7D3172"/>
			<stop offset="0.690480" stop-color="#AE3C6F"/>
		</linearGradient>
		<linearGradient x1="4.792969" y1="27.803585" x2="10.925178" y2="26.240496" id="paint_linear_317_15069_0" gradientUnits="userSpaceOnUse">
			<stop stop-color="#7D3172"/>
			<stop offset="0.690480" stop-color="#AE3C6F"/>
		</linearGradient>
		<linearGradient x1="36.951172" y1="27.798691" x2="43.099823" y2="26.234346" id="paint_linear_317_15070_0" gradientUnits="userSpaceOnUse">
			<stop stop-color="#7D3172"/>
			<stop offset="0.690480" stop-color="#AE3C6F"/>
		</linearGradient>
		<linearGradient x1="4.792969" y1="34.639122" x2="10.925177" y2="33.077572" id="paint_linear_317_15071_0" gradientUnits="userSpaceOnUse">
			<stop stop-color="#7D3172"/>
			<stop offset="0.690480" stop-color="#AE3C6F"/>
		</linearGradient>
		<linearGradient x1="36.951172" y1="34.633484" x2="43.098873" y2="33.072048" id="paint_linear_317_15072_0" gradientUnits="userSpaceOnUse">
			<stop stop-color="#7D3172"/>
			<stop offset="0.690480" stop-color="#AE3C6F"/>
		</linearGradient>
	</defs>
	<g clip-path="url(#clip317_15066)">
		<path id="path" d="M4.56 0.02C4.56 0.03 4.52 0.06 4.48 0.08C4.28 0.19 4.14 0.38 4.11 0.6C4.1 0.69 4.09 4.65 4.09 11.57C4.09 17.52 4.09 22.39 4.09 22.39C4.08 22.39 3.6 22.4 3.02 22.41L1.96 22.42L1.85 22.48C1.63 22.6 1.53 22.73 1.47 22.96C1.44 23.1 1.44 23.54 1.44 28.51C1.44 32.33 1.44 33.94 1.46 34.01C1.5 34.17 1.59 34.35 1.68 34.42C1.84 34.55 1.93 34.58 2.14 34.58C2.31 34.58 2.35 34.58 2.44 34.52C2.67 34.39 2.78 34.24 2.82 34.01C2.84 33.89 2.85 32.59 2.85 28.85L2.85 23.85L2.91 23.83C3 23.79 12.78 23.8 12.82 23.83C12.84 23.85 12.84 25.52 12.84 31.22C12.84 37.91 12.84 38.58 12.81 38.6C12.74 38.62 2.94 38.61 2.9 38.59C2.86 38.57 2.85 38.53 2.85 37.69C2.85 36.62 2.84 36.49 2.69 36.3C2.64 36.24 2.58 36.17 2.56 36.17C2.53 36.16 2.52 36.15 2.52 36.14C2.52 36.11 2.23 36.02 2.14 36.02C2.07 36.02 1.8 36.1 1.78 36.13C1.77 36.14 1.73 36.16 1.7 36.18C1.61 36.25 1.51 36.42 1.47 36.58C1.44 36.7 1.44 36.9 1.44 37.64C1.44 38.66 1.44 38.6 1.28 38.63C1.17 38.64 0.89 38.74 0.79 38.8C0.54 38.94 0.27 39.22 0.19 39.41C0.17 39.45 0.14 39.49 0.13 39.5C0.12 39.51 0.1 39.57 0.08 39.64C0.07 39.7 0.04 39.77 0.03 39.77C0 39.78 0 39.99 0 41.11C0 42.41 0 42.44 0.04 42.5C0.06 42.53 0.08 42.58 0.08 42.6C0.08 42.78 0.45 43.25 0.73 43.42C0.93 43.55 1.3 43.65 1.59 43.65C1.84 43.65 1.82 43.47 1.82 45.51C1.82 47.46 1.82 47.49 1.95 47.68C1.99 47.74 2.06 47.81 2.11 47.85C2.17 47.88 2.24 47.93 2.27 47.95C2.33 47.99 2.98 48 23.99 48C38.61 48 45.66 47.99 45.67 47.97C45.67 47.96 45.72 47.93 45.77 47.91C45.96 47.81 46.1 47.61 46.13 47.39C46.14 47.3 46.15 46.51 46.15 45.47L46.15 43.7L46.21 43.68C46.24 43.66 46.32 43.65 46.39 43.65C46.56 43.65 46.94 43.58 47.06 43.51C47.29 43.4 47.32 43.38 47.46 43.25C47.69 43.03 47.88 42.73 47.92 42.49C47.93 42.43 47.95 42.38 47.96 42.36C48.01 42.31 48.01 39.91 47.96 39.89C47.95 39.88 47.92 39.81 47.91 39.74C47.88 39.6 47.74 39.3 47.62 39.16C47.39 38.88 46.99 38.66 46.63 38.62C46.55 38.61 46.48 38.6 46.46 38.59C46.44 38.57 46.43 37.73 46.42 33.3C46.41 30.39 46.4 28.01 46.39 27.98C46.38 27.96 46.36 27.94 46.35 27.94C46.34 27.94 46.33 27.93 46.32 27.9C46.3 27.84 46.17 27.71 46.04 27.64C45.95 27.58 45.91 27.58 45.74 27.58C45.54 27.57 45.45 27.6 45.3 27.72C45.2 27.79 45.1 27.95 45.07 28.06C45.04 28.14 45.03 29.38 45.02 33.36C45.02 37.96 45.01 38.57 44.98 38.59C44.96 38.6 43.08 38.61 40.01 38.61C35.56 38.61 35.08 38.61 35.05 38.58C35.01 38.54 35.01 37.84 35.01 31.19L35.01 23.85L35.07 23.83C35.15 23.8 44.93 23.8 44.98 23.83C45.01 23.84 45.02 23.98 45.03 24.7C45.04 25.6 45.05 25.69 45.15 25.81C45.18 25.85 45.2 25.89 45.2 25.89C45.2 25.93 45.45 26.07 45.56 26.11C45.72 26.16 45.76 26.15 45.93 26.1C46.1 26.04 46.26 25.91 46.35 25.77L46.41 25.66L46.41 24.28L46.41 22.89L46.35 22.78C46.26 22.64 46.1 22.51 45.95 22.45C45.84 22.41 45.78 22.41 44.88 22.41C44.36 22.41 43.92 22.4 43.91 22.39C43.88 22.38 43.88 20.13 43.87 11.46L43.87 0.55L43.8 0.42C43.73 0.27 43.6 0.14 43.48 0.08C43.42 0.06 43.38 0.03 43.38 0.02C43.38 0 37.34 0 23.97 0C11.32 0 4.56 0 4.56 0.02ZM7.68 1.43C7.69 1.46 7.62 1.57 7.4 1.89C7.33 1.99 7.25 2.11 7.23 2.14C7.21 2.18 7.16 2.25 7.12 2.3C7.08 2.35 7.03 2.42 7.02 2.45C7 2.48 6.98 2.51 6.97 2.52C6.96 2.52 6.9 2.62 6.82 2.73C6.75 2.84 6.61 3.04 6.51 3.19C5.96 4 5.83 4.19 5.81 4.22C5.8 4.24 5.75 4.31 5.71 4.37C5.66 4.43 5.62 4.49 5.61 4.52C5.6 4.54 5.59 4.56 5.58 4.56C5.51 4.56 5.51 4.5 5.51 2.98C5.51 2.13 5.52 1.44 5.52 1.43C5.55 1.4 7.66 1.41 7.68 1.43ZM16.15 1.45C16.15 1.47 16.13 1.51 15.93 1.8C15.85 1.9 15.75 2.04 15.71 2.11C15.66 2.18 15.62 2.24 15.61 2.25C15.61 2.25 15.58 2.29 15.55 2.32C15.53 2.36 15.46 2.46 15.41 2.54C15.35 2.61 15.28 2.72 15.25 2.76C15.12 2.95 14.97 3.17 14.87 3.31C14.8 3.4 14.71 3.54 14.64 3.63C14.58 3.71 14.48 3.87 14.41 3.97C14.29 4.14 14.24 4.21 14.08 4.43C14.04 4.49 13.97 4.59 13.91 4.68C13.82 4.81 13.78 4.87 13.61 5.11C13.57 5.16 13.5 5.26 13.46 5.32C13.41 5.39 13.35 5.46 13.32 5.48C13.27 5.52 13.26 5.52 13.24 5.48C13.22 5.44 13.14 5.33 13.07 5.25C13.07 5.24 13.02 5.17 12.98 5.1C12.93 5.04 12.83 4.89 12.75 4.79C12.68 4.68 12.57 4.53 12.52 4.45C12.46 4.37 12.36 4.22 12.29 4.12C12.22 4.02 12.1 3.85 12.03 3.75C11.96 3.64 11.85 3.49 11.79 3.4C11.73 3.32 11.61 3.15 11.53 3.03C11.45 2.92 11.32 2.73 11.24 2.63C11.17 2.52 11.06 2.37 11.01 2.29C10.95 2.21 10.85 2.06 10.77 1.95C10.51 1.58 10.42 1.44 10.43 1.43C10.45 1.4 16.14 1.42 16.15 1.45ZM24.64 1.43C24.65 1.43 24.61 1.51 24.55 1.59C24.49 1.67 24.4 1.81 24.34 1.9C24.28 1.98 24.18 2.12 24.13 2.2C24.07 2.28 23.97 2.43 23.89 2.54C23.82 2.64 23.72 2.79 23.67 2.85C23.59 2.99 23.58 2.99 23.5 3.09C23.48 3.13 23.41 3.21 23.37 3.28C23.32 3.35 23.26 3.44 23.22 3.49C23.11 3.66 22.94 3.9 22.83 4.06C22.77 4.14 22.66 4.3 22.59 4.41C22.51 4.51 22.41 4.66 22.35 4.74C22.3 4.82 22.19 4.97 22.12 5.08C22.04 5.19 21.94 5.33 21.9 5.39C21.85 5.45 21.81 5.51 21.8 5.52C21.78 5.53 21.69 5.43 21.56 5.25C21.5 5.16 21.41 5.03 21.36 4.96C21.31 4.89 21.23 4.77 21.17 4.69C21.11 4.6 21.06 4.52 21.05 4.51C21.03 4.5 20.99 4.43 20.94 4.36C20.89 4.29 20.8 4.15 20.72 4.05C20.65 3.94 20.54 3.79 20.49 3.71C20.43 3.63 20.32 3.48 20.25 3.37C20.18 3.26 20.06 3.1 19.99 3C19.92 2.9 19.82 2.75 19.76 2.66C19.69 2.57 19.58 2.42 19.51 2.31C19.44 2.21 19.36 2.09 19.34 2.06C19.31 2.03 19.28 1.98 19.26 1.96C19.25 1.94 19.2 1.87 19.15 1.81C18.95 1.51 18.92 1.46 18.93 1.44C18.95 1.41 24.62 1.4 24.64 1.43ZM33.11 1.43C33.12 1.46 33.08 1.57 33.05 1.57C33.04 1.57 33 1.62 32.96 1.69C32.92 1.75 32.86 1.84 32.83 1.87C32.76 1.97 32.76 1.97 32.67 2.11C32.62 2.18 32.53 2.3 32.47 2.39C32.41 2.48 32.3 2.63 32.23 2.73C32.16 2.83 32.07 2.97 32.02 3.03C31.97 3.1 31.88 3.22 31.83 3.3C31.77 3.38 31.67 3.54 31.59 3.64C31.52 3.75 31.41 3.9 31.35 3.98C31.3 4.06 31.19 4.21 31.12 4.32C31.04 4.42 30.94 4.56 30.9 4.63C30.85 4.7 30.81 4.76 30.8 4.77C30.79 4.77 30.74 4.84 30.69 4.91C30.4 5.34 30.34 5.42 30.29 5.44C30.22 5.47 30.23 5.47 30.17 5.39C30.15 5.35 30.09 5.26 30.04 5.19C29.99 5.13 29.89 4.99 29.82 4.89C29.75 4.79 29.65 4.64 29.58 4.55C29.52 4.46 29.44 4.34 29.39 4.27C29.3 4.14 29.3 4.14 29.22 4.03C29.19 4 29.13 3.91 29.09 3.84C29.04 3.78 28.96 3.66 28.91 3.6C28.86 3.53 28.77 3.39 28.7 3.29C28.63 3.19 28.52 3.04 28.46 2.95C28.4 2.87 28.31 2.74 28.27 2.67C28.18 2.54 28.17 2.54 28.1 2.44C28.07 2.4 28.01 2.31 27.96 2.25C27.88 2.13 27.84 2.06 27.67 1.83C27.64 1.78 27.59 1.71 27.57 1.68C27.55 1.65 27.5 1.59 27.47 1.54C27.43 1.5 27.41 1.45 27.42 1.44C27.43 1.41 33.09 1.4 33.11 1.43ZM41.64 1.43C41.65 1.45 41.55 1.6 41.24 2.04C41.17 2.15 41.02 2.36 40.92 2.52C40.72 2.8 40.59 2.99 40.4 3.27C40.17 3.6 40.07 3.75 39.88 4.02C39.68 4.32 39.55 4.52 39.36 4.78C39.22 4.98 38.95 5.38 38.9 5.46C38.88 5.49 38.84 5.53 38.81 5.54C38.75 5.56 38.74 5.55 38.58 5.31C38.52 5.22 38.42 5.07 38.34 4.97C38.27 4.86 38.15 4.7 38.08 4.6C38.02 4.5 37.91 4.35 37.85 4.26C37.79 4.17 37.68 4.02 37.61 3.91C37.54 3.81 37.45 3.69 37.43 3.65C37.34 3.55 37.34 3.55 37.25 3.42C37.21 3.35 37.12 3.22 37.06 3.13C37 3.05 36.89 2.9 36.82 2.8C36.75 2.7 36.64 2.53 36.57 2.43C36.49 2.32 36.37 2.14 36.29 2.03C36.1 1.75 36.06 1.7 36.05 1.68C36 1.64 35.89 1.45 35.9 1.43C35.92 1.41 41.62 1.41 41.64 1.43ZM26.2 2.2C26.26 2.28 26.34 2.4 26.39 2.47C26.44 2.54 26.54 2.68 26.61 2.77C26.68 2.87 26.79 3.03 26.85 3.12C26.92 3.22 27.03 3.37 27.1 3.47C27.23 3.67 27.4 3.9 27.53 4.08C27.71 4.33 27.88 4.58 27.98 4.72C28.03 4.8 28.14 4.95 28.21 5.05C28.28 5.15 28.38 5.3 28.44 5.38C28.49 5.45 28.54 5.52 28.55 5.53C28.56 5.54 28.59 5.59 28.63 5.64C28.67 5.7 28.72 5.77 28.75 5.81C28.78 5.85 28.81 5.89 28.82 5.9C28.88 5.99 28.98 6.15 28.98 6.17C28.98 6.19 28.97 6.21 28.95 6.23C28.93 6.24 28.14 6.25 26.01 6.25C23.3 6.24 23.09 6.24 23.09 6.2C23.08 6.18 23.1 6.13 23.13 6.09C23.2 5.98 23.37 5.74 23.53 5.51C23.61 5.4 23.71 5.26 23.75 5.19C23.84 5.06 23.84 5.06 23.92 4.96C23.95 4.92 24.01 4.83 24.06 4.77C24.1 4.7 24.17 4.6 24.2 4.55C24.33 4.38 24.49 4.14 24.6 3.99C24.66 3.9 24.75 3.78 24.79 3.71C24.84 3.64 24.94 3.5 25.01 3.39C25.08 3.29 25.15 3.19 25.16 3.18C25.18 3.17 25.23 3.1 25.27 3.03C25.32 2.97 25.41 2.82 25.49 2.72C25.56 2.61 25.66 2.47 25.71 2.4C25.75 2.34 25.84 2.21 25.9 2.13C26.01 1.98 26.02 1.97 26.06 2.01C26.08 2.04 26.15 2.12 26.2 2.2ZM9.11 2.06C9.18 2.13 9.26 2.24 9.39 2.43C9.44 2.51 9.51 2.62 9.55 2.67C9.59 2.73 9.66 2.82 9.71 2.89C9.91 3.18 10 3.31 10.12 3.48C10.2 3.59 10.3 3.74 10.36 3.82C10.41 3.9 10.5 4.02 10.54 4.08C10.58 4.14 10.64 4.23 10.67 4.27C10.7 4.31 10.76 4.39 10.79 4.44C10.83 4.49 10.9 4.6 10.97 4.69C11.03 4.77 11.11 4.89 11.14 4.94C11.18 5 11.23 5.06 11.25 5.09C11.26 5.12 11.33 5.21 11.38 5.28C11.44 5.36 11.54 5.51 11.62 5.62C11.69 5.72 11.76 5.82 11.78 5.84C11.8 5.86 11.81 5.88 11.81 5.89C11.81 5.9 11.85 5.96 11.9 6.03C11.97 6.12 11.99 6.15 11.98 6.2L11.97 6.25L9.09 6.25L6.22 6.24L6.21 6.19C6.2 6.15 6.24 6.1 6.55 5.63C6.74 5.36 7.13 4.8 7.63 4.05C7.74 3.89 7.91 3.64 8.02 3.48C8.12 3.33 8.27 3.12 8.34 3.01C8.41 2.9 8.47 2.81 8.49 2.8C8.51 2.77 8.6 2.63 8.85 2.27C8.95 2.12 9.04 2 9.04 2C9.05 2 9.08 2.02 9.11 2.06ZM17.6 2.04C17.61 2.06 17.64 2.11 17.66 2.14C17.69 2.16 17.76 2.27 17.83 2.37C17.9 2.47 17.99 2.61 18.04 2.67C18.09 2.74 18.18 2.87 18.24 2.95C18.3 3.04 18.4 3.19 18.47 3.28C18.53 3.37 18.65 3.54 18.72 3.64C18.79 3.75 18.88 3.87 18.92 3.92C18.95 3.97 18.98 4.02 18.99 4.02C18.99 4.03 19.04 4.09 19.08 4.16C19.13 4.23 19.23 4.37 19.3 4.47C19.38 4.58 19.48 4.72 19.52 4.79C19.57 4.86 19.62 4.94 19.65 4.97C19.68 5 19.71 5.05 19.72 5.07C19.74 5.09 19.79 5.16 19.83 5.23C19.87 5.29 19.96 5.4 20.01 5.49C20.07 5.57 20.15 5.68 20.19 5.74C20.23 5.81 20.28 5.88 20.3 5.9C20.31 5.92 20.35 5.97 20.38 6.01C20.45 6.1 20.49 6.21 20.45 6.23C20.43 6.24 19.16 6.25 17.53 6.24L14.63 6.24L14.63 6.18C14.62 6.14 14.64 6.09 14.69 6.02C14.73 5.97 14.8 5.86 14.86 5.78C14.91 5.7 15.02 5.55 15.09 5.44C15.17 5.33 15.29 5.17 15.36 5.07C15.43 4.97 15.53 4.82 15.59 4.73C15.65 4.64 15.74 4.52 15.79 4.45C15.83 4.38 15.88 4.32 15.89 4.3C15.91 4.29 15.96 4.21 16.02 4.12C16.07 4.04 16.16 3.92 16.21 3.85C16.32 3.69 16.48 3.46 16.63 3.25C16.69 3.16 16.8 3 16.87 2.9C16.95 2.79 17.05 2.64 17.11 2.56C17.41 2.12 17.47 2.05 17.51 2.03C17.58 1.99 17.59 1.99 17.6 2.04ZM34.69 2.2C34.77 2.32 34.89 2.5 34.97 2.61C35.04 2.71 35.15 2.86 35.2 2.94C35.26 3.02 35.37 3.17 35.44 3.28C35.51 3.39 35.62 3.54 35.68 3.62C35.73 3.7 35.84 3.85 35.91 3.96C35.99 4.06 36.07 4.18 36.1 4.23C36.13 4.27 36.19 4.35 36.24 4.42C36.28 4.48 36.36 4.59 36.42 4.68C36.47 4.76 36.55 4.86 36.58 4.91C36.73 5.13 36.8 5.22 36.93 5.42C37.02 5.54 37.12 5.69 37.17 5.76C37.43 6.11 37.49 6.21 37.43 6.24C37.38 6.26 31.61 6.25 31.57 6.23C31.54 6.21 31.59 6.07 31.68 5.96C31.72 5.91 31.8 5.8 31.85 5.73C32.12 5.34 32.2 5.22 32.29 5.1C32.34 5.04 32.41 4.92 32.46 4.86C32.51 4.79 32.56 4.7 32.59 4.67C32.62 4.64 32.65 4.59 32.66 4.57C32.73 4.47 32.84 4.32 32.95 4.16C33.02 4.07 33.13 3.91 33.2 3.81C33.27 3.71 33.36 3.57 33.41 3.51C33.46 3.44 33.55 3.32 33.6 3.24C33.66 3.15 33.77 3 33.84 2.9C33.92 2.79 34.02 2.64 34.08 2.56C34.13 2.48 34.22 2.35 34.28 2.28C34.34 2.2 34.39 2.12 34.41 2.1C34.43 2.05 34.5 2 34.54 2C34.54 2 34.61 2.09 34.69 2.2ZM42.45 2.87C42.45 2.89 42.46 3.64 42.46 4.54C42.46 5.81 42.45 6.18 42.43 6.21C42.41 6.25 42.32 6.25 41.28 6.25L40.15 6.24L40.15 6.19C40.14 6.15 40.24 5.98 40.52 5.59C40.63 5.43 40.78 5.21 41.01 4.88C41.38 4.33 41.43 4.26 41.47 4.21C41.49 4.19 41.53 4.14 41.55 4.1C41.57 4.06 41.64 3.95 41.72 3.84C41.79 3.74 41.93 3.54 42.02 3.39C42.12 3.25 42.24 3.09 42.28 3.03C42.33 2.97 42.37 2.9 42.38 2.88C42.4 2.82 42.43 2.82 42.45 2.87ZM10.31 7.7C10.32 7.72 10.32 8.16 10.32 8.68C10.32 9.73 10.33 9.71 10.19 9.61C10.15 9.58 10.11 9.56 10.1 9.56C10.09 9.56 10.07 9.54 10.04 9.51C10.02 9.49 9.99 9.47 9.98 9.47C9.97 9.47 9.93 9.45 9.9 9.43C9.85 9.39 9.29 9.02 9.18 8.95C9.13 8.92 8.6 8.57 8.33 8.4C8.11 8.25 8.09 8.24 7.99 8.18C7.96 8.16 7.8 8.06 7.64 7.95C7.48 7.85 7.34 7.76 7.32 7.75C7.31 7.75 7.31 7.73 7.32 7.71C7.33 7.67 7.44 7.67 8.81 7.67C10.15 7.67 10.3 7.67 10.31 7.7ZM13.49 7.7C13.53 7.75 13.52 9.42 13.48 9.44C13.47 9.45 13.43 9.48 13.4 9.5C13.38 9.52 13.28 9.59 13.2 9.64C13.12 9.7 13.02 9.79 12.98 9.84C12.93 9.89 12.9 9.93 12.89 9.94C12.83 10 12.66 10.24 12.63 10.32C12.43 10.75 12.38 10.95 12.39 11.36C12.39 11.67 12.44 11.98 12.52 12.09C12.54 12.11 12.55 12.15 12.55 12.17C12.55 12.19 12.61 12.31 12.67 12.44C12.74 12.57 12.83 12.74 12.87 12.82C12.91 12.9 12.96 12.99 12.98 13.02C13.04 13.09 13.04 13.15 12.98 13.22C12.82 13.46 12.74 13.61 12.6 13.94C12.49 14.22 12.46 14.28 12.46 14.34C12.46 14.37 12.44 14.45 12.42 14.53C12.39 14.6 12.37 14.76 12.36 14.87C12.35 14.99 12.34 15.14 12.32 15.22C12.29 15.44 12.37 16.11 12.46 16.37C12.5 16.48 12.55 16.61 12.56 16.67C12.61 16.82 12.66 16.97 12.69 17.01C12.71 17.05 12.82 17.26 13.11 17.82C13.31 18.2 13.45 18.35 13.73 18.49C13.97 18.61 14.03 18.62 14.26 18.64C14.54 18.66 14.68 18.61 15.38 18.23C15.48 18.18 15.64 18.09 15.74 18.04C15.84 17.99 16 17.91 16.1 17.85C16.2 17.8 16.35 17.71 16.43 17.67C16.78 17.49 16.82 17.47 16.85 17.41C16.88 17.34 16.91 17.33 16.92 17.37C16.94 17.41 17.01 17.37 17.01 17.32C17.01 17.28 17.02 17.28 17.08 17.29C17.14 17.3 17.15 17.3 17.16 17.26C17.17 17.22 17.18 17.21 17.23 17.22C17.27 17.23 17.29 17.22 17.3 17.18C17.3 17.15 17.32 17.14 17.35 17.15C17.37 17.16 17.41 17.14 17.45 17.11C17.48 17.08 17.53 17.05 17.56 17.05C17.59 17.05 17.62 17.04 17.62 17.02C17.63 17 17.68 16.98 17.73 16.96C17.79 16.95 17.84 16.92 17.86 16.9C17.88 16.89 17.96 16.84 18.04 16.81C18.12 16.77 18.27 16.69 18.37 16.64C18.47 16.58 18.63 16.5 18.73 16.45C18.83 16.39 18.99 16.31 19.09 16.25C19.19 16.2 19.34 16.12 19.43 16.07C19.62 15.98 19.88 15.83 20.12 15.7C20.42 15.54 20.58 15.41 20.75 15.16C20.79 15.12 20.81 15.07 20.81 15.06C20.81 15.04 20.83 14.99 20.86 14.93C20.9 14.85 20.91 14.81 20.91 14.55C20.91 14.29 20.9 14.24 20.86 14.15C20.83 14.09 20.81 14.03 20.81 14.02C20.81 14 20.81 14 20.63 13.67C20.34 13.12 20.35 13.15 20.18 12.88C20.01 12.62 19.8 12.35 19.64 12.2C19.57 12.14 19.51 12.08 19.49 12.05C19.45 12.02 19.2 11.83 19.11 11.77C19.08 11.76 19.03 11.72 18.98 11.68C18.81 11.57 18.32 11.34 18.25 11.34C18.23 11.34 18.18 11.32 18.15 11.3C18.02 11.24 17.62 11.16 17.3 11.13C16.85 11.1 16.83 11.09 16.75 10.94C16.67 10.79 16.36 10.23 16.31 10.16C16.29 10.13 16.26 10.08 16.23 10.04C16.13 9.88 15.8 9.59 15.6 9.48C15.41 9.37 15.16 9.27 15.09 9.27C15.07 9.27 15.02 9.24 14.98 9.21L14.91 9.15L14.91 8.44C14.91 7.91 14.92 7.72 14.94 7.7C14.98 7.66 32.97 7.66 33 7.7C33.02 7.72 33.03 7.91 33.03 8.44C33.03 9.11 33.03 9.15 32.99 9.2C32.96 9.24 32.91 9.27 32.85 9.28C32.77 9.29 32.73 9.3 32.56 9.38C32.53 9.39 32.46 9.43 32.41 9.46C32.36 9.49 32.29 9.53 32.25 9.55C32.15 9.59 31.74 10 31.69 10.1C31.67 10.14 31.62 10.21 31.59 10.26C31.56 10.3 31.51 10.37 31.49 10.41C31.47 10.46 31.45 10.51 31.43 10.53C31.42 10.54 31.4 10.59 31.38 10.62C31.27 10.85 31.16 11.03 31.12 11.06C31.07 11.1 30.98 11.11 30.71 11.13C30.35 11.16 29.94 11.24 29.81 11.31C29.77 11.32 29.73 11.34 29.71 11.34C29.62 11.34 28.95 11.68 28.87 11.76C28.86 11.77 28.8 11.82 28.73 11.86C28.61 11.94 28.2 12.33 28.04 12.51C27.96 12.61 27.72 12.96 27.63 13.11C27.56 13.25 27.4 13.54 27.32 13.69C27.19 13.95 27.17 13.98 27.14 14.05C27.11 14.12 27.02 14.55 27.03 14.58C27.04 14.58 27.05 14.66 27.07 14.75C27.1 14.95 27.18 15.14 27.32 15.31C27.38 15.39 27.44 15.46 27.45 15.46C27.46 15.46 27.51 15.49 27.58 15.54C27.64 15.59 27.73 15.65 27.78 15.67C27.89 15.73 28.39 15.99 28.78 16.2C28.84 16.24 28.98 16.31 29.07 16.36C29.16 16.41 29.32 16.49 29.42 16.55C29.52 16.6 29.67 16.68 29.76 16.73C29.84 16.77 29.99 16.85 30.09 16.91C30.19 16.96 30.35 17.05 30.45 17.1C30.55 17.15 30.68 17.22 30.73 17.25C30.79 17.28 30.94 17.36 31.07 17.43C31.2 17.5 31.36 17.58 31.42 17.62C31.48 17.65 31.61 17.71 31.69 17.76C31.88 17.86 32.16 18.01 32.34 18.11C32.6 18.25 32.64 18.27 32.69 18.29C32.72 18.3 32.76 18.32 32.78 18.33C32.9 18.41 33.32 18.59 33.45 18.62C33.63 18.66 33.9 18.65 34.04 18.59C34.34 18.46 34.42 18.41 34.58 18.25C34.64 18.18 34.76 18.01 34.79 17.94C34.8 17.92 34.86 17.8 34.92 17.69C35.12 17.32 35.35 16.86 35.35 16.83C35.35 16.81 35.36 16.77 35.38 16.73C35.42 16.63 35.48 16.46 35.52 16.31C35.54 16.24 35.56 16.15 35.57 16.12C35.65 15.89 35.65 14.89 35.57 14.64C35.55 14.56 35.53 14.48 35.53 14.45C35.53 14.39 35.42 14.04 35.38 13.98C35.36 13.96 35.35 13.92 35.35 13.9C35.35 13.86 35.13 13.43 35.09 13.38C35.07 13.36 35.06 13.34 35.06 13.33C35.06 13.32 35.04 13.29 35.01 13.26C34.96 13.19 34.95 13.06 35 12.99C35.08 12.87 35.44 12.16 35.44 12.13C35.44 12.11 35.45 12.07 35.47 12.03C35.53 11.93 35.58 11.56 35.58 11.34C35.58 11.11 35.52 10.72 35.47 10.63C35.43 10.54 35.33 10.31 35.33 10.29C35.33 10.24 34.93 9.76 34.84 9.69C34.68 9.59 34.48 9.42 34.46 9.39C34.45 9.37 34.45 8.99 34.45 8.54C34.45 7.87 34.45 7.71 34.48 7.69C34.5 7.68 34.75 7.67 35.35 7.67L36.19 7.68L36.2 15.03C36.2 20.89 36.2 22.37 36.18 22.39C36.16 22.4 35.71 22.41 35.17 22.41C34.27 22.41 34.2 22.41 34.09 22.45C33.98 22.5 33.77 22.63 33.77 22.66C33.77 22.67 33.75 22.7 33.72 22.74C33.69 22.78 33.65 22.86 33.64 22.93C33.61 23.03 33.6 24.6 33.59 30.81C33.59 35.07 33.57 38.57 33.56 38.58C33.55 38.59 32.93 38.6 32.18 38.61L30.81 38.62L30.7 38.69C30.64 38.73 30.57 38.77 30.55 38.79C30.46 38.86 30.38 39.01 30.35 39.16C30.31 39.31 30.31 39.33 30.35 39.47C30.41 39.72 30.55 39.86 30.81 39.97C30.93 40.02 30.98 40.02 38.7 40.02L46.48 40.03L46.52 40.08C46.56 40.12 46.57 40.17 46.57 41.12L46.57 42.12L46.51 42.18L46.45 42.23L23.99 42.23C3.37 42.23 1.52 42.23 1.47 42.2L1.41 42.16L1.41 41.12C1.41 40.31 1.42 40.07 1.44 40.06C1.46 40.05 7.5 40.04 14.87 40.03L28.27 40.02L28.4 39.97C28.61 39.89 28.73 39.78 28.82 39.6C28.87 39.52 28.88 39.47 28.87 39.29C28.87 39.11 28.87 39.07 28.82 39.02C28.8 38.98 28.78 38.94 28.78 38.93C28.78 38.9 28.59 38.73 28.5 38.68L28.41 38.62L21.36 38.61C17.48 38.6 14.3 38.59 14.29 38.58C14.28 38.57 14.27 35.04 14.26 30.73C14.25 22.95 14.25 22.89 14.21 22.82C14.18 22.79 14.15 22.74 14.14 22.71C14.1 22.63 13.88 22.48 13.76 22.44C13.67 22.42 13.49 22.41 12.75 22.41C12.23 22.41 11.83 22.4 11.8 22.39L11.74 22.36L11.74 15.04C11.74 9.38 11.75 7.72 11.77 7.7C11.81 7.65 13.46 7.66 13.49 7.7ZM40.66 7.7C40.68 7.73 40.67 7.74 40.62 7.77C40.58 7.79 40.47 7.86 40.37 7.93C40.27 8 40.18 8.05 40.17 8.05C40.16 8.05 40.13 8.07 40.11 8.1C40.09 8.12 40.05 8.15 40.02 8.15C40 8.16 39.95 8.19 39.92 8.21C39.88 8.24 39.76 8.32 39.63 8.4C39.51 8.48 39.39 8.56 39.38 8.57C39.02 8.8 38.66 9.04 38.43 9.19C38.27 9.29 38.14 9.38 38.12 9.38C38.11 9.38 38.08 9.4 38.06 9.42C38.04 9.45 38.01 9.47 38 9.47C37.98 9.47 37.86 9.55 37.79 9.61C37.74 9.65 37.72 9.65 37.68 9.63L37.62 9.6L37.62 8.67C37.62 7.85 37.63 7.73 37.66 7.7C37.69 7.67 37.85 7.67 39.16 7.67C40.41 7.67 40.63 7.67 40.66 7.7ZM42.45 8.31C42.47 8.37 42.46 13.66 42.44 13.7C42.42 13.72 42.38 13.7 42.25 13.62C42.16 13.56 42.07 13.5 42.05 13.49C42.01 13.46 41.64 13.22 41.55 13.16C41.52 13.13 41.48 13.11 41.47 13.11C41.46 13.11 41.44 13.09 41.41 13.07C41.39 13.04 41.36 13.02 41.35 13.02C41.34 13.02 41.28 12.99 41.21 12.94C41.09 12.86 40.68 12.59 39.89 12.08C39.73 11.96 39.57 11.87 39.56 11.85C39.51 11.82 38.96 11.47 38.6 11.22L38.28 11.02L38.32 10.95C38.35 10.92 38.39 10.88 38.41 10.88C38.43 10.87 38.57 10.78 38.72 10.68C38.88 10.57 39.07 10.45 39.14 10.4C39.21 10.36 39.35 10.27 39.44 10.21C39.54 10.15 39.63 10.09 39.65 10.08C39.66 10.07 39.82 9.97 39.98 9.86C40.28 9.66 40.61 9.45 40.77 9.35C40.85 9.3 40.99 9.2 41.64 8.78C41.79 8.68 42 8.55 42.11 8.47C42.22 8.4 42.31 8.34 42.32 8.34C42.33 8.34 42.35 8.33 42.37 8.31C42.41 8.27 42.43 8.27 42.45 8.31ZM5.64 8.33C5.67 8.35 5.72 8.38 5.73 8.4C5.75 8.42 5.77 8.43 5.78 8.43C5.79 8.43 5.86 8.47 5.93 8.52C6 8.57 6.19 8.69 6.35 8.8C6.51 8.9 6.78 9.08 6.94 9.18C7.1 9.29 7.25 9.38 7.25 9.38C7.26 9.38 7.3 9.4 7.33 9.43C7.36 9.46 7.44 9.51 7.49 9.54C7.61 9.62 7.61 9.61 7.97 9.85C8.13 9.95 8.4 10.12 8.56 10.23C8.72 10.34 8.89 10.44 8.93 10.47C9.02 10.53 9.19 10.64 9.24 10.67C9.47 10.83 9.57 10.89 9.58 10.89C9.59 10.89 9.62 10.92 9.65 10.95L9.69 11.02L9.62 11.06C9.58 11.09 9.51 11.14 9.46 11.17C9.41 11.21 9.35 11.24 9.33 11.26C9.31 11.27 9.14 11.38 8.96 11.5C8.64 11.72 7.87 12.22 7.68 12.35C7.63 12.38 7.58 12.41 7.57 12.42C7.54 12.44 7.1 12.73 6.22 13.31C5.97 13.47 5.72 13.64 5.67 13.68C5.57 13.75 5.57 13.75 5.54 13.71C5.5 13.65 5.49 8.37 5.54 8.33C5.57 8.29 5.56 8.29 5.64 8.33ZM14.8 10.65C15.02 10.75 15.11 10.86 15.29 11.2L15.39 11.39L15.34 11.44C15.31 11.47 15.18 11.55 15.04 11.62C14.9 11.69 14.74 11.78 14.69 11.81C14.62 11.84 14.51 11.9 14.43 11.94C14.34 11.99 14.26 12.03 14.24 12.05C14.22 12.06 14.18 12.08 14.16 12.09C14.09 12.1 14.03 12.01 13.88 11.71C13.79 11.53 13.78 11.49 13.79 11.34C13.79 11.13 13.86 10.94 14 10.8C14.22 10.6 14.55 10.53 14.8 10.65ZM33.72 10.65C33.98 10.76 34.11 10.92 34.17 11.19C34.21 11.35 34.21 11.35 34.16 11.52C34.13 11.61 34.07 11.74 34.04 11.8C34 11.86 33.96 11.95 33.94 11.99C33.91 12.07 33.89 12.08 33.83 12.08C33.79 12.08 33.75 12.07 33.74 12.06C33.73 12.05 33.66 12 33.57 11.96C33.48 11.91 33.31 11.82 33.2 11.76C33.09 11.7 32.92 11.62 32.84 11.57C32.75 11.53 32.65 11.47 32.63 11.44L32.58 11.39L32.62 11.3C32.65 11.25 32.68 11.18 32.7 11.14C32.76 11.03 32.89 10.84 32.96 10.78C32.99 10.75 33.08 10.7 33.15 10.66C33.33 10.57 33.55 10.57 33.72 10.65ZM10.3 12.38C10.32 12.4 10.32 13.02 10.32 15.04C10.32 17.35 10.32 17.68 10.29 17.71C10.26 17.73 10.21 17.7 9.97 17.54C9.81 17.44 9.43 17.19 9.12 16.98C8.81 16.78 8.53 16.59 8.49 16.57C8.46 16.54 8.41 16.51 8.39 16.5C8.36 16.49 8.33 16.46 8.3 16.44C8.28 16.42 8.25 16.4 8.24 16.4C8.23 16.4 8.2 16.38 8.18 16.36C8.16 16.34 8.12 16.31 8.1 16.3C8.08 16.29 7.97 16.22 7.87 16.15C7.77 16.08 7.66 16.02 7.64 16.01C7.62 15.99 7.42 15.86 7.19 15.71C6.97 15.56 6.76 15.42 6.75 15.41C6.73 15.4 6.61 15.32 6.49 15.24C6.18 15.04 6.19 15.05 6.26 14.99C6.28 14.96 6.34 14.91 6.39 14.89C6.43 14.87 6.51 14.82 6.55 14.78C6.6 14.75 6.84 14.59 7.07 14.44C7.31 14.28 7.7 14.02 7.95 13.86C8.2 13.7 8.42 13.55 8.43 13.54C8.49 13.51 9.33 12.95 9.8 12.64C10.04 12.48 10.25 12.35 10.25 12.35C10.26 12.35 10.28 12.36 10.3 12.38ZM37.89 12.45C37.97 12.5 38.18 12.64 38.35 12.75C38.53 12.86 38.68 12.96 38.69 12.97C38.7 12.98 38.75 13.02 38.8 13.05C38.97 13.16 39.48 13.49 39.85 13.73C40.05 13.87 40.35 14.06 40.51 14.17C40.67 14.27 40.86 14.4 40.93 14.45C41 14.49 41.07 14.53 41.08 14.53C41.09 14.53 41.12 14.55 41.14 14.58C41.17 14.6 41.19 14.62 41.2 14.62C41.21 14.62 41.27 14.66 41.33 14.69C41.47 14.8 41.53 14.84 41.63 14.89C41.67 14.91 41.73 14.96 41.76 14.99L41.81 15.05L41.72 15.1C41.68 15.14 41.47 15.27 41.27 15.41C41.06 15.54 40.7 15.78 40.46 15.94C40.22 16.1 39.89 16.31 39.73 16.42C39.57 16.52 39.38 16.65 39.3 16.7C39.23 16.74 39.17 16.78 39.16 16.78C39.14 16.78 39.12 16.8 39.09 16.83C39.07 16.85 39.05 16.87 39.04 16.87C39.03 16.87 38.97 16.91 38.91 16.94C38.86 16.99 38.79 17.03 38.77 17.04C38.71 17.08 38.62 17.14 38.17 17.43C37.94 17.59 37.73 17.71 37.7 17.71C37.68 17.71 37.65 17.69 37.64 17.68C37.61 17.63 37.62 12.45 37.64 12.39C37.68 12.33 37.72 12.34 37.89 12.45ZM17.34 12.55C17.44 12.56 17.55 12.59 17.59 12.61C17.63 12.63 17.67 12.64 17.69 12.64C17.75 12.64 18.07 12.78 18.21 12.86C18.38 12.97 18.65 13.2 18.77 13.34C18.82 13.41 18.87 13.47 18.88 13.49C18.92 13.52 18.99 13.64 19.24 14.06C19.34 14.24 19.4 14.37 19.4 14.42C19.4 14.49 19.4 14.49 19.16 14.62C19.02 14.7 18.83 14.8 18.73 14.85C18.63 14.9 18.47 14.99 18.37 15.04C18.27 15.1 18.14 15.16 18.09 15.19C17.99 15.24 17.68 15.41 17.41 15.55C17.18 15.68 16.83 15.86 16.72 15.92C16.66 15.95 16.53 16.02 16.43 16.07C16.01 16.3 15.75 16.44 15.66 16.48C15.6 16.51 15.48 16.58 15.38 16.64C15.28 16.69 15.12 16.78 15.02 16.83C14.92 16.88 14.74 16.97 14.62 17.03C14.51 17.09 14.4 17.14 14.39 17.14C14.35 17.14 14.3 17.07 14.19 16.85C14.14 16.76 14.09 16.67 14.08 16.65C14.07 16.63 14.03 16.55 14 16.48C13.97 16.4 13.94 16.33 13.92 16.31C13.88 16.21 13.79 15.92 13.77 15.76C13.68 15.1 13.81 14.51 14.18 13.96C14.29 13.8 14.56 13.52 14.69 13.44C14.75 13.4 14.8 13.37 14.8 13.36C14.82 13.34 15.13 13.15 15.21 13.11C15.52 12.95 15.83 12.79 15.86 12.78C15.98 12.71 16.27 12.61 16.43 12.57C16.59 12.54 16.96 12.51 17.06 12.52C17.11 12.53 17.24 12.54 17.34 12.55ZM31.4 12.55C31.57 12.58 31.89 12.67 31.94 12.71C31.95 12.72 31.99 12.73 32.02 12.74C32.07 12.76 32.49 12.96 32.56 13C32.58 13.01 32.69 13.08 32.8 13.14C33.13 13.33 33.16 13.35 33.35 13.5C33.62 13.72 33.83 13.97 33.97 14.27C34.01 14.36 34.06 14.45 34.07 14.48C34.08 14.5 34.11 14.6 34.14 14.69C34.16 14.78 34.19 14.9 34.2 14.95C34.24 15.09 34.22 15.83 34.17 15.92C34.15 15.95 34.13 16.02 34.12 16.07C34.1 16.18 33.84 16.74 33.67 17.05C33.62 17.14 33.54 17.17 33.48 17.12C33.46 17.1 33.37 17.05 33.28 17C33.19 16.95 33.03 16.87 32.93 16.82C32.83 16.76 32.68 16.68 32.59 16.64C32.44 16.56 32.27 16.47 31.88 16.26C31.77 16.2 31.62 16.12 31.53 16.07C31.45 16.03 31.3 15.95 31.2 15.89C31.1 15.84 30.94 15.75 30.84 15.7C30.74 15.65 30.58 15.57 30.48 15.51C30.38 15.46 30.25 15.39 30.19 15.36C30.08 15.3 29.68 15.09 29.42 14.94C29.32 14.89 29.2 14.83 29.15 14.8C28.78 14.62 28.56 14.49 28.56 14.44C28.55 14.42 28.59 14.32 28.63 14.24C28.68 14.15 28.74 14.03 28.77 13.97C28.83 13.85 28.84 13.84 29.01 13.59C29.08 13.48 29.21 13.32 29.3 13.23C29.51 13.02 29.94 12.73 30.04 12.73C30.06 12.73 30.08 12.72 30.09 12.71C30.11 12.68 30.46 12.58 30.61 12.55C30.81 12.53 31.2 12.52 31.4 12.55ZM5.7 16.41C5.76 16.45 5.96 16.58 6.15 16.71C6.33 16.83 6.5 16.94 6.52 16.95C6.58 16.99 6.87 17.18 7.12 17.34C7.24 17.42 7.35 17.5 7.37 17.51C7.39 17.53 7.45 17.57 7.51 17.6C7.56 17.64 7.64 17.69 7.68 17.72C7.72 17.74 7.99 17.92 8.29 18.12C8.58 18.32 8.99 18.59 9.19 18.72C9.39 18.85 9.58 18.98 9.62 19.01C9.69 19.06 9.69 19.06 9.66 19.1C9.63 19.13 9.56 19.19 9.49 19.23C9.29 19.36 8.79 19.69 8.65 19.78C8.58 19.83 8.51 19.87 8.5 19.87C8.49 19.87 8.47 19.89 8.45 19.91C8.42 19.94 8.4 19.96 8.38 19.96C8.37 19.96 8.23 20.04 8.07 20.15C7.4 20.59 6.96 20.88 6.9 20.91C6.88 20.92 6.84 20.95 6.81 20.97C6.78 20.99 6.68 21.06 6.59 21.11C6.41 21.23 6 21.5 5.75 21.66C5.49 21.83 5.52 22.13 5.51 19.07C5.51 17.59 5.51 16.38 5.52 16.36C5.54 16.32 5.57 16.33 5.7 16.41ZM42.45 16.38C42.47 16.48 42.45 21.76 42.43 21.77C42.41 21.78 42.32 21.72 42.21 21.65C42.11 21.59 42 21.52 41.99 21.51C41.97 21.5 41.81 21.4 41.64 21.28C41.48 21.17 41.33 21.08 41.32 21.08C41.3 21.08 41.28 21.06 41.26 21.04C41.23 21.01 41.21 20.99 41.2 20.99C41.19 20.99 41.09 20.93 40.98 20.86C40.87 20.79 40.68 20.66 40.56 20.58C40.43 20.5 40.2 20.35 40.03 20.24C39.86 20.13 39.69 20.02 39.65 19.99C39.36 19.81 38.56 19.29 38.53 19.26C38.52 19.25 38.48 19.22 38.44 19.2C38.4 19.19 38.35 19.15 38.32 19.12L38.26 19.07L38.32 19.03C38.35 19.01 38.43 18.95 38.5 18.9C38.78 18.72 39.01 18.57 39.04 18.55C39.09 18.52 39.44 18.29 39.54 18.22C39.57 18.2 39.6 18.18 39.61 18.18C39.62 18.18 39.67 18.14 39.73 18.1C39.78 18.07 39.85 18.02 39.87 18.01C39.95 17.96 39.96 17.95 41.26 17.1C41.61 16.87 42.12 16.54 42.29 16.42C42.34 16.39 42.38 16.36 42.39 16.35C42.4 16.31 42.44 16.33 42.45 16.38ZM10.32 21.39C10.32 22.08 10.32 22.36 10.3 22.38C10.28 22.4 10.02 22.41 8.83 22.41C7.88 22.41 7.36 22.4 7.32 22.39L7.26 22.36L7.39 22.28C7.53 22.19 7.8 22.01 7.84 21.99C7.85 21.98 7.9 21.94 7.95 21.91C8.28 21.7 8.54 21.53 8.71 21.41C8.82 21.34 8.92 21.28 8.93 21.28C8.94 21.28 8.96 21.26 8.99 21.24C9.01 21.21 9.03 21.19 9.05 21.19C9.07 21.19 9.38 20.99 9.94 20.62C10.1 20.51 10.24 20.43 10.27 20.43C10.31 20.44 10.31 20.46 10.32 21.39ZM37.8 20.47C37.83 20.49 37.98 20.59 38.12 20.68C38.27 20.78 38.51 20.93 38.65 21.03C38.8 21.12 38.95 21.22 38.99 21.25C39.16 21.35 39.49 21.57 39.78 21.76C39.95 21.87 40.1 21.97 40.12 21.98C40.44 22.19 40.67 22.35 40.68 22.36C40.68 22.37 40.66 22.39 40.63 22.39C40.53 22.42 37.74 22.41 37.68 22.38L37.62 22.36L37.62 21.42C37.62 20.54 37.62 20.47 37.66 20.45C37.72 20.42 37.73 20.42 37.8 20.47ZM44.69 43.68C44.73 43.71 44.73 43.81 44.73 45.14L44.72 46.57L24 46.57C8.69 46.58 3.27 46.57 3.24 46.55C3.22 46.53 3.21 46.28 3.21 45.12L3.21 43.72L3.26 43.69C3.31 43.66 5.31 43.65 23.98 43.65C40.49 43.65 44.66 43.66 44.69 43.68Z" fill="url(#paint_linear_317_15068_0)" fill-opacity="1.000000" fill-rule="nonzero"/>
		<path id="path" d="M4.48 0.08C4.28 0.19 4.14 0.38 4.11 0.6C4.1 0.69 4.09 4.65 4.09 11.57C4.09 17.52 4.09 22.39 4.09 22.39C4.08 22.39 3.6 22.4 3.02 22.41L1.96 22.42L1.85 22.48C1.63 22.6 1.53 22.73 1.47 22.96C1.44 23.1 1.44 23.54 1.44 28.51C1.44 32.33 1.44 33.94 1.46 34.01C1.5 34.17 1.59 34.35 1.68 34.42C1.84 34.55 1.93 34.58 2.14 34.58C2.31 34.58 2.35 34.58 2.44 34.52C2.67 34.39 2.78 34.24 2.82 34.01C2.84 33.89 2.85 32.59 2.85 28.85L2.85 23.85L2.91 23.83C3 23.79 12.78 23.8 12.82 23.83C12.84 23.85 12.84 25.52 12.84 31.22C12.84 37.91 12.84 38.58 12.81 38.6C12.74 38.62 2.94 38.61 2.9 38.59C2.86 38.57 2.85 38.53 2.85 37.69C2.85 36.62 2.84 36.49 2.69 36.3C2.64 36.24 2.58 36.17 2.56 36.17C2.53 36.16 2.52 36.15 2.52 36.14C2.52 36.11 2.23 36.02 2.14 36.02C2.07 36.02 1.8 36.1 1.78 36.13C1.77 36.14 1.73 36.16 1.7 36.18C1.61 36.25 1.51 36.42 1.47 36.58C1.44 36.7 1.44 36.9 1.44 37.64C1.44 38.66 1.44 38.6 1.28 38.63C1.17 38.64 0.89 38.74 0.79 38.8C0.54 38.94 0.27 39.22 0.19 39.41C0.17 39.45 0.14 39.49 0.13 39.5C0.12 39.51 0.1 39.57 0.08 39.64C0.07 39.7 0.04 39.77 0.03 39.77C0 39.78 0 39.99 0 41.11C0 42.41 0 42.44 0.04 42.5C0.06 42.53 0.08 42.58 0.08 42.6C0.08 42.78 0.45 43.25 0.73 43.42C0.93 43.55 1.3 43.65 1.59 43.65C1.84 43.65 1.82 43.47 1.82 45.51C1.82 47.46 1.82 47.49 1.95 47.68C1.99 47.74 2.06 47.81 2.11 47.85C2.17 47.88 2.24 47.93 2.27 47.95C2.33 47.99 2.98 48 23.99 48C38.61 48 45.66 47.99 45.67 47.97C45.67 47.96 45.72 47.93 45.77 47.91C45.96 47.81 46.1 47.61 46.13 47.39C46.14 47.3 46.15 46.51 46.15 45.47L46.15 43.7L46.21 43.68C46.24 43.66 46.32 43.65 46.39 43.65C46.56 43.65 46.94 43.58 47.06 43.51C47.29 43.4 47.32 43.38 47.46 43.25C47.69 43.03 47.88 42.73 47.92 42.49C47.93 42.43 47.95 42.38 47.96 42.36C48.01 42.31 48.01 39.91 47.96 39.89C47.95 39.88 47.92 39.81 47.91 39.74C47.88 39.6 47.74 39.3 47.62 39.16C47.39 38.88 46.99 38.66 46.63 38.62C46.55 38.61 46.48 38.6 46.46 38.59C46.44 38.57 46.43 37.73 46.42 33.3C46.41 30.39 46.4 28.01 46.39 27.98C46.38 27.96 46.36 27.94 46.35 27.94C46.34 27.94 46.33 27.93 46.32 27.9C46.3 27.84 46.17 27.71 46.04 27.64C45.95 27.58 45.91 27.58 45.74 27.58C45.54 27.57 45.45 27.6 45.3 27.72C45.2 27.79 45.1 27.95 45.07 28.06C45.04 28.14 45.03 29.38 45.02 33.36C45.02 37.96 45.01 38.57 44.98 38.59C44.96 38.6 43.08 38.61 40.01 38.61C35.56 38.61 35.08 38.61 35.05 38.58C35.01 38.54 35.01 37.84 35.01 31.19L35.01 23.85L35.07 23.83C35.15 23.8 44.93 23.8 44.98 23.83C45.01 23.84 45.02 23.98 45.03 24.7C45.04 25.6 45.05 25.69 45.15 25.81C45.18 25.85 45.2 25.89 45.2 25.89C45.2 25.93 45.45 26.07 45.56 26.11C45.72 26.16 45.76 26.15 45.93 26.1C46.1 26.04 46.26 25.91 46.35 25.77L46.41 25.66L46.41 24.28L46.41 22.89L46.35 22.78C46.26 22.64 46.1 22.51 45.95 22.45C45.84 22.41 45.78 22.41 44.88 22.41C44.36 22.41 43.92 22.4 43.91 22.39C43.88 22.38 43.88 20.13 43.87 11.46L43.87 0.55L43.8 0.42C43.73 0.27 43.6 0.14 43.48 0.08C43.42 0.06 43.38 0.03 43.38 0.02C43.38 0 37.34 0 23.97 0C11.32 0 4.56 0 4.56 0.02C4.56 0.03 4.52 0.06 4.48 0.08ZM7.4 1.89C7.33 1.99 7.25 2.11 7.23 2.14C7.21 2.18 7.16 2.25 7.12 2.3C7.08 2.35 7.03 2.42 7.02 2.45C7 2.48 6.98 2.51 6.97 2.52C6.96 2.52 6.9 2.62 6.82 2.73C6.75 2.84 6.61 3.04 6.51 3.19C5.96 4 5.83 4.19 5.81 4.22C5.8 4.24 5.75 4.31 5.71 4.37C5.66 4.43 5.62 4.49 5.61 4.52C5.6 4.54 5.59 4.56 5.58 4.56C5.51 4.56 5.51 4.5 5.51 2.98C5.51 2.13 5.52 1.44 5.52 1.43C5.55 1.4 7.66 1.41 7.68 1.43C7.69 1.46 7.62 1.57 7.4 1.89ZM15.93 1.8C15.85 1.9 15.75 2.04 15.71 2.11C15.66 2.18 15.62 2.24 15.61 2.25C15.61 2.25 15.58 2.29 15.55 2.32C15.53 2.36 15.46 2.46 15.41 2.54C15.35 2.61 15.28 2.72 15.25 2.76C15.12 2.95 14.97 3.17 14.87 3.31C14.8 3.4 14.71 3.54 14.64 3.63C14.58 3.71 14.48 3.87 14.41 3.97C14.29 4.14 14.24 4.21 14.08 4.43C14.04 4.49 13.97 4.59 13.91 4.68C13.82 4.81 13.78 4.87 13.61 5.11C13.57 5.16 13.5 5.26 13.46 5.32C13.41 5.39 13.35 5.46 13.32 5.48C13.27 5.52 13.26 5.52 13.24 5.48C13.22 5.44 13.14 5.33 13.07 5.25C13.07 5.24 13.02 5.17 12.98 5.1C12.93 5.04 12.83 4.89 12.75 4.79C12.68 4.68 12.57 4.53 12.52 4.45C12.46 4.37 12.36 4.22 12.29 4.12C12.22 4.02 12.1 3.85 12.03 3.75C11.96 3.64 11.85 3.49 11.79 3.4C11.73 3.32 11.61 3.15 11.53 3.03C11.45 2.92 11.32 2.73 11.24 2.63C11.17 2.52 11.06 2.37 11.01 2.29C10.95 2.21 10.85 2.06 10.77 1.95C10.51 1.58 10.42 1.44 10.43 1.43C10.45 1.4 16.14 1.42 16.15 1.45C16.15 1.47 16.13 1.51 15.93 1.8ZM24.55 1.59C24.49 1.67 24.4 1.81 24.34 1.9C24.28 1.98 24.18 2.12 24.13 2.2C24.07 2.28 23.97 2.43 23.89 2.54C23.82 2.64 23.72 2.79 23.67 2.85C23.59 2.99 23.58 2.99 23.5 3.09C23.48 3.13 23.41 3.21 23.37 3.28C23.32 3.35 23.26 3.44 23.22 3.49C23.11 3.66 22.94 3.9 22.83 4.06C22.77 4.14 22.66 4.3 22.59 4.41C22.51 4.51 22.41 4.66 22.35 4.74C22.3 4.82 22.19 4.97 22.12 5.08C22.04 5.19 21.94 5.33 21.9 5.39C21.85 5.45 21.81 5.51 21.8 5.52C21.78 5.53 21.69 5.43 21.56 5.25C21.5 5.16 21.41 5.03 21.36 4.96C21.31 4.89 21.23 4.77 21.17 4.69C21.11 4.6 21.06 4.52 21.05 4.51C21.03 4.5 20.99 4.43 20.94 4.36C20.89 4.29 20.8 4.15 20.72 4.05C20.65 3.94 20.54 3.79 20.49 3.71C20.43 3.63 20.32 3.48 20.25 3.37C20.18 3.26 20.06 3.1 19.99 3C19.92 2.9 19.82 2.75 19.76 2.66C19.69 2.57 19.58 2.42 19.51 2.31C19.44 2.21 19.36 2.09 19.34 2.06C19.31 2.03 19.28 1.98 19.26 1.96C19.25 1.94 19.2 1.87 19.15 1.81C18.95 1.51 18.92 1.46 18.93 1.44C18.95 1.41 24.62 1.4 24.64 1.43C24.65 1.43 24.61 1.51 24.55 1.59ZM33.05 1.57C33.04 1.57 33 1.62 32.96 1.69C32.92 1.75 32.86 1.84 32.83 1.87C32.76 1.97 32.76 1.97 32.67 2.11C32.62 2.18 32.53 2.3 32.47 2.39C32.41 2.48 32.3 2.63 32.23 2.73C32.16 2.83 32.07 2.97 32.02 3.03C31.97 3.1 31.88 3.22 31.83 3.3C31.77 3.38 31.67 3.54 31.59 3.64C31.52 3.75 31.41 3.9 31.35 3.98C31.3 4.06 31.19 4.21 31.12 4.32C31.04 4.42 30.94 4.56 30.9 4.63C30.85 4.7 30.81 4.76 30.8 4.77C30.79 4.77 30.74 4.84 30.69 4.91C30.4 5.34 30.34 5.42 30.29 5.44C30.22 5.47 30.23 5.47 30.17 5.39C30.15 5.35 30.09 5.26 30.04 5.19C29.99 5.13 29.89 4.99 29.82 4.89C29.75 4.79 29.65 4.64 29.58 4.55C29.52 4.46 29.44 4.34 29.39 4.27C29.3 4.14 29.3 4.14 29.22 4.03C29.19 4 29.13 3.91 29.09 3.84C29.04 3.78 28.96 3.66 28.91 3.6C28.86 3.53 28.77 3.39 28.7 3.29C28.63 3.19 28.52 3.04 28.46 2.95C28.4 2.87 28.31 2.74 28.27 2.67C28.18 2.54 28.17 2.54 28.1 2.44C28.07 2.4 28.01 2.31 27.96 2.25C27.88 2.13 27.84 2.06 27.67 1.83C27.64 1.78 27.59 1.71 27.57 1.68C27.55 1.65 27.5 1.59 27.47 1.54C27.43 1.5 27.41 1.45 27.42 1.44C27.43 1.41 33.09 1.4 33.11 1.43C33.12 1.46 33.08 1.57 33.05 1.57ZM41.24 2.04C41.17 2.15 41.02 2.36 40.92 2.52C40.72 2.8 40.59 2.99 40.4 3.27C40.17 3.6 40.07 3.75 39.88 4.02C39.68 4.32 39.55 4.52 39.36 4.78C39.22 4.98 38.95 5.38 38.9 5.46C38.88 5.49 38.84 5.53 38.81 5.54C38.75 5.56 38.74 5.55 38.58 5.31C38.52 5.22 38.42 5.07 38.34 4.97C38.27 4.86 38.15 4.7 38.08 4.6C38.02 4.5 37.91 4.35 37.85 4.26C37.79 4.17 37.68 4.02 37.61 3.91C37.54 3.81 37.45 3.69 37.43 3.65C37.34 3.55 37.34 3.55 37.25 3.42C37.21 3.35 37.12 3.22 37.06 3.13C37 3.05 36.89 2.9 36.82 2.8C36.75 2.7 36.64 2.53 36.57 2.43C36.49 2.32 36.37 2.14 36.29 2.03C36.1 1.75 36.06 1.7 36.05 1.68C36 1.64 35.89 1.45 35.9 1.43C35.92 1.41 41.62 1.41 41.64 1.43C41.65 1.45 41.55 1.6 41.24 2.04ZM26.39 2.47C26.44 2.54 26.54 2.68 26.61 2.77C26.68 2.87 26.79 3.03 26.85 3.12C26.92 3.22 27.03 3.37 27.1 3.47C27.23 3.67 27.4 3.9 27.53 4.08C27.71 4.33 27.88 4.58 27.98 4.72C28.03 4.8 28.14 4.95 28.21 5.05C28.28 5.15 28.38 5.3 28.44 5.38C28.49 5.45 28.54 5.52 28.55 5.53C28.56 5.54 28.59 5.59 28.63 5.64C28.67 5.7 28.72 5.77 28.75 5.81C28.78 5.85 28.81 5.89 28.82 5.9C28.88 5.99 28.98 6.15 28.98 6.17C28.98 6.19 28.97 6.21 28.95 6.23C28.93 6.24 28.14 6.25 26.01 6.25C23.3 6.24 23.09 6.24 23.09 6.2C23.08 6.18 23.1 6.13 23.13 6.09C23.2 5.98 23.37 5.74 23.53 5.51C23.61 5.4 23.71 5.26 23.75 5.19C23.84 5.06 23.84 5.06 23.92 4.96C23.95 4.92 24.01 4.83 24.06 4.77C24.1 4.7 24.17 4.6 24.2 4.55C24.33 4.38 24.49 4.14 24.6 3.99C24.66 3.9 24.75 3.78 24.79 3.71C24.84 3.64 24.94 3.5 25.01 3.39C25.08 3.29 25.15 3.19 25.16 3.18C25.18 3.17 25.23 3.1 25.27 3.03C25.32 2.97 25.41 2.82 25.49 2.72C25.56 2.61 25.66 2.47 25.71 2.4C25.75 2.34 25.84 2.21 25.9 2.13C26.01 1.98 26.02 1.97 26.06 2.01C26.08 2.04 26.15 2.12 26.2 2.2C26.26 2.28 26.34 2.4 26.39 2.47ZM9.39 2.43C9.44 2.51 9.51 2.62 9.55 2.67C9.59 2.73 9.66 2.82 9.71 2.89C9.91 3.18 10 3.31 10.12 3.48C10.2 3.59 10.3 3.74 10.36 3.82C10.41 3.9 10.5 4.02 10.54 4.08C10.58 4.14 10.64 4.23 10.67 4.27C10.7 4.31 10.76 4.39 10.79 4.44C10.83 4.49 10.9 4.6 10.97 4.69C11.03 4.77 11.11 4.89 11.14 4.94C11.18 5 11.23 5.06 11.25 5.09C11.26 5.12 11.33 5.21 11.38 5.28C11.44 5.36 11.54 5.51 11.62 5.62C11.69 5.72 11.76 5.82 11.78 5.84C11.8 5.86 11.81 5.88 11.81 5.89C11.81 5.9 11.85 5.96 11.9 6.03C11.97 6.12 11.99 6.15 11.98 6.2L11.97 6.25L9.09 6.25L6.22 6.24L6.21 6.19C6.2 6.15 6.24 6.1 6.55 5.63C6.74 5.36 7.13 4.8 7.63 4.05C7.74 3.89 7.91 3.64 8.02 3.48C8.12 3.33 8.27 3.12 8.34 3.01C8.41 2.9 8.47 2.81 8.49 2.8C8.51 2.77 8.6 2.63 8.85 2.27C8.95 2.12 9.04 2 9.04 2C9.05 2 9.08 2.02 9.11 2.06C9.18 2.13 9.26 2.24 9.39 2.43ZM17.66 2.14C17.69 2.16 17.76 2.27 17.83 2.37C17.9 2.47 17.99 2.61 18.04 2.67C18.09 2.74 18.18 2.87 18.24 2.95C18.3 3.04 18.4 3.19 18.47 3.28C18.53 3.37 18.65 3.54 18.72 3.64C18.79 3.75 18.88 3.87 18.92 3.92C18.95 3.97 18.98 4.02 18.99 4.02C18.99 4.03 19.04 4.09 19.08 4.16C19.13 4.23 19.23 4.37 19.3 4.47C19.38 4.58 19.48 4.72 19.52 4.79C19.57 4.86 19.62 4.94 19.65 4.97C19.68 5 19.71 5.05 19.72 5.07C19.74 5.09 19.79 5.16 19.83 5.23C19.87 5.29 19.96 5.4 20.01 5.49C20.07 5.57 20.15 5.68 20.19 5.74C20.23 5.81 20.28 5.88 20.3 5.9C20.31 5.92 20.35 5.97 20.38 6.01C20.45 6.1 20.49 6.21 20.45 6.23C20.43 6.24 19.16 6.25 17.53 6.24L14.63 6.24L14.63 6.18C14.62 6.14 14.64 6.09 14.69 6.02C14.73 5.97 14.8 5.86 14.86 5.78C14.91 5.7 15.02 5.55 15.09 5.44C15.17 5.33 15.29 5.17 15.36 5.07C15.43 4.97 15.53 4.82 15.59 4.73C15.65 4.64 15.74 4.52 15.79 4.45C15.83 4.38 15.88 4.32 15.89 4.3C15.91 4.29 15.96 4.21 16.02 4.12C16.07 4.04 16.16 3.92 16.21 3.85C16.32 3.69 16.48 3.46 16.63 3.25C16.69 3.16 16.8 3 16.87 2.9C16.95 2.79 17.05 2.64 17.11 2.56C17.41 2.12 17.47 2.05 17.51 2.03C17.58 1.99 17.59 1.99 17.6 2.04C17.61 2.06 17.64 2.11 17.66 2.14ZM34.97 2.61C35.04 2.71 35.15 2.86 35.2 2.94C35.26 3.02 35.37 3.17 35.44 3.28C35.51 3.39 35.62 3.54 35.68 3.62C35.73 3.7 35.84 3.85 35.91 3.96C35.99 4.06 36.07 4.18 36.1 4.23C36.13 4.27 36.19 4.35 36.24 4.42C36.28 4.48 36.36 4.59 36.42 4.68C36.47 4.76 36.55 4.86 36.58 4.91C36.73 5.13 36.8 5.22 36.93 5.42C37.02 5.54 37.12 5.69 37.17 5.76C37.43 6.11 37.49 6.21 37.43 6.24C37.38 6.26 31.61 6.25 31.57 6.23C31.54 6.21 31.59 6.07 31.68 5.96C31.72 5.91 31.8 5.8 31.85 5.73C32.12 5.34 32.2 5.22 32.29 5.1C32.34 5.04 32.41 4.92 32.46 4.86C32.51 4.79 32.56 4.7 32.59 4.67C32.62 4.64 32.65 4.59 32.66 4.57C32.73 4.47 32.84 4.32 32.95 4.16C33.02 4.07 33.13 3.91 33.2 3.81C33.27 3.71 33.36 3.57 33.41 3.51C33.46 3.44 33.55 3.32 33.6 3.24C33.66 3.15 33.77 3 33.84 2.9C33.92 2.79 34.02 2.64 34.08 2.56C34.13 2.48 34.22 2.35 34.28 2.28C34.34 2.2 34.39 2.12 34.41 2.1C34.43 2.05 34.5 2 34.54 2C34.54 2 34.61 2.09 34.69 2.2C34.77 2.32 34.89 2.5 34.97 2.61ZM42.46 4.54C42.46 5.81 42.45 6.18 42.43 6.21C42.41 6.25 42.32 6.25 41.28 6.25L40.15 6.24L40.15 6.19C40.14 6.15 40.24 5.98 40.52 5.59C40.63 5.43 40.78 5.21 41.01 4.88C41.38 4.33 41.43 4.26 41.47 4.21C41.49 4.19 41.53 4.14 41.55 4.1C41.57 4.06 41.64 3.95 41.72 3.84C41.79 3.74 41.93 3.54 42.02 3.39C42.12 3.25 42.24 3.09 42.28 3.03C42.33 2.97 42.37 2.9 42.38 2.88C42.4 2.82 42.43 2.82 42.45 2.87C42.45 2.89 42.46 3.64 42.46 4.54ZM10.32 8.68C10.32 9.73 10.33 9.71 10.19 9.61C10.15 9.58 10.11 9.56 10.1 9.56C10.09 9.56 10.07 9.54 10.04 9.51C10.02 9.49 9.99 9.47 9.98 9.47C9.97 9.47 9.93 9.45 9.9 9.43C9.85 9.39 9.29 9.02 9.18 8.95C9.13 8.92 8.6 8.57 8.33 8.4C8.11 8.25 8.09 8.24 7.99 8.18C7.96 8.16 7.8 8.06 7.64 7.95C7.48 7.85 7.34 7.76 7.32 7.75C7.31 7.75 7.31 7.73 7.32 7.71C7.33 7.67 7.44 7.67 8.81 7.67C10.15 7.67 10.3 7.67 10.31 7.7C10.32 7.72 10.32 8.16 10.32 8.68ZM13.48 9.44C13.47 9.45 13.43 9.48 13.4 9.5C13.38 9.52 13.28 9.59 13.2 9.64C13.12 9.7 13.02 9.79 12.98 9.84C12.93 9.89 12.9 9.93 12.89 9.94C12.83 10 12.66 10.24 12.63 10.32C12.43 10.75 12.38 10.95 12.39 11.36C12.39 11.67 12.44 11.98 12.52 12.09C12.54 12.11 12.55 12.15 12.55 12.17C12.55 12.19 12.61 12.31 12.67 12.44C12.74 12.57 12.83 12.74 12.87 12.82C12.91 12.9 12.96 12.99 12.98 13.02C13.04 13.09 13.04 13.15 12.98 13.22C12.82 13.46 12.74 13.61 12.6 13.94C12.49 14.22 12.46 14.28 12.46 14.34C12.46 14.37 12.44 14.45 12.42 14.53C12.39 14.6 12.37 14.76 12.36 14.87C12.35 14.99 12.34 15.14 12.32 15.22C12.29 15.44 12.37 16.11 12.46 16.37C12.5 16.48 12.55 16.61 12.56 16.67C12.61 16.82 12.66 16.97 12.69 17.01C12.71 17.05 12.82 17.26 13.11 17.82C13.31 18.2 13.45 18.35 13.73 18.49C13.97 18.61 14.03 18.62 14.26 18.64C14.54 18.66 14.68 18.61 15.38 18.23C15.48 18.18 15.64 18.09 15.74 18.04C15.84 17.99 16 17.91 16.1 17.85C16.2 17.8 16.35 17.71 16.43 17.67C16.78 17.49 16.82 17.47 16.85 17.41C16.88 17.34 16.91 17.33 16.92 17.37C16.94 17.41 17.01 17.37 17.01 17.32C17.01 17.28 17.02 17.28 17.08 17.29C17.14 17.3 17.15 17.3 17.16 17.26C17.17 17.22 17.18 17.21 17.23 17.22C17.27 17.23 17.29 17.22 17.3 17.18C17.3 17.15 17.32 17.14 17.35 17.15C17.37 17.16 17.41 17.14 17.45 17.11C17.48 17.08 17.53 17.05 17.56 17.05C17.59 17.05 17.62 17.04 17.62 17.02C17.63 17 17.68 16.98 17.73 16.96C17.79 16.95 17.84 16.92 17.86 16.9C17.88 16.89 17.96 16.84 18.04 16.81C18.12 16.77 18.27 16.69 18.37 16.64C18.47 16.58 18.63 16.5 18.73 16.45C18.83 16.39 18.99 16.31 19.09 16.25C19.19 16.2 19.34 16.12 19.43 16.07C19.62 15.98 19.88 15.83 20.12 15.7C20.42 15.54 20.58 15.41 20.75 15.16C20.79 15.12 20.81 15.07 20.81 15.06C20.81 15.04 20.83 14.99 20.86 14.93C20.9 14.85 20.91 14.81 20.91 14.55C20.91 14.29 20.9 14.24 20.86 14.15C20.83 14.09 20.81 14.03 20.81 14.02C20.81 14 20.81 14 20.63 13.67C20.34 13.12 20.35 13.15 20.18 12.88C20.01 12.62 19.8 12.35 19.64 12.2C19.57 12.14 19.51 12.08 19.49 12.05C19.45 12.02 19.2 11.83 19.11 11.77C19.08 11.76 19.03 11.72 18.98 11.68C18.81 11.57 18.32 11.34 18.25 11.34C18.23 11.34 18.18 11.32 18.15 11.3C18.02 11.24 17.62 11.16 17.3 11.13C16.85 11.1 16.83 11.09 16.75 10.94C16.67 10.79 16.36 10.23 16.31 10.16C16.29 10.13 16.26 10.08 16.23 10.04C16.13 9.88 15.8 9.59 15.6 9.48C15.41 9.37 15.16 9.27 15.09 9.27C15.07 9.27 15.02 9.24 14.98 9.21L14.91 9.15L14.91 8.44C14.91 7.91 14.92 7.72 14.94 7.7C14.98 7.66 32.97 7.66 33 7.7C33.02 7.72 33.03 7.91 33.03 8.44C33.03 9.11 33.03 9.15 32.99 9.2C32.96 9.24 32.91 9.27 32.85 9.28C32.77 9.29 32.73 9.3 32.56 9.38C32.53 9.39 32.46 9.43 32.41 9.46C32.36 9.49 32.29 9.53 32.25 9.55C32.15 9.59 31.74 10 31.69 10.1C31.67 10.14 31.62 10.21 31.59 10.26C31.56 10.3 31.51 10.37 31.49 10.41C31.47 10.46 31.45 10.51 31.43 10.53C31.42 10.54 31.4 10.59 31.38 10.62C31.27 10.85 31.16 11.03 31.12 11.06C31.07 11.1 30.98 11.11 30.71 11.13C30.35 11.16 29.94 11.24 29.81 11.31C29.77 11.32 29.73 11.34 29.71 11.34C29.62 11.34 28.95 11.68 28.87 11.76C28.86 11.77 28.8 11.82 28.73 11.86C28.61 11.94 28.2 12.33 28.04 12.51C27.96 12.61 27.72 12.96 27.63 13.11C27.56 13.25 27.4 13.54 27.32 13.69C27.19 13.95 27.17 13.98 27.14 14.05C27.11 14.12 27.02 14.55 27.03 14.58C27.04 14.58 27.05 14.66 27.07 14.75C27.1 14.95 27.18 15.14 27.32 15.31C27.38 15.39 27.44 15.46 27.45 15.46C27.46 15.46 27.51 15.49 27.58 15.54C27.64 15.59 27.73 15.65 27.78 15.67C27.89 15.73 28.39 15.99 28.78 16.2C28.84 16.24 28.98 16.31 29.07 16.36C29.16 16.41 29.32 16.49 29.42 16.55C29.52 16.6 29.67 16.68 29.76 16.73C29.84 16.77 29.99 16.85 30.09 16.91C30.19 16.96 30.35 17.05 30.45 17.1C30.55 17.15 30.68 17.22 30.73 17.25C30.79 17.28 30.94 17.36 31.07 17.43C31.2 17.5 31.36 17.58 31.42 17.62C31.48 17.65 31.61 17.71 31.69 17.76C31.88 17.86 32.16 18.01 32.34 18.11C32.6 18.25 32.64 18.27 32.69 18.29C32.72 18.3 32.76 18.32 32.78 18.33C32.9 18.41 33.32 18.59 33.45 18.62C33.63 18.66 33.9 18.65 34.04 18.59C34.34 18.46 34.42 18.41 34.58 18.25C34.64 18.18 34.76 18.01 34.79 17.94C34.8 17.92 34.86 17.8 34.92 17.69C35.12 17.32 35.35 16.86 35.35 16.83C35.35 16.81 35.36 16.77 35.38 16.73C35.42 16.63 35.48 16.46 35.52 16.31C35.54 16.24 35.56 16.15 35.57 16.12C35.65 15.89 35.65 14.89 35.57 14.64C35.55 14.56 35.53 14.48 35.53 14.45C35.53 14.39 35.42 14.04 35.38 13.98C35.36 13.96 35.35 13.92 35.35 13.9C35.35 13.86 35.13 13.43 35.09 13.38C35.07 13.36 35.06 13.34 35.06 13.33C35.06 13.32 35.04 13.29 35.01 13.26C34.96 13.19 34.95 13.06 35 12.99C35.08 12.87 35.44 12.16 35.44 12.13C35.44 12.11 35.45 12.07 35.47 12.03C35.53 11.93 35.58 11.56 35.58 11.34C35.58 11.11 35.52 10.72 35.47 10.63C35.43 10.54 35.33 10.31 35.33 10.29C35.33 10.24 34.93 9.76 34.84 9.69C34.68 9.59 34.48 9.42 34.46 9.39C34.45 9.37 34.45 8.99 34.45 8.54C34.45 7.87 34.45 7.71 34.48 7.69C34.5 7.68 34.75 7.67 35.35 7.67L36.19 7.68L36.2 15.03C36.2 20.89 36.2 22.37 36.18 22.39C36.16 22.4 35.71 22.41 35.17 22.41C34.27 22.41 34.2 22.41 34.09 22.45C33.98 22.5 33.77 22.63 33.77 22.66C33.77 22.67 33.75 22.7 33.72 22.74C33.69 22.78 33.65 22.86 33.64 22.93C33.61 23.03 33.6 24.6 33.59 30.81C33.59 35.07 33.57 38.57 33.56 38.58C33.55 38.59 32.93 38.6 32.18 38.61L30.81 38.62L30.7 38.69C30.64 38.73 30.57 38.77 30.55 38.79C30.46 38.86 30.38 39.01 30.35 39.16C30.31 39.31 30.31 39.33 30.35 39.47C30.41 39.72 30.55 39.86 30.81 39.97C30.93 40.02 30.98 40.02 38.7 40.02L46.48 40.03L46.52 40.08C46.56 40.12 46.57 40.17 46.57 41.12L46.57 42.12L46.51 42.18L46.45 42.23L23.99 42.23C3.37 42.23 1.52 42.23 1.47 42.2L1.41 42.16L1.41 41.12C1.41 40.31 1.42 40.07 1.44 40.06C1.46 40.05 7.5 40.04 14.87 40.03L28.27 40.02L28.4 39.97C28.61 39.89 28.73 39.78 28.82 39.6C28.87 39.52 28.88 39.47 28.87 39.29C28.87 39.11 28.87 39.07 28.82 39.02C28.8 38.98 28.78 38.94 28.78 38.93C28.78 38.9 28.59 38.73 28.5 38.68L28.41 38.62L21.36 38.61C17.48 38.6 14.3 38.59 14.29 38.58C14.28 38.57 14.27 35.04 14.26 30.73C14.25 22.95 14.25 22.89 14.21 22.82C14.18 22.79 14.15 22.74 14.14 22.71C14.1 22.63 13.88 22.48 13.76 22.44C13.67 22.42 13.49 22.41 12.75 22.41C12.23 22.41 11.83 22.4 11.8 22.39L11.74 22.36L11.74 15.04C11.74 9.38 11.75 7.72 11.77 7.7C11.81 7.65 13.46 7.66 13.49 7.7C13.53 7.75 13.52 9.42 13.48 9.44ZM40.62 7.77C40.58 7.79 40.47 7.86 40.37 7.93C40.27 8 40.18 8.05 40.17 8.05C40.16 8.05 40.13 8.07 40.11 8.1C40.09 8.12 40.05 8.15 40.02 8.15C40 8.16 39.95 8.19 39.92 8.21C39.88 8.24 39.76 8.32 39.63 8.4C39.51 8.48 39.39 8.56 39.38 8.57C39.02 8.8 38.66 9.04 38.43 9.19C38.27 9.29 38.14 9.38 38.12 9.38C38.11 9.38 38.08 9.4 38.06 9.42C38.04 9.45 38.01 9.47 38 9.47C37.98 9.47 37.86 9.55 37.79 9.61C37.74 9.65 37.72 9.65 37.68 9.63L37.62 9.6L37.62 8.67C37.62 7.85 37.63 7.73 37.66 7.7C37.69 7.67 37.85 7.67 39.16 7.67C40.41 7.67 40.63 7.67 40.66 7.7C40.68 7.73 40.67 7.74 40.62 7.77ZM42.44 13.7C42.42 13.72 42.38 13.7 42.25 13.62C42.16 13.56 42.07 13.5 42.05 13.49C42.01 13.46 41.64 13.22 41.55 13.16C41.52 13.13 41.48 13.11 41.47 13.11C41.46 13.11 41.44 13.09 41.41 13.07C41.39 13.04 41.36 13.02 41.35 13.02C41.34 13.02 41.28 12.99 41.21 12.94C41.09 12.86 40.68 12.59 39.89 12.08C39.73 11.96 39.57 11.87 39.56 11.85C39.51 11.82 38.96 11.47 38.6 11.22L38.28 11.02L38.32 10.95C38.35 10.92 38.39 10.88 38.41 10.88C38.43 10.87 38.57 10.78 38.72 10.68C38.88 10.57 39.07 10.45 39.14 10.4C39.21 10.36 39.35 10.27 39.44 10.21C39.54 10.15 39.63 10.09 39.65 10.08C39.66 10.07 39.82 9.97 39.98 9.86C40.28 9.66 40.61 9.45 40.77 9.35C40.85 9.3 40.99 9.2 41.64 8.78C41.79 8.68 42 8.55 42.11 8.47C42.22 8.4 42.31 8.34 42.32 8.34C42.33 8.34 42.35 8.33 42.37 8.31C42.41 8.27 42.43 8.27 42.45 8.31C42.47 8.37 42.46 13.66 42.44 13.7ZM5.73 8.4C5.75 8.42 5.77 8.43 5.78 8.43C5.79 8.43 5.86 8.47 5.93 8.52C6 8.57 6.19 8.69 6.35 8.8C6.51 8.9 6.78 9.08 6.94 9.18C7.1 9.29 7.25 9.38 7.25 9.38C7.26 9.38 7.3 9.4 7.33 9.43C7.36 9.46 7.44 9.51 7.49 9.54C7.61 9.62 7.61 9.61 7.97 9.85C8.13 9.95 8.4 10.12 8.56 10.23C8.72 10.34 8.89 10.44 8.93 10.47C9.02 10.53 9.19 10.64 9.24 10.67C9.47 10.83 9.57 10.89 9.58 10.89C9.59 10.89 9.62 10.92 9.65 10.95L9.69 11.02L9.62 11.06C9.58 11.09 9.51 11.14 9.46 11.17C9.41 11.21 9.35 11.24 9.33 11.26C9.31 11.27 9.14 11.38 8.96 11.5C8.64 11.72 7.87 12.22 7.68 12.35C7.63 12.38 7.58 12.41 7.57 12.42C7.54 12.44 7.1 12.73 6.22 13.31C5.97 13.47 5.72 13.64 5.67 13.68C5.57 13.75 5.57 13.75 5.54 13.71C5.5 13.65 5.49 8.37 5.54 8.33C5.57 8.29 5.56 8.29 5.64 8.33C5.67 8.35 5.72 8.38 5.73 8.4ZM15.29 11.2L15.39 11.39L15.34 11.44C15.31 11.47 15.18 11.55 15.04 11.62C14.9 11.69 14.74 11.78 14.69 11.81C14.62 11.84 14.51 11.9 14.43 11.94C14.34 11.99 14.26 12.03 14.24 12.05C14.22 12.06 14.18 12.08 14.16 12.09C14.09 12.1 14.03 12.01 13.88 11.71C13.79 11.53 13.78 11.49 13.79 11.34C13.79 11.13 13.86 10.94 14 10.8C14.22 10.6 14.55 10.53 14.8 10.65C15.02 10.75 15.11 10.86 15.29 11.2ZM34.17 11.19C34.21 11.35 34.21 11.35 34.16 11.52C34.13 11.61 34.07 11.74 34.04 11.8C34 11.86 33.96 11.95 33.94 11.99C33.91 12.07 33.89 12.08 33.83 12.08C33.79 12.08 33.75 12.07 33.74 12.06C33.73 12.05 33.66 12 33.57 11.96C33.48 11.91 33.31 11.82 33.2 11.76C33.09 11.7 32.92 11.62 32.84 11.57C32.75 11.53 32.65 11.47 32.63 11.44L32.58 11.39L32.62 11.3C32.65 11.25 32.68 11.18 32.7 11.14C32.76 11.03 32.89 10.84 32.96 10.78C32.99 10.75 33.08 10.7 33.15 10.66C33.33 10.57 33.55 10.57 33.72 10.65C33.98 10.76 34.11 10.92 34.17 11.19ZM10.32 15.04C10.32 17.35 10.32 17.68 10.29 17.71C10.26 17.73 10.21 17.7 9.97 17.54C9.81 17.44 9.43 17.19 9.12 16.98C8.81 16.78 8.53 16.59 8.49 16.57C8.46 16.54 8.41 16.51 8.39 16.5C8.36 16.49 8.33 16.46 8.3 16.44C8.28 16.42 8.25 16.4 8.24 16.4C8.23 16.4 8.2 16.38 8.18 16.36C8.16 16.34 8.12 16.31 8.1 16.3C8.08 16.29 7.97 16.22 7.87 16.15C7.77 16.08 7.66 16.02 7.64 16.01C7.62 15.99 7.42 15.86 7.19 15.71C6.97 15.56 6.76 15.42 6.75 15.41C6.73 15.4 6.61 15.32 6.49 15.24C6.18 15.04 6.19 15.05 6.26 14.99C6.28 14.96 6.34 14.91 6.39 14.89C6.43 14.87 6.51 14.82 6.55 14.78C6.6 14.75 6.84 14.59 7.07 14.44C7.31 14.28 7.7 14.02 7.95 13.86C8.2 13.7 8.42 13.55 8.43 13.54C8.49 13.51 9.33 12.95 9.8 12.64C10.04 12.48 10.25 12.35 10.25 12.35C10.26 12.35 10.28 12.36 10.3 12.38C10.32 12.4 10.32 13.02 10.32 15.04ZM38.35 12.75C38.53 12.86 38.68 12.96 38.69 12.97C38.7 12.98 38.75 13.02 38.8 13.05C38.97 13.16 39.48 13.49 39.85 13.73C40.05 13.87 40.35 14.06 40.51 14.17C40.67 14.27 40.86 14.4 40.93 14.45C41 14.49 41.07 14.53 41.08 14.53C41.09 14.53 41.12 14.55 41.14 14.58C41.17 14.6 41.19 14.62 41.2 14.62C41.21 14.62 41.27 14.66 41.33 14.69C41.47 14.8 41.53 14.84 41.63 14.89C41.67 14.91 41.73 14.96 41.76 14.99L41.81 15.05L41.72 15.1C41.68 15.14 41.47 15.27 41.27 15.41C41.06 15.54 40.7 15.78 40.46 15.94C40.22 16.1 39.89 16.31 39.73 16.42C39.57 16.52 39.38 16.65 39.3 16.7C39.23 16.74 39.17 16.78 39.16 16.78C39.14 16.78 39.12 16.8 39.09 16.83C39.07 16.85 39.05 16.87 39.04 16.87C39.03 16.87 38.97 16.91 38.91 16.94C38.86 16.99 38.79 17.03 38.77 17.04C38.71 17.08 38.62 17.14 38.17 17.43C37.94 17.59 37.73 17.71 37.7 17.71C37.68 17.71 37.65 17.69 37.64 17.68C37.61 17.63 37.62 12.45 37.64 12.39C37.68 12.33 37.72 12.34 37.89 12.45C37.97 12.5 38.18 12.64 38.35 12.75ZM17.59 12.61C17.63 12.63 17.67 12.64 17.69 12.64C17.75 12.64 18.07 12.78 18.21 12.86C18.38 12.97 18.65 13.2 18.77 13.34C18.82 13.41 18.87 13.47 18.88 13.49C18.92 13.52 18.99 13.64 19.24 14.06C19.34 14.24 19.4 14.37 19.4 14.42C19.4 14.49 19.4 14.49 19.16 14.62C19.02 14.7 18.83 14.8 18.73 14.85C18.63 14.9 18.47 14.99 18.37 15.04C18.27 15.1 18.14 15.16 18.09 15.19C17.99 15.24 17.68 15.41 17.41 15.55C17.18 15.68 16.83 15.86 16.72 15.92C16.66 15.95 16.53 16.02 16.43 16.07C16.01 16.3 15.75 16.44 15.66 16.48C15.6 16.51 15.48 16.58 15.38 16.64C15.28 16.69 15.12 16.78 15.02 16.83C14.92 16.88 14.74 16.97 14.62 17.03C14.51 17.09 14.4 17.14 14.39 17.14C14.35 17.14 14.3 17.07 14.19 16.85C14.14 16.76 14.09 16.67 14.08 16.65C14.07 16.63 14.03 16.55 14 16.48C13.97 16.4 13.94 16.33 13.92 16.31C13.88 16.21 13.79 15.92 13.77 15.76C13.68 15.1 13.81 14.51 14.18 13.96C14.29 13.8 14.56 13.52 14.69 13.44C14.75 13.4 14.8 13.37 14.8 13.36C14.82 13.34 15.13 13.15 15.21 13.11C15.52 12.95 15.83 12.79 15.86 12.78C15.98 12.71 16.27 12.61 16.43 12.57C16.59 12.54 16.96 12.51 17.06 12.52C17.11 12.53 17.24 12.54 17.34 12.55C17.44 12.56 17.55 12.59 17.59 12.61ZM31.94 12.71C31.95 12.72 31.99 12.73 32.02 12.74C32.07 12.76 32.49 12.96 32.56 13C32.58 13.01 32.69 13.08 32.8 13.14C33.13 13.33 33.16 13.35 33.35 13.5C33.62 13.72 33.83 13.97 33.97 14.27C34.01 14.36 34.06 14.45 34.07 14.48C34.08 14.5 34.11 14.6 34.14 14.69C34.16 14.78 34.19 14.9 34.2 14.95C34.24 15.09 34.22 15.83 34.17 15.92C34.15 15.95 34.13 16.02 34.12 16.07C34.1 16.18 33.84 16.74 33.67 17.05C33.62 17.14 33.54 17.17 33.48 17.12C33.46 17.1 33.37 17.05 33.28 17C33.19 16.95 33.03 16.87 32.93 16.82C32.83 16.76 32.68 16.68 32.59 16.64C32.44 16.56 32.27 16.47 31.88 16.26C31.77 16.2 31.62 16.12 31.53 16.07C31.45 16.03 31.3 15.95 31.2 15.89C31.1 15.84 30.94 15.75 30.84 15.7C30.74 15.65 30.58 15.57 30.48 15.51C30.38 15.46 30.25 15.39 30.19 15.36C30.08 15.3 29.68 15.09 29.42 14.94C29.32 14.89 29.2 14.83 29.15 14.8C28.78 14.62 28.56 14.49 28.56 14.44C28.55 14.42 28.59 14.32 28.63 14.24C28.68 14.15 28.74 14.03 28.77 13.97C28.83 13.85 28.84 13.84 29.01 13.59C29.08 13.48 29.21 13.32 29.3 13.23C29.51 13.02 29.94 12.73 30.04 12.73C30.06 12.73 30.08 12.72 30.09 12.71C30.11 12.68 30.46 12.58 30.61 12.55C30.81 12.53 31.2 12.52 31.4 12.55C31.57 12.58 31.89 12.67 31.94 12.71ZM6.15 16.71C6.33 16.83 6.5 16.94 6.52 16.95C6.58 16.99 6.87 17.18 7.12 17.34C7.24 17.42 7.35 17.5 7.37 17.51C7.39 17.53 7.45 17.57 7.51 17.6C7.56 17.64 7.64 17.69 7.68 17.72C7.72 17.74 7.99 17.92 8.29 18.12C8.58 18.32 8.99 18.59 9.19 18.72C9.39 18.85 9.58 18.98 9.62 19.01C9.69 19.06 9.69 19.06 9.66 19.1C9.63 19.13 9.56 19.19 9.49 19.23C9.29 19.36 8.79 19.69 8.65 19.78C8.58 19.83 8.51 19.87 8.5 19.87C8.49 19.87 8.47 19.89 8.45 19.91C8.42 19.94 8.4 19.96 8.38 19.96C8.37 19.96 8.23 20.04 8.07 20.15C7.4 20.59 6.96 20.88 6.9 20.91C6.88 20.92 6.84 20.95 6.81 20.97C6.78 20.99 6.68 21.06 6.59 21.11C6.41 21.23 6 21.5 5.75 21.66C5.49 21.83 5.52 22.13 5.51 19.07C5.51 17.59 5.51 16.38 5.52 16.36C5.54 16.32 5.57 16.33 5.7 16.41C5.76 16.45 5.96 16.58 6.15 16.71ZM42.43 21.77C42.41 21.78 42.32 21.72 42.21 21.65C42.11 21.59 42 21.52 41.99 21.51C41.97 21.5 41.81 21.4 41.64 21.28C41.48 21.17 41.33 21.08 41.32 21.08C41.3 21.08 41.28 21.06 41.26 21.04C41.23 21.01 41.21 20.99 41.2 20.99C41.19 20.99 41.09 20.93 40.98 20.86C40.87 20.79 40.68 20.66 40.56 20.58C40.43 20.5 40.2 20.35 40.03 20.24C39.86 20.13 39.69 20.02 39.65 19.99C39.36 19.81 38.56 19.29 38.53 19.26C38.52 19.25 38.48 19.22 38.44 19.2C38.4 19.19 38.35 19.15 38.32 19.12L38.26 19.07L38.32 19.03C38.35 19.01 38.43 18.95 38.5 18.9C38.78 18.72 39.01 18.57 39.04 18.55C39.09 18.52 39.44 18.29 39.54 18.22C39.57 18.2 39.6 18.18 39.61 18.18C39.62 18.18 39.67 18.14 39.73 18.1C39.78 18.07 39.85 18.02 39.87 18.01C39.95 17.96 39.96 17.95 41.26 17.1C41.61 16.87 42.12 16.54 42.29 16.42C42.34 16.39 42.38 16.36 42.39 16.35C42.4 16.31 42.44 16.33 42.45 16.38C42.47 16.48 42.45 21.76 42.43 21.77ZM10.3 22.38C10.28 22.4 10.02 22.41 8.83 22.41C7.88 22.41 7.36 22.4 7.32 22.39L7.26 22.36L7.39 22.28C7.53 22.19 7.8 22.01 7.84 21.99C7.85 21.98 7.9 21.94 7.95 21.91C8.28 21.7 8.54 21.53 8.71 21.41C8.82 21.34 8.92 21.28 8.93 21.28C8.94 21.28 8.96 21.26 8.99 21.24C9.01 21.21 9.03 21.19 9.05 21.19C9.07 21.19 9.38 20.99 9.94 20.62C10.1 20.51 10.24 20.43 10.27 20.43C10.31 20.44 10.31 20.46 10.32 21.39C10.32 22.08 10.32 22.36 10.3 22.38ZM38.12 20.68C38.27 20.78 38.51 20.93 38.65 21.03C38.8 21.12 38.95 21.22 38.99 21.25C39.16 21.35 39.49 21.57 39.78 21.76C39.95 21.87 40.1 21.97 40.12 21.98C40.44 22.19 40.67 22.35 40.68 22.36C40.68 22.37 40.66 22.39 40.63 22.39C40.53 22.42 37.74 22.41 37.68 22.38L37.62 22.36L37.62 21.42C37.62 20.54 37.62 20.47 37.66 20.45C37.72 20.42 37.73 20.42 37.8 20.47C37.83 20.49 37.98 20.59 38.12 20.68ZM44.73 45.14L44.72 46.57L24 46.57C8.69 46.58 3.27 46.57 3.24 46.55C3.22 46.53 3.21 46.28 3.21 45.12L3.21 43.72L3.26 43.69C3.31 43.66 5.31 43.65 23.98 43.65C40.49 43.65 44.66 43.66 44.69 43.68C44.73 43.71 44.73 43.81 44.73 45.14Z" stroke="#000000" stroke-opacity="0" stroke-width="0.133333"/>
		<path id="path" d="M7.51 24.75C7.39 24.76 7.24 24.78 7.17 24.8C7.1 24.82 6.98 24.86 6.89 24.89C6.58 24.98 6.17 25.21 5.93 25.41C5.83 25.5 5.74 25.57 5.73 25.58C5.72 25.58 5.64 25.67 5.56 25.77C5.48 25.87 5.4 25.96 5.38 25.98C5.36 26 5.31 26.07 5.22 26.22C5.14 26.35 4.97 26.73 4.96 26.8C4.95 26.84 4.93 26.9 4.91 26.93C4.86 27.04 4.79 27.53 4.79 27.8C4.79 28.07 4.86 28.56 4.91 28.66C4.93 28.7 4.95 28.76 4.96 28.81C4.97 28.9 5.04 29.04 5.15 29.24C5.18 29.3 5.22 29.37 5.23 29.4C5.26 29.45 5.37 29.62 5.39 29.63C5.4 29.64 5.47 29.72 5.54 29.81C5.68 29.98 6.05 30.3 6.23 30.4C6.56 30.6 6.76 30.68 7 30.74C7.07 30.76 7.14 30.78 7.16 30.8C7.19 30.81 7.35 30.83 7.53 30.85C7.92 30.88 8.38 30.85 8.61 30.78C8.95 30.67 9.08 30.62 9.18 30.57C9.23 30.54 9.32 30.49 9.37 30.46C9.52 30.39 9.62 30.32 9.74 30.22C9.81 30.16 9.9 30.08 9.94 30.05C9.98 30.01 10.04 29.95 10.08 29.92C10.11 29.88 10.15 29.83 10.17 29.81C10.27 29.72 10.4 29.53 10.49 29.37C10.55 29.27 10.59 29.18 10.59 29.17C10.59 29.16 10.61 29.13 10.64 29.1C10.66 29.07 10.68 29.02 10.68 29C10.68 28.98 10.7 28.94 10.72 28.9C10.74 28.86 10.76 28.79 10.78 28.73C10.79 28.68 10.81 28.6 10.83 28.56C10.87 28.48 10.92 28.04 10.92 27.81C10.92 27.59 10.87 27.11 10.83 27.06C10.82 27.03 10.8 26.96 10.78 26.9C10.74 26.75 10.67 26.56 10.65 26.52C10.63 26.51 10.61 26.46 10.58 26.41C10.46 26.14 10.34 25.98 10.03 25.64C9.95 25.54 9.56 25.23 9.49 25.2C9.46 25.19 9.39 25.15 9.34 25.12C9.17 25.02 9.02 24.95 8.91 24.92C8.85 24.9 8.74 24.87 8.65 24.84C8.56 24.81 8.44 24.78 8.39 24.77C8.22 24.74 7.74 24.73 7.51 24.75ZM8.29 26.2C8.33 26.22 8.38 26.23 8.4 26.23C8.48 26.24 8.75 26.39 8.92 26.52C9.03 26.61 9.29 26.92 9.29 26.96C9.29 26.98 9.3 27 9.31 27.02C9.37 27.07 9.45 27.32 9.49 27.55C9.53 27.8 9.53 27.8 9.49 28.05C9.45 28.28 9.37 28.53 9.31 28.58C9.3 28.59 9.29 28.62 9.29 28.63C9.29 28.68 9.03 28.99 8.9 29.09C8.77 29.19 8.52 29.34 8.48 29.34C8.47 29.34 8.41 29.36 8.35 29.39C8.25 29.43 8.21 29.44 7.87 29.44C7.52 29.44 7.49 29.44 7.32 29.38C7.22 29.34 7.12 29.3 7.1 29.28C7.09 29.26 7.06 29.25 7.04 29.25C7 29.25 6.69 28.99 6.58 28.86C6.46 28.72 6.3 28.43 6.28 28.34C6.28 28.3 6.26 28.23 6.24 28.19C6.19 28.07 6.17 27.76 6.2 27.6C6.32 26.91 6.75 26.41 7.38 26.21C7.47 26.18 7.56 26.16 7.57 26.15C7.58 26.15 7.73 26.15 7.9 26.15C8.15 26.16 8.24 26.17 8.29 26.2Z" fill="url(#paint_linear_317_15069_0)" fill-opacity="1.000000" fill-rule="nonzero"/>
		<path id="path" d="M7.17 24.8C7.1 24.82 6.98 24.86 6.89 24.89C6.58 24.98 6.17 25.21 5.93 25.41C5.83 25.5 5.74 25.57 5.73 25.58C5.72 25.58 5.64 25.67 5.56 25.77C5.48 25.87 5.4 25.96 5.38 25.98C5.36 26 5.31 26.07 5.22 26.22C5.14 26.35 4.97 26.73 4.96 26.8C4.95 26.84 4.93 26.9 4.91 26.93C4.86 27.04 4.79 27.53 4.79 27.8C4.79 28.07 4.86 28.56 4.91 28.66C4.93 28.7 4.95 28.76 4.96 28.81C4.97 28.9 5.04 29.04 5.15 29.24C5.18 29.3 5.22 29.37 5.23 29.4C5.26 29.45 5.37 29.62 5.39 29.63C5.4 29.64 5.47 29.72 5.54 29.81C5.68 29.98 6.05 30.3 6.23 30.4C6.56 30.6 6.76 30.68 7 30.74C7.07 30.76 7.14 30.78 7.16 30.8C7.19 30.81 7.35 30.83 7.53 30.85C7.92 30.88 8.38 30.85 8.61 30.78C8.95 30.67 9.08 30.62 9.18 30.57C9.23 30.54 9.32 30.49 9.37 30.46C9.52 30.39 9.62 30.32 9.74 30.22C9.81 30.16 9.9 30.08 9.94 30.05C9.98 30.01 10.04 29.95 10.08 29.92C10.11 29.88 10.15 29.83 10.17 29.81C10.27 29.72 10.4 29.53 10.49 29.37C10.55 29.27 10.59 29.18 10.59 29.17C10.59 29.16 10.61 29.13 10.64 29.1C10.66 29.07 10.68 29.02 10.68 29C10.68 28.98 10.7 28.94 10.72 28.9C10.74 28.86 10.76 28.79 10.78 28.73C10.79 28.68 10.81 28.6 10.83 28.56C10.87 28.48 10.92 28.04 10.92 27.81C10.92 27.59 10.87 27.11 10.83 27.06C10.82 27.03 10.8 26.96 10.78 26.9C10.74 26.75 10.67 26.56 10.65 26.52C10.63 26.51 10.61 26.46 10.58 26.41C10.46 26.14 10.34 25.98 10.03 25.64C9.95 25.54 9.56 25.23 9.49 25.2C9.46 25.19 9.39 25.15 9.34 25.12C9.17 25.02 9.02 24.95 8.91 24.92C8.85 24.9 8.74 24.87 8.65 24.84C8.56 24.81 8.44 24.78 8.39 24.77C8.22 24.74 7.74 24.73 7.51 24.75C7.39 24.76 7.24 24.78 7.17 24.8ZM8.4 26.23C8.48 26.24 8.75 26.39 8.92 26.52C9.03 26.61 9.29 26.92 9.29 26.96C9.29 26.98 9.3 27 9.31 27.02C9.37 27.07 9.45 27.32 9.49 27.55C9.53 27.8 9.53 27.8 9.49 28.05C9.45 28.28 9.37 28.53 9.31 28.58C9.3 28.59 9.29 28.62 9.29 28.63C9.29 28.68 9.03 28.99 8.9 29.09C8.77 29.19 8.52 29.34 8.48 29.34C8.47 29.34 8.41 29.36 8.35 29.39C8.25 29.43 8.21 29.44 7.87 29.44C7.52 29.44 7.49 29.44 7.32 29.38C7.22 29.34 7.12 29.3 7.1 29.28C7.09 29.26 7.06 29.25 7.04 29.25C7 29.25 6.69 28.99 6.58 28.86C6.46 28.72 6.3 28.43 6.28 28.34C6.28 28.3 6.26 28.23 6.24 28.19C6.19 28.07 6.17 27.76 6.2 27.6C6.32 26.91 6.75 26.41 7.38 26.21C7.47 26.18 7.56 26.16 7.57 26.15C7.58 26.15 7.73 26.15 7.9 26.15C8.15 26.16 8.24 26.17 8.29 26.2C8.33 26.22 8.38 26.23 8.4 26.23Z" stroke="#000000" stroke-opacity="0" stroke-width="0.133333"/>
		<path id="path" d="M39.68 24.75C39.47 24.76 39.35 24.79 39.11 24.87C39.05 24.89 38.97 24.92 38.94 24.93C38.8 24.96 38.31 25.22 38.21 25.31C38.17 25.34 38.08 25.42 38 25.49C37.77 25.69 37.48 26.04 37.39 26.21C37.17 26.64 37.13 26.73 37.11 26.81C37.11 26.86 37.09 26.92 37.07 26.95C37.02 27.05 36.95 27.56 36.95 27.8C36.95 28.03 37.02 28.55 37.07 28.64C37.09 28.67 37.11 28.74 37.11 28.79C37.13 28.86 37.25 29.14 37.39 29.4C37.44 29.49 37.84 29.98 37.9 30.02C37.93 30.04 37.97 30.08 38 30.11C38.3 30.39 38.85 30.68 39.17 30.75C39.22 30.76 39.28 30.78 39.31 30.79C39.41 30.84 39.98 30.87 40.34 30.85C40.52 30.83 40.7 30.81 40.73 30.79C40.76 30.78 40.82 30.76 40.86 30.75C41.08 30.71 41.65 30.43 41.82 30.29C41.95 30.18 42.13 30.02 42.19 29.97C42.29 29.87 42.64 29.43 42.64 29.4C42.64 29.39 42.68 29.31 42.74 29.21C42.79 29.11 42.86 28.96 42.89 28.88C42.91 28.79 42.96 28.67 42.98 28.61C43 28.55 43.03 28.4 43.04 28.28C43.06 28.16 43.08 28 43.09 27.92C43.1 27.78 43.1 27.73 43.03 27.21C43.01 27.13 42.99 27 42.97 26.94C42.83 26.55 42.85 26.6 42.7 26.31C42.53 26 42.29 25.71 42.02 25.48C41.95 25.42 41.88 25.36 41.87 25.36C41.8 25.27 41.18 24.93 41.09 24.93C41.07 24.93 41.01 24.91 40.96 24.88C40.91 24.86 40.85 24.84 40.82 24.84C40.79 24.84 40.73 24.82 40.69 24.8C40.64 24.79 40.48 24.76 40.32 24.75C40.01 24.73 40.01 24.73 39.68 24.75ZM40.45 26.2C40.49 26.22 40.54 26.23 40.56 26.23C40.61 26.23 40.8 26.33 40.95 26.42C41.1 26.52 41.34 26.77 41.43 26.93C41.56 27.15 41.6 27.27 41.65 27.54L41.7 27.8L41.65 28.07C41.59 28.42 41.46 28.68 41.25 28.91C41.01 29.16 40.87 29.25 40.55 29.38C40.41 29.43 40.37 29.44 40.03 29.44C39.67 29.44 39.65 29.44 39.48 29.38C39.38 29.34 39.28 29.3 39.26 29.28C39.24 29.26 39.21 29.25 39.2 29.25C39.16 29.25 38.85 28.99 38.75 28.87C38.47 28.54 38.3 28.02 38.36 27.64C38.4 27.38 38.45 27.22 38.55 27.03C38.76 26.63 39.1 26.34 39.52 26.22C39.76 26.14 39.75 26.15 40.07 26.15C40.31 26.16 40.4 26.17 40.45 26.2Z" fill="url(#paint_linear_317_15070_0)" fill-opacity="1.000000" fill-rule="nonzero"/>
		<path id="path" d="M39.11 24.87C39.05 24.89 38.97 24.92 38.94 24.93C38.8 24.96 38.31 25.22 38.21 25.31C38.17 25.34 38.08 25.42 38 25.49C37.77 25.69 37.48 26.04 37.39 26.21C37.17 26.64 37.13 26.73 37.11 26.81C37.11 26.86 37.09 26.92 37.07 26.95C37.02 27.05 36.95 27.56 36.95 27.8C36.95 28.03 37.02 28.55 37.07 28.64C37.09 28.67 37.11 28.74 37.11 28.79C37.13 28.86 37.25 29.14 37.39 29.4C37.44 29.49 37.84 29.98 37.9 30.02C37.93 30.04 37.97 30.08 38 30.11C38.3 30.39 38.85 30.68 39.17 30.75C39.22 30.76 39.28 30.78 39.31 30.79C39.41 30.84 39.98 30.87 40.34 30.85C40.52 30.83 40.7 30.81 40.73 30.79C40.76 30.78 40.82 30.76 40.86 30.75C41.08 30.71 41.65 30.43 41.82 30.29C41.95 30.18 42.13 30.02 42.19 29.97C42.29 29.87 42.64 29.43 42.64 29.4C42.64 29.39 42.68 29.31 42.74 29.21C42.79 29.11 42.86 28.96 42.89 28.88C42.91 28.79 42.96 28.67 42.98 28.61C43 28.55 43.03 28.4 43.04 28.28C43.06 28.16 43.08 28 43.09 27.92C43.1 27.78 43.1 27.73 43.03 27.21C43.01 27.13 42.99 27 42.97 26.94C42.83 26.55 42.85 26.6 42.7 26.31C42.53 26 42.29 25.71 42.02 25.48C41.95 25.42 41.88 25.36 41.87 25.36C41.8 25.27 41.18 24.93 41.09 24.93C41.07 24.93 41.01 24.91 40.96 24.88C40.91 24.86 40.85 24.84 40.82 24.84C40.79 24.84 40.73 24.82 40.69 24.8C40.64 24.79 40.48 24.76 40.32 24.75C40.01 24.73 40.01 24.73 39.68 24.75C39.47 24.76 39.35 24.79 39.11 24.87ZM40.56 26.23C40.61 26.23 40.8 26.33 40.95 26.42C41.1 26.52 41.34 26.77 41.43 26.93C41.56 27.15 41.6 27.27 41.65 27.54L41.7 27.8L41.65 28.07C41.59 28.42 41.46 28.68 41.25 28.91C41.01 29.16 40.87 29.25 40.55 29.38C40.41 29.43 40.37 29.44 40.03 29.44C39.67 29.44 39.65 29.44 39.48 29.38C39.38 29.34 39.28 29.3 39.26 29.28C39.24 29.26 39.21 29.25 39.2 29.25C39.16 29.25 38.85 28.99 38.75 28.87C38.47 28.54 38.3 28.02 38.36 27.64C38.4 27.38 38.45 27.22 38.55 27.03C38.76 26.63 39.1 26.34 39.52 26.22C39.76 26.14 39.75 26.15 40.07 26.15C40.31 26.16 40.4 26.17 40.45 26.2C40.49 26.22 40.54 26.23 40.56 26.23Z" stroke="#000000" stroke-opacity="0" stroke-width="0.133333"/>
		<path id="path" d="M7.47 31.59C7.27 31.6 7.17 31.63 6.89 31.73C6.83 31.75 6.75 31.77 6.72 31.78C6.67 31.79 6.41 31.93 6.3 32C6.28 32.01 6.24 32.03 6.21 32.04C6.1 32.09 5.7 32.44 5.6 32.56C5.54 32.63 5.48 32.7 5.46 32.72C5.3 32.88 5 33.43 4.96 33.63C4.95 33.68 4.93 33.74 4.91 33.77C4.86 33.88 4.79 34.36 4.79 34.63C4.79 34.93 4.85 35.34 4.92 35.53C4.95 35.59 4.97 35.66 4.97 35.68C4.97 35.71 5.1 35.98 5.24 36.26C5.3 36.37 5.66 36.79 5.77 36.89C5.83 36.93 5.93 37.02 6 37.08C6.12 37.18 6.16 37.21 6.35 37.31C6.4 37.33 6.49 37.38 6.54 37.41C6.6 37.44 6.69 37.48 6.75 37.5C6.8 37.52 6.9 37.54 6.96 37.56C7.02 37.58 7.12 37.61 7.17 37.63C7.44 37.71 8.33 37.71 8.56 37.62C8.6 37.61 8.72 37.57 8.83 37.54C8.94 37.51 9.05 37.47 9.06 37.46C9.08 37.45 9.12 37.43 9.15 37.42C9.43 37.29 9.9 36.95 10.12 36.7C10.19 36.62 10.27 36.53 10.3 36.5C10.33 36.46 10.38 36.38 10.43 36.3C10.47 36.23 10.52 36.15 10.53 36.14C10.59 36.04 10.71 35.77 10.74 35.66C10.76 35.6 10.8 35.49 10.82 35.43C10.87 35.3 10.92 34.88 10.92 34.63C10.92 34.37 10.87 33.98 10.81 33.82C10.73 33.56 10.68 33.43 10.65 33.36C10.44 32.96 10.42 32.93 10.24 32.7C10.08 32.51 10.04 32.47 9.85 32.31C9.62 32.11 9.59 32.09 9.39 31.98C9.07 31.8 8.94 31.75 8.71 31.69C8.65 31.68 8.56 31.65 8.5 31.63C8.38 31.59 7.78 31.56 7.47 31.59ZM8.38 33.05C8.47 33.08 8.56 33.12 8.59 33.15C8.62 33.17 8.66 33.19 8.67 33.19C8.71 33.19 9.01 33.43 9.1 33.53C9.19 33.63 9.3 33.8 9.36 33.93C9.39 33.99 9.41 34.05 9.43 34.08C9.44 34.1 9.47 34.24 9.49 34.38C9.53 34.63 9.53 34.63 9.49 34.88C9.45 35.13 9.38 35.33 9.3 35.44C9.28 35.47 9.27 35.5 9.27 35.51C9.27 35.52 9.22 35.58 9.17 35.65C8.94 35.93 8.71 36.09 8.35 36.22C8.19 36.28 8.15 36.28 7.84 36.28C7.57 36.28 7.48 36.27 7.43 36.24C7.39 36.22 7.32 36.2 7.28 36.19C7.12 36.16 6.87 35.99 6.68 35.8C6.41 35.53 6.27 35.25 6.2 34.84C6.17 34.68 6.19 34.36 6.24 34.25C6.26 34.21 6.27 34.15 6.27 34.13C6.27 34.07 6.38 33.85 6.48 33.71C6.72 33.35 7.03 33.14 7.48 33.01C7.52 33 7.7 32.99 7.88 32.99C8.17 33 8.24 33.01 8.38 33.05Z" fill="url(#paint_linear_317_15071_0)" fill-opacity="1.000000" fill-rule="nonzero"/>
		<path id="path" d="M6.89 31.73C6.83 31.75 6.75 31.77 6.72 31.78C6.67 31.79 6.41 31.93 6.3 32C6.28 32.01 6.24 32.03 6.21 32.04C6.1 32.09 5.7 32.44 5.6 32.56C5.54 32.63 5.48 32.7 5.46 32.72C5.3 32.88 5 33.43 4.96 33.63C4.95 33.68 4.93 33.74 4.91 33.77C4.86 33.88 4.79 34.36 4.79 34.63C4.79 34.93 4.85 35.34 4.92 35.53C4.95 35.59 4.97 35.66 4.97 35.68C4.97 35.71 5.1 35.98 5.24 36.26C5.3 36.37 5.66 36.79 5.77 36.89C5.83 36.93 5.93 37.02 6 37.08C6.12 37.18 6.16 37.21 6.35 37.31C6.4 37.33 6.49 37.38 6.54 37.41C6.6 37.44 6.69 37.48 6.75 37.5C6.8 37.52 6.9 37.54 6.96 37.56C7.02 37.58 7.12 37.61 7.17 37.63C7.44 37.71 8.33 37.71 8.56 37.62C8.6 37.61 8.72 37.57 8.83 37.54C8.94 37.51 9.05 37.47 9.06 37.46C9.08 37.45 9.12 37.43 9.15 37.42C9.43 37.29 9.9 36.95 10.12 36.7C10.19 36.62 10.27 36.53 10.3 36.5C10.33 36.46 10.38 36.38 10.43 36.3C10.47 36.23 10.52 36.15 10.53 36.14C10.59 36.04 10.71 35.77 10.74 35.66C10.76 35.6 10.8 35.49 10.82 35.43C10.87 35.3 10.92 34.88 10.92 34.63C10.92 34.37 10.87 33.98 10.81 33.82C10.73 33.56 10.68 33.43 10.65 33.36C10.44 32.96 10.42 32.93 10.24 32.7C10.08 32.51 10.04 32.47 9.85 32.31C9.62 32.11 9.59 32.09 9.39 31.98C9.07 31.8 8.94 31.75 8.71 31.69C8.65 31.68 8.56 31.65 8.5 31.63C8.38 31.59 7.78 31.56 7.47 31.59C7.27 31.6 7.17 31.63 6.89 31.73ZM8.59 33.15C8.62 33.17 8.66 33.19 8.67 33.19C8.71 33.19 9.01 33.43 9.1 33.53C9.19 33.63 9.3 33.8 9.36 33.93C9.39 33.99 9.41 34.05 9.43 34.08C9.44 34.1 9.47 34.24 9.49 34.38C9.53 34.63 9.53 34.63 9.49 34.88C9.45 35.13 9.38 35.33 9.3 35.44C9.28 35.47 9.27 35.5 9.27 35.51C9.27 35.52 9.22 35.58 9.17 35.65C8.94 35.93 8.71 36.09 8.35 36.22C8.19 36.28 8.15 36.28 7.84 36.28C7.57 36.28 7.48 36.27 7.43 36.24C7.39 36.22 7.32 36.2 7.28 36.19C7.12 36.16 6.87 35.99 6.68 35.8C6.41 35.53 6.27 35.25 6.2 34.84C6.17 34.68 6.19 34.36 6.24 34.25C6.26 34.21 6.27 34.15 6.27 34.13C6.27 34.07 6.38 33.85 6.48 33.71C6.72 33.35 7.03 33.14 7.48 33.01C7.52 33 7.7 32.99 7.88 32.99C8.17 33 8.24 33.01 8.38 33.05C8.47 33.08 8.56 33.12 8.59 33.15Z" stroke="#000000" stroke-opacity="0" stroke-width="0.133333"/>
		<path id="path" d="M39.62 31.59C39.42 31.6 39.33 31.63 39.05 31.72C38.99 31.75 38.91 31.77 38.88 31.78C38.83 31.79 38.56 31.93 38.45 31.99C38.44 32.01 38.4 32.03 38.36 32.04C38.3 32.08 38.12 32.22 38 32.33C37.96 32.37 37.92 32.4 37.91 32.4C37.9 32.4 37.82 32.49 37.73 32.6C37.64 32.71 37.55 32.8 37.54 32.82C37.52 32.84 37.47 32.92 37.38 33.06C37.3 33.2 37.13 33.57 37.12 33.64C37.11 33.69 37.09 33.75 37.07 33.79C37.02 33.89 36.95 34.39 36.95 34.64C36.95 34.87 37.02 35.39 37.07 35.48C37.09 35.51 37.11 35.58 37.12 35.63C37.15 35.8 37.4 36.27 37.57 36.48C37.77 36.74 38.2 37.14 38.35 37.22C38.39 37.24 38.48 37.29 38.56 37.33C38.85 37.49 38.87 37.5 39.23 37.6C39.49 37.67 39.7 37.69 40.16 37.68C40.48 37.67 40.63 37.66 40.69 37.64C40.74 37.62 40.88 37.58 40.99 37.54C41.1 37.51 41.22 37.46 41.27 37.44C41.37 37.39 41.59 37.27 41.65 37.23C41.77 37.17 42.16 36.83 42.29 36.68C42.53 36.41 42.57 36.37 42.71 36.1C42.82 35.89 42.83 35.88 42.88 35.73C42.99 35.43 43.02 35.3 43.04 35.11C43.06 35 43.08 34.85 43.09 34.77C43.1 34.69 43.1 34.57 43.09 34.5C43.08 34.43 43.06 34.27 43.04 34.16C43.03 34.04 43 33.89 42.98 33.83C42.96 33.77 42.92 33.66 42.9 33.59C42.86 33.48 42.75 33.22 42.68 33.11C42.45 32.73 42.23 32.48 41.89 32.21C41.72 32.07 41.67 32.04 41.43 31.92C41.35 31.88 41.28 31.83 41.26 31.82C41.25 31.81 41.2 31.79 41.17 31.78C41.13 31.77 41.05 31.75 40.99 31.72C40.71 31.63 40.61 31.61 40.38 31.59C40.1 31.57 39.93 31.57 39.62 31.59ZM40.54 33.05C40.83 33.16 40.97 33.25 41.21 33.49C41.46 33.74 41.59 34 41.65 34.37L41.7 34.64L41.65 34.9C41.58 35.31 41.44 35.57 41.14 35.86C41.01 35.97 40.69 36.18 40.63 36.18C40.61 36.18 40.54 36.2 40.47 36.23C40.37 36.27 40.31 36.28 40.01 36.28C39.73 36.28 39.64 36.27 39.59 36.24C39.55 36.22 39.49 36.2 39.44 36.19C39.29 36.16 39.01 35.98 38.83 35.78C38.69 35.65 38.62 35.55 38.55 35.41C38.29 34.89 38.29 34.38 38.55 33.86C38.72 33.53 39.1 33.19 39.44 33.07C39.67 32.99 39.7 32.99 40.05 32.99C40.34 33 40.42 33.01 40.54 33.05Z" fill="url(#paint_linear_317_15072_0)" fill-opacity="1.000000" fill-rule="nonzero"/>
		<path id="path" d="M39.05 31.72C38.99 31.75 38.91 31.77 38.88 31.78C38.83 31.79 38.56 31.93 38.45 31.99C38.44 32.01 38.4 32.03 38.36 32.04C38.3 32.08 38.12 32.22 38 32.33C37.96 32.37 37.92 32.4 37.91 32.4C37.9 32.4 37.82 32.49 37.73 32.6C37.64 32.71 37.55 32.8 37.54 32.82C37.52 32.84 37.47 32.92 37.38 33.06C37.3 33.2 37.13 33.57 37.12 33.64C37.11 33.69 37.09 33.75 37.07 33.79C37.02 33.89 36.95 34.39 36.95 34.64C36.95 34.87 37.02 35.39 37.07 35.48C37.09 35.51 37.11 35.58 37.12 35.63C37.15 35.8 37.4 36.27 37.57 36.48C37.77 36.74 38.2 37.14 38.35 37.22C38.39 37.24 38.48 37.29 38.56 37.33C38.85 37.49 38.87 37.5 39.23 37.6C39.49 37.67 39.7 37.69 40.16 37.68C40.48 37.67 40.63 37.66 40.69 37.64C40.74 37.62 40.88 37.58 40.99 37.54C41.1 37.51 41.22 37.46 41.27 37.44C41.37 37.39 41.59 37.27 41.65 37.23C41.77 37.17 42.16 36.83 42.29 36.68C42.53 36.41 42.57 36.37 42.71 36.1C42.82 35.89 42.83 35.88 42.88 35.73C42.99 35.43 43.02 35.3 43.04 35.11C43.06 35 43.08 34.85 43.09 34.77C43.1 34.69 43.1 34.57 43.09 34.5C43.08 34.43 43.06 34.27 43.04 34.16C43.03 34.04 43 33.89 42.98 33.83C42.96 33.77 42.92 33.66 42.9 33.59C42.86 33.48 42.75 33.22 42.68 33.11C42.45 32.73 42.23 32.48 41.89 32.21C41.72 32.07 41.67 32.04 41.43 31.92C41.35 31.88 41.28 31.83 41.26 31.82C41.25 31.81 41.2 31.79 41.17 31.78C41.13 31.77 41.05 31.75 40.99 31.72C40.71 31.63 40.61 31.61 40.38 31.59C40.1 31.57 39.93 31.57 39.62 31.59C39.42 31.6 39.33 31.63 39.05 31.72ZM41.21 33.49C41.46 33.74 41.59 34 41.65 34.37L41.7 34.64L41.65 34.9C41.58 35.31 41.44 35.57 41.14 35.86C41.01 35.97 40.69 36.18 40.63 36.18C40.61 36.18 40.54 36.2 40.47 36.23C40.37 36.27 40.31 36.28 40.01 36.28C39.73 36.28 39.64 36.27 39.59 36.24C39.55 36.22 39.49 36.2 39.44 36.19C39.29 36.16 39.01 35.98 38.83 35.78C38.69 35.65 38.62 35.55 38.55 35.41C38.29 34.89 38.29 34.38 38.55 33.86C38.72 33.53 39.1 33.19 39.44 33.07C39.67 32.99 39.7 32.99 40.05 32.99C40.34 33 40.42 33.01 40.54 33.05C40.83 33.16 40.97 33.25 41.21 33.49Z" stroke="#000000" stroke-opacity="0" stroke-width="0.133333"/>
	</g>
</svg>
