<svg width="24.000000" height="24.000000" viewBox="0 0 24 24" fill="none" xmlns="http://www.w3.org/2000/svg" xmlns:xlink="http://www.w3.org/1999/xlink">
	<desc>
			Created with Pixso.
	</desc>
	<defs>
		<clipPath id="clip317_15326">
			<rect id="Link" width="24.000000" height="24.000000" fill="white" fill-opacity="0"/>
		</clipPath>
	</defs>
	<g clip-path="url(#clip317_15326)">
		<path id="path" d="M11.82 4.28L11.82 4.25C12.12 3.95 12.58 3.95 12.88 4.25C13.18 4.54 13.18 5.01 12.88 5.31L12.85 5.31L11.82 4.28ZM16.06 8.52L16.06 8.49C16.36 8.19 16.82 8.19 17.12 8.49C17.42 8.79 17.42 9.25 17.12 9.55L17.09 9.55L16.06 8.52Z" fill="#000000" fill-opacity="0" fill-rule="nonzero"/>
		<path id="path" d="M12.35 4.78L4.92 12.2C3.17 13.96 3.17 16.81 4.92 18.57C6.68 20.32 9.53 20.32 11.29 18.57L20.13 9.73C21.3 8.56 21.3 6.66 20.13 5.48C18.96 4.31 17.06 4.31 15.88 5.48L7.05 14.32C6.46 14.91 6.46 15.86 7.05 16.44C7.63 17.03 8.58 17.03 9.17 16.44L16.59 9.02" stroke="#848484" stroke-opacity="1.000000" stroke-width="1.500000" stroke-linejoin="round" stroke-linecap="round"/>
	</g>
</svg>
