<svg width="25.990234" height="22.247070" viewBox="0 0 25.9902 22.2471" fill="none" xmlns="http://www.w3.org/2000/svg" xmlns:xlink="http://www.w3.org/1999/xlink">
	<desc>
			Created with Pixso.
	</desc>
	<defs/>
	<path id="path" d="M0.11 0.11L0 0.23L0 8.33C0 17.73 -0.09 16.63 0.63 16.63L1.06 16.63L1.06 19.31L1.06 22L1.19 22.12C1.31 22.24 1.34 22.24 1.94 22.24C2.82 22.24 2.81 22.25 2.84 21.42L2.87 20.79L3.64 21.37C4.06 21.69 4.41 21.98 4.41 22.02C4.41 22.19 4.62 22.24 5.28 22.24C5.88 22.24 5.93 22.24 6.03 22.13L6.14 22.01L6.14 19.32L6.14 16.63L12.94 16.63L19.74 16.63L19.75 19.34L19.77 22.05L19.89 22.15C19.99 22.23 20.09 22.24 20.63 22.24C21.49 22.24 21.48 22.25 21.52 21.42L21.54 20.78L22.32 21.35C22.74 21.66 23.09 21.95 23.09 21.98C23.09 22.01 23.14 22.09 23.19 22.14C23.29 22.23 23.36 22.24 23.95 22.24C24.43 22.24 24.62 22.22 24.7 22.17C24.79 22.1 24.79 22 24.82 19.38L24.84 16.66L25.34 16.63C25.76 16.61 25.85 16.59 25.91 16.51C25.98 16.42 25.99 15.22 25.99 8.31L25.99 0.2L25.85 0.1L25.72 0L12.97 0L0.22 0L0.11 0.11ZM25.27 8.31L25.27 15.93L12.99 15.93L0.71 15.93L0.71 8.31L0.71 0.7L12.99 0.7L25.27 0.7L25.27 8.31ZM2.12 19.1L2.13 21.54L1.95 21.54L1.77 21.54L1.77 19.08L1.77 16.63L1.94 16.64L2.1 16.66L2.12 19.1ZM4.36 17.14C4.36 17.41 4.34 17.63 4.32 17.62C4.23 17.59 3.05 16.71 3.04 16.67C3.04 16.65 3.34 16.63 3.7 16.63L4.36 16.63L4.36 17.14ZM5.43 19.09L5.43 21.54L5.25 21.54L5.07 21.54L5.07 19.12C5.07 17.79 5.09 16.68 5.11 16.67C5.12 16.65 5.21 16.63 5.29 16.63L5.43 16.63L5.43 19.09ZM20.81 19.09L20.81 21.54L20.63 21.54L20.45 21.54L20.45 19.12C20.45 17.79 20.47 16.68 20.49 16.67C20.5 16.65 20.58 16.63 20.67 16.63L20.81 16.63L20.81 19.09ZM23.07 16.7C23.09 16.74 23.09 16.97 23.08 17.22L23.07 17.68L22.46 17.23C21.58 16.58 21.58 16.63 22.37 16.63C22.88 16.63 23.05 16.65 23.07 16.7ZM24.11 19.09L24.11 21.54L23.96 21.54L23.8 21.54L23.8 19.09L23.8 16.63L23.96 16.63L24.11 16.63L24.11 19.09ZM3.67 18.03C3.91 18.21 4.11 18.37 4.11 18.39C4.11 18.42 3.08 19.2 2.91 19.31C2.86 19.34 2.84 19.14 2.84 18.38L2.84 17.42L3.03 17.57C3.14 17.64 3.42 17.85 3.67 18.03ZM22.22 17.92C22.53 18.16 22.79 18.36 22.79 18.38C22.79 18.41 21.77 19.19 21.58 19.31C21.53 19.34 21.52 19.14 21.52 18.38C21.52 17.63 21.53 17.43 21.58 17.46C21.62 17.48 21.9 17.69 22.22 17.92ZM4.34 20.97C4.33 20.99 4.04 20.79 3.7 20.54C3.36 20.28 3.1 20.06 3.13 20.04C3.15 20.01 3.43 19.8 3.75 19.56L4.34 19.13L4.35 20.04C4.36 20.54 4.35 20.96 4.34 20.97ZM23.09 20.09L23.09 21.05L22.93 20.93C22.84 20.86 22.54 20.64 22.27 20.44C21.99 20.24 21.79 20.05 21.81 20.03C21.91 19.93 23.01 19.14 23.05 19.14C23.07 19.14 23.09 19.57 23.09 20.09Z" fill="#1C1919" fill-opacity="1.000000" fill-rule="nonzero"/>
	<path id="path" d="M0 0.23L0 8.33C0 17.73 -0.09 16.63 0.63 16.63L1.06 16.63L1.06 19.31L1.06 22L1.19 22.12C1.31 22.24 1.34 22.24 1.94 22.24C2.82 22.24 2.81 22.25 2.84 21.42L2.87 20.79L3.64 21.37C4.06 21.69 4.41 21.98 4.41 22.02C4.41 22.19 4.62 22.24 5.28 22.24C5.88 22.24 5.93 22.24 6.03 22.13L6.14 22.01L6.14 19.32L6.14 16.63L12.94 16.63L19.74 16.63L19.75 19.34L19.77 22.05L19.89 22.15C19.99 22.23 20.09 22.24 20.63 22.24C21.49 22.24 21.48 22.25 21.52 21.42L21.54 20.78L22.32 21.35C22.74 21.66 23.09 21.95 23.09 21.98C23.09 22.01 23.14 22.09 23.19 22.14C23.29 22.23 23.36 22.24 23.95 22.24C24.43 22.24 24.62 22.22 24.7 22.17C24.79 22.1 24.79 22 24.82 19.38L24.84 16.66L25.34 16.63C25.76 16.61 25.85 16.59 25.91 16.51C25.98 16.42 25.99 15.22 25.99 8.31L25.99 0.2L25.85 0.1L25.72 0L12.97 0L0.22 0L0.11 0.11L0 0.23ZM25.27 15.93L12.99 15.93L0.71 15.93L0.71 8.31L0.71 0.7L12.99 0.7L25.27 0.7L25.27 8.31L25.27 15.93ZM2.13 21.54L1.95 21.54L1.77 21.54L1.77 19.08L1.77 16.63L1.94 16.64L2.1 16.66L2.12 19.1L2.13 21.54ZM4.32 17.62C4.23 17.59 3.05 16.71 3.04 16.67C3.04 16.65 3.34 16.63 3.7 16.63L4.36 16.63L4.36 17.14C4.36 17.41 4.34 17.63 4.32 17.62ZM5.43 21.54L5.25 21.54L5.07 21.54L5.07 19.12C5.07 17.79 5.09 16.68 5.11 16.67C5.12 16.65 5.21 16.63 5.29 16.63L5.43 16.63L5.43 19.09L5.43 21.54ZM20.81 21.54L20.63 21.54L20.45 21.54L20.45 19.12C20.45 17.79 20.47 16.68 20.49 16.67C20.5 16.65 20.58 16.63 20.67 16.63L20.81 16.63L20.81 19.09L20.81 21.54ZM23.08 17.22L23.07 17.68L22.46 17.23C21.58 16.58 21.58 16.63 22.37 16.63C22.88 16.63 23.05 16.65 23.07 16.7C23.09 16.74 23.09 16.97 23.08 17.22ZM24.11 21.54L23.96 21.54L23.8 21.54L23.8 19.09L23.8 16.63L23.96 16.63L24.11 16.63L24.11 19.09L24.11 21.54ZM4.11 18.39C4.11 18.42 3.08 19.2 2.91 19.31C2.86 19.34 2.84 19.14 2.84 18.38L2.84 17.42L3.03 17.57C3.14 17.64 3.42 17.85 3.67 18.03C3.91 18.21 4.11 18.37 4.11 18.39ZM22.79 18.38C22.79 18.41 21.77 19.19 21.58 19.31C21.53 19.34 21.52 19.14 21.52 18.38C21.52 17.63 21.53 17.43 21.58 17.46C21.62 17.48 21.9 17.69 22.22 17.92C22.53 18.16 22.79 18.36 22.79 18.38ZM3.7 20.54C3.36 20.28 3.1 20.06 3.13 20.04C3.15 20.01 3.43 19.8 3.75 19.56L4.34 19.13L4.35 20.04C4.36 20.54 4.35 20.96 4.34 20.97C4.33 20.99 4.04 20.79 3.7 20.54ZM23.09 21.05L22.93 20.93C22.84 20.86 22.54 20.64 22.27 20.44C21.99 20.24 21.79 20.05 21.81 20.03C21.91 19.93 23.01 19.14 23.05 19.14C23.07 19.14 23.09 19.57 23.09 20.09L23.09 21.05Z" stroke="#000000" stroke-opacity="0" stroke-width="0.133333"/>
	<path id="path" d="M1.47 1.5C1.37 1.6 1.37 1.66 1.37 8.33C1.37 14.79 1.37 15.07 1.46 15.14C1.55 15.22 2.42 15.23 13 15.23C24.03 15.23 24.45 15.22 24.53 15.14C24.61 15.05 24.62 14.51 24.62 8.32C24.62 1.66 24.62 1.6 24.51 1.5C24.41 1.4 24.35 1.4 12.99 1.4C1.64 1.4 1.57 1.4 1.47 1.5ZM15.63 2.32C15.5 2.45 12.54 5.24 9.03 8.53L2.66 14.53L2.37 14.53L2.08 14.53L2.08 8.31L2.08 2.1L8.97 2.1L15.86 2.1L15.63 2.32ZM20.16 2.62C19.74 3.03 19.64 3.16 19.64 3.27C19.64 3.47 19.77 3.6 19.97 3.6C20.11 3.6 20.25 3.5 20.93 2.85L21.74 2.1L22.82 2.1L23.9 2.1L23.9 8.31L23.9 14.53L16.24 14.53C12.03 14.53 8.58 14.52 8.58 14.5C8.58 14.49 10.73 12.45 13.37 9.97C17.62 5.97 18.17 5.44 18.17 5.31C18.17 5.22 18.12 5.11 18.07 5.06C17.81 4.81 18.05 4.6 12.59 9.74L7.5 14.53L5.59 14.53L3.68 14.53L4.16 14.08C4.42 13.83 7.39 11.04 10.76 7.87L16.87 2.1L18.78 2.1L20.68 2.1L20.16 2.62Z" fill="#1C1919" fill-opacity="1.000000" fill-rule="nonzero"/>
	<path id="path" d="M1.37 8.33C1.37 14.79 1.37 15.07 1.46 15.14C1.55 15.22 2.42 15.23 13 15.23C24.03 15.23 24.45 15.22 24.53 15.14C24.61 15.05 24.62 14.51 24.62 8.32C24.62 1.66 24.62 1.6 24.51 1.5C24.41 1.4 24.35 1.4 12.99 1.4C1.64 1.4 1.57 1.4 1.47 1.5C1.37 1.6 1.37 1.66 1.37 8.33ZM9.03 8.53L2.66 14.53L2.37 14.53L2.08 14.53L2.08 8.31L2.08 2.1L8.97 2.1L15.86 2.1L15.63 2.32C15.5 2.45 12.54 5.24 9.03 8.53ZM19.64 3.27C19.64 3.47 19.77 3.6 19.97 3.6C20.11 3.6 20.25 3.5 20.93 2.85L21.74 2.1L22.82 2.1L23.9 2.1L23.9 8.31L23.9 14.53L16.24 14.53C12.03 14.53 8.58 14.52 8.58 14.5C8.58 14.49 10.73 12.45 13.37 9.97C17.62 5.97 18.17 5.44 18.17 5.31C18.17 5.22 18.12 5.11 18.07 5.06C17.81 4.81 18.05 4.6 12.59 9.74L7.5 14.53L5.59 14.53L3.68 14.53L4.16 14.08C4.42 13.83 7.39 11.04 10.76 7.87L16.87 2.1L18.78 2.1L20.68 2.1L20.16 2.62C19.74 3.03 19.64 3.16 19.64 3.27Z" stroke="#000000" stroke-opacity="0" stroke-width="0.133333"/>
</svg>
