<svg width="14.983398" height="32.993652" viewBox="0 0 14.9834 32.9937" fill="none" xmlns="http://www.w3.org/2000/svg" xmlns:xlink="http://www.w3.org/1999/xlink">
	<desc>
			Created with Pixso.
	</desc>
	<defs>
		<linearGradient x1="0.000002" y1="16.496780" x2="14.983521" y2="8.067776" id="paint_linear_317_15758_0" gradientUnits="userSpaceOnUse">
			<stop stop-color="#7D3172"/>
			<stop offset="0.690480" stop-color="#AE3C6F"/>
		</linearGradient>
	</defs>
	<path id="path" d="M3.72 0.15C2.7 0.5 2.05 1.27 1.88 2.34C1.84 2.6 1.81 4.03 1.81 5.83L1.81 8.89L1.03 8.89C0.32 8.89 0.23 8.9 0.12 9.03C0 9.16 0 9.34 0 13.46C0 17.41 0 17.78 0.11 18.18C0.49 19.53 1.39 20.65 2.57 21.23C3.22 21.55 3.74 21.65 4.9 21.71L5.9 21.75L5.89 24.8L5.87 27.84L5.18 27.93C2.77 28.23 1.13 28.93 0.69 29.84C0.12 31.04 1.43 32.18 3.98 32.69C5.24 32.94 5.84 33 7.52 32.99C8.73 32.99 9.38 32.95 9.96 32.87C12.36 32.52 13.94 31.8 14.31 30.87C14.6 30.17 14.25 29.46 13.33 28.92C12.63 28.49 11.17 28.09 9.8 27.93L9.1 27.85L9.08 24.8L9.07 21.75L10.07 21.71C11.23 21.65 11.75 21.55 12.4 21.23C13.59 20.65 14.48 19.53 14.86 18.18C14.97 17.78 14.98 17.41 14.98 13.46C14.98 9.34 14.97 9.16 14.85 9.03C14.74 8.9 14.66 8.89 13.94 8.89L13.16 8.89L13.16 5.83C13.16 4.03 13.14 2.6 13.09 2.34C12.92 1.23 12.15 0.38 11.08 0.09C10.83 0.02 10 0 7.45 0C4.2 0 4.15 0 3.72 0.15ZM5.9 1.68C5.9 2.52 5.97 2.67 6.33 2.67C6.71 2.67 6.79 2.5 6.81 1.66L6.84 0.93L7.49 0.93L8.13 0.93L8.16 1.66C8.18 2.48 8.27 2.67 8.63 2.67C9.01 2.67 9.07 2.54 9.07 1.69L9.07 0.93L9.53 0.93L10 0.93L10 1.68C10 2.52 10.06 2.67 10.42 2.67C10.79 2.67 10.88 2.49 10.91 1.7L10.93 1.01L11.12 1.08C11.44 1.19 11.88 1.64 12.04 2.01C12.17 2.32 12.2 2.48 12.2 3.14L12.21 3.91L10.32 3.93C8.52 3.94 8.42 3.95 8.31 4.07C8.14 4.27 8.15 4.6 8.34 4.76C8.48 4.87 8.64 4.88 10.36 4.88L12.24 4.88L12.24 5.31L12.24 5.75L10.36 5.75C8.64 5.75 8.48 5.75 8.34 5.87C8.13 6.04 8.13 6.39 8.34 6.56C8.48 6.68 8.64 6.68 10.36 6.68L12.24 6.68L12.24 7.12L12.24 7.55L10.36 7.55C8.64 7.55 8.48 7.56 8.34 7.67C8.24 7.76 8.19 7.87 8.19 8.02C8.19 8.17 8.24 8.28 8.34 8.37C8.48 8.48 8.64 8.49 10.36 8.49L12.24 8.49L12.24 8.92L12.24 9.36L10.36 9.36C8.64 9.36 8.48 9.36 8.34 9.48C8.13 9.65 8.13 10 8.34 10.17C8.48 10.29 8.64 10.29 10.36 10.29L12.24 10.29L12.24 10.73L12.24 11.16L10.44 11.16C9.45 11.16 8.58 11.18 8.49 11.2C8.29 11.26 8.13 11.58 8.21 11.78C8.33 12.09 8.36 12.1 10.33 12.11L12.21 12.13L12.23 12.55L12.25 12.97L10.43 12.97C9.24 12.97 8.56 12.99 8.46 13.04C8.15 13.18 8.09 13.6 8.36 13.82C8.43 13.88 9 13.9 10.33 13.92L12.21 13.94L12.2 14.61C12.19 15.38 12.07 15.72 11.7 16.12C11.28 16.54 11.06 16.61 10.02 16.63L9.07 16.65L9.07 15.92C9.07 15.26 9.06 15.16 8.94 15.04C8.77 14.87 8.54 14.87 8.34 15.03C8.19 15.15 8.18 15.22 8.16 15.9L8.13 16.65L7.49 16.65L6.84 16.65L6.81 15.9C6.79 15.22 6.78 15.15 6.64 15.03C6.44 14.87 6.2 14.87 6.03 15.04C5.92 15.16 5.9 15.26 5.9 15.92L5.9 16.65L4.97 16.63C3.91 16.61 3.72 16.55 3.29 16.12C2.91 15.74 2.78 15.39 2.77 14.61L2.77 13.94L4.64 13.92C5.97 13.9 6.54 13.88 6.62 13.82C6.88 13.6 6.83 13.18 6.52 13.04C6.41 12.99 5.73 12.97 4.54 12.97L2.73 12.97L2.75 12.55L2.77 12.13L4.64 12.11C6.62 12.1 6.65 12.09 6.77 11.78C6.85 11.58 6.69 11.26 6.48 11.2C6.4 11.18 5.52 11.16 4.54 11.16L2.73 11.16L2.73 10.73L2.73 10.29L4.61 10.29C6.33 10.29 6.5 10.29 6.64 10.17C6.84 10 6.84 9.65 6.64 9.48C6.5 9.36 6.33 9.36 4.61 9.36L2.73 9.36L2.73 8.92L2.73 8.49L4.61 8.49C6.33 8.49 6.5 8.48 6.64 8.37C6.84 8.19 6.84 7.85 6.64 7.67C6.5 7.56 6.33 7.55 4.61 7.55L2.73 7.55L2.73 7.12L2.73 6.68L4.61 6.68C6.33 6.68 6.5 6.68 6.64 6.56C6.84 6.39 6.84 6.04 6.64 5.87C6.5 5.75 6.33 5.75 4.61 5.75L2.73 5.75L2.73 5.31L2.73 4.88L4.61 4.88C6.33 4.88 6.5 4.87 6.64 4.76C6.82 4.6 6.83 4.27 6.66 4.07C6.55 3.95 6.45 3.94 4.66 3.93L2.77 3.91L2.77 3.14C2.77 2.48 2.8 2.32 2.93 2.01C3.09 1.64 3.53 1.19 3.85 1.08L4.04 1.01L4.07 1.7C4.09 2.48 4.19 2.67 4.54 2.67C4.92 2.67 4.98 2.54 4.98 1.69L4.98 0.93L5.44 0.93L5.9 0.93L5.9 1.68ZM1.81 13.42C1.81 15.39 1.84 17.21 1.88 17.44C2 18.32 2.64 19.19 3.41 19.55C3.97 19.81 4.51 19.85 7.49 19.85C10.46 19.85 11 19.81 11.56 19.55C12.34 19.19 12.97 18.32 13.1 17.44C13.13 17.21 13.16 15.39 13.16 13.42L13.16 9.82L13.63 9.82L14.09 9.82L14.07 13.75C14.05 17.33 14.03 17.72 13.93 18.05C13.5 19.36 12.63 20.24 11.34 20.64C10.99 20.74 10.66 20.76 7.49 20.76C4.31 20.76 3.99 20.74 3.63 20.64C2.34 20.24 1.47 19.36 1.04 18.05C0.94 17.72 0.93 17.33 0.9 13.75L0.88 9.82L1.34 9.82L1.81 9.82L1.81 13.42ZM3.11 17.18C3.73 17.58 3.76 17.58 7.49 17.58C11.22 17.58 11.24 17.58 11.87 17.18C12.04 17.07 12.2 16.99 12.21 17C12.26 17.05 12.11 17.72 12.01 17.92C11.86 18.22 11.46 18.58 11.12 18.75C10.83 18.89 10.75 18.89 7.49 18.89C4.23 18.89 4.15 18.89 3.85 18.75C3.47 18.56 3.08 18.18 2.93 17.82C2.82 17.55 2.7 16.98 2.77 16.98C2.78 16.98 2.94 17.07 3.11 17.18ZM8.15 25.84L8.15 29.95L7.49 29.95L6.83 29.95L6.83 25.84L6.83 21.73L7.49 21.73L8.15 21.73L8.15 25.84ZM5.9 29.7C5.9 30.19 5.93 30.62 5.96 30.66C6.08 30.85 6.33 30.89 7.49 30.89C8.65 30.89 8.89 30.85 9.02 30.66C9.04 30.62 9.07 30.19 9.07 29.7L9.07 28.82L9.29 28.82C9.4 28.82 9.8 28.86 10.16 28.92C11.99 29.2 13.49 29.88 13.49 30.43C13.49 30.51 13.39 30.67 13.26 30.79C12.48 31.54 10.01 32.09 7.49 32.09C4.98 32.09 2.48 31.53 1.7 30.79C1.43 30.53 1.42 30.37 1.65 30.09C2.1 29.55 4.29 28.86 5.63 28.82L5.9 28.82L5.9 29.7Z" fill="url(#paint_linear_317_15758_0)" fill-opacity="1.000000" fill-rule="nonzero"/>
	<path id="path" d="M1.88 2.34C1.84 2.6 1.81 4.03 1.81 5.83L1.81 8.89L1.03 8.89C0.32 8.89 0.23 8.9 0.12 9.03C0 9.16 0 9.34 0 13.46C0 17.41 0 17.78 0.11 18.18C0.49 19.53 1.39 20.65 2.57 21.23C3.22 21.55 3.74 21.65 4.9 21.71L5.9 21.75L5.89 24.8L5.87 27.84L5.18 27.93C2.77 28.23 1.13 28.93 0.69 29.84C0.12 31.04 1.43 32.18 3.98 32.69C5.24 32.94 5.84 33 7.52 32.99C8.73 32.99 9.38 32.95 9.96 32.87C12.36 32.52 13.94 31.8 14.31 30.87C14.6 30.17 14.25 29.46 13.33 28.92C12.63 28.49 11.17 28.09 9.8 27.93L9.1 27.85L9.08 24.8L9.07 21.75L10.07 21.71C11.23 21.65 11.75 21.55 12.4 21.23C13.59 20.65 14.48 19.53 14.86 18.18C14.97 17.78 14.98 17.41 14.98 13.46C14.98 9.34 14.97 9.16 14.85 9.03C14.74 8.9 14.66 8.89 13.94 8.89L13.16 8.89L13.16 5.83C13.16 4.03 13.14 2.6 13.09 2.34C12.92 1.23 12.15 0.38 11.08 0.09C10.83 0.02 10 0 7.45 0C4.2 0 4.15 0 3.72 0.15C2.7 0.5 2.05 1.27 1.88 2.34ZM6.33 2.67C6.71 2.67 6.79 2.5 6.81 1.66L6.84 0.93L7.49 0.93L8.13 0.93L8.16 1.66C8.18 2.48 8.27 2.67 8.63 2.67C9.01 2.67 9.07 2.54 9.07 1.69L9.07 0.93L9.53 0.93L10 0.93L10 1.68C10 2.52 10.06 2.67 10.42 2.67C10.79 2.67 10.88 2.49 10.91 1.7L10.93 1.01L11.12 1.08C11.44 1.19 11.88 1.64 12.04 2.01C12.17 2.32 12.2 2.48 12.2 3.14L12.21 3.91L10.32 3.93C8.52 3.94 8.42 3.95 8.31 4.07C8.14 4.27 8.15 4.6 8.34 4.76C8.48 4.87 8.64 4.88 10.36 4.88L12.24 4.88L12.24 5.31L12.24 5.75L10.36 5.75C8.64 5.75 8.48 5.75 8.34 5.87C8.13 6.04 8.13 6.39 8.34 6.56C8.48 6.68 8.64 6.68 10.36 6.68L12.24 6.68L12.24 7.12L12.24 7.55L10.36 7.55C8.64 7.55 8.48 7.56 8.34 7.67C8.24 7.76 8.19 7.87 8.19 8.02C8.19 8.17 8.24 8.28 8.34 8.37C8.48 8.48 8.64 8.49 10.36 8.49L12.24 8.49L12.24 8.92L12.24 9.36L10.36 9.36C8.64 9.36 8.48 9.36 8.34 9.48C8.13 9.65 8.13 10 8.34 10.17C8.48 10.29 8.64 10.29 10.36 10.29L12.24 10.29L12.24 10.73L12.24 11.16L10.44 11.16C9.45 11.16 8.58 11.18 8.49 11.2C8.29 11.26 8.13 11.58 8.21 11.78C8.33 12.09 8.36 12.1 10.33 12.11L12.21 12.13L12.23 12.55L12.25 12.97L10.43 12.97C9.24 12.97 8.56 12.99 8.46 13.04C8.15 13.18 8.09 13.6 8.36 13.82C8.43 13.88 9 13.9 10.33 13.92L12.21 13.94L12.2 14.61C12.19 15.38 12.07 15.72 11.7 16.12C11.28 16.54 11.06 16.61 10.02 16.63L9.07 16.65L9.07 15.92C9.07 15.26 9.06 15.16 8.94 15.04C8.77 14.87 8.54 14.87 8.34 15.03C8.19 15.15 8.18 15.22 8.16 15.9L8.13 16.65L7.49 16.65L6.84 16.65L6.81 15.9C6.79 15.22 6.78 15.15 6.64 15.03C6.44 14.87 6.2 14.87 6.03 15.04C5.92 15.16 5.9 15.26 5.9 15.92L5.9 16.65L4.97 16.63C3.91 16.61 3.72 16.55 3.29 16.12C2.91 15.74 2.78 15.39 2.77 14.61L2.77 13.94L4.64 13.92C5.97 13.9 6.54 13.88 6.62 13.82C6.88 13.6 6.83 13.18 6.52 13.04C6.41 12.99 5.73 12.97 4.54 12.97L2.73 12.97L2.75 12.55L2.77 12.13L4.64 12.11C6.62 12.1 6.65 12.09 6.77 11.78C6.85 11.58 6.69 11.26 6.48 11.2C6.4 11.18 5.52 11.16 4.54 11.16L2.73 11.16L2.73 10.73L2.73 10.29L4.61 10.29C6.33 10.29 6.5 10.29 6.64 10.17C6.84 10 6.84 9.65 6.64 9.48C6.5 9.36 6.33 9.36 4.61 9.36L2.73 9.36L2.73 8.92L2.73 8.49L4.61 8.49C6.33 8.49 6.5 8.48 6.64 8.37C6.84 8.19 6.84 7.85 6.64 7.67C6.5 7.56 6.33 7.55 4.61 7.55L2.73 7.55L2.73 7.12L2.73 6.68L4.61 6.68C6.33 6.68 6.5 6.68 6.64 6.56C6.84 6.39 6.84 6.04 6.64 5.87C6.5 5.75 6.33 5.75 4.61 5.75L2.73 5.75L2.73 5.31L2.73 4.88L4.61 4.88C6.33 4.88 6.5 4.87 6.64 4.76C6.82 4.6 6.83 4.27 6.66 4.07C6.55 3.95 6.45 3.94 4.66 3.93L2.77 3.91L2.77 3.14C2.77 2.48 2.8 2.32 2.93 2.01C3.09 1.64 3.53 1.19 3.85 1.08L4.04 1.01L4.07 1.7C4.09 2.48 4.19 2.67 4.54 2.67C4.92 2.67 4.98 2.54 4.98 1.69L4.98 0.93L5.44 0.93L5.9 0.93L5.9 1.68C5.9 2.52 5.97 2.67 6.33 2.67ZM1.88 17.44C2 18.32 2.64 19.19 3.41 19.55C3.97 19.81 4.51 19.85 7.49 19.85C10.46 19.85 11 19.81 11.56 19.55C12.34 19.19 12.97 18.32 13.1 17.44C13.13 17.21 13.16 15.39 13.16 13.42L13.16 9.82L13.63 9.82L14.09 9.82L14.07 13.75C14.05 17.33 14.03 17.72 13.93 18.05C13.5 19.36 12.63 20.24 11.34 20.64C10.99 20.74 10.66 20.76 7.49 20.76C4.31 20.76 3.99 20.74 3.63 20.64C2.34 20.24 1.47 19.36 1.04 18.05C0.94 17.72 0.93 17.33 0.9 13.75L0.88 9.82L1.34 9.82L1.81 9.82L1.81 13.42C1.81 15.39 1.84 17.21 1.88 17.44ZM7.49 17.58C11.22 17.58 11.24 17.58 11.87 17.18C12.04 17.07 12.2 16.99 12.21 17C12.26 17.05 12.11 17.72 12.01 17.92C11.86 18.22 11.46 18.58 11.12 18.75C10.83 18.89 10.75 18.89 7.49 18.89C4.23 18.89 4.15 18.89 3.85 18.75C3.47 18.56 3.08 18.18 2.93 17.82C2.82 17.55 2.7 16.98 2.77 16.98C2.78 16.98 2.94 17.07 3.11 17.18C3.73 17.58 3.76 17.58 7.49 17.58ZM8.15 29.95L7.49 29.95L6.83 29.95L6.83 25.84L6.83 21.73L7.49 21.73L8.15 21.73L8.15 25.84L8.15 29.95ZM5.96 30.66C6.08 30.85 6.33 30.89 7.49 30.89C8.65 30.89 8.89 30.85 9.02 30.66C9.04 30.62 9.07 30.19 9.07 29.7L9.07 28.82L9.29 28.82C9.4 28.82 9.8 28.86 10.16 28.92C11.99 29.2 13.49 29.88 13.49 30.43C13.49 30.51 13.39 30.67 13.26 30.79C12.48 31.54 10.01 32.09 7.49 32.09C4.98 32.09 2.48 31.53 1.7 30.79C1.43 30.53 1.42 30.37 1.65 30.09C2.1 29.55 4.29 28.86 5.63 28.82L5.9 28.82L5.9 29.7C5.9 30.19 5.93 30.62 5.96 30.66Z" stroke="#000000" stroke-opacity="0" stroke-width="0.133333"/>
</svg>
