<svg width="30.122070" height="17.062500" viewBox="0 0 30.1221 17.0625" fill="none" xmlns="http://www.w3.org/2000/svg" xmlns:xlink="http://www.w3.org/1999/xlink">
	<desc>
			Created with Pixso.
	</desc>
	<defs/>
	<path id="path" d="M7.46 0.16C6.76 0.51 6.52 1.06 6.51 2.35C6.51 3.31 6.58 3.5 6.9 3.5C7.19 3.5 7.29 3.21 7.29 2.29C7.29 1.33 7.35 1.14 7.74 0.87L8 0.7L14.67 0.7C22.17 0.7 21.72 0.66 22.02 1.27C22.17 1.59 22.17 1.72 22.17 7.11L22.17 12.61L18.07 12.61L13.96 12.61L13.65 12.2C13.41 11.9 13.19 11.72 12.73 11.48C12.15 11.19 12.09 11.17 11.42 11.17C10.78 11.17 10.67 11.2 10.22 11.42C9.72 11.67 9.24 12.07 9.01 12.43C8.9 12.61 8.84 12.61 8.09 12.61L7.29 12.61L7.29 11.89C7.29 11.28 7.26 11.13 7.15 11.03C6.97 10.87 6.79 10.86 6.64 11.03C6.47 11.2 6.46 13.65 6.62 14.06C6.8 14.48 7.14 14.64 7.87 14.64C8.5 14.64 8.5 14.64 8.56 14.85C8.74 15.61 9.41 16.42 10.13 16.79C10.53 17 10.63 17.02 11.41 17.02C12.17 17.02 12.31 16.99 12.7 16.81C13.43 16.46 14.01 15.74 14.34 14.77C14.38 14.65 14.63 14.64 18.6 14.66L22.81 14.68L22.95 15.08C23.24 15.93 23.87 16.59 24.71 16.91C25.35 17.15 26.44 17.09 27.02 16.79C27.8 16.39 28.34 15.73 28.58 14.9L28.67 14.58L29.14 14.55C29.56 14.52 29.63 14.48 29.87 14.22C30.12 13.95 30.14 13.89 30.11 13.54C30.06 13.1 29.84 12.8 29.47 12.71L29.23 12.65L29.19 10.97L29.16 9.3L28.38 7.55C27.95 6.58 27.45 5.46 27.27 5.06C27.1 4.65 26.87 4.22 26.76 4.1C26.33 3.63 26.29 3.62 24.53 3.58L22.91 3.54L22.87 2.33C22.84 1.32 22.81 1.08 22.68 0.89C22.45 0.52 22.23 0.3 21.93 0.14C21.65 0 21.37 0 14.71 0C7.8 0 7.79 0 7.46 0.16ZM26.09 4.2C26.23 4.28 26.39 4.43 26.46 4.54C26.53 4.65 27.05 5.81 27.62 7.12L28.65 9.51L28.65 11.06C28.65 12.91 28.65 12.91 27.84 12.08C27.24 11.49 26.72 11.23 25.96 11.16C25.41 11.1 24.65 11.3 24.16 11.61C23.79 11.85 23.25 12.4 23.25 12.54C23.25 12.58 23.17 12.61 23.06 12.61L22.87 12.61L22.87 8.38C22.87 6.06 22.89 4.12 22.92 4.1C22.95 4.07 23.62 4.05 24.4 4.05C25.69 4.05 25.86 4.06 26.09 4.2ZM12.47 11.9C13.38 12.35 13.87 13.21 13.83 14.25C13.79 15.17 13.33 15.89 12.49 16.34C11.98 16.62 10.99 16.63 10.43 16.38C9.97 16.17 9.4 15.59 9.19 15.12C8.96 14.61 8.96 13.66 9.19 13.15C9.48 12.5 10.07 11.98 10.76 11.75C11.14 11.62 12.08 11.71 12.47 11.9ZM26.79 11.91C27.29 12.16 27.7 12.58 27.94 13.07C28.12 13.44 28.15 13.6 28.15 14.13C28.15 14.87 27.95 15.36 27.46 15.85C26.95 16.37 26.5 16.55 25.72 16.55C25.17 16.55 25.01 16.52 24.68 16.34C23.14 15.52 22.84 13.55 24.07 12.33C24.57 11.85 25.07 11.67 25.84 11.7C26.29 11.73 26.55 11.78 26.79 11.91ZM8.56 13.49C8.53 13.67 8.49 13.85 8.47 13.88C8.41 13.98 7.48 13.95 7.38 13.85C7.32 13.79 7.29 13.62 7.29 13.46L7.29 13.16L7.95 13.16L8.61 13.16L8.56 13.49ZM22.85 13.55L22.77 13.94L18.59 13.94L14.4 13.94L14.35 13.66C14.32 13.51 14.27 13.33 14.25 13.27C14.22 13.18 14.82 13.16 18.56 13.16L22.92 13.16L22.85 13.55ZM29.39 13.21C29.6 13.29 29.68 13.62 29.54 13.83C29.44 13.99 29.36 14.02 29.04 14.02C28.69 14.02 28.65 14 28.65 13.83C28.65 13.73 28.63 13.53 28.61 13.4L28.56 13.16L28.91 13.16C29.1 13.16 29.32 13.18 29.39 13.21Z" fill="#1C1919" fill-opacity="1.000000" fill-rule="nonzero"/>
	<path id="path" d="M6.51 2.35C6.51 3.31 6.58 3.5 6.9 3.5C7.19 3.5 7.29 3.21 7.29 2.29C7.29 1.33 7.35 1.14 7.74 0.87L8 0.7L14.67 0.7C22.17 0.7 21.72 0.66 22.02 1.27C22.17 1.59 22.17 1.72 22.17 7.11L22.17 12.61L18.07 12.61L13.96 12.61L13.65 12.2C13.41 11.9 13.19 11.72 12.73 11.48C12.15 11.19 12.09 11.17 11.42 11.17C10.78 11.17 10.67 11.2 10.22 11.42C9.72 11.67 9.24 12.07 9.01 12.43C8.9 12.61 8.84 12.61 8.09 12.61L7.29 12.61L7.29 11.89C7.29 11.28 7.26 11.13 7.15 11.03C6.97 10.87 6.79 10.86 6.64 11.03C6.47 11.2 6.46 13.65 6.62 14.06C6.8 14.48 7.14 14.64 7.87 14.64C8.5 14.64 8.5 14.64 8.56 14.85C8.74 15.61 9.41 16.42 10.13 16.79C10.53 17 10.63 17.02 11.41 17.02C12.17 17.02 12.31 16.99 12.7 16.81C13.43 16.46 14.01 15.74 14.34 14.77C14.38 14.65 14.63 14.64 18.6 14.66L22.81 14.68L22.95 15.08C23.24 15.93 23.87 16.59 24.71 16.91C25.35 17.15 26.44 17.09 27.02 16.79C27.8 16.39 28.34 15.73 28.58 14.9L28.67 14.58L29.14 14.55C29.56 14.52 29.63 14.48 29.87 14.22C30.12 13.95 30.14 13.89 30.11 13.54C30.06 13.1 29.84 12.8 29.47 12.71L29.23 12.65L29.19 10.97L29.16 9.3L28.38 7.55C27.95 6.58 27.45 5.46 27.27 5.06C27.1 4.65 26.87 4.22 26.76 4.1C26.33 3.63 26.29 3.62 24.53 3.58L22.91 3.54L22.87 2.33C22.84 1.32 22.81 1.08 22.68 0.89C22.45 0.52 22.23 0.3 21.93 0.14C21.65 0 21.37 0 14.71 0C7.8 0 7.79 0 7.46 0.16C6.76 0.51 6.52 1.06 6.51 2.35ZM26.46 4.54C26.53 4.65 27.05 5.81 27.62 7.12L28.65 9.51L28.65 11.06C28.65 12.91 28.65 12.91 27.84 12.08C27.24 11.49 26.72 11.23 25.96 11.16C25.41 11.1 24.65 11.3 24.16 11.61C23.79 11.85 23.25 12.4 23.25 12.54C23.25 12.58 23.17 12.61 23.06 12.61L22.87 12.61L22.87 8.38C22.87 6.06 22.89 4.12 22.92 4.1C22.95 4.07 23.62 4.05 24.4 4.05C25.69 4.05 25.86 4.06 26.09 4.2C26.23 4.28 26.39 4.43 26.46 4.54ZM13.83 14.25C13.79 15.17 13.33 15.89 12.49 16.34C11.98 16.62 10.99 16.63 10.43 16.38C9.97 16.17 9.4 15.59 9.19 15.12C8.96 14.61 8.96 13.66 9.19 13.15C9.48 12.5 10.07 11.98 10.76 11.75C11.14 11.62 12.08 11.71 12.47 11.9C13.38 12.35 13.87 13.21 13.83 14.25ZM27.94 13.07C28.12 13.44 28.15 13.6 28.15 14.13C28.15 14.87 27.95 15.36 27.46 15.85C26.95 16.37 26.5 16.55 25.72 16.55C25.17 16.55 25.01 16.52 24.68 16.34C23.14 15.52 22.84 13.55 24.07 12.33C24.57 11.85 25.07 11.67 25.84 11.7C26.29 11.73 26.55 11.78 26.79 11.91C27.29 12.16 27.7 12.58 27.94 13.07ZM8.47 13.88C8.41 13.98 7.48 13.95 7.38 13.85C7.32 13.79 7.29 13.62 7.29 13.46L7.29 13.16L7.95 13.16L8.61 13.16L8.56 13.49C8.53 13.67 8.49 13.85 8.47 13.88ZM22.77 13.94L18.59 13.94L14.4 13.94L14.35 13.66C14.32 13.51 14.27 13.33 14.25 13.27C14.22 13.18 14.82 13.16 18.56 13.16L22.92 13.16L22.85 13.55L22.77 13.94ZM29.54 13.83C29.44 13.99 29.36 14.02 29.04 14.02C28.69 14.02 28.65 14 28.65 13.83C28.65 13.73 28.63 13.53 28.61 13.4L28.56 13.16L28.91 13.16C29.1 13.16 29.32 13.18 29.39 13.21C29.6 13.29 29.68 13.62 29.54 13.83Z" stroke="#000000" stroke-opacity="0" stroke-width="0.133333"/>
	<path id="path" d="M23.77 4.76C23.66 4.82 23.64 5.05 23.64 7.16C23.64 9.39 23.65 9.5 23.79 9.58C23.99 9.69 27.38 9.69 27.58 9.58C27.66 9.53 27.73 9.44 27.73 9.39C27.73 9.2 25.79 4.86 25.66 4.76C25.51 4.65 23.98 4.65 23.77 4.76ZM26.18 7.02C26.62 8.02 27 8.9 27.01 8.97C27.05 9.1 26.95 9.11 25.62 9.11L24.18 9.11L24.18 7.16L24.18 5.21L24.78 5.21L25.38 5.21L26.18 7.02Z" fill="#1C1919" fill-opacity="1.000000" fill-rule="nonzero"/>
	<path id="path" d="M23.64 7.16C23.64 9.39 23.65 9.5 23.79 9.58C23.99 9.69 27.38 9.69 27.58 9.58C27.66 9.53 27.73 9.44 27.73 9.39C27.73 9.2 25.79 4.86 25.66 4.76C25.51 4.65 23.98 4.65 23.77 4.76C23.66 4.82 23.64 5.05 23.64 7.16ZM27.01 8.97C27.05 9.1 26.95 9.11 25.62 9.11L24.18 9.11L24.18 7.16L24.18 5.21L24.78 5.21L25.38 5.21L26.18 7.02C26.62 8.02 27 8.9 27.01 8.97Z" stroke="#000000" stroke-opacity="0" stroke-width="0.133333"/>
	<path id="path" d="M10.9 13.2C10.62 13.35 10.37 13.78 10.37 14.1C10.37 14.9 11.23 15.43 11.92 15.07C12.25 14.89 12.45 14.52 12.45 14.06C12.45 13.73 12.42 13.65 12.15 13.39C11.89 13.11 11.81 13.08 11.48 13.08C11.27 13.09 11.01 13.14 10.9 13.2ZM11.8 13.74C12.03 13.97 12.04 14.24 11.85 14.49C11.55 14.86 10.91 14.62 10.91 14.14C10.91 13.86 10.97 13.77 11.18 13.64C11.42 13.5 11.6 13.53 11.8 13.74Z" fill="#1C1919" fill-opacity="1.000000" fill-rule="nonzero"/>
	<path id="path" d="M10.37 14.1C10.37 14.9 11.23 15.43 11.92 15.07C12.25 14.89 12.45 14.52 12.45 14.06C12.45 13.73 12.42 13.65 12.15 13.39C11.89 13.11 11.81 13.08 11.48 13.08C11.27 13.09 11.01 13.14 10.9 13.2C10.62 13.35 10.37 13.78 10.37 14.1ZM11.85 14.49C11.55 14.86 10.91 14.62 10.91 14.14C10.91 13.86 10.97 13.77 11.18 13.64C11.42 13.5 11.6 13.53 11.8 13.74C12.03 13.97 12.04 14.24 11.85 14.49Z" stroke="#000000" stroke-opacity="0" stroke-width="0.133333"/>
	<path id="path" d="M25.18 13.21C24.72 13.49 24.55 14.24 24.83 14.68C25.15 15.18 25.85 15.33 26.31 15.01C26.59 14.82 26.8 14.43 26.8 14.13C26.8 13.81 26.57 13.39 26.31 13.23C26.02 13.05 25.45 13.04 25.18 13.21ZM25.98 13.63C26.21 13.76 26.26 13.85 26.26 14.14C26.26 14.62 25.62 14.86 25.32 14.49C25.13 14.24 25.14 13.97 25.38 13.74C25.58 13.53 25.72 13.5 25.98 13.63Z" fill="#1C1919" fill-opacity="1.000000" fill-rule="nonzero"/>
	<path id="path" d="M24.83 14.68C25.15 15.18 25.85 15.33 26.31 15.01C26.59 14.82 26.8 14.43 26.8 14.13C26.8 13.81 26.57 13.39 26.31 13.23C26.02 13.05 25.45 13.04 25.18 13.21C24.72 13.49 24.55 14.24 24.83 14.68ZM26.26 14.14C26.26 14.62 25.62 14.86 25.32 14.49C25.13 14.24 25.14 13.97 25.38 13.74C25.58 13.53 25.72 13.5 25.98 13.63C26.21 13.76 26.26 13.85 26.26 14.14Z" stroke="#000000" stroke-opacity="0" stroke-width="0.133333"/>
	<path id="path" d="M0.19 4.27C0.05 4.31 0 4.38 0 4.51L0 4.71L4.99 4.73C9.74 4.75 9.99 4.74 10.05 4.61C10.25 4.23 10.32 4.24 5.19 4.22C2.54 4.22 0.3 4.24 0.19 4.27Z" fill="#1C1919" fill-opacity="1.000000" fill-rule="nonzero"/>
	<path id="path" d="M0 4.51L0 4.71L4.99 4.73C9.74 4.75 9.99 4.74 10.05 4.61C10.25 4.23 10.32 4.24 5.19 4.22C2.54 4.22 0.3 4.24 0.19 4.27C0.05 4.31 0 4.38 0 4.51Z" stroke="#000000" stroke-opacity="0" stroke-width="0.133333"/>
	<path id="path" d="M2.22 6.19C2.19 6.25 2.19 6.36 2.22 6.42C2.26 6.52 2.76 6.54 6.11 6.54C9.45 6.54 9.98 6.52 10.06 6.42C10.14 6.33 10.14 6.28 10.06 6.19C9.98 6.09 9.45 6.07 6.11 6.07C2.76 6.07 2.26 6.09 2.22 6.19Z" fill="#1C1919" fill-opacity="1.000000" fill-rule="nonzero"/>
	<path id="path" d="M2.22 6.42C2.26 6.52 2.76 6.54 6.11 6.54C9.45 6.54 9.98 6.52 10.06 6.42C10.14 6.33 10.14 6.28 10.06 6.19C9.98 6.09 9.45 6.07 6.11 6.07C2.76 6.07 2.26 6.09 2.22 6.19C2.19 6.25 2.19 6.36 2.22 6.42Z" stroke="#000000" stroke-opacity="0" stroke-width="0.133333"/>
	<path id="path" d="M4.36 7.97C4.32 8.03 4.29 8.14 4.32 8.21C4.37 8.31 4.65 8.33 7.21 8.33C9.76 8.33 10.05 8.31 10.09 8.21C10.22 7.88 10.1 7.86 7.21 7.86C4.96 7.86 4.43 7.89 4.36 7.97Z" fill="#1C1919" fill-opacity="1.000000" fill-rule="nonzero"/>
	<path id="path" d="M4.32 8.21C4.37 8.31 4.65 8.33 7.21 8.33C9.76 8.33 10.05 8.31 10.09 8.21C10.22 7.88 10.1 7.86 7.21 7.86C4.96 7.86 4.43 7.89 4.36 7.97C4.32 8.03 4.29 8.14 4.32 8.21Z" stroke="#000000" stroke-opacity="0" stroke-width="0.133333"/>
	<path id="path" d="M6.1 9.78C6.03 9.84 5.97 9.91 5.97 9.93C5.97 9.94 6.03 10.01 6.1 10.08C6.2 10.18 6.49 10.2 8.1 10.2C9.82 10.2 9.99 10.19 10.05 10.06C10.1 9.97 10.1 9.87 10.05 9.79C9.99 9.67 9.8 9.65 8.1 9.65C6.49 9.65 6.2 9.67 6.1 9.78Z" fill="#1C1919" fill-opacity="1.000000" fill-rule="nonzero"/>
	<path id="path" d="M5.97 9.93C5.97 9.94 6.03 10.01 6.1 10.08C6.2 10.18 6.49 10.2 8.1 10.2C9.82 10.2 9.99 10.19 10.05 10.06C10.1 9.97 10.1 9.87 10.05 9.79C9.99 9.67 9.8 9.65 8.1 9.65C6.49 9.65 6.2 9.67 6.1 9.78C6.03 9.84 5.97 9.91 5.97 9.93Z" stroke="#000000" stroke-opacity="0" stroke-width="0.133333"/>
</svg>
