<svg width="28.974854" height="25.969971" viewBox="0 0 28.9749 25.97" fill="none" xmlns="http://www.w3.org/2000/svg" xmlns:xlink="http://www.w3.org/1999/xlink">
	<desc>
			Created with Pixso.
	</desc>
	<defs>
		<linearGradient x1="0.000000" y1="12.984959" x2="28.974825" y2="6.350319" id="paint_linear_317_15309_0" gradientUnits="userSpaceOnUse">
			<stop stop-color="#7D3172"/>
			<stop offset="0.690480" stop-color="#AE3C6F"/>
		</linearGradient>
	</defs>
	<path id="path" d="M7.13 0.03C5.33 0.26 3.82 1.01 2.54 2.31C1.39 3.48 0.7 4.72 0.3 6.32C-0.4 9.11 0.11 11.85 1.8 14.43C2.88 16.08 4.28 17.6 6.84 19.91C8.47 21.38 13.45 25.67 13.69 25.81C13.92 25.95 14 25.97 14.48 25.97C14.96 25.97 15.05 25.95 15.28 25.81C15.52 25.67 20.51 21.37 22.13 19.91C24.7 17.59 26.09 16.08 27.17 14.43C28.86 11.85 29.37 9.11 28.66 6.32C28.27 4.72 27.58 3.48 26.43 2.31C25.28 1.15 24.06 0.48 22.46 0.14C21.66 -0.03 20.17 -0.05 19.47 0.11C17.51 0.54 16.01 1.53 14.64 3.29L14.48 3.49L14.33 3.29C12.98 1.56 11.5 0.57 9.61 0.14C9.05 0.01 7.76 -0.05 7.13 0.03ZM9.03 1.78C10.63 2.06 12.02 3 13.12 4.55C13.3 4.82 13.54 5.14 13.63 5.27C14.05 5.86 14.92 5.86 15.34 5.27C15.43 5.14 15.66 4.82 15.85 4.55C17.35 2.43 19.44 1.44 21.71 1.75C24.24 2.1 26.21 3.89 26.96 6.51C27.55 8.59 27.29 10.77 26.21 12.73C25.31 14.37 23.8 16.09 21.16 18.47C19.89 19.62 14.53 24.28 14.48 24.28C14.43 24.28 9.09 19.64 7.8 18.47C3.75 14.81 2.16 12.52 1.77 9.84C1.52 8.11 1.88 6.24 2.75 4.77C4.05 2.56 6.58 1.35 9.03 1.78Z" fill="url(#paint_linear_317_15309_0)" fill-opacity="1.000000" fill-rule="nonzero"/>
	<path id="path" d="M2.54 2.31C1.39 3.48 0.7 4.72 0.3 6.32C-0.4 9.11 0.11 11.85 1.8 14.43C2.88 16.08 4.28 17.6 6.84 19.91C8.47 21.38 13.45 25.67 13.69 25.81C13.92 25.95 14 25.97 14.48 25.97C14.96 25.97 15.05 25.95 15.28 25.81C15.52 25.67 20.51 21.37 22.13 19.91C24.7 17.59 26.09 16.08 27.17 14.43C28.86 11.85 29.37 9.11 28.66 6.32C28.27 4.72 27.58 3.48 26.43 2.31C25.28 1.15 24.06 0.48 22.46 0.14C21.66 -0.03 20.17 -0.05 19.47 0.11C17.51 0.54 16.01 1.53 14.64 3.29L14.48 3.49L14.33 3.29C12.98 1.56 11.5 0.57 9.61 0.14C9.05 0.01 7.76 -0.05 7.13 0.03C5.33 0.26 3.82 1.01 2.54 2.31ZM13.12 4.55C13.3 4.82 13.54 5.14 13.63 5.27C14.05 5.86 14.92 5.86 15.34 5.27C15.43 5.14 15.66 4.82 15.85 4.55C17.35 2.43 19.44 1.44 21.71 1.75C24.24 2.1 26.21 3.89 26.96 6.51C27.55 8.59 27.29 10.77 26.21 12.73C25.31 14.37 23.8 16.09 21.16 18.47C19.89 19.62 14.53 24.28 14.48 24.28C14.43 24.28 9.09 19.64 7.8 18.47C3.75 14.81 2.16 12.52 1.77 9.84C1.52 8.11 1.88 6.24 2.75 4.77C4.05 2.56 6.58 1.35 9.03 1.78C10.63 2.06 12.02 3 13.12 4.55Z" stroke="#000000" stroke-opacity="0" stroke-width="0.500000"/>
</svg>
