<svg width="61.000000" height="61.000000" viewBox="0 0 61 61" fill="none" xmlns="http://www.w3.org/2000/svg" xmlns:xlink="http://www.w3.org/1999/xlink">
	<desc>
			Created with Pixso.
	</desc>
	<defs>
		<clipPath id="clip343_14199">
			<rect id="image 2 (traced)" width="61.000000" height="61.000000" fill="white" fill-opacity="0"/>
		</clipPath>
		<linearGradient x1="25.156250" y1="6.419542" x2="35.854111" y2="3.692472" id="paint_linear_343_14170_0" gradientUnits="userSpaceOnUse">
			<stop stop-color="#7D3172"/>
			<stop offset="0.690480" stop-color="#AE3C6F"/>
		</linearGradient>
		<linearGradient x1="31.262695" y1="13.353528" x2="46.739902" y2="10.010433" id="paint_linear_343_14171_0" gradientUnits="userSpaceOnUse">
			<stop stop-color="#7D3172"/>
			<stop offset="0.690480" stop-color="#AE3C6F"/>
		</linearGradient>
		<linearGradient x1="41.020023" y1="21.832205" x2="54.208889" y2="17.942068" id="paint_linear_343_14172_0" gradientUnits="userSpaceOnUse">
			<stop stop-color="#7D3172"/>
			<stop offset="0.690480" stop-color="#AE3C6F"/>
		</linearGradient>
		<linearGradient x1="49.231445" y1="30.500799" x2="59.927509" y2="27.766100" id="paint_linear_343_14173_0" gradientUnits="userSpaceOnUse">
			<stop stop-color="#7D3172"/>
			<stop offset="0.690480" stop-color="#AE3C6F"/>
		</linearGradient>
		<linearGradient x1="14.203126" y1="14.654305" x2="38.125114" y2="10.636595" id="paint_linear_343_14175_0" gradientUnits="userSpaceOnUse">
			<stop stop-color="#7D3172"/>
			<stop offset="0.690480" stop-color="#AE3C6F"/>
		</linearGradient>
		<linearGradient x1="25.281250" y1="9.390750" x2="29.591341" y2="8.245178" id="paint_linear_343_14176_0" gradientUnits="userSpaceOnUse">
			<stop stop-color="#7D3172"/>
			<stop offset="0.690480" stop-color="#AE3C6F"/>
		</linearGradient>
		<linearGradient x1="10.960938" y1="16.818285" x2="15.964844" y2="15.476764" id="paint_linear_343_14177_0" gradientUnits="userSpaceOnUse">
			<stop stop-color="#7D3172"/>
			<stop offset="0.690480" stop-color="#AE3C6F"/>
		</linearGradient>
		<linearGradient x1="23.482422" y1="29.725914" x2="39.072487" y2="25.742302" id="paint_linear_343_14178_0" gradientUnits="userSpaceOnUse">
			<stop stop-color="#7D3172"/>
			<stop offset="0.690480" stop-color="#AE3C6F"/>
		</linearGradient>
		<linearGradient x1="18.002930" y1="24.010010" x2="22.486393" y2="23.128702" id="paint_linear_343_14179_0" gradientUnits="userSpaceOnUse">
			<stop stop-color="#7D3172"/>
			<stop offset="0.690480" stop-color="#AE3C6F"/>
		</linearGradient>
		<linearGradient x1="38.491211" y1="34.828850" x2="54.208778" y2="28.727062" id="paint_linear_343_14180_0" gradientUnits="userSpaceOnUse">
			<stop stop-color="#7D3172"/>
			<stop offset="0.690480" stop-color="#AE3C6F"/>
		</linearGradient>
		<linearGradient x1="25.972656" y1="30.498547" x2="34.967773" y2="28.190565" id="paint_linear_343_14181_0" gradientUnits="userSpaceOnUse">
			<stop stop-color="#7D3172"/>
			<stop offset="0.690480" stop-color="#AE3C6F"/>
		</linearGradient>
		<linearGradient x1="49.350586" y1="33.510872" x2="53.767151" y2="32.337608" id="paint_linear_343_14182_0" gradientUnits="userSpaceOnUse">
			<stop stop-color="#7D3172"/>
			<stop offset="0.690480" stop-color="#AE3C6F"/>
		</linearGradient>
		<linearGradient x1="35.277344" y1="40.453072" x2="38.482227" y2="39.451111" id="paint_linear_343_14183_0" gradientUnits="userSpaceOnUse">
			<stop stop-color="#7D3172"/>
			<stop offset="0.690480" stop-color="#AE3C6F"/>
		</linearGradient>
		<linearGradient x1="41.579102" y1="47.537109" x2="46.750668" y2="46.258747" id="paint_linear_343_14184_0" gradientUnits="userSpaceOnUse">
			<stop stop-color="#7D3172"/>
			<stop offset="0.690480" stop-color="#AE3C6F"/>
		</linearGradient>
		<linearGradient x1="6.791018" y1="28.612331" x2="22.455828" y2="21.735781" id="paint_linear_343_14186_0" gradientUnits="userSpaceOnUse">
			<stop stop-color="#7D3172"/>
			<stop offset="0.690480" stop-color="#AE3C6F"/>
		</linearGradient>
		<linearGradient x1="1.429688" y1="30.224108" x2="11.762182" y2="27.635193" id="paint_linear_343_14187_0" gradientUnits="userSpaceOnUse">
			<stop stop-color="#7D3172"/>
			<stop offset="0.690480" stop-color="#AE3C6F"/>
		</linearGradient>
		<linearGradient x1="21.911133" y1="33.606491" x2="32.818150" y2="30.801800" id="paint_linear_343_14188_0" gradientUnits="userSpaceOnUse">
			<stop stop-color="#7D3172"/>
			<stop offset="0.690480" stop-color="#AE3C6F"/>
		</linearGradient>
		<linearGradient x1="25.948730" y1="32.567188" x2="30.916895" y2="31.297960" id="paint_linear_343_14189_0" gradientUnits="userSpaceOnUse">
			<stop stop-color="#7D3172"/>
			<stop offset="0.690480" stop-color="#AE3C6F"/>
		</linearGradient>
		<linearGradient x1="18.877441" y1="46.357700" x2="45.845871" y2="42.346115" id="paint_linear_343_14190_0" gradientUnits="userSpaceOnUse">
			<stop stop-color="#7D3172"/>
			<stop offset="0.690480" stop-color="#AE3C6F"/>
		</linearGradient>
		<linearGradient x1="13.165039" y1="43.039551" x2="13.940198" y2="42.841709" id="paint_linear_343_14191_0" gradientUnits="userSpaceOnUse">
			<stop stop-color="#7D3172"/>
			<stop offset="0.690480" stop-color="#AE3C6F"/>
		</linearGradient>
		<linearGradient x1="25.754396" y1="54.384895" x2="35.861900" y2="51.755634" id="paint_linear_343_14192_0" gradientUnits="userSpaceOnUse">
			<stop stop-color="#7D3172"/>
			<stop offset="0.690480" stop-color="#AE3C6F"/>
		</linearGradient>
		<linearGradient x1="1.072266" y1="32.003643" x2="8.697266" y2="30.034569" id="paint_linear_343_14194_0" gradientUnits="userSpaceOnUse">
			<stop stop-color="#7D3172"/>
			<stop offset="0.690480" stop-color="#AE3C6F"/>
		</linearGradient>
		<linearGradient x1="6.801270" y1="41.656830" x2="15.921608" y2="39.043770" id="paint_linear_343_14195_0" gradientUnits="userSpaceOnUse">
			<stop stop-color="#7D3172"/>
			<stop offset="0.690480" stop-color="#AE3C6F"/>
		</linearGradient>
		<linearGradient x1="14.191406" y1="49.622074" x2="24.565800" y2="47.278412" id="paint_linear_343_14196_0" gradientUnits="userSpaceOnUse">
			<stop stop-color="#7D3172"/>
			<stop offset="0.690480" stop-color="#AE3C6F"/>
		</linearGradient>
		<linearGradient x1="25.154297" y1="56.115238" x2="32.720985" y2="54.167259" id="paint_linear_343_14197_0" gradientUnits="userSpaceOnUse">
			<stop stop-color="#7D3172"/>
			<stop offset="0.690480" stop-color="#AE3C6F"/>
		</linearGradient>
	</defs>
	<rect id="image 2 (traced)" width="61.000000" height="61.000000" fill="#FFFFFF" fill-opacity="1.000000"/>
	<g clip-path="url(#clip343_14199)">
		<path id="Vector" d="M28.93 1.26C26.69 1.94 25.04 4.19 25.16 6.37L25.19 7.04L27.54 9.37C29.76 11.59 29.9 11.71 30.39 11.74C31.66 11.85 33.51 11.06 34.47 9.99C37.07 7.11 35.82 2.44 32.14 1.28C31.28 1.02 29.73 1.01 28.93 1.26ZM31.98 3.14C34.74 4.38 34.74 8.31 31.97 9.65C31.52 9.86 31.19 9.93 30.49 9.93C29.71 9.93 29.52 9.88 28.85 9.54C27.65 8.88 26.93 7.74 26.92 6.43C26.92 5.54 27.23 4.71 27.86 4.02C28.97 2.79 30.47 2.47 31.98 3.14Z" fill="url(#paint_linear_343_14170_0)" fill-opacity="1.000000" fill-rule="nonzero"/>
		<path id="Vector" d="M37.67 6.99C37.52 7.12 37.32 7.58 37.17 8.14C36.55 10.5 34.95 12.17 32.53 12.99C32.18 13.12 31.72 13.22 31.52 13.23C31.21 13.23 31.19 13.26 31.39 13.34C31.52 13.39 31.91 13.73 32.26 14.09L32.9 14.74L33.69 14.45C35.79 13.7 37.55 11.97 38.53 9.72L38.91 8.84L39.5 9.09C41.03 9.73 44.15 11.55 44.38 11.92C44.43 11.99 44.1 12.42 43.54 12.98L42.62 13.9L41.78 13.34C40.56 12.54 39.54 12.03 39.18 12.03C38.55 12.03 38.41 12.3 37.64 15.07C37.24 16.51 36.89 17.84 36.87 18.03C36.85 18.21 36.8 18.4 36.75 18.44C36.68 18.51 37.99 19.89 38.13 19.89C38.17 19.89 38.2 19.82 38.22 19.74C38.22 19.61 39.6 14.7 39.73 14.32C39.79 14.14 39.96 14.23 41.41 15.27C42.86 16.31 42.79 16.33 44.96 14.18C46.66 12.48 46.75 12.39 46.73 11.94C46.72 11.43 46.45 11.15 45.01 10.16C43.06 8.81 41.42 7.92 39.53 7.19C38.35 6.74 38.01 6.7 37.67 6.99Z" fill="url(#paint_linear_343_14171_0)" fill-opacity="1.000000" fill-rule="nonzero"/>
		<path id="Vector" d="M48.72 14.26C48.63 14.29 47.76 15.13 46.79 16.11C45.34 17.59 45.03 17.97 45.03 18.26C45.03 18.49 45.26 18.93 45.72 19.57C46.63 20.87 46.83 21.18 46.72 21.25C46.67 21.27 45.8 21.52 44.79 21.79C43.78 22.06 42.52 22.42 41.98 22.58L41.02 22.88L41.77 23.61C42.25 24.07 42.56 24.29 42.66 24.23C42.74 24.18 42.92 24.12 43.06 24.11C43.7 24.03 48.57 22.58 48.76 22.43C49.21 22.01 48.89 21.08 47.65 19.21L47.09 18.35L48.02 17.37C48.53 16.83 48.97 16.41 49 16.44C49.57 17.12 51.08 19.7 51.7 21.07L52.15 22.07L51.26 22.46C49.71 23.14 48.65 23.94 47.75 25.13C47.12 25.97 46.28 27.56 46.39 27.74C46.44 27.8 46.39 27.87 46.32 27.91C46.22 27.95 46.48 28.29 46.97 28.78C47.42 29.23 47.77 29.52 47.76 29.42C47.71 29.12 48.01 28.22 48.45 27.34C49.02 26.21 50.4 24.84 51.48 24.32C51.9 24.12 52.61 23.87 53.02 23.78C53.85 23.58 54.2 23.29 54.2 22.8C54.2 22.14 52.51 18.44 51.59 17.1C50.58 15.61 50.21 15.09 49.87 14.72C49.5 14.3 49.07 14.12 48.72 14.26Z" fill="url(#paint_linear_343_14172_0)" fill-opacity="1.000000" fill-rule="nonzero"/>
		<path id="Vector" d="M53.41 25.25C51.4 25.66 49.65 27.53 49.31 29.65C49.1 30.94 49.09 30.91 51.65 33.49L53.98 35.82L54.63 35.84C56.31 35.92 58.14 34.91 59.08 33.41C59.72 32.39 59.92 31.7 59.92 30.5C59.92 29.29 59.72 28.6 59.08 27.56C57.92 25.73 55.67 24.81 53.41 25.25ZM56.13 27.27C56.86 27.62 57.49 28.26 57.85 29.01C58.24 29.84 58.24 31.14 57.85 31.98C57.5 32.73 56.53 33.63 55.79 33.88C55.12 34.1 54.07 34.12 53.47 33.9C52.64 33.6 51.83 32.9 51.44 32.12C51.12 31.5 51.06 31.26 51.06 30.5C51.06 29.82 51.13 29.46 51.33 29.02C51.75 28.12 52.64 27.34 53.61 27.03C54.17 26.85 55.54 26.98 56.13 27.27Z" fill="url(#paint_linear_343_14173_0)" fill-opacity="1.000000" fill-rule="nonzero"/>
		<path id="Vector" d="M21.44 7.19C20.09 7.72 18.14 8.7 17.1 9.38C15.82 10.22 14.43 11.29 14.29 11.56C14.02 12.06 14.27 12.43 16.07 14.21C17.58 15.72 17.88 15.96 18.2 15.96C18.47 15.96 18.91 15.72 19.78 15.13C20.45 14.66 21.07 14.29 21.14 14.29C21.23 14.29 21.37 14.6 21.46 14.97C21.57 15.35 22.04 17.08 22.51 18.82C23.2 21.38 23.42 22.02 23.66 22.24C23.82 22.39 24.05 22.51 24.16 22.51C24.26 22.51 24.82 22.24 25.4 21.92C28.8 19.98 32.2 20 35.74 21.99C37.14 22.79 37.44 22.63 37.88 20.9L38.12 19.96L37.44 19.27C36.69 18.52 36.69 18.52 36.44 19.5C36.36 19.84 36.25 20.13 36.21 20.13C36.18 20.13 35.87 20 35.55 19.84C33.93 19.07 32.51 18.76 30.44 18.77C29.1 18.77 28.57 18.82 27.73 19.05C26.66 19.32 25.31 19.82 25.04 20.05C24.81 20.23 24.7 20.06 24.42 19C23.25 14.7 22.58 12.41 22.42 12.23C22.01 11.78 21.02 12.12 19.22 13.34L18.37 13.91L17.46 12.99C16.96 12.49 16.56 12.05 16.56 12C16.56 11.96 17.1 11.55 17.78 11.11C18.9 10.35 20.21 9.65 21.6 9.06L22.16 8.82L22.23 9.14C22.33 9.57 22.94 10.78 23.37 11.4C25.28 14.18 29.15 15.67 32.35 14.88L32.9 14.73L32.21 14.04L31.52 13.34L30.73 13.34C27.21 13.33 24.42 11.06 23.66 7.58C23.55 7.13 23.17 6.79 22.79 6.79C22.6 6.8 22 6.98 21.44 7.19Z" fill="url(#paint_linear_343_14175_0)" fill-opacity="1.000000" fill-rule="nonzero"/>
		<path id="Vector" d="M25.31 7.57C25.4 8.24 26 9.44 26.56 10.05C27.29 10.84 28.41 11.43 29.47 11.62C29.79 11.67 29.53 11.36 27.58 9.41C26.34 8.17 25.3 7.14 25.29 7.14C25.26 7.14 25.28 7.33 25.31 7.57Z" fill="url(#paint_linear_343_14176_0)" fill-opacity="1.000000" fill-rule="nonzero"/>
		<path id="Vector" d="M11.31 14.51C11.12 14.71 10.96 14.91 10.96 14.97C10.96 15.02 11.94 16.06 13.15 17.26L15.33 19.44L15.65 19.03C15.84 18.77 15.96 18.46 15.96 18.22C15.96 17.87 15.76 17.63 14.21 16.06C12.18 14.03 11.93 13.9 11.31 14.51Z" fill="url(#paint_linear_343_14177_0)" fill-opacity="1.000000" fill-rule="nonzero"/>
		<path id="Vector" d="M29.1 22.1C28.71 22.26 28.35 22.8 28.35 23.22C28.35 23.61 28.22 23.82 27.86 24C27.53 24.18 27.03 24.1 26.87 23.84C26.75 23.64 25.97 23.44 25.65 23.53C25.29 23.61 23.88 24.92 23.63 25.4C23.39 25.86 23.43 26.23 23.74 26.69C24.13 27.28 24.19 27.5 24.05 27.78C23.93 27.99 24 28.1 24.55 28.66C24.9 29.01 25.22 29.27 25.28 29.23C25.32 29.2 25.49 28.95 25.62 28.68C25.93 28.06 25.96 27.08 25.67 26.43C25.46 25.97 25.46 25.96 25.71 25.71C25.96 25.46 25.97 25.46 26.43 25.67C27.14 25.98 28.08 25.96 28.72 25.6C29.33 25.27 30.02 24.41 30.02 23.99C30.02 23.74 30.07 23.7 30.48 23.7C30.91 23.7 30.95 23.73 31.02 24.12C31.13 24.65 31.69 25.31 32.32 25.62C32.93 25.93 33.91 25.96 34.56 25.67C35.02 25.46 35.03 25.46 35.28 25.71C35.53 25.96 35.53 25.96 35.32 26.46C35.01 27.14 35.05 28.09 35.4 28.73C35.73 29.33 36.6 30.02 37 30.02C37.25 30.02 37.29 30.07 37.29 30.48C37.29 30.91 37.26 30.95 36.87 31.02C35.55 31.27 34.7 33.18 35.32 34.53C35.53 35.03 35.53 35.03 35.28 35.28C35.03 35.53 35.03 35.53 34.53 35.32C33.89 35.02 32.94 35.05 32.29 35.37C32.03 35.51 31.81 35.69 31.81 35.77C31.81 36.02 33 37.13 33.09 36.98C33.22 36.76 33.75 36.88 34.26 37.23C35 37.73 35.46 37.61 36.42 36.67C36.85 36.25 37.26 35.76 37.37 35.57C37.58 35.17 37.5 34.58 37.18 34.16C36.67 33.52 36.96 32.64 37.7 32.64C38.2 32.64 38.72 32.29 38.91 31.87C39.12 31.33 39.12 29.66 38.91 29.12C38.73 28.71 38.2 28.35 37.76 28.35C37.16 28.35 36.69 27.67 36.96 27.19C37.51 26.24 37.55 26.17 37.47 25.75C37.36 25.17 35.99 23.75 35.36 23.56C34.88 23.42 34.82 23.44 33.84 23.99C33.32 24.3 32.64 23.87 32.64 23.23C32.64 22.79 32.28 22.26 31.87 22.08C31.34 21.87 29.61 21.87 29.1 22.1Z" fill="url(#paint_linear_343_14178_0)" fill-opacity="1.000000" fill-rule="nonzero"/>
		<path id="Vector" d="M18.16 22.41C18.3 22.48 19.14 23.27 20.03 24.16C20.94 25.05 21.69 25.75 21.71 25.73C22.95 24 22.78 23.57 20.56 22.99C19.77 22.77 19.06 22.6 18.95 22.57C18.84 22.55 18.61 22.48 18.43 22.41C18 22.24 17.85 22.24 18.16 22.41Z" fill="url(#paint_linear_343_14179_0)" fill-opacity="1.000000" fill-rule="nonzero"/>
		<path id="Vector" d="M39.98 23.12C38.45 23.54 38.23 23.92 38.86 25C41 28.61 41.04 32.27 38.97 35.8C38.01 37.41 37.86 37.32 44.59 39.13C45.79 39.47 46.7 39.76 46.7 39.85C46.7 39.92 46.33 40.54 45.86 41.21C45.27 42.08 45.03 42.52 45.03 42.79C45.03 43.11 45.27 43.41 46.77 44.92C47.73 45.89 48.64 46.71 48.79 46.75C48.94 46.78 49.2 46.77 49.35 46.71C49.66 46.59 50.65 45.35 51.62 43.87C52.64 42.29 54.2 38.87 54.2 38.19C54.2 37.73 53.85 37.44 53.01 37.23C50.88 36.7 49.27 35.38 48.37 33.41C47.85 32.32 47.63 31.26 47.66 30.25L47.7 29.53L46.98 28.82L46.28 28.1L46.11 28.61C45.88 29.35 45.89 31.67 46.14 32.59C46.84 35.18 48.45 37.16 50.81 38.32C51.2 38.53 51.67 38.72 51.84 38.76C52.24 38.86 52.23 38.87 51.33 40.69C50.76 41.87 49.15 44.43 48.99 44.43C48.95 44.43 48.5 44.02 47.98 43.52L47.07 42.6L47.45 42.06C47.83 41.53 48.13 41.05 48.68 40.06C49.02 39.47 49.05 38.83 48.75 38.56C48.63 38.45 46.85 37.91 44.79 37.33C42.73 36.77 41 36.27 40.94 36.23C40.9 36.18 40.99 35.87 41.15 35.55C41.91 33.95 42.22 32.51 42.22 30.5C42.22 28.48 41.91 27.04 41.15 25.44C40.99 25.12 40.86 24.81 40.86 24.78C40.86 24.73 41.15 24.63 41.49 24.55C42.49 24.32 42.49 24.3 41.71 23.55C41.31 23.18 40.96 22.87 40.9 22.88C40.85 22.89 40.43 22.99 39.98 23.12Z" fill="url(#paint_linear_343_14180_0)" fill-opacity="1.000000" fill-rule="nonzero"/>
		<path id="Vector" d="M28.98 26.18C28.15 26.48 27.46 26.98 26.91 27.66C26.44 28.24 25.97 29.35 25.97 29.82C25.97 30.01 26.71 30.82 28.45 32.54L30.91 35.01L31.39 34.95C32.65 34.8 33.95 33.81 34.58 32.53C34.94 31.81 34.96 31.67 34.96 30.5C34.96 29.32 34.94 29.18 34.58 28.46C34.12 27.52 33.37 26.78 32.43 26.35C31.52 25.93 29.9 25.85 28.98 26.18ZM31.66 27.98C32.68 28.51 33.24 29.39 33.24 30.5C33.24 31.6 32.68 32.48 31.66 33.01C31.09 33.29 29.92 33.31 29.34 33.03C27.22 32.03 27.23 28.96 29.36 27.98C30.01 27.68 31.08 27.68 31.66 27.98Z" fill="url(#paint_linear_343_14181_0)" fill-opacity="1.000000" fill-rule="nonzero"/>
		<path id="Vector" d="M49.39 31.65C49.49 32.29 50.06 33.44 50.57 34.05C51.27 34.86 52.5 35.55 53.67 35.8C53.97 35.86 53.62 35.46 51.7 33.54C50.43 32.26 49.37 31.21 49.36 31.21C49.33 31.21 49.36 31.41 49.39 31.65Z" fill="url(#paint_linear_343_14182_0)" fill-opacity="1.000000" fill-rule="nonzero"/>
		<path id="Vector" d="M36.27 38.66C36.07 38.75 35.77 38.97 35.59 39.11L35.27 39.38L36.88 40.99C37.77 41.88 38.48 42.5 38.48 42.4C38.48 42.29 38.29 41.48 38.05 40.61C37.5 38.56 37.18 38.22 36.27 38.66Z" fill="url(#paint_linear_343_14183_0)" fill-opacity="1.000000" fill-rule="nonzero"/>
		<path id="Vector" d="M41.98 45.29C41.79 45.44 41.61 45.57 41.58 45.59C41.5 45.66 45.9 50.03 46.05 50.03C46.34 50.03 46.75 49.43 46.75 49.01C46.75 48.63 46.59 48.44 44.96 46.81C43.33 45.18 43.14 45.03 42.74 45.03C42.49 45.03 42.18 45.14 41.98 45.29Z" fill="url(#paint_linear_343_14184_0)" fill-opacity="1.000000" fill-rule="nonzero"/>
		<path id="Vector" d="M10.78 15.16C10.38 15.63 9.6 16.76 9.16 17.46C8.11 19.19 6.79 22.14 6.79 22.8C6.79 23.29 7.14 23.58 7.97 23.78C9.29 24.07 10.21 24.6 11.22 25.61C12.27 26.66 12.86 27.73 13.16 29.12C13.39 30.17 13.39 30.82 13.16 31.87C12.87 33.22 12.28 34.31 11.29 35.31C10.81 35.78 10.31 36.24 10.18 36.31C9.96 36.43 9.98 36.48 10.59 37.1L11.23 37.75L11.78 37.32C13.92 35.63 15.05 33.28 15.05 30.5C15.05 29.57 14.98 28.89 14.84 28.37C14.09 25.62 12.34 23.61 9.74 22.48L8.85 22.08L9.35 20.95C9.96 19.59 10.91 17.93 11.58 17.06L12.06 16.42L12.99 17.39L13.91 18.37L13.34 19.22C12.12 21.06 11.79 22.02 12.24 22.43C12.41 22.58 14.41 23.18 17.96 24.13C18.29 24.23 18.87 24.37 19.21 24.47C20.3 24.76 20.26 24.73 19.94 25.29C19.51 26.04 18.97 27.81 18.81 29.02C18.55 31.04 18.89 33.43 19.72 35.25C19.95 35.74 20.09 36.18 20.05 36.23C19.99 36.27 19.22 36.51 18.34 36.75C14.01 37.92 12.43 38.41 12.21 38.61C12.03 38.78 12.02 38.83 12.15 38.83C12.24 38.83 13.12 39.62 14.11 40.59C15.09 41.56 15.77 42.21 15.63 42.04C15.48 41.87 15.4 41.71 15.44 41.66C15.48 41.61 15.42 41.55 15.32 41.5C15.21 41.47 15.13 41.38 15.13 41.32C15.13 41.25 14.94 40.93 14.71 40.59C14.48 40.25 14.29 39.91 14.29 39.84C14.29 39.78 14.95 39.54 15.76 39.31C19.89 38.19 21.88 37.61 22.11 37.46C22.61 37.14 22.57 36.75 21.93 35.63C20.26 32.72 20.05 29.37 21.37 26.41L21.65 25.75L19.96 24.1C19.05 23.18 18.13 22.38 17.93 22.31C17.74 22.24 16.88 21.98 16.02 21.74C15.17 21.51 14.4 21.29 14.33 21.26C14.22 21.23 14.34 20.94 14.67 20.4C14.96 19.96 15.23 19.53 15.3 19.47C15.38 19.4 15.4 19.37 15.38 19.39C15.34 19.4 14.32 18.44 13.1 17.22C11.5 15.63 10.86 15.05 10.78 15.16Z" fill="url(#paint_linear_343_14186_0)" fill-opacity="1.000000" fill-rule="nonzero"/>
		<path id="Vector" d="M5 25.3C3.69 25.67 2.34 26.68 1.84 27.7C1.71 27.96 1.57 28.18 1.52 28.21C1.46 28.23 1.42 28.3 1.42 28.37C1.42 28.46 1.47 28.46 1.58 28.37C1.7 28.27 1.87 28.36 2.26 28.77C2.54 29.07 2.82 29.3 2.85 29.3C2.89 29.3 3.07 29.07 3.25 28.77C4.83 26.28 8.18 26.33 9.54 28.85C9.88 29.52 9.93 29.71 9.93 30.5C9.93 31.89 9.4 32.78 8.07 33.66L7.52 34.02L8.16 34.68C8.5 35.03 8.85 35.31 8.92 35.28C8.99 35.26 9.01 35.18 8.98 35.12C8.93 35.05 8.95 35.02 9.01 35.06C9.19 35.17 10 34.55 10.52 33.93C11.48 32.75 11.93 31.13 11.69 29.7C11.34 27.52 9.69 25.74 7.61 25.27C6.91 25.1 5.65 25.12 5 25.3Z" fill="url(#paint_linear_343_14187_0)" fill-opacity="1.000000" fill-rule="nonzero"/>
		<path id="Vector" d="M23.76 28.23C23.73 28.29 23.53 28.35 23.33 28.35C22.8 28.35 22.27 28.67 22.08 29.12C21.82 29.77 21.86 31.54 22.14 31.97C22.43 32.39 22.81 32.63 23.24 32.64C24.03 32.65 24.37 33.55 23.81 34.14C23.58 34.38 23.53 34.58 23.53 35.03C23.53 35.61 23.55 35.64 24.45 36.54C25.35 37.44 25.38 37.46 25.96 37.46C26.41 37.46 26.61 37.41 26.85 37.18C27.46 36.61 28.34 36.95 28.35 37.75C28.36 38.18 28.6 38.56 29.02 38.85C29.47 39.14 31.39 39.18 31.92 38.89C32.31 38.69 32.64 38.17 32.64 37.76C32.64 37.62 32.7 37.41 32.77 37.27C32.88 37.06 32.81 36.94 32.29 36.39L31.7 35.76L31.47 36.02C31.16 36.37 30.97 36.75 30.97 37.04C30.97 37.25 30.9 37.29 30.52 37.29C30.09 37.29 30.07 37.26 29.93 36.77C29.74 36.08 29.04 35.45 28.18 35.2C27.5 35 27.16 35.03 26.41 35.34C25.98 35.53 25.94 35.53 25.71 35.28C25.46 35.03 25.46 35.02 25.66 34.56C25.97 33.89 25.93 33.01 25.6 32.32C25.28 31.67 24.43 30.97 23.99 30.97C23.74 30.97 23.7 30.92 23.7 30.5C23.7 30.15 23.75 30.02 23.88 30.02C24.12 30.02 24.97 29.59 25.09 29.41C25.16 29.29 24.11 28.11 23.92 28.11C23.87 28.11 23.8 28.16 23.76 28.23Z" fill="url(#paint_linear_343_14188_0)" fill-opacity="1.000000" fill-rule="nonzero"/>
		<path id="Vector" d="M25.99 30.91C26.13 33.09 27.93 34.89 30.08 35L30.91 35.05L29.72 33.84C29.07 33.18 28.54 32.6 28.56 32.58C28.58 32.54 28.55 32.52 28.51 32.52C28.45 32.52 27.85 31.97 27.17 31.29L25.94 30.08L25.99 30.91Z" fill="url(#paint_linear_343_14189_0)" fill-opacity="1.000000" fill-rule="nonzero"/>
		<path id="Vector" d="M23.85 38.6C23.48 38.75 23.39 38.97 22.26 43.09C21.71 45.08 21.21 46.7 21.14 46.7C21.07 46.7 20.74 46.51 20.38 46.27C20.03 46.03 19.78 45.91 19.83 46C19.88 46.09 19.78 46.02 19.63 45.84C19.46 45.65 19.28 45.51 19.24 45.51C19.18 45.51 19.02 45.41 18.89 45.3C18.75 45.2 19.46 45.94 20.48 46.96C21.99 48.5 22.33 48.79 22.46 48.66C22.61 48.52 23.17 46.64 24.25 42.62C24.48 41.75 24.72 41 24.76 40.94C24.81 40.9 25.26 41.04 25.77 41.28C28.71 42.64 32.79 42.56 35.56 41.11C35.89 40.94 36.19 40.79 36.23 40.77C36.26 40.75 36.3 40.8 36.3 40.88C36.3 40.97 36.48 41.66 36.68 42.41C36.89 43.16 37.36 44.85 37.73 46.16C38.08 47.47 38.47 48.64 38.56 48.75C38.95 49.18 39.7 48.94 41.46 47.84C41.88 47.58 42.3 47.29 42.39 47.21C42.47 47.13 42.56 47.06 42.58 47.06C42.59 47.06 43.04 47.48 43.59 48L44.57 48.95L43.93 49.41C42.99 50.12 41.3 51.09 40.04 51.65L38.91 52.14L38.51 51.25C36.36 46.28 30.6 44.41 25.96 47.17C25.07 47.7 23.54 49.14 23.41 49.57C23.33 49.77 23.44 49.95 23.89 50.4L24.47 50.99L25.41 49.97C26.18 49.14 26.5 48.88 27.31 48.49C29.46 47.42 31.44 47.41 33.58 48.43C34.25 48.75 34.69 49.07 35.37 49.77C36.38 50.78 36.92 51.74 37.23 53.04C37.41 53.85 37.7 54.2 38.19 54.2C38.89 54.2 42.3 52.64 43.96 51.56C44.66 51.09 45.45 50.53 45.83 50.21C45.94 50.13 45.36 49.49 43.76 47.88L41.54 45.65L40.66 46.25C40.17 46.57 39.75 46.82 39.74 46.79C39.73 46.78 39.56 46.2 39.38 45.51C39.2 44.82 38.98 44.05 38.88 43.8C38.8 43.56 38.72 43.22 38.72 43.06C38.72 42.9 38.67 42.77 38.6 42.77C38.54 42.77 38.53 42.68 38.56 42.56C38.61 42.46 38.58 42.4 38.53 42.44C38.45 42.48 37.68 41.79 36.8 40.91C35.93 40.04 35.28 39.31 35.37 39.31C35.46 39.31 35.51 39.28 35.48 39.24C35.43 39.2 35.15 39.31 34.84 39.49C34.53 39.66 33.82 39.93 33.26 40.11C32.35 40.38 32.01 40.42 30.55 40.43C28.34 40.43 27.16 40.11 25.19 38.97C24.31 38.44 24.26 38.43 23.85 38.6Z" fill="url(#paint_linear_343_14190_0)" fill-opacity="1.000000" fill-rule="nonzero"/>
		<path id="Vector" d="M13.51 43.03L13.16 43.42L13.55 43.08C13.91 42.74 13.99 42.65 13.9 42.65C13.87 42.65 13.71 42.83 13.51 43.03Z" fill="url(#paint_linear_343_14191_0)" fill-opacity="1.000000" fill-rule="nonzero"/>
		<path id="Vector" d="M29.43 49.33C28.71 49.47 27.53 50.05 26.98 50.52C26.44 51 25.82 51.81 25.91 51.94C25.94 51.99 25.88 52.06 25.79 52.11C25.67 52.16 25.81 52.36 26.31 52.83C27.04 53.53 27.12 53.57 27.12 53.33C27.12 53.01 27.91 52.06 28.52 51.65C29.7 50.87 30.92 50.82 32.19 51.49C33.72 52.3 34.44 54.13 33.88 55.8C33.64 56.49 32.7 57.54 32.04 57.84L31.56 58.05L32.17 58.68C32.57 59.08 32.76 59.36 32.7 59.46C32.51 59.76 33.64 59.01 34.25 58.42C35.55 57.18 36.14 55.16 35.73 53.38C35.09 50.61 32.25 48.78 29.43 49.33Z" fill="url(#paint_linear_343_14192_0)" fill-opacity="1.000000" fill-rule="nonzero"/>
		<path id="Vector" d="M1.58 28.16C1.62 28.23 1.57 28.37 1.48 28.47C1.2 28.82 1.07 29.47 1.07 30.51C1.07 31.73 1.4 32.78 2.07 33.7C3.49 35.63 6.19 36.38 8.37 35.46C8.55 35.38 8.69 35.3 8.69 35.26C8.69 35.23 8.43 34.93 8.1 34.61C7.67 34.18 7.55 34 7.66 33.91C7.74 33.84 7.72 33.84 7.56 33.89C7.04 34.09 5.98 34.09 5.32 33.9C4.57 33.69 3.57 32.87 3.22 32.17C2.87 31.48 2.63 29.66 2.89 29.66C3.09 29.66 2.93 29.41 2.26 28.74C1.85 28.35 1.56 28.08 1.58 28.16Z" fill="url(#paint_linear_343_14194_0)" fill-opacity="1.000000" fill-rule="nonzero"/>
		<path id="Vector" d="M9.82 36.55C9.68 36.68 8.47 37.11 7.74 37.3C6.74 37.55 6.6 37.89 7.02 39.14C7.33 40.03 8.38 42.22 9.04 43.34C9.81 44.67 11.28 46.57 11.64 46.71C12.16 46.9 12.49 46.67 14.24 44.89C15.61 43.51 15.89 43.16 15.91 42.83C15.95 42.47 15.8 42.3 14.16 40.67C13.18 39.69 12.31 38.88 12.23 38.86C11.72 38.75 12.31 40.25 13.48 41.99L13.95 42.7L13.02 43.56C12.5 44.03 12.05 44.42 12 44.43C11.74 44.45 9.7 41 9.13 39.59L8.84 38.85L9.26 38.7C9.82 38.53 10.57 38.14 10.92 37.88L11.18 37.68L10.55 37.06C10.19 36.7 9.88 36.49 9.82 36.55Z" fill="url(#paint_linear_343_14195_0)" fill-opacity="1.000000" fill-rule="nonzero"/>
		<path id="Vector" d="M16.08 46.78C13.96 48.88 13.86 49.06 14.61 49.77C16.32 51.39 21.54 54.2 22.82 54.2C23.26 54.2 23.56 53.83 23.76 53.01C23.87 52.58 24.11 51.93 24.3 51.56C24.49 51.18 24.6 50.89 24.55 50.93C24.49 50.95 24.17 50.69 23.83 50.33C23.31 49.77 23.16 49.71 23.22 50.06C23.22 50.12 23.18 50.15 23.13 50.15C23 50.15 22.46 51.14 22.29 51.73C22.12 52.25 22.18 52.26 20.31 51.34C19.08 50.74 16.56 49.16 16.56 49C16.56 48.95 16.96 48.49 17.45 47.97L18.33 47.06L19.2 47.64C20.46 48.49 21.48 48.97 21.9 48.94C22.11 48.93 22.27 48.88 22.27 48.84C22.27 48.81 21.56 48.06 20.68 47.19C19.8 46.31 19.08 45.53 19.09 45.46C19.1 45.39 19.05 45.34 18.96 45.36C18.88 45.38 18.78 45.3 18.75 45.21C18.7 45.1 18.52 45.03 18.27 45.03C17.9 45.03 17.68 45.22 16.08 46.78Z" fill="url(#paint_linear_343_14196_0)" fill-opacity="1.000000" fill-rule="nonzero"/>
		<path id="Vector" d="M25.44 52.8C25.09 53.62 25.05 55.07 25.36 56.09C26.07 58.45 28.04 59.92 30.48 59.92C31.41 59.92 32.56 59.67 32.71 59.43C32.81 59.28 31.57 58 31.42 58.1C31.04 58.33 29.55 58.15 28.83 57.78C28.24 57.48 27.56 56.77 27.25 56.12C27.04 55.69 26.98 55.35 26.97 54.51L26.94 53.47L26.37 52.88C26.05 52.56 25.76 52.3 25.73 52.3C25.69 52.3 25.56 52.52 25.44 52.8Z" fill="url(#paint_linear_343_14197_0)" fill-opacity="1.000000" fill-rule="nonzero"/>
	</g>
</svg>
