<svg width="20.000000" height="22.002441" viewBox="0 0 20 22.0024" fill="none" xmlns="http://www.w3.org/2000/svg" xmlns:xlink="http://www.w3.org/1999/xlink">
	<desc>
			Created with Pixso.
	</desc>
	<defs>
		<linearGradient x1="-0.000001" y1="11.001343" x2="20.000000" y2="5.380378" id="paint_linear_343_14593_0" gradientUnits="userSpaceOnUse">
			<stop stop-color="#7D3172"/>
			<stop offset="0.690480" stop-color="#AE3C6F"/>
		</linearGradient>
		<linearGradient x1="6.687012" y1="7.119413" x2="13.315624" y2="5.480434" id="paint_linear_343_14594_0" gradientUnits="userSpaceOnUse">
			<stop stop-color="#7D3172"/>
			<stop offset="0.690480" stop-color="#AE3C6F"/>
		</linearGradient>
	</defs>
	<path id="path" d="M9.44 0.01C9.37 0.02 9.14 0.04 8.93 0.07C6.43 0.39 4.12 2.17 3.19 4.48C2.82 5.4 2.68 6.1 2.68 7.14C2.68 8.19 2.86 9.03 3.28 9.96C3.51 10.46 3.51 10.47 4.97 12.67C5.63 13.67 6.15 14.5 6.14 14.52C6.12 14.54 5.9 14.58 5.66 14.63C4.02 14.91 2.33 15.48 1.37 16.09C0.39 16.71 -0.12 17.6 0.02 18.41C0.17 19.26 0.88 20 2.1 20.58C5.28 22.09 11.09 22.44 15.46 21.4C17.35 20.95 18.84 20.23 19.48 19.45C20.35 18.39 20.1 17.16 18.85 16.24C17.93 15.58 16.12 14.93 14.33 14.63C14.09 14.58 13.88 14.54 13.86 14.52C13.84 14.5 14.41 13.61 15.12 12.54C15.83 11.46 16.5 10.41 16.6 10.2C16.87 9.65 17.05 9.13 17.19 8.5C17.29 8.03 17.31 7.86 17.31 7.18C17.31 6.76 17.28 6.26 17.25 6.07C16.75 3 14.33 0.61 11.2 0.09C10.82 0.02 9.69 -0.03 9.44 0.01ZM11.18 1.4C13.46 1.85 15.25 3.52 15.82 5.72C16.16 7.06 15.99 8.54 15.35 9.73C15.14 10.11 10.04 17.87 10 17.87C9.98 17.87 9.02 16.43 7.86 14.66C6.7 12.9 5.52 11.11 5.25 10.69C4.97 10.28 4.67 9.79 4.58 9.61C3.35 7.13 4.12 4.12 6.39 2.46C7.27 1.82 8.26 1.44 9.42 1.3C9.77 1.25 10.74 1.31 11.18 1.4ZM8.24 17.64C9.14 19 9.53 19.55 9.64 19.62C9.84 19.76 10.15 19.76 10.36 19.62C10.46 19.55 10.86 19 11.75 17.64L13 15.74L13.18 15.76C13.28 15.76 13.6 15.81 13.89 15.86C15.97 16.2 17.53 16.77 18.28 17.49C18.8 17.98 18.8 18.29 18.28 18.78C17.31 19.69 15.09 20.35 12.07 20.63C11.3 20.7 8.64 20.7 7.91 20.63C6.28 20.48 5.06 20.25 3.97 19.91C2.91 19.58 2.18 19.22 1.71 18.78C1.23 18.32 1.21 18.01 1.62 17.57C2.22 16.93 3.63 16.33 5.4 15.98C6.13 15.84 6.83 15.73 6.93 15.74C6.96 15.74 7.55 16.6 8.24 17.64Z" fill="url(#paint_linear_343_14593_0)" fill-opacity="1.000000" fill-rule="nonzero"/>
	<path id="path" d="M8.93 0.07C6.43 0.39 4.12 2.17 3.19 4.48C2.82 5.4 2.68 6.1 2.68 7.14C2.68 8.19 2.86 9.03 3.28 9.96C3.51 10.46 3.51 10.47 4.97 12.67C5.63 13.67 6.15 14.5 6.14 14.52C6.12 14.54 5.9 14.58 5.66 14.63C4.02 14.91 2.33 15.48 1.37 16.09C0.39 16.71 -0.12 17.6 0.02 18.41C0.17 19.26 0.88 20 2.1 20.58C5.28 22.09 11.09 22.44 15.46 21.4C17.35 20.95 18.84 20.23 19.48 19.45C20.35 18.39 20.1 17.16 18.85 16.24C17.93 15.58 16.12 14.93 14.33 14.63C14.09 14.58 13.88 14.54 13.86 14.52C13.84 14.5 14.41 13.61 15.12 12.54C15.83 11.46 16.5 10.41 16.6 10.2C16.87 9.65 17.05 9.13 17.19 8.5C17.29 8.03 17.31 7.86 17.31 7.18C17.31 6.76 17.28 6.26 17.25 6.07C16.75 3 14.33 0.61 11.2 0.09C10.82 0.02 9.69 -0.03 9.44 0.01C9.37 0.02 9.14 0.04 8.93 0.07ZM15.82 5.72C16.16 7.06 15.99 8.54 15.35 9.73C15.14 10.11 10.04 17.87 10 17.87C9.98 17.87 9.02 16.43 7.86 14.66C6.7 12.9 5.52 11.11 5.25 10.69C4.97 10.28 4.67 9.79 4.58 9.61C3.35 7.13 4.12 4.12 6.39 2.46C7.27 1.82 8.26 1.44 9.42 1.3C9.77 1.25 10.74 1.31 11.18 1.4C13.46 1.85 15.25 3.52 15.82 5.72ZM9.64 19.62C9.84 19.76 10.15 19.76 10.36 19.62C10.46 19.55 10.86 19 11.75 17.64L13 15.74L13.18 15.76C13.28 15.76 13.6 15.81 13.89 15.86C15.97 16.2 17.53 16.77 18.28 17.49C18.8 17.98 18.8 18.29 18.28 18.78C17.31 19.69 15.09 20.35 12.07 20.63C11.3 20.7 8.64 20.7 7.91 20.63C6.28 20.48 5.06 20.25 3.97 19.91C2.91 19.58 2.18 19.22 1.71 18.78C1.23 18.32 1.21 18.01 1.62 17.57C2.22 16.93 3.63 16.33 5.4 15.98C6.13 15.84 6.83 15.73 6.93 15.74C6.96 15.74 7.55 16.6 8.24 17.64C9.14 19 9.53 19.55 9.64 19.62Z" stroke="#000000" stroke-opacity="0" stroke-width="0.133333"/>
	<path id="path" d="M9.57 3.92C9.52 3.93 9.37 3.96 9.24 3.98C8.27 4.17 7.33 4.95 6.92 5.89C6.74 6.31 6.68 6.59 6.68 7.12C6.68 7.65 6.74 7.93 6.92 8.35C7.33 9.29 8.21 10.01 9.24 10.26C9.56 10.34 10.44 10.34 10.75 10.26C11.78 10.01 12.66 9.29 13.08 8.35C13.26 7.93 13.31 7.65 13.31 7.12C13.31 6.84 13.28 6.52 13.25 6.39C12.95 5.23 12.02 4.32 10.82 3.99C10.59 3.93 9.74 3.88 9.57 3.92ZM10.36 5.23C11.4 5.42 12.13 6.41 11.96 7.4C11.82 8.25 11.16 8.88 10.29 9.02C9 9.23 7.82 8.08 8.03 6.84C8.22 5.75 9.26 5.03 10.36 5.23Z" fill="url(#paint_linear_343_14594_0)" fill-opacity="1.000000" fill-rule="nonzero"/>
	<path id="path" d="M9.24 3.98C8.27 4.17 7.33 4.95 6.92 5.89C6.74 6.31 6.68 6.59 6.68 7.12C6.68 7.65 6.74 7.93 6.92 8.35C7.33 9.29 8.21 10.01 9.24 10.26C9.56 10.34 10.44 10.34 10.75 10.26C11.78 10.01 12.66 9.29 13.08 8.35C13.26 7.93 13.31 7.65 13.31 7.12C13.31 6.84 13.28 6.52 13.25 6.39C12.95 5.23 12.02 4.32 10.82 3.99C10.59 3.93 9.74 3.88 9.57 3.92C9.52 3.93 9.37 3.96 9.24 3.98ZM11.96 7.4C11.82 8.25 11.16 8.88 10.29 9.02C9 9.23 7.82 8.08 8.03 6.84C8.22 5.75 9.26 5.03 10.36 5.23C11.4 5.42 12.13 6.41 11.96 7.4Z" stroke="#000000" stroke-opacity="0" stroke-width="0.133333"/>
</svg>
