<svg width="20.000000" height="20.000000" viewBox="0 0 20 20" fill="none" xmlns="http://www.w3.org/2000/svg" xmlns:xlink="http://www.w3.org/1999/xlink">
	<desc>
			Created with Pixso.
	</desc>
	<defs>
		<linearGradient x1="0.000000" y1="10.000007" x2="20.000000" y2="4.890553" id="paint_linear_343_14615_0" gradientUnits="userSpaceOnUse">
			<stop stop-color="#7D3172"/>
			<stop offset="0.690480" stop-color="#AE3C6F"/>
		</linearGradient>
		<linearGradient x1="5.899902" y1="7.073463" x2="14.096996" y2="4.678020" id="paint_linear_343_14616_0" gradientUnits="userSpaceOnUse">
			<stop stop-color="#7D3172"/>
			<stop offset="0.690480" stop-color="#AE3C6F"/>
		</linearGradient>
	</defs>
	<path id="path" d="M4.15 0.01C3.38 0.14 2.74 0.68 2.45 1.45C2.36 1.68 2.36 1.7 2.35 4.25L2.34 6.81L1.23 7.92C0.62 8.54 0.09 9.1 0.05 9.16C-0.01 9.28 -0.01 9.71 0 13.8L0.01 18.31L0.1 18.54C0.35 19.21 0.83 19.68 1.47 19.91L1.74 20L10 20L18.25 20L18.52 19.91C19.16 19.68 19.64 19.21 19.89 18.54L19.98 18.31L19.99 13.8C20 9.71 20 9.28 19.94 9.16C19.9 9.1 19.37 8.54 18.76 7.92L17.65 6.81L17.64 4.25L17.63 1.68L17.52 1.42C17.27 0.78 16.83 0.34 16.17 0.09L15.94 0L10.09 0C6.88 -0.01 4.2 0 4.15 0.01ZM15.82 1.22C15.93 1.26 16.08 1.35 16.17 1.45C16.49 1.76 16.47 1.47 16.46 6.2L16.45 10.4L13.25 12.19C11.49 13.18 10.03 13.99 10.01 13.99C9.98 13.99 8.52 13.18 6.75 12.19L3.54 10.39L3.53 6.19C3.52 1.47 3.5 1.76 3.82 1.45C4.12 1.14 3.65 1.16 9.98 1.16C15.14 1.15 15.65 1.16 15.82 1.22ZM2.34 9.4L2.32 9.71L1.94 9.5L1.55 9.28L1.94 8.89L2.32 8.51L2.34 8.8C2.34 8.96 2.34 9.23 2.34 9.4ZM18.05 8.9L18.44 9.28L18.21 9.41C18.08 9.48 17.9 9.58 17.81 9.64L17.65 9.73L17.65 9.12C17.65 8.78 17.65 8.51 17.66 8.51C17.66 8.51 17.84 8.68 18.05 8.9ZM5.47 12.82C7.82 14.14 9.8 15.23 9.87 15.25C9.96 15.28 10.04 15.28 10.14 15.25C10.22 15.23 12.2 14.13 14.55 12.81L18.8 10.43L18.81 14.21C18.82 18.48 18.84 18.24 18.53 18.55C18.21 18.87 18.96 18.84 10 18.84C1.03 18.84 1.78 18.87 1.46 18.55C1.15 18.24 1.17 18.48 1.17 14.22C1.17 12.13 1.18 10.43 1.18 10.43C1.19 10.43 3.12 11.5 5.47 12.82Z" fill="url(#paint_linear_343_14615_0)" fill-opacity="1.000000" fill-rule="nonzero"/>
	<path id="path" d="M2.45 1.45C2.36 1.68 2.36 1.7 2.35 4.25L2.34 6.81L1.23 7.92C0.62 8.54 0.09 9.1 0.05 9.16C-0.01 9.28 -0.01 9.71 0 13.8L0.01 18.31L0.1 18.54C0.35 19.21 0.83 19.68 1.47 19.91L1.74 20L10 20L18.25 20L18.52 19.91C19.16 19.68 19.64 19.21 19.89 18.54L19.98 18.31L19.99 13.8C20 9.71 20 9.28 19.94 9.16C19.9 9.1 19.37 8.54 18.76 7.92L17.65 6.81L17.64 4.25L17.63 1.68L17.52 1.42C17.27 0.78 16.83 0.34 16.17 0.09L15.94 0L10.09 0C6.88 -0.01 4.2 0 4.15 0.01C3.38 0.14 2.74 0.68 2.45 1.45ZM16.17 1.45C16.49 1.76 16.47 1.47 16.46 6.2L16.45 10.4L13.25 12.19C11.49 13.18 10.03 13.99 10.01 13.99C9.98 13.99 8.52 13.18 6.75 12.19L3.54 10.39L3.53 6.19C3.52 1.47 3.5 1.76 3.82 1.45C4.12 1.14 3.65 1.16 9.98 1.16C15.14 1.15 15.65 1.16 15.82 1.22C15.93 1.26 16.08 1.35 16.17 1.45ZM2.32 9.71L1.94 9.5L1.55 9.28L1.94 8.89L2.32 8.51L2.34 8.8C2.34 8.96 2.34 9.23 2.34 9.4L2.32 9.71ZM18.44 9.28L18.21 9.41C18.08 9.48 17.9 9.58 17.81 9.64L17.65 9.73L17.65 9.12C17.65 8.78 17.65 8.51 17.66 8.51C17.66 8.51 17.84 8.68 18.05 8.9L18.44 9.28ZM9.87 15.25C9.96 15.28 10.04 15.28 10.14 15.25C10.22 15.23 12.2 14.13 14.55 12.81L18.8 10.43L18.81 14.21C18.82 18.48 18.84 18.24 18.53 18.55C18.21 18.87 18.96 18.84 10 18.84C1.03 18.84 1.78 18.87 1.46 18.55C1.15 18.24 1.17 18.48 1.17 14.22C1.17 12.13 1.18 10.43 1.18 10.43C1.19 10.43 3.12 11.5 5.47 12.82C7.82 14.14 9.8 15.23 9.87 15.25Z" stroke="#000000" stroke-opacity="0" stroke-width="0.133333"/>
	<path id="path" d="M9.39 2.41C8.55 2.54 7.7 2.97 7.09 3.58C6.56 4.11 6.19 4.76 5.99 5.52C5.9 5.85 5.89 5.93 5.89 7.08C5.9 8.42 5.91 8.48 6.19 9.2C6.55 10.15 7.49 11.08 8.45 11.45C9.1 11.7 9.26 11.73 10.31 11.75C11.23 11.77 11.28 11.76 11.44 11.68C11.62 11.59 11.76 11.37 11.76 11.17C11.76 10.98 11.62 10.75 11.45 10.66C11.31 10.59 11.22 10.58 10.5 10.58C9.94 10.58 9.63 10.57 9.41 10.52C8.26 10.28 7.35 9.38 7.12 8.23C7.03 7.81 7.03 6.32 7.12 5.9C7.35 4.74 8.26 3.84 9.41 3.6C10.99 3.28 12.55 4.31 12.87 5.9C12.97 6.35 12.97 7.77 12.87 7.96C12.72 8.25 12.4 8.35 12.09 8.2C11.8 8.05 11.76 7.94 11.76 7.06C11.76 6.65 11.74 6.23 11.72 6.12C11.64 5.78 11.49 5.5 11.23 5.24C10.96 4.97 10.66 4.81 10.27 4.75C9.36 4.59 8.46 5.21 8.27 6.12C8.21 6.44 8.22 7.82 8.29 8.1C8.59 9.25 10.01 9.78 10.99 9.1L11.14 9L11.36 9.14C11.69 9.36 11.95 9.43 12.39 9.43C12.67 9.43 12.81 9.4 12.98 9.34C13.44 9.16 13.82 8.78 14 8.32C14.09 8.11 14.1 8.06 14.09 6.97C14.09 5.94 14.08 5.8 14.01 5.54C13.78 4.72 13.43 4.1 12.89 3.56C12.35 3.03 11.72 2.68 10.98 2.49C10.6 2.39 9.77 2.35 9.39 2.41ZM10.27 5.97C10.54 6.11 10.58 6.24 10.58 7.06C10.58 7.69 10.58 7.79 10.5 7.92C10.41 8.1 10.19 8.24 10 8.24C9.8 8.24 9.58 8.1 9.48 7.92C9.41 7.79 9.41 7.69 9.41 7.06C9.41 6.43 9.41 6.34 9.48 6.2C9.63 5.92 9.97 5.81 10.27 5.97Z" fill="url(#paint_linear_343_14616_0)" fill-opacity="1.000000" fill-rule="nonzero"/>
	<path id="path" d="M7.09 3.58C6.56 4.11 6.19 4.76 5.99 5.52C5.9 5.85 5.89 5.93 5.89 7.08C5.9 8.42 5.91 8.48 6.19 9.2C6.55 10.15 7.49 11.08 8.45 11.45C9.1 11.7 9.26 11.73 10.31 11.75C11.23 11.77 11.28 11.76 11.44 11.68C11.62 11.59 11.76 11.37 11.76 11.17C11.76 10.98 11.62 10.75 11.45 10.66C11.31 10.59 11.22 10.58 10.5 10.58C9.94 10.58 9.63 10.57 9.41 10.52C8.26 10.28 7.35 9.38 7.12 8.23C7.03 7.81 7.03 6.32 7.12 5.9C7.35 4.74 8.26 3.84 9.41 3.6C10.99 3.28 12.55 4.31 12.87 5.9C12.97 6.35 12.97 7.77 12.87 7.96C12.72 8.25 12.4 8.35 12.09 8.2C11.8 8.05 11.76 7.94 11.76 7.06C11.76 6.65 11.74 6.23 11.72 6.12C11.64 5.78 11.49 5.5 11.23 5.24C10.96 4.97 10.66 4.81 10.27 4.75C9.36 4.59 8.46 5.21 8.27 6.12C8.21 6.44 8.22 7.82 8.29 8.1C8.59 9.25 10.01 9.78 10.99 9.1L11.14 9L11.36 9.14C11.69 9.36 11.95 9.43 12.39 9.43C12.67 9.43 12.81 9.4 12.98 9.34C13.44 9.16 13.82 8.78 14 8.32C14.09 8.11 14.1 8.06 14.09 6.97C14.09 5.94 14.08 5.8 14.01 5.54C13.78 4.72 13.43 4.1 12.89 3.56C12.35 3.03 11.72 2.68 10.98 2.49C10.6 2.39 9.77 2.35 9.39 2.41C8.55 2.54 7.7 2.97 7.09 3.58ZM10.58 7.06C10.58 7.69 10.58 7.79 10.5 7.92C10.41 8.1 10.19 8.24 10 8.24C9.8 8.24 9.58 8.1 9.48 7.92C9.41 7.79 9.41 7.69 9.41 7.06C9.41 6.43 9.41 6.34 9.48 6.2C9.63 5.92 9.97 5.81 10.27 5.97C10.54 6.11 10.58 6.24 10.58 7.06Z" stroke="#000000" stroke-opacity="0" stroke-width="0.133333"/>
</svg>
