<svg width="20.020020" height="19.994629" viewBox="0 0 20.02 19.9946" fill="none" xmlns="http://www.w3.org/2000/svg" xmlns:xlink="http://www.w3.org/1999/xlink">
	<desc>
			Created with Pixso.
	</desc>
	<defs>
		<linearGradient x1="0.000002" y1="9.997427" x2="20.019997" y2="4.889397" id="paint_linear_343_14600_0" gradientUnits="userSpaceOnUse">
			<stop stop-color="#7D3172"/>
			<stop offset="0.690480" stop-color="#AE3C6F"/>
		</linearGradient>
		<linearGradient x1="2.622559" y1="11.513773" x2="6.525327" y2="11.176271" id="paint_linear_343_14601_0" gradientUnits="userSpaceOnUse">
			<stop stop-color="#7D3172"/>
			<stop offset="0.690480" stop-color="#AE3C6F"/>
		</linearGradient>
		<linearGradient x1="8.059570" y1="11.516191" x2="11.960320" y2="11.177929" id="paint_linear_343_14602_0" gradientUnits="userSpaceOnUse">
			<stop stop-color="#7D3172"/>
			<stop offset="0.690480" stop-color="#AE3C6F"/>
		</linearGradient>
		<linearGradient x1="13.492677" y1="11.521079" x2="17.396832" y2="11.185314" id="paint_linear_343_14603_0" gradientUnits="userSpaceOnUse">
			<stop stop-color="#7D3172"/>
			<stop offset="0.690480" stop-color="#AE3C6F"/>
		</linearGradient>
		<linearGradient x1="2.638672" y1="14.110671" x2="6.519215" y2="13.781513" id="paint_linear_343_14604_0" gradientUnits="userSpaceOnUse">
			<stop stop-color="#7D3172"/>
			<stop offset="0.690480" stop-color="#AE3C6F"/>
		</linearGradient>
		<linearGradient x1="8.063965" y1="14.110672" x2="11.956037" y2="13.781515" id="paint_linear_343_14605_0" gradientUnits="userSpaceOnUse">
			<stop stop-color="#7D3172"/>
			<stop offset="0.690480" stop-color="#AE3C6F"/>
		</linearGradient>
		<linearGradient x1="13.499512" y1="14.110670" x2="17.380056" y2="13.781513" id="paint_linear_343_14606_0" gradientUnits="userSpaceOnUse">
			<stop stop-color="#7D3172"/>
			<stop offset="0.690480" stop-color="#AE3C6F"/>
		</linearGradient>
		<linearGradient x1="2.619141" y1="16.717598" x2="6.528751" y2="16.394176" id="paint_linear_343_14607_0" gradientUnits="userSpaceOnUse">
			<stop stop-color="#7D3172"/>
			<stop offset="0.690480" stop-color="#AE3C6F"/>
		</linearGradient>
		<linearGradient x1="8.062013" y1="16.731255" x2="11.957874" y2="16.404831" id="paint_linear_343_14608_0" gradientUnits="userSpaceOnUse">
			<stop stop-color="#7D3172"/>
			<stop offset="0.690480" stop-color="#AE3C6F"/>
		</linearGradient>
		<linearGradient x1="13.489258" y1="16.718464" x2="17.379784" y2="16.395485" id="paint_linear_343_14609_0" gradientUnits="userSpaceOnUse">
			<stop stop-color="#7D3172"/>
			<stop offset="0.690480" stop-color="#AE3C6F"/>
		</linearGradient>
	</defs>
	<path id="path" d="M4.1 0.05C3.78 0.14 3.49 0.3 3.25 0.52C2.8 0.93 2.62 1.4 2.62 2.15L2.62 2.61L2.15 2.61C1.62 2.61 1.28 2.68 0.94 2.89C0.68 3.05 0.36 3.39 0.22 3.67C-0.02 4.14 0 3.68 0 11.29C0 17.33 0 18.27 0.05 18.47C0.24 19.18 0.79 19.73 1.51 19.92C1.84 20.01 18.17 20.01 18.5 19.92C19.22 19.73 19.77 19.18 19.96 18.47C20.01 18.27 20.02 17.33 20.02 11.29C20.02 3.68 20.03 4.14 19.79 3.67C19.65 3.39 19.33 3.05 19.07 2.89C18.73 2.68 18.39 2.61 17.86 2.61L17.39 2.61L17.39 2.15C17.39 1.4 17.21 0.93 16.76 0.52C15.97 -0.2 14.82 -0.17 14.07 0.58C13.66 0.99 13.48 1.46 13.48 2.18L13.48 2.61L10 2.61L6.53 2.61L6.53 2.18C6.53 1.46 6.35 0.99 5.94 0.58C5.45 0.09 4.73 -0.11 4.1 0.05ZM4.93 1.42C5.22 1.6 5.22 1.59 5.22 3.25C5.22 4.73 5.22 4.73 5.13 4.88C5 5.08 4.81 5.19 4.58 5.19C4.28 5.19 4.08 5.06 3.96 4.78C3.92 4.66 3.91 4.41 3.91 3.24C3.91 1.87 3.91 1.84 4 1.67C4.18 1.3 4.57 1.19 4.93 1.42ZM15.75 1.38C15.89 1.44 15.97 1.55 16.05 1.72C16.13 1.93 16.13 4.57 16.05 4.78C15.93 5.06 15.73 5.19 15.43 5.19C15.2 5.19 15.01 5.08 14.88 4.88C14.79 4.73 14.79 4.73 14.79 3.25C14.79 1.92 14.8 1.76 14.86 1.64C15.03 1.33 15.43 1.22 15.75 1.38ZM2.62 4.36C2.62 5.08 2.77 5.5 3.2 5.93C3.97 6.69 5.17 6.69 5.94 5.93C6.35 5.51 6.53 5.04 6.53 4.31L6.53 3.89L10 3.89L13.48 3.89L13.48 4.31C13.48 5.04 13.66 5.51 14.07 5.93C14.84 6.69 16.04 6.69 16.81 5.93C17.24 5.5 17.39 5.08 17.39 4.36L17.39 3.89L17.78 3.89C18.1 3.89 18.19 3.91 18.33 3.98C18.54 4.09 18.64 4.22 18.69 4.43C18.7 4.51 18.72 5.4 18.72 6.4L18.72 8.23L10 8.23L1.29 8.23L1.29 6.4C1.29 5.4 1.31 4.51 1.32 4.43C1.37 4.22 1.47 4.09 1.68 3.98C1.82 3.91 1.91 3.89 2.23 3.89L2.62 3.89L2.62 4.36ZM18.72 13.88C18.7 18.12 18.7 18.21 18.63 18.34C18.53 18.51 18.38 18.61 18.19 18.65C17.99 18.7 2.02 18.7 1.82 18.65C1.63 18.61 1.48 18.51 1.38 18.34C1.31 18.21 1.31 18.12 1.29 13.88L1.29 9.56L10 9.56L18.72 9.56L18.72 13.88Z" fill="url(#paint_linear_343_14600_0)" fill-opacity="1.000000" fill-rule="nonzero"/>
	<path id="path" d="M3.25 0.52C2.8 0.93 2.62 1.4 2.62 2.15L2.62 2.61L2.15 2.61C1.62 2.61 1.28 2.68 0.94 2.89C0.68 3.05 0.36 3.39 0.22 3.67C-0.02 4.14 0 3.68 0 11.29C0 17.33 0 18.27 0.05 18.47C0.24 19.18 0.79 19.73 1.51 19.92C1.84 20.01 18.17 20.01 18.5 19.92C19.22 19.73 19.77 19.18 19.96 18.47C20.01 18.27 20.02 17.33 20.02 11.29C20.02 3.68 20.03 4.14 19.79 3.67C19.65 3.39 19.33 3.05 19.07 2.89C18.73 2.68 18.39 2.61 17.86 2.61L17.39 2.61L17.39 2.15C17.39 1.4 17.21 0.93 16.76 0.52C15.97 -0.2 14.82 -0.17 14.07 0.58C13.66 0.99 13.48 1.46 13.48 2.18L13.48 2.61L10 2.61L6.53 2.61L6.53 2.18C6.53 1.46 6.35 0.99 5.94 0.58C5.45 0.09 4.73 -0.11 4.1 0.05C3.78 0.14 3.49 0.3 3.25 0.52ZM5.22 3.25C5.22 4.73 5.22 4.73 5.13 4.88C5 5.08 4.81 5.19 4.58 5.19C4.28 5.19 4.08 5.06 3.96 4.78C3.92 4.66 3.91 4.41 3.91 3.24C3.91 1.87 3.91 1.84 4 1.67C4.18 1.3 4.57 1.19 4.93 1.42C5.22 1.6 5.22 1.59 5.22 3.25ZM16.05 1.72C16.13 1.93 16.13 4.57 16.05 4.78C15.93 5.06 15.73 5.19 15.43 5.19C15.2 5.19 15.01 5.08 14.88 4.88C14.79 4.73 14.79 4.73 14.79 3.25C14.79 1.92 14.8 1.76 14.86 1.64C15.03 1.33 15.43 1.22 15.75 1.38C15.89 1.44 15.97 1.55 16.05 1.72ZM3.2 5.93C3.97 6.69 5.17 6.69 5.94 5.93C6.35 5.51 6.53 5.04 6.53 4.31L6.53 3.89L10 3.89L13.48 3.89L13.48 4.31C13.48 5.04 13.66 5.51 14.07 5.93C14.84 6.69 16.04 6.69 16.81 5.93C17.24 5.5 17.39 5.08 17.39 4.36L17.39 3.89L17.78 3.89C18.1 3.89 18.19 3.91 18.33 3.98C18.54 4.09 18.64 4.22 18.69 4.43C18.7 4.51 18.72 5.4 18.72 6.4L18.72 8.23L10 8.23L1.29 8.23L1.29 6.4C1.29 5.4 1.31 4.51 1.32 4.43C1.37 4.22 1.47 4.09 1.68 3.98C1.82 3.91 1.91 3.89 2.23 3.89L2.62 3.89L2.62 4.36C2.62 5.08 2.77 5.5 3.2 5.93ZM18.63 18.34C18.53 18.51 18.38 18.61 18.19 18.65C17.99 18.7 2.02 18.7 1.82 18.65C1.63 18.61 1.48 18.51 1.38 18.34C1.31 18.21 1.31 18.12 1.29 13.88L1.29 9.56L10 9.56L18.72 9.56L18.72 13.88C18.7 18.12 18.7 18.21 18.63 18.34Z" stroke="#000000" stroke-opacity="0" stroke-width="0.500000"/>
	<path id="path" d="M3.08 10.88C2.91 10.93 2.79 11.03 2.7 11.19C2.53 11.49 2.62 11.86 2.92 12.06L3.06 12.15L4.46 12.16C6.03 12.18 6.11 12.17 6.33 11.94C6.49 11.78 6.55 11.6 6.51 11.36C6.47 11.18 6.2 10.91 6.02 10.87C5.84 10.83 3.21 10.85 3.08 10.88Z" fill="url(#paint_linear_343_14601_0)" fill-opacity="1.000000" fill-rule="nonzero"/>
	<path id="path" d="M2.7 11.19C2.53 11.49 2.62 11.86 2.92 12.06L3.06 12.15L4.46 12.16C6.03 12.18 6.11 12.17 6.33 11.94C6.49 11.78 6.55 11.6 6.51 11.36C6.47 11.18 6.2 10.91 6.02 10.87C5.84 10.83 3.21 10.85 3.08 10.88C2.91 10.93 2.79 11.03 2.7 11.19Z" stroke="#000000" stroke-opacity="0" stroke-width="0.500000"/>
	<path id="path" d="M8.5 10.89C8.33 10.93 8.1 11.2 8.07 11.37C8 11.7 8.21 12.04 8.54 12.13C8.75 12.19 11.26 12.19 11.47 12.13C11.8 12.04 12.01 11.7 11.94 11.37C11.91 11.18 11.68 10.93 11.5 10.88C11.32 10.84 8.67 10.84 8.5 10.89Z" fill="url(#paint_linear_343_14602_0)" fill-opacity="1.000000" fill-rule="nonzero"/>
	<path id="path" d="M8.07 11.37C8 11.7 8.21 12.04 8.54 12.13C8.75 12.19 11.26 12.19 11.47 12.13C11.8 12.04 12.01 11.7 11.94 11.37C11.91 11.18 11.68 10.93 11.5 10.88C11.32 10.84 8.67 10.84 8.5 10.89C8.33 10.93 8.1 11.2 8.07 11.37Z" stroke="#000000" stroke-opacity="0" stroke-width="0.500000"/>
	<path id="path" d="M13.96 10.87C13.91 10.88 13.79 10.96 13.7 11.05C13.51 11.23 13.46 11.41 13.5 11.65C13.54 11.84 13.77 12.07 13.97 12.13C14.18 12.19 16.67 12.19 16.9 12.13C17.46 11.99 17.57 11.25 17.08 10.95C16.95 10.86 16.92 10.86 15.5 10.86C14.7 10.86 14.01 10.86 13.96 10.87Z" fill="url(#paint_linear_343_14603_0)" fill-opacity="1.000000" fill-rule="nonzero"/>
	<path id="path" d="M13.7 11.05C13.51 11.23 13.46 11.41 13.5 11.65C13.54 11.84 13.77 12.07 13.97 12.13C14.18 12.19 16.67 12.19 16.9 12.13C17.46 11.99 17.57 11.25 17.08 10.95C16.95 10.86 16.92 10.86 15.5 10.86C14.7 10.86 14.01 10.86 13.96 10.87C13.91 10.88 13.79 10.96 13.7 11.05Z" stroke="#000000" stroke-opacity="0" stroke-width="0.500000"/>
	<path id="path" d="M2.98 13.54C2.74 13.64 2.63 13.82 2.63 14.11C2.63 14.38 2.7 14.51 2.93 14.66C3.06 14.75 3.06 14.75 4.56 14.75C6.22 14.75 6.2 14.75 6.39 14.5C6.62 14.19 6.52 13.73 6.17 13.55C6 13.46 5.99 13.46 4.57 13.46C3.26 13.46 3.13 13.47 2.98 13.54Z" fill="url(#paint_linear_343_14604_0)" fill-opacity="1.000000" fill-rule="nonzero"/>
	<path id="path" d="M2.63 14.11C2.63 14.38 2.7 14.51 2.93 14.66C3.06 14.75 3.06 14.75 4.56 14.75C6.22 14.75 6.2 14.75 6.39 14.5C6.62 14.19 6.52 13.73 6.17 13.55C6 13.46 5.99 13.46 4.57 13.46C3.26 13.46 3.13 13.47 2.98 13.54C2.74 13.64 2.63 13.82 2.63 14.11Z" stroke="#000000" stroke-opacity="0" stroke-width="0.500000"/>
	<path id="path" d="M8.4 13.55C8.17 13.67 8.04 13.91 8.06 14.18C8.08 14.39 8.17 14.53 8.36 14.66C8.49 14.75 8.5 14.75 10 14.75C11.51 14.75 11.52 14.75 11.65 14.66C11.84 14.53 11.93 14.39 11.95 14.18C11.97 13.91 11.84 13.67 11.61 13.55C11.44 13.46 11.43 13.46 10 13.46C8.58 13.46 8.57 13.46 8.4 13.55Z" fill="url(#paint_linear_343_14605_0)" fill-opacity="1.000000" fill-rule="nonzero"/>
	<path id="path" d="M8.06 14.18C8.08 14.39 8.17 14.53 8.36 14.66C8.49 14.75 8.5 14.75 10 14.75C11.51 14.75 11.52 14.75 11.65 14.66C11.84 14.53 11.93 14.39 11.95 14.18C11.97 13.91 11.84 13.67 11.61 13.55C11.44 13.46 11.43 13.46 10 13.46C8.58 13.46 8.57 13.46 8.4 13.55C8.17 13.67 8.04 13.91 8.06 14.18Z" stroke="#000000" stroke-opacity="0" stroke-width="0.500000"/>
	<path id="path" d="M13.84 13.55C13.49 13.73 13.39 14.19 13.62 14.5C13.81 14.75 13.79 14.75 15.45 14.75C16.94 14.75 16.95 14.75 17.08 14.66C17.31 14.51 17.37 14.38 17.37 14.11C17.37 13.82 17.27 13.64 17.03 13.54C16.88 13.47 16.75 13.46 15.44 13.46C14.02 13.46 14 13.46 13.84 13.55Z" fill="url(#paint_linear_343_14606_0)" fill-opacity="1.000000" fill-rule="nonzero"/>
	<path id="path" d="M13.62 14.5C13.81 14.75 13.79 14.75 15.45 14.75C16.94 14.75 16.95 14.75 17.08 14.66C17.31 14.51 17.37 14.38 17.37 14.11C17.37 13.82 17.27 13.64 17.03 13.54C16.88 13.47 16.75 13.46 15.44 13.46C14.02 13.46 14 13.46 13.84 13.55C13.49 13.73 13.39 14.19 13.62 14.5Z" stroke="#000000" stroke-opacity="0" stroke-width="0.500000"/>
	<path id="path" d="M2.99 16.13C2.82 16.2 2.66 16.4 2.63 16.57C2.57 16.85 2.67 17.09 2.9 17.26C3.01 17.34 3.06 17.35 4.56 17.35L6.11 17.35L6.25 17.25C6.39 17.15 6.52 16.9 6.52 16.72C6.52 16.53 6.37 16.26 6.19 16.17C6.04 16.08 6.02 16.08 4.57 16.08C3.44 16.08 3.08 16.09 2.99 16.13Z" fill="url(#paint_linear_343_14607_0)" fill-opacity="1.000000" fill-rule="nonzero"/>
	<path id="path" d="M2.63 16.57C2.57 16.85 2.67 17.09 2.9 17.26C3.01 17.34 3.06 17.35 4.56 17.35L6.11 17.35L6.25 17.25C6.39 17.15 6.52 16.9 6.52 16.72C6.52 16.53 6.37 16.26 6.19 16.17C6.04 16.08 6.02 16.08 4.57 16.08C3.44 16.08 3.08 16.09 2.99 16.13C2.82 16.2 2.66 16.4 2.63 16.57Z" stroke="#000000" stroke-opacity="0" stroke-width="0.500000"/>
	<path id="path" d="M8.48 16.1C8.08 16.26 7.93 16.78 8.18 17.1C8.38 17.37 8.39 17.37 10 17.37C11.62 17.37 11.63 17.37 11.83 17.1C12.04 16.83 11.97 16.4 11.68 16.19L11.55 16.1L10.04 16.09C9.22 16.08 8.51 16.09 8.48 16.1Z" fill="url(#paint_linear_343_14608_0)" fill-opacity="1.000000" fill-rule="nonzero"/>
	<path id="path" d="M8.18 17.1C8.38 17.37 8.39 17.37 10 17.37C11.62 17.37 11.63 17.37 11.83 17.1C12.04 16.83 11.97 16.4 11.68 16.19L11.55 16.1L10.04 16.09C9.22 16.08 8.51 16.09 8.48 16.1C8.08 16.26 7.93 16.78 8.18 17.1Z" stroke="#000000" stroke-opacity="0" stroke-width="0.500000"/>
	<path id="path" d="M13.82 16.17C13.64 16.26 13.48 16.53 13.48 16.72C13.49 16.9 13.62 17.15 13.76 17.25L13.89 17.35L15.45 17.35C16.95 17.35 17 17.34 17.1 17.26C17.32 17.11 17.37 16.99 17.37 16.72C17.37 16.45 17.32 16.33 17.1 16.18C17 16.1 16.94 16.1 15.49 16.08C13.98 16.08 13.97 16.08 13.82 16.17Z" fill="url(#paint_linear_343_14609_0)" fill-opacity="1.000000" fill-rule="nonzero"/>
	<path id="path" d="M13.48 16.72C13.49 16.9 13.62 17.15 13.76 17.25L13.89 17.35L15.45 17.35C16.95 17.35 17 17.34 17.1 17.26C17.32 17.11 17.37 16.99 17.37 16.72C17.37 16.45 17.32 16.33 17.1 16.18C17 16.1 16.94 16.1 15.49 16.08C13.98 16.08 13.97 16.08 13.82 16.17C13.64 16.26 13.48 16.53 13.48 16.72Z" stroke="#000000" stroke-opacity="0" stroke-width="0.500000"/>
</svg>
