<svg width="34.137695" height="19.070312" viewBox="0 0 34.1377 19.0703" fill="none" xmlns="http://www.w3.org/2000/svg" xmlns:xlink="http://www.w3.org/1999/xlink">
	<desc>
			Created with Pixso.
	</desc>
	<defs/>
	<path id="path" d="M8.45 0.18C7.66 0.57 7.39 1.19 7.38 2.62C7.38 3.7 7.45 3.91 7.82 3.91C8.15 3.91 8.26 3.59 8.26 2.56C8.26 1.49 8.33 1.27 8.77 0.98L9.07 0.78L16.62 0.78C25.13 0.78 24.62 0.73 24.96 1.42C25.13 1.78 25.13 1.93 25.13 7.94L25.13 14.1L20.48 14.09L15.82 14.09L15.47 13.64C15.2 13.3 14.95 13.1 14.43 12.84C13.77 12.51 13.7 12.49 12.94 12.49C12.22 12.49 12.1 12.51 11.58 12.77C11.01 13.05 10.47 13.49 10.21 13.89C10.08 14.09 10.02 14.1 9.17 14.1L8.26 14.1L8.26 13.29C8.26 12.61 8.23 12.45 8.1 12.33C7.9 12.15 7.7 12.14 7.52 12.32C7.33 12.51 7.32 15.26 7.51 15.71C7.71 16.19 8.09 16.36 8.92 16.36C9.63 16.36 9.64 16.36 9.7 16.6C9.91 17.44 10.66 18.36 11.48 18.77C11.93 19 12.05 19.02 12.93 19.02C13.79 19.02 13.95 18.99 14.39 18.78C15.23 18.4 15.88 17.59 16.25 16.51C16.29 16.37 16.58 16.36 21.07 16.38L25.86 16.41L26.01 16.86C26.34 17.81 27.06 18.54 28 18.9C28.73 19.17 29.97 19.11 30.62 18.77C31.51 18.32 32.12 17.58 32.39 16.66L32.49 16.29L33.03 16.26C33.5 16.22 33.58 16.19 33.86 15.89C34.14 15.59 34.15 15.53 34.12 15.14C34.07 14.64 33.81 14.31 33.4 14.2L33.13 14.13L33.09 12.26L33.04 10.4L32.16 8.44C31.67 7.36 31.11 6.11 30.91 5.65C30.72 5.19 30.45 4.71 30.33 4.58C29.84 4.06 29.79 4.04 27.8 4L25.96 3.96L25.92 2.61C25.88 1.47 25.85 1.2 25.71 1C25.45 0.58 25.19 0.33 24.85 0.16C24.54 0 24.22 0 16.68 0C8.84 0 8.83 0 8.45 0.18ZM29.56 4.7C29.72 4.78 29.91 4.96 29.99 5.08C30.07 5.2 30.66 6.5 31.3 7.96L32.48 10.63L32.48 12.37C32.48 14.43 32.48 14.43 31.55 13.51C30.88 12.85 30.28 12.55 29.42 12.47C28.79 12.41 27.94 12.63 27.39 12.98C26.97 13.25 26.36 13.86 26.36 14.01C26.36 14.06 26.26 14.1 26.14 14.1L25.92 14.1L25.92 9.37C25.92 6.77 25.94 4.61 25.98 4.58C26.01 4.55 26.77 4.52 27.66 4.52C29.12 4.52 29.31 4.54 29.56 4.7ZM14.13 13.3C15.16 13.8 15.72 14.77 15.67 15.93C15.63 16.95 15.1 17.76 14.16 18.26C13.57 18.57 12.45 18.59 11.82 18.3C11.3 18.07 10.65 17.43 10.42 16.9C10.15 16.33 10.15 15.27 10.42 14.7C10.75 13.97 11.41 13.39 12.19 13.13C12.62 12.99 13.7 13.09 14.13 13.3ZM30.36 13.31C30.93 13.59 31.39 14.06 31.66 14.6C31.87 15.02 31.91 15.21 31.9 15.8C31.9 16.62 31.68 17.16 31.12 17.72C30.54 18.3 30.03 18.5 29.15 18.5C28.52 18.5 28.35 18.46 27.97 18.26C26.22 17.35 25.88 15.14 27.28 13.79C27.84 13.25 28.41 13.05 29.28 13.08C29.79 13.11 30.09 13.17 30.36 13.31ZM9.7 15.07C9.66 15.28 9.62 15.48 9.6 15.51C9.53 15.62 8.48 15.59 8.36 15.48C8.3 15.41 8.26 15.22 8.26 15.04L8.26 14.71L9.01 14.71L9.76 14.71L9.7 15.07ZM25.89 15.14L25.8 15.58L21.07 15.58L16.32 15.58L16.27 15.27C16.23 15.1 16.18 14.9 16.15 14.83C16.12 14.73 16.8 14.71 21.04 14.71L25.98 14.71L25.89 15.14ZM33.31 14.76C33.54 14.86 33.64 15.22 33.48 15.46C33.37 15.63 33.27 15.67 32.91 15.67C32.51 15.67 32.48 15.65 32.48 15.46C32.48 15.34 32.45 15.13 32.42 14.98L32.37 14.71L32.76 14.71C32.98 14.71 33.23 14.73 33.31 14.76Z" fill="#1C1919" fill-opacity="1.000000" fill-rule="nonzero"/>
	<path id="path" d="M7.38 2.62C7.38 3.7 7.45 3.91 7.82 3.91C8.15 3.91 8.26 3.59 8.26 2.56C8.26 1.49 8.33 1.27 8.77 0.98L9.07 0.78L16.62 0.78C25.13 0.78 24.62 0.73 24.96 1.42C25.13 1.78 25.13 1.93 25.13 7.94L25.13 14.1L20.48 14.09L15.82 14.09L15.47 13.64C15.2 13.3 14.95 13.1 14.43 12.84C13.77 12.51 13.7 12.49 12.94 12.49C12.22 12.49 12.1 12.51 11.58 12.77C11.01 13.05 10.47 13.49 10.21 13.89C10.08 14.09 10.02 14.1 9.17 14.1L8.26 14.1L8.26 13.29C8.26 12.61 8.23 12.45 8.1 12.33C7.9 12.15 7.7 12.14 7.52 12.32C7.33 12.51 7.32 15.26 7.51 15.71C7.71 16.19 8.09 16.36 8.92 16.36C9.63 16.36 9.64 16.36 9.7 16.6C9.91 17.44 10.66 18.36 11.48 18.77C11.93 19 12.05 19.02 12.93 19.02C13.79 19.02 13.95 18.99 14.39 18.78C15.23 18.4 15.88 17.59 16.25 16.51C16.29 16.37 16.58 16.36 21.07 16.38L25.86 16.41L26.01 16.86C26.34 17.81 27.06 18.54 28 18.9C28.73 19.17 29.97 19.11 30.62 18.77C31.51 18.32 32.12 17.58 32.39 16.66L32.49 16.29L33.03 16.26C33.5 16.22 33.58 16.19 33.86 15.89C34.14 15.59 34.15 15.53 34.12 15.14C34.07 14.64 33.81 14.31 33.4 14.2L33.13 14.13L33.09 12.26L33.04 10.4L32.16 8.44C31.67 7.36 31.11 6.11 30.91 5.65C30.72 5.19 30.45 4.71 30.33 4.58C29.84 4.06 29.79 4.04 27.8 4L25.96 3.96L25.92 2.61C25.88 1.47 25.85 1.2 25.71 1C25.45 0.58 25.19 0.33 24.85 0.16C24.54 0 24.22 0 16.68 0C8.84 0 8.83 0 8.45 0.18C7.66 0.57 7.39 1.19 7.38 2.62ZM29.99 5.08C30.07 5.2 30.66 6.5 31.3 7.96L32.48 10.63L32.48 12.37C32.48 14.43 32.48 14.43 31.55 13.51C30.88 12.85 30.28 12.55 29.42 12.47C28.79 12.41 27.94 12.63 27.39 12.98C26.97 13.25 26.36 13.86 26.36 14.01C26.36 14.06 26.26 14.1 26.14 14.1L25.92 14.1L25.92 9.37C25.92 6.77 25.94 4.61 25.98 4.58C26.01 4.55 26.77 4.52 27.66 4.52C29.12 4.52 29.31 4.54 29.56 4.7C29.72 4.78 29.91 4.96 29.99 5.08ZM15.67 15.93C15.63 16.95 15.1 17.76 14.16 18.26C13.57 18.57 12.45 18.59 11.82 18.3C11.3 18.07 10.65 17.43 10.42 16.9C10.15 16.33 10.15 15.27 10.42 14.7C10.75 13.97 11.41 13.39 12.19 13.13C12.62 12.99 13.7 13.09 14.13 13.3C15.16 13.8 15.72 14.77 15.67 15.93ZM31.66 14.6C31.87 15.02 31.91 15.21 31.9 15.8C31.9 16.62 31.68 17.16 31.12 17.72C30.54 18.3 30.03 18.5 29.15 18.5C28.52 18.5 28.35 18.46 27.97 18.26C26.22 17.35 25.88 15.14 27.28 13.79C27.84 13.25 28.41 13.05 29.28 13.08C29.79 13.11 30.09 13.17 30.36 13.31C30.93 13.59 31.39 14.06 31.66 14.6ZM9.6 15.51C9.53 15.62 8.48 15.59 8.36 15.48C8.3 15.41 8.26 15.22 8.26 15.04L8.26 14.71L9.01 14.71L9.76 14.71L9.7 15.07C9.66 15.28 9.62 15.48 9.6 15.51ZM25.8 15.58L21.07 15.58L16.32 15.58L16.27 15.27C16.23 15.1 16.18 14.9 16.15 14.83C16.12 14.73 16.8 14.71 21.04 14.71L25.98 14.71L25.89 15.14L25.8 15.58ZM33.48 15.46C33.37 15.63 33.27 15.67 32.91 15.67C32.51 15.67 32.48 15.65 32.48 15.46C32.48 15.34 32.45 15.13 32.42 14.98L32.37 14.71L32.76 14.71C32.98 14.71 33.23 14.73 33.31 14.76C33.54 14.86 33.64 15.22 33.48 15.46Z" stroke="#000000" stroke-opacity="0" stroke-width="0.133333"/>
	<path id="path" d="M26.94 5.32C26.81 5.39 26.79 5.65 26.79 8C26.79 10.5 26.8 10.62 26.96 10.7C27.19 10.83 31.03 10.83 31.26 10.7C31.35 10.65 31.43 10.56 31.43 10.5C31.43 10.29 29.23 5.44 29.08 5.32C28.91 5.19 27.18 5.19 26.94 5.32ZM29.67 7.85C30.17 8.96 30.6 9.95 30.61 10.02C30.66 10.17 30.54 10.18 29.03 10.18L27.4 10.18L27.4 8L27.4 5.83L28.09 5.83L28.77 5.83L29.67 7.85Z" fill="#1C1919" fill-opacity="1.000000" fill-rule="nonzero"/>
	<path id="path" d="M26.79 8C26.79 10.5 26.8 10.62 26.96 10.7C27.19 10.83 31.03 10.83 31.26 10.7C31.35 10.65 31.43 10.56 31.43 10.5C31.43 10.29 29.23 5.44 29.08 5.32C28.91 5.19 27.18 5.19 26.94 5.32C26.81 5.39 26.79 5.65 26.79 8ZM30.61 10.02C30.66 10.17 30.54 10.18 29.03 10.18L27.4 10.18L27.4 8L27.4 5.83L28.09 5.83L28.77 5.83L29.67 7.85C30.17 8.96 30.6 9.95 30.61 10.02Z" stroke="#000000" stroke-opacity="0" stroke-width="0.133333"/>
	<path id="path" d="M12.35 14.75C12.03 14.93 11.75 15.41 11.75 15.76C11.75 16.65 12.73 17.24 13.51 16.84C13.89 16.64 14.12 16.22 14.12 15.72C14.12 15.34 14.08 15.26 13.77 14.96C13.48 14.66 13.39 14.62 13.01 14.62C12.78 14.63 12.48 14.68 12.35 14.75ZM13.37 15.36C13.63 15.61 13.65 15.92 13.43 16.2C13.09 16.61 12.37 16.35 12.37 15.81C12.37 15.49 12.43 15.39 12.67 15.25C12.94 15.09 13.14 15.13 13.37 15.36Z" fill="#1C1919" fill-opacity="1.000000" fill-rule="nonzero"/>
	<path id="path" d="M11.75 15.76C11.75 16.65 12.73 17.24 13.51 16.84C13.89 16.64 14.12 16.22 14.12 15.72C14.12 15.34 14.08 15.26 13.77 14.96C13.48 14.66 13.39 14.62 13.01 14.62C12.78 14.63 12.48 14.68 12.35 14.75C12.03 14.93 11.75 15.41 11.75 15.76ZM13.43 16.2C13.09 16.61 12.37 16.35 12.37 15.81C12.37 15.49 12.43 15.39 12.67 15.25C12.94 15.09 13.14 15.13 13.37 15.36C13.63 15.61 13.65 15.92 13.43 16.2Z" stroke="#000000" stroke-opacity="0" stroke-width="0.133333"/>
	<path id="path" d="M28.53 14.77C28.02 15.08 27.82 15.92 28.14 16.41C28.51 16.96 29.29 17.14 29.82 16.78C30.13 16.56 30.38 16.13 30.38 15.79C30.38 15.44 30.12 14.97 29.82 14.79C29.49 14.59 28.85 14.58 28.53 14.77ZM29.44 15.24C29.7 15.38 29.77 15.48 29.77 15.81C29.77 16.35 29.04 16.61 28.7 16.2C28.48 15.92 28.5 15.61 28.76 15.36C29 15.12 29.15 15.09 29.44 15.24Z" fill="#1C1919" fill-opacity="1.000000" fill-rule="nonzero"/>
	<path id="path" d="M28.14 16.41C28.51 16.96 29.29 17.14 29.82 16.78C30.13 16.56 30.38 16.13 30.38 15.79C30.38 15.44 30.12 14.97 29.82 14.79C29.49 14.59 28.85 14.58 28.53 14.77C28.02 15.08 27.82 15.92 28.14 16.41ZM29.77 15.81C29.77 16.35 29.04 16.61 28.7 16.2C28.48 15.92 28.5 15.61 28.76 15.36C29 15.12 29.15 15.09 29.44 15.24C29.7 15.38 29.77 15.48 29.77 15.81Z" stroke="#000000" stroke-opacity="0" stroke-width="0.133333"/>
	<path id="path" d="M0.21 4.77C0.06 4.82 0 4.9 0 5.04L0 5.26L5.65 5.29C11.04 5.31 11.32 5.3 11.4 5.15C11.61 4.73 11.69 4.74 5.88 4.72C2.88 4.72 0.34 4.74 0.21 4.77Z" fill="#1C1919" fill-opacity="1.000000" fill-rule="nonzero"/>
	<path id="path" d="M0 5.04L0 5.26L5.65 5.29C11.04 5.31 11.32 5.3 11.4 5.15C11.61 4.73 11.69 4.74 5.88 4.72C2.88 4.72 0.34 4.74 0.21 4.77C0.06 4.82 0 4.9 0 5.04Z" stroke="#000000" stroke-opacity="0" stroke-width="0.133333"/>
	<path id="path" d="M2.52 6.92C2.49 6.99 2.49 7.11 2.52 7.18C2.57 7.29 3.13 7.31 6.93 7.31C10.71 7.31 11.31 7.29 11.4 7.18C11.49 7.07 11.49 7.02 11.4 6.92C11.31 6.8 10.71 6.79 6.93 6.79C3.13 6.79 2.57 6.8 2.52 6.92Z" fill="#1C1919" fill-opacity="1.000000" fill-rule="nonzero"/>
	<path id="path" d="M2.52 7.18C2.57 7.29 3.13 7.31 6.93 7.31C10.71 7.31 11.31 7.29 11.4 7.18C11.49 7.07 11.49 7.02 11.4 6.92C11.31 6.8 10.71 6.79 6.93 6.79C3.13 6.79 2.57 6.8 2.52 6.92C2.49 6.99 2.49 7.11 2.52 7.18Z" stroke="#000000" stroke-opacity="0" stroke-width="0.133333"/>
	<path id="path" d="M4.94 8.91C4.89 8.97 4.87 9.09 4.9 9.17C4.95 9.29 5.28 9.31 8.17 9.31C11.06 9.31 11.39 9.29 11.44 9.17C11.58 8.81 11.45 8.79 8.17 8.79C5.63 8.79 5.02 8.81 4.94 8.91Z" fill="#1C1919" fill-opacity="1.000000" fill-rule="nonzero"/>
	<path id="path" d="M4.9 9.17C4.95 9.29 5.28 9.31 8.17 9.31C11.06 9.31 11.39 9.29 11.44 9.17C11.58 8.81 11.45 8.79 8.17 8.79C5.63 8.79 5.02 8.81 4.94 8.91C4.89 8.97 4.87 9.09 4.9 9.17Z" stroke="#000000" stroke-opacity="0" stroke-width="0.133333"/>
	<path id="path" d="M6.91 10.93C6.83 11 6.77 11.08 6.77 11.1C6.77 11.11 6.83 11.19 6.91 11.26C7.02 11.38 7.36 11.4 9.18 11.4C11.13 11.4 11.32 11.39 11.4 11.24C11.45 11.15 11.45 11.03 11.4 10.94C11.32 10.81 11.11 10.79 9.18 10.79C7.36 10.79 7.02 10.81 6.91 10.93Z" fill="#1C1919" fill-opacity="1.000000" fill-rule="nonzero"/>
	<path id="path" d="M6.77 11.1C6.77 11.11 6.83 11.19 6.91 11.26C7.02 11.38 7.36 11.4 9.18 11.4C11.13 11.4 11.32 11.39 11.4 11.24C11.45 11.15 11.45 11.03 11.4 10.94C11.32 10.81 11.11 10.79 9.18 10.79C7.36 10.79 7.02 10.81 6.91 10.93C6.83 11 6.77 11.08 6.77 11.1Z" stroke="#000000" stroke-opacity="0" stroke-width="0.133333"/>
</svg>
