<svg width="25.990234" height="22.717285" viewBox="0 0 25.9902 22.7173" fill="none" xmlns="http://www.w3.org/2000/svg" xmlns:xlink="http://www.w3.org/1999/xlink">
	<desc>
			Created with Pixso.
	</desc>
	<defs/>
	<path id="path" d="M0.11 0.11L0 0.23L0 8.5C0 18.11 -0.09 16.98 0.63 16.98L1.06 16.98L1.06 19.72L1.06 22.46L1.19 22.58C1.31 22.71 1.34 22.71 1.94 22.71C2.82 22.71 2.81 22.72 2.84 21.87L2.87 21.23L3.64 21.82C4.06 22.14 4.41 22.44 4.41 22.48C4.41 22.66 4.62 22.71 5.28 22.71C5.88 22.71 5.93 22.71 6.03 22.59L6.14 22.48L6.14 19.73L6.14 16.98L12.94 16.98L19.74 16.98L19.75 19.75L19.77 22.52L19.89 22.62C19.99 22.7 20.09 22.71 20.63 22.71C21.49 22.71 21.48 22.72 21.52 21.87L21.54 21.22L22.32 21.8C22.74 22.12 23.09 22.41 23.09 22.44C23.09 22.48 23.14 22.55 23.19 22.61C23.29 22.7 23.36 22.71 23.95 22.71C24.43 22.71 24.62 22.69 24.7 22.64C24.79 22.57 24.79 22.47 24.82 19.79L24.84 17.01L25.34 16.98C25.76 16.96 25.85 16.94 25.91 16.86C25.98 16.77 25.99 15.54 25.99 8.48L25.99 0.2L25.85 0.1L25.72 0L12.97 0L0.22 0L0.11 0.11ZM25.27 8.49L25.27 16.27L12.99 16.27L0.71 16.27L0.71 8.49L0.71 0.71L12.99 0.71L25.27 0.71L25.27 8.49ZM2.12 19.5L2.13 22L1.95 22L1.77 22L1.77 19.48L1.77 16.98L1.94 16.99L2.1 17.01L2.12 19.5ZM4.36 17.5C4.36 17.78 4.34 18.01 4.32 18C4.23 17.96 3.05 17.06 3.04 17.02C3.04 17 3.34 16.98 3.7 16.98L4.36 16.98L4.36 17.5ZM5.43 19.49L5.43 22L5.25 22L5.07 22L5.07 19.52C5.07 18.16 5.09 17.03 5.11 17.02C5.12 17 5.21 16.98 5.29 16.98L5.43 16.98L5.43 19.49ZM20.81 19.49L20.81 22L20.63 22L20.45 22L20.45 19.52C20.45 18.16 20.47 17.03 20.49 17.02C20.5 17 20.58 16.98 20.67 16.98L20.81 16.98L20.81 19.49ZM23.07 17.05C23.09 17.09 23.09 17.33 23.08 17.59L23.07 18.05L22.46 17.59C21.58 16.93 21.58 16.98 22.37 16.98C22.88 16.98 23.05 17 23.07 17.05ZM24.11 19.49L24.11 22L23.96 22L23.8 22L23.8 19.49L23.8 16.98L23.96 16.98L24.11 16.98L24.11 19.49ZM3.67 18.41C3.91 18.59 4.11 18.76 4.11 18.78C4.11 18.81 3.08 19.61 2.91 19.71C2.86 19.74 2.84 19.54 2.84 18.77L2.84 17.79L3.03 17.94C3.14 18.02 3.42 18.23 3.67 18.41ZM22.22 18.3C22.53 18.54 22.79 18.75 22.79 18.77C22.79 18.8 21.77 19.6 21.58 19.71C21.53 19.74 21.52 19.54 21.52 18.77C21.52 18.01 21.53 17.8 21.58 17.83C21.62 17.85 21.9 18.07 22.22 18.3ZM4.34 21.42C4.33 21.43 4.04 21.23 3.7 20.97C3.36 20.71 3.1 20.48 3.13 20.46C3.15 20.44 3.43 20.22 3.75 19.98L4.34 19.54L4.35 20.47C4.36 20.98 4.35 21.41 4.34 21.42ZM23.09 20.52L23.09 21.49L22.93 21.37C22.84 21.3 22.54 21.08 22.27 20.87C21.99 20.67 21.79 20.48 21.81 20.46C21.91 20.35 23.01 19.54 23.05 19.54C23.07 19.54 23.09 19.98 23.09 20.52Z" fill="#1C1919" fill-opacity="1.000000" fill-rule="nonzero"/>
	<path id="path" d="M0 0.23L0 8.5C0 18.11 -0.09 16.98 0.63 16.98L1.06 16.98L1.06 19.72L1.06 22.46L1.19 22.58C1.31 22.71 1.34 22.71 1.94 22.71C2.82 22.71 2.81 22.72 2.84 21.87L2.87 21.23L3.64 21.82C4.06 22.14 4.41 22.44 4.41 22.48C4.41 22.66 4.62 22.71 5.28 22.71C5.88 22.71 5.93 22.71 6.03 22.59L6.14 22.48L6.14 19.73L6.14 16.98L12.94 16.98L19.74 16.98L19.75 19.75L19.77 22.52L19.89 22.62C19.99 22.7 20.09 22.71 20.63 22.71C21.49 22.71 21.48 22.72 21.52 21.87L21.54 21.22L22.32 21.8C22.74 22.12 23.09 22.41 23.09 22.44C23.09 22.48 23.14 22.55 23.19 22.61C23.29 22.7 23.36 22.71 23.95 22.71C24.43 22.71 24.62 22.69 24.7 22.64C24.79 22.57 24.79 22.47 24.82 19.79L24.84 17.01L25.34 16.98C25.76 16.96 25.85 16.94 25.91 16.86C25.98 16.77 25.99 15.54 25.99 8.48L25.99 0.2L25.85 0.1L25.72 0L12.97 0L0.22 0L0.11 0.11L0 0.23ZM25.27 16.27L12.99 16.27L0.71 16.27L0.71 8.49L0.71 0.71L12.99 0.71L25.27 0.71L25.27 8.49L25.27 16.27ZM2.13 22L1.95 22L1.77 22L1.77 19.48L1.77 16.98L1.94 16.99L2.1 17.01L2.12 19.5L2.13 22ZM4.32 18C4.23 17.96 3.05 17.06 3.04 17.02C3.04 17 3.34 16.98 3.7 16.98L4.36 16.98L4.36 17.5C4.36 17.78 4.34 18.01 4.32 18ZM5.43 22L5.25 22L5.07 22L5.07 19.52C5.07 18.16 5.09 17.03 5.11 17.02C5.12 17 5.21 16.98 5.29 16.98L5.43 16.98L5.43 19.49L5.43 22ZM20.81 22L20.63 22L20.45 22L20.45 19.52C20.45 18.16 20.47 17.03 20.49 17.02C20.5 17 20.58 16.98 20.67 16.98L20.81 16.98L20.81 19.49L20.81 22ZM23.08 17.59L23.07 18.05L22.46 17.59C21.58 16.93 21.58 16.98 22.37 16.98C22.88 16.98 23.05 17 23.07 17.05C23.09 17.09 23.09 17.33 23.08 17.59ZM24.11 22L23.96 22L23.8 22L23.8 19.49L23.8 16.98L23.96 16.98L24.11 16.98L24.11 19.49L24.11 22ZM4.11 18.78C4.11 18.81 3.08 19.61 2.91 19.71C2.86 19.74 2.84 19.54 2.84 18.77L2.84 17.79L3.03 17.94C3.14 18.02 3.42 18.23 3.67 18.41C3.91 18.59 4.11 18.76 4.11 18.78ZM22.79 18.77C22.79 18.8 21.77 19.6 21.58 19.71C21.53 19.74 21.52 19.54 21.52 18.77C21.52 18.01 21.53 17.8 21.58 17.83C21.62 17.85 21.9 18.07 22.22 18.3C22.53 18.54 22.79 18.75 22.79 18.77ZM3.7 20.97C3.36 20.71 3.1 20.48 3.13 20.46C3.15 20.44 3.43 20.22 3.75 19.98L4.34 19.54L4.35 20.47C4.36 20.98 4.35 21.41 4.34 21.42C4.33 21.43 4.04 21.23 3.7 20.97ZM23.09 21.49L22.93 21.37C22.84 21.3 22.54 21.08 22.27 20.87C21.99 20.67 21.79 20.48 21.81 20.46C21.91 20.35 23.01 19.54 23.05 19.54C23.07 19.54 23.09 19.98 23.09 20.52L23.09 21.49Z" stroke="#000000" stroke-opacity="0" stroke-width="0.133333"/>
	<path id="path" d="M1.47 1.53C1.37 1.63 1.37 1.7 1.37 8.5C1.37 15.1 1.37 15.39 1.46 15.46C1.55 15.54 2.42 15.55 13 15.55C24.03 15.55 24.45 15.54 24.53 15.46C24.61 15.37 24.61 14.81 24.61 8.5C24.61 1.7 24.61 1.63 24.51 1.53C24.41 1.43 24.35 1.43 12.99 1.43C1.64 1.43 1.57 1.43 1.47 1.53ZM15.63 2.37C15.5 2.5 12.54 5.35 9.03 8.71L2.66 14.83L2.37 14.83L2.08 14.83L2.08 8.49L2.08 2.14L8.97 2.14L15.86 2.14L15.63 2.37ZM20.16 2.67C19.74 3.1 19.64 3.22 19.64 3.34C19.64 3.55 19.77 3.68 19.97 3.68C20.11 3.68 20.24 3.57 20.93 2.91L21.74 2.14L22.82 2.14L23.9 2.14L23.9 8.49L23.9 14.83L16.24 14.83C12.03 14.83 8.58 14.82 8.58 14.81C8.58 14.8 10.73 12.71 13.37 10.18C17.62 6.09 18.17 5.55 18.17 5.42C18.17 5.33 18.12 5.22 18.07 5.16C17.81 4.91 18.05 4.7 12.59 9.95L7.5 14.83L5.59 14.83L3.68 14.83L4.16 14.38C4.42 14.13 7.39 11.27 10.76 8.04L16.87 2.15L18.78 2.15L20.68 2.14L20.16 2.67Z" fill="#1C1919" fill-opacity="1.000000" fill-rule="nonzero"/>
	<path id="path" d="M1.37 8.5C1.37 15.1 1.37 15.39 1.46 15.46C1.55 15.54 2.42 15.55 13 15.55C24.03 15.55 24.45 15.54 24.53 15.46C24.61 15.37 24.61 14.81 24.61 8.5C24.61 1.7 24.61 1.63 24.51 1.53C24.41 1.43 24.35 1.43 12.99 1.43C1.64 1.43 1.57 1.43 1.47 1.53C1.37 1.63 1.37 1.7 1.37 8.5ZM9.03 8.71L2.66 14.83L2.37 14.83L2.08 14.83L2.08 8.49L2.08 2.14L8.97 2.14L15.86 2.14L15.63 2.37C15.5 2.5 12.54 5.35 9.03 8.71ZM19.64 3.34C19.64 3.55 19.77 3.68 19.97 3.68C20.11 3.68 20.24 3.57 20.93 2.91L21.74 2.14L22.82 2.14L23.9 2.14L23.9 8.49L23.9 14.83L16.24 14.83C12.03 14.83 8.58 14.82 8.58 14.81C8.58 14.8 10.73 12.71 13.37 10.18C17.62 6.09 18.17 5.55 18.17 5.42C18.17 5.33 18.12 5.22 18.07 5.16C17.81 4.91 18.05 4.7 12.59 9.95L7.5 14.83L5.59 14.83L3.68 14.83L4.16 14.38C4.42 14.13 7.39 11.27 10.76 8.04L16.87 2.15L18.78 2.15L20.68 2.14L20.16 2.67C19.74 3.1 19.64 3.22 19.64 3.34Z" stroke="#000000" stroke-opacity="0" stroke-width="0.133333"/>
</svg>
