<svg width="25.001953" height="25.000000" viewBox="0 0 25.002 25" fill="none" xmlns="http://www.w3.org/2000/svg" xmlns:xlink="http://www.w3.org/1999/xlink">
	<desc>
			Created with Pixso.
	</desc>
	<defs>
		<linearGradient x1="0.000000" y1="12.500010" x2="25.002033" y2="6.113191" id="paint_linear_319_20478_0" gradientUnits="userSpaceOnUse">
			<stop stop-color="#7D3172"/>
			<stop offset="0.690480" stop-color="#AE3C6F"/>
		</linearGradient>
		<linearGradient x1="2.496094" y1="14.480881" x2="5.689950" y2="13.666772" id="paint_linear_319_20479_0" gradientUnits="userSpaceOnUse">
			<stop stop-color="#7D3172"/>
			<stop offset="0.690480" stop-color="#AE3C6F"/>
		</linearGradient>
		<linearGradient x1="19.245605" y1="14.478626" x2="22.448025" y2="13.663864" id="paint_linear_319_20480_0" gradientUnits="userSpaceOnUse">
			<stop stop-color="#7D3172"/>
			<stop offset="0.690480" stop-color="#AE3C6F"/>
		</linearGradient>
		<linearGradient x1="2.496094" y1="18.041046" x2="5.689950" y2="17.227741" id="paint_linear_319_20481_0" gradientUnits="userSpaceOnUse">
			<stop stop-color="#7D3172"/>
			<stop offset="0.690480" stop-color="#AE3C6F"/>
		</linearGradient>
		<linearGradient x1="19.245605" y1="18.038231" x2="22.447531" y2="17.224983" id="paint_linear_319_20482_0" gradientUnits="userSpaceOnUse">
			<stop stop-color="#7D3172"/>
			<stop offset="0.690480" stop-color="#AE3C6F"/>
		</linearGradient>
	</defs>
	<path id="path" d="M2.37 0.01C2.37 0.01 2.35 0.03 2.33 0.04C2.23 0.1 2.16 0.2 2.14 0.31C2.13 0.36 2.13 2.42 2.13 6.02C2.13 9.12 2.13 11.66 2.13 11.66C2.12 11.66 1.87 11.66 1.57 11.67L1.02 11.67L0.96 11.71C0.85 11.77 0.79 11.84 0.77 11.96C0.75 12.03 0.75 12.26 0.75 14.85C0.75 16.84 0.75 17.67 0.76 17.71C0.78 17.8 0.83 17.89 0.87 17.93C0.96 17.99 1.01 18.01 1.11 18.01C1.2 18.01 1.22 18.01 1.27 17.98C1.39 17.91 1.45 17.83 1.47 17.71C1.48 17.65 1.48 16.97 1.48 15.02L1.48 12.42L1.51 12.41C1.56 12.39 6.66 12.39 6.67 12.41C6.68 12.42 6.69 13.29 6.69 16.26C6.69 19.74 6.69 20.09 6.67 20.1C6.63 20.11 1.53 20.11 1.51 20.1C1.48 20.08 1.48 20.07 1.48 19.63C1.48 19.07 1.48 19 1.4 18.91C1.37 18.87 1.34 18.84 1.33 18.83C1.32 18.83 1.31 18.82 1.31 18.82C1.31 18.8 1.16 18.76 1.11 18.76C1.07 18.76 0.93 18.8 0.92 18.81C0.92 18.82 0.9 18.83 0.88 18.84C0.84 18.88 0.78 18.96 0.76 19.05C0.75 19.11 0.75 19.22 0.75 19.6C0.75 20.13 0.75 20.1 0.67 20.12C0.6 20.12 0.46 20.17 0.41 20.2C0.28 20.28 0.14 20.43 0.09 20.52C0.09 20.54 0.07 20.57 0.07 20.57C0.06 20.57 0.05 20.61 0.04 20.64C0.03 20.68 0.02 20.71 0.01 20.71C0 20.72 0 20.82 0 21.41C0 22.08 0 22.1 0.02 22.13C0.03 22.15 0.04 22.17 0.04 22.19C0.04 22.28 0.23 22.52 0.38 22.61C0.48 22.68 0.68 22.73 0.83 22.73C0.96 22.73 0.94 22.64 0.94 23.7C0.94 24.72 0.95 24.73 1.01 24.83C1.03 24.86 1.07 24.9 1.1 24.92C1.13 24.94 1.16 24.96 1.18 24.97C1.21 24.99 1.55 25 12.49 25C20.11 25 23.78 24.99 23.78 24.98C23.79 24.98 23.81 24.96 23.83 24.95C23.93 24.9 24.01 24.8 24.02 24.68C24.03 24.64 24.03 24.22 24.03 23.68L24.03 22.76L24.06 22.75C24.08 22.74 24.12 22.73 24.16 22.73C24.25 22.73 24.44 22.69 24.51 22.66C24.63 22.6 24.64 22.59 24.71 22.52C24.84 22.41 24.93 22.25 24.95 22.13C24.96 22.1 24.97 22.07 24.98 22.06C25 22.04 25 20.78 24.98 20.77C24.97 20.77 24.96 20.73 24.95 20.7C24.94 20.62 24.86 20.47 24.8 20.39C24.68 20.25 24.47 20.13 24.28 20.11C24.25 20.11 24.21 20.1 24.2 20.09C24.18 20.09 24.18 19.65 24.17 17.34C24.17 15.83 24.16 14.58 24.16 14.57C24.15 14.56 24.14 14.55 24.14 14.55C24.13 14.55 24.13 14.54 24.12 14.53C24.11 14.5 24.04 14.43 23.98 14.39C23.93 14.36 23.91 14.36 23.82 14.36C23.72 14.36 23.67 14.37 23.59 14.43C23.54 14.47 23.49 14.55 23.47 14.61C23.46 14.65 23.45 15.3 23.45 17.37C23.44 19.77 23.44 20.09 23.42 20.1C23.41 20.1 22.44 20.11 20.84 20.11C18.52 20.11 18.27 20.11 18.25 20.09C18.23 20.07 18.23 19.71 18.23 16.24L18.23 12.42L18.26 12.41C18.3 12.39 23.4 12.39 23.42 12.41C23.44 12.42 23.44 12.48 23.45 12.86C23.46 13.33 23.46 13.38 23.51 13.44C23.53 13.46 23.54 13.48 23.54 13.48C23.54 13.5 23.67 13.58 23.73 13.6C23.81 13.62 23.83 13.62 23.92 13.59C24.01 13.56 24.09 13.49 24.14 13.42L24.17 13.36L24.17 12.64L24.17 11.92L24.14 11.86C24.09 11.79 24.01 11.72 23.93 11.69C23.87 11.67 23.84 11.67 23.37 11.67C23.1 11.67 22.87 11.66 22.87 11.66C22.85 11.65 22.85 10.48 22.85 5.97L22.84 0.28L22.81 0.22C22.77 0.14 22.71 0.07 22.64 0.04C22.61 0.03 22.59 0.01 22.59 0.01C22.59 0 19.45 0 12.48 0C5.89 0 2.37 0 2.37 0.01ZM4 0.74C4 0.76 3.97 0.82 3.85 0.98C3.81 1.03 3.77 1.09 3.76 1.11C3.75 1.13 3.73 1.17 3.7 1.2C3.68 1.22 3.66 1.26 3.65 1.27C3.64 1.29 3.63 1.3 3.63 1.31C3.62 1.31 3.59 1.36 3.55 1.42C3.51 1.48 3.44 1.58 3.39 1.66C3.1 2.08 3.04 2.18 3.02 2.2C3.02 2.21 2.99 2.24 2.97 2.27C2.95 2.3 2.92 2.34 2.92 2.35C2.91 2.36 2.91 2.37 2.9 2.37C2.87 2.37 2.87 2.34 2.87 1.55C2.87 1.11 2.87 0.75 2.87 0.74C2.89 0.73 3.99 0.73 4 0.74ZM8.41 0.75C8.41 0.76 8.4 0.79 8.29 0.93C8.25 0.99 8.2 1.06 8.18 1.1C8.15 1.13 8.13 1.16 8.13 1.17C8.13 1.17 8.11 1.19 8.1 1.21C8.09 1.23 8.05 1.28 8.02 1.32C7.99 1.36 7.96 1.41 7.94 1.44C7.87 1.53 7.79 1.65 7.74 1.72C7.71 1.77 7.66 1.84 7.62 1.89C7.59 1.93 7.54 2.01 7.5 2.06C7.44 2.15 7.42 2.19 7.33 2.31C7.31 2.33 7.27 2.39 7.24 2.43C7.2 2.5 7.17 2.54 7.08 2.66C7.06 2.69 7.03 2.74 7.01 2.77C6.98 2.8 6.95 2.84 6.94 2.85C6.91 2.87 6.91 2.87 6.89 2.85C6.88 2.83 6.84 2.78 6.81 2.73C6.8 2.72 6.78 2.69 6.76 2.66C6.73 2.62 6.68 2.55 6.64 2.49C6.6 2.44 6.55 2.36 6.52 2.32C6.49 2.27 6.44 2.2 6.4 2.14C6.36 2.09 6.3 2 6.26 1.95C6.23 1.9 6.17 1.82 6.14 1.77C6.1 1.72 6.04 1.64 6 1.58C5.96 1.52 5.89 1.42 5.85 1.37C5.82 1.31 5.76 1.23 5.73 1.19C5.7 1.15 5.65 1.07 5.61 1.01C5.47 0.82 5.42 0.75 5.43 0.74C5.44 0.73 8.4 0.74 8.41 0.75ZM12.83 0.74C12.84 0.74 12.81 0.78 12.79 0.82C12.76 0.87 12.71 0.94 12.67 0.99C12.64 1.03 12.59 1.1 12.57 1.14C12.54 1.19 12.48 1.26 12.44 1.32C12.4 1.37 12.35 1.45 12.33 1.48C12.28 1.55 12.28 1.55 12.24 1.61C12.22 1.63 12.19 1.67 12.17 1.71C12.15 1.74 12.11 1.79 12.09 1.82C12.03 1.9 11.95 2.03 11.89 2.11C11.86 2.16 11.8 2.24 11.76 2.29C11.72 2.35 11.67 2.43 11.64 2.47C11.61 2.51 11.55 2.59 11.52 2.64C11.48 2.7 11.43 2.77 11.4 2.81C11.38 2.84 11.36 2.87 11.35 2.87C11.34 2.88 11.29 2.83 11.23 2.73C11.2 2.69 11.15 2.62 11.12 2.58C11.1 2.55 11.05 2.48 11.02 2.44C11 2.4 10.97 2.35 10.96 2.35C10.95 2.34 10.93 2.3 10.9 2.27C10.88 2.23 10.83 2.16 10.79 2.1C10.75 2.05 10.7 1.97 10.67 1.93C10.64 1.89 10.58 1.81 10.54 1.75C10.51 1.7 10.45 1.61 10.41 1.56C10.37 1.51 10.32 1.43 10.29 1.38C10.26 1.34 10.2 1.26 10.16 1.2C10.12 1.15 10.08 1.09 10.07 1.07C10.06 1.06 10.04 1.03 10.03 1.02C10.02 1.01 10 0.97 9.97 0.94C9.87 0.79 9.85 0.76 9.86 0.75C9.87 0.73 12.82 0.73 12.83 0.74ZM17.24 0.74C17.25 0.76 17.23 0.82 17.21 0.82C17.21 0.82 17.19 0.84 17.17 0.88C17.14 0.91 17.11 0.95 17.1 0.97C17.06 1.02 17.06 1.02 17.01 1.1C16.99 1.13 16.94 1.2 16.91 1.24C16.88 1.29 16.82 1.37 16.79 1.42C16.75 1.47 16.7 1.54 16.67 1.58C16.65 1.61 16.6 1.68 16.57 1.72C16.55 1.76 16.49 1.84 16.45 1.89C16.41 1.95 16.36 2.03 16.33 2.07C16.3 2.11 16.24 2.19 16.2 2.25C16.17 2.3 16.11 2.37 16.09 2.41C16.07 2.44 16.04 2.48 16.04 2.48C16.03 2.48 16.01 2.52 15.98 2.55C15.83 2.78 15.8 2.82 15.77 2.83C15.74 2.85 15.74 2.85 15.71 2.8C15.7 2.78 15.67 2.74 15.64 2.7C15.62 2.67 15.57 2.6 15.53 2.54C15.49 2.49 15.44 2.41 15.41 2.37C15.37 2.32 15.33 2.26 15.31 2.22C15.26 2.15 15.26 2.15 15.22 2.1C15.2 2.08 15.17 2.03 15.15 2C15.12 1.96 15.08 1.91 15.06 1.87C15.03 1.84 14.98 1.76 14.94 1.71C14.91 1.66 14.85 1.58 14.82 1.54C14.79 1.49 14.74 1.42 14.72 1.39C14.67 1.32 14.67 1.32 14.63 1.27C14.62 1.25 14.58 1.2 14.56 1.17C14.52 1.11 14.5 1.07 14.41 0.95C14.39 0.93 14.37 0.89 14.36 0.87C14.34 0.86 14.32 0.82 14.3 0.8C14.28 0.78 14.27 0.75 14.28 0.75C14.29 0.73 17.23 0.73 17.24 0.74ZM21.68 0.74C21.69 0.75 21.64 0.83 21.48 1.06C21.44 1.12 21.36 1.23 21.31 1.31C21.21 1.46 21.14 1.56 21.04 1.7C20.92 1.87 20.87 1.95 20.77 2.09C20.67 2.25 20.6 2.35 20.5 2.49C20.43 2.59 20.28 2.8 20.26 2.84C20.25 2.86 20.23 2.88 20.21 2.88C20.18 2.89 20.18 2.89 20.09 2.76C20.06 2.72 20.01 2.64 19.97 2.59C19.93 2.53 19.87 2.44 19.83 2.39C19.8 2.34 19.74 2.26 19.71 2.22C19.68 2.17 19.62 2.09 19.58 2.03C19.55 1.98 19.5 1.92 19.49 1.9C19.45 1.84 19.45 1.84 19.4 1.78C19.38 1.74 19.33 1.67 19.3 1.63C19.27 1.58 19.21 1.51 19.18 1.45C19.14 1.4 19.08 1.32 19.04 1.26C19 1.21 18.94 1.11 18.9 1.06C18.8 0.91 18.78 0.88 18.77 0.87C18.75 0.85 18.69 0.75 18.7 0.74C18.7 0.73 21.67 0.73 21.68 0.74ZM13.64 1.14C13.67 1.19 13.72 1.25 13.74 1.28C13.77 1.32 13.82 1.39 13.86 1.44C13.89 1.49 13.95 1.58 13.98 1.62C14.02 1.67 14.08 1.75 14.11 1.81C14.18 1.91 14.27 2.03 14.33 2.12C14.43 2.25 14.52 2.38 14.57 2.46C14.6 2.5 14.65 2.58 14.69 2.63C14.73 2.68 14.78 2.76 14.81 2.8C14.84 2.84 14.86 2.87 14.87 2.88C14.87 2.88 14.89 2.91 14.91 2.94C14.93 2.97 14.96 3 14.97 3.02C14.99 3.04 15 3.06 15.01 3.07C15.04 3.12 15.09 3.2 15.09 3.21C15.09 3.22 15.08 3.23 15.07 3.24C15.06 3.25 14.65 3.25 13.54 3.25C12.13 3.25 12.03 3.25 12.02 3.23C12.02 3.22 12.03 3.19 12.05 3.17C12.08 3.11 12.17 2.99 12.25 2.87C12.29 2.81 12.35 2.74 12.37 2.7C12.42 2.63 12.42 2.63 12.46 2.58C12.47 2.56 12.5 2.52 12.53 2.48C12.55 2.44 12.59 2.39 12.6 2.37C12.67 2.28 12.75 2.16 12.81 2.08C12.84 2.03 12.89 1.96 12.91 1.93C12.94 1.89 12.99 1.82 13.02 1.77C13.06 1.71 13.1 1.66 13.1 1.65C13.11 1.65 13.14 1.61 13.16 1.58C13.18 1.54 13.23 1.47 13.27 1.41C13.31 1.36 13.36 1.28 13.39 1.25C13.41 1.21 13.46 1.15 13.49 1.1C13.55 1.03 13.55 1.03 13.57 1.05C13.58 1.06 13.62 1.1 13.64 1.14ZM4.74 1.07C4.78 1.11 4.82 1.16 4.89 1.26C4.91 1.3 4.95 1.36 4.97 1.39C5 1.42 5.03 1.47 5.05 1.5C5.16 1.65 5.2 1.72 5.27 1.81C5.31 1.87 5.36 1.95 5.39 1.99C5.42 2.03 5.46 2.09 5.49 2.12C5.51 2.15 5.54 2.2 5.56 2.22C5.57 2.24 5.6 2.28 5.62 2.31C5.64 2.34 5.68 2.39 5.71 2.44C5.74 2.48 5.78 2.54 5.8 2.57C5.82 2.6 5.85 2.63 5.86 2.65C5.86 2.66 5.9 2.71 5.93 2.75C5.95 2.79 6.01 2.87 6.05 2.92C6.08 2.98 6.12 3.03 6.13 3.04C6.14 3.05 6.15 3.06 6.15 3.07C6.15 3.07 6.17 3.1 6.2 3.14C6.23 3.18 6.24 3.2 6.24 3.22L6.23 3.25L4.73 3.25L3.24 3.25L3.23 3.22C3.23 3.2 3.25 3.17 3.41 2.93C3.51 2.79 3.71 2.5 3.97 2.1C4.03 2.02 4.12 1.89 4.17 1.81C4.23 1.73 4.3 1.62 4.34 1.57C4.38 1.51 4.41 1.46 4.42 1.45C4.43 1.44 4.48 1.37 4.6 1.18C4.66 1.1 4.7 1.04 4.71 1.04C4.71 1.04 4.73 1.05 4.74 1.07ZM9.17 1.06C9.17 1.07 9.18 1.09 9.2 1.11C9.21 1.12 9.25 1.18 9.28 1.23C9.32 1.28 9.37 1.35 9.39 1.39C9.42 1.42 9.47 1.49 9.5 1.54C9.53 1.58 9.58 1.66 9.62 1.71C9.65 1.75 9.71 1.84 9.75 1.89C9.79 1.95 9.83 2.01 9.85 2.04C9.87 2.07 9.88 2.09 9.89 2.09C9.89 2.1 9.91 2.13 9.94 2.16C9.96 2.2 10.01 2.27 10.05 2.33C10.09 2.38 10.14 2.46 10.16 2.49C10.19 2.53 10.22 2.57 10.23 2.59C10.25 2.6 10.26 2.63 10.27 2.64C10.28 2.65 10.3 2.69 10.33 2.72C10.35 2.75 10.39 2.81 10.42 2.85C10.45 2.9 10.49 2.96 10.51 2.99C10.54 3.02 10.56 3.06 10.57 3.07C10.58 3.08 10.6 3.11 10.61 3.13C10.65 3.17 10.67 3.23 10.65 3.24C10.64 3.25 9.98 3.25 9.13 3.25L7.62 3.25L7.62 3.22C7.61 3.2 7.62 3.17 7.65 3.14C7.67 3.11 7.71 3.05 7.74 3.01C7.77 2.97 7.82 2.89 7.86 2.83C7.9 2.78 7.96 2.69 8 2.64C8.03 2.59 8.09 2.51 8.12 2.46C8.15 2.42 8.2 2.35 8.22 2.32C8.24 2.28 8.27 2.25 8.28 2.24C8.28 2.23 8.31 2.19 8.34 2.15C8.37 2.1 8.41 2.04 8.44 2C8.5 1.92 8.58 1.8 8.66 1.69C8.69 1.64 8.75 1.56 8.79 1.51C8.83 1.45 8.88 1.37 8.91 1.33C9.07 1.1 9.09 1.07 9.12 1.05C9.15 1.03 9.16 1.03 9.17 1.06ZM18.07 1.15C18.11 1.21 18.17 1.3 18.21 1.35C18.25 1.41 18.3 1.49 18.33 1.53C18.36 1.57 18.42 1.65 18.46 1.71C18.49 1.76 18.55 1.84 18.58 1.88C18.61 1.92 18.66 2 18.7 2.06C18.74 2.11 18.79 2.18 18.8 2.2C18.82 2.22 18.85 2.27 18.87 2.3C18.89 2.33 18.94 2.39 18.96 2.43C18.99 2.47 19.03 2.53 19.05 2.56C19.13 2.67 19.16 2.71 19.23 2.82C19.28 2.88 19.33 2.96 19.36 3C19.49 3.18 19.52 3.23 19.49 3.25C19.46 3.26 16.46 3.25 16.44 3.24C16.42 3.23 16.45 3.16 16.5 3.1C16.52 3.07 16.56 3.02 16.59 2.98C16.73 2.78 16.77 2.71 16.81 2.66C16.84 2.62 16.88 2.56 16.9 2.53C16.93 2.49 16.96 2.45 16.97 2.43C16.99 2.42 17 2.39 17.01 2.38C17.04 2.33 17.1 2.25 17.16 2.16C17.19 2.12 17.25 2.03 17.29 1.98C17.32 1.93 17.37 1.86 17.4 1.82C17.43 1.79 17.47 1.72 17.5 1.68C17.53 1.64 17.59 1.56 17.62 1.51C17.66 1.45 17.72 1.37 17.75 1.33C17.78 1.29 17.82 1.22 17.85 1.18C17.88 1.15 17.91 1.1 17.92 1.09C17.93 1.07 17.96 1.04 17.99 1.04C17.99 1.04 18.03 1.09 18.07 1.15ZM22.1 1.49C22.11 1.5 22.11 1.89 22.11 2.36C22.11 3.02 22.11 3.22 22.1 3.23C22.08 3.25 22.04 3.25 21.5 3.25L20.91 3.25L20.91 3.22C20.9 3.2 20.96 3.11 21.1 2.91C21.16 2.83 21.24 2.71 21.36 2.54C21.55 2.25 21.58 2.22 21.6 2.19C21.61 2.18 21.63 2.15 21.64 2.13C21.65 2.11 21.69 2.05 21.73 2C21.76 1.94 21.84 1.84 21.89 1.77C21.94 1.69 22 1.61 22.02 1.57C22.04 1.54 22.07 1.51 22.07 1.5C22.08 1.47 22.1 1.46 22.1 1.49ZM5.37 4.01C5.37 4.02 5.37 4.25 5.37 4.52C5.37 5.06 5.38 5.05 5.3 5C5.29 4.99 5.27 4.98 5.26 4.98C5.25 4.98 5.24 4.97 5.23 4.95C5.22 4.94 5.2 4.93 5.2 4.93C5.19 4.93 5.17 4.92 5.15 4.91C5.13 4.89 4.84 4.7 4.78 4.66C4.75 4.65 4.48 4.46 4.34 4.37C4.22 4.3 4.21 4.29 4.16 4.26C4.14 4.25 4.06 4.19 3.98 4.14C3.89 4.08 3.82 4.04 3.81 4.04C3.81 4.03 3.8 4.02 3.81 4.01C3.81 3.99 3.87 3.99 4.59 3.99C5.28 3.99 5.36 3.99 5.37 4.01ZM7.03 4.01C7.04 4.03 7.04 4.9 7.02 4.92C7.01 4.92 6.99 4.93 6.98 4.94C6.96 4.95 6.92 4.99 6.87 5.02C6.83 5.05 6.78 5.1 6.76 5.12C6.73 5.15 6.71 5.17 6.71 5.18C6.68 5.21 6.59 5.33 6.57 5.37C6.47 5.6 6.45 5.7 6.45 5.91C6.45 6.08 6.48 6.24 6.52 6.29C6.53 6.31 6.54 6.33 6.54 6.34C6.54 6.35 6.56 6.41 6.6 6.48C6.63 6.54 6.68 6.63 6.7 6.68C6.72 6.72 6.75 6.77 6.76 6.78C6.79 6.82 6.79 6.84 6.76 6.88C6.67 7.01 6.63 7.09 6.56 7.26C6.5 7.4 6.49 7.44 6.49 7.46C6.49 7.48 6.48 7.52 6.47 7.56C6.45 7.6 6.44 7.68 6.44 7.74C6.43 7.8 6.42 7.89 6.42 7.93C6.4 8.04 6.44 8.39 6.49 8.52C6.51 8.58 6.53 8.65 6.54 8.68C6.56 8.76 6.59 8.84 6.61 8.86C6.62 8.88 6.67 8.99 6.82 9.28C6.93 9.48 7 9.56 7.15 9.63C7.27 9.69 7.31 9.7 7.43 9.71C7.57 9.72 7.64 9.69 8.01 9.49C8.06 9.47 8.14 9.42 8.19 9.39C8.25 9.37 8.33 9.32 8.38 9.29C8.43 9.27 8.51 9.22 8.56 9.2C8.74 9.11 8.76 9.1 8.77 9.06C8.79 9.03 8.8 9.02 8.81 9.04C8.82 9.06 8.86 9.04 8.86 9.02C8.86 9 8.86 9 8.89 9C8.92 9.01 8.93 9.01 8.93 8.98C8.94 8.96 8.95 8.96 8.97 8.96C8.99 8.97 9 8.96 9.01 8.95C9.01 8.93 9.02 8.93 9.03 8.93C9.05 8.93 9.07 8.92 9.09 8.91C9.1 8.89 9.13 8.88 9.14 8.88C9.16 8.88 9.17 8.87 9.18 8.86C9.18 8.85 9.2 8.84 9.23 8.83C9.26 8.82 9.29 8.81 9.3 8.8C9.31 8.79 9.35 8.77 9.39 8.75C9.44 8.73 9.51 8.69 9.56 8.66C9.62 8.64 9.7 8.59 9.75 8.56C9.8 8.54 9.89 8.49 9.94 8.46C9.99 8.44 10.07 8.39 10.12 8.37C10.21 8.32 10.35 8.24 10.48 8.18C10.63 8.09 10.71 8.02 10.81 7.9C10.82 7.87 10.84 7.85 10.84 7.84C10.84 7.83 10.85 7.8 10.86 7.78C10.88 7.73 10.89 7.71 10.89 7.57C10.89 7.44 10.88 7.41 10.86 7.37C10.85 7.33 10.84 7.31 10.84 7.3C10.84 7.29 10.84 7.29 10.74 7.12C10.59 6.83 10.6 6.84 10.51 6.7C10.42 6.57 10.31 6.43 10.23 6.35C10.19 6.32 10.16 6.29 10.15 6.28C10.13 6.26 10 6.16 9.95 6.13C9.94 6.12 9.91 6.1 9.88 6.08C9.79 6.02 9.54 5.9 9.5 5.9C9.49 5.9 9.47 5.89 9.45 5.88C9.38 5.85 9.18 5.81 9.01 5.8C8.78 5.78 8.76 5.77 8.72 5.69C8.68 5.62 8.52 5.33 8.49 5.29C8.48 5.27 8.46 5.25 8.45 5.23C8.4 5.14 8.23 4.99 8.12 4.93C8.02 4.88 7.89 4.82 7.85 4.82C7.85 4.82 7.82 4.81 7.8 4.79L7.77 4.76L7.77 4.39C7.77 4.12 7.77 4.02 7.78 4.01C7.8 3.99 17.17 3.99 17.19 4.01C17.2 4.02 17.2 4.12 17.2 4.39C17.2 4.74 17.2 4.76 17.18 4.79C17.16 4.81 17.14 4.82 17.11 4.83C17.06 4.84 17.04 4.84 16.95 4.88C16.94 4.89 16.9 4.91 16.88 4.92C16.85 4.94 16.82 4.96 16.79 4.97C16.74 4.99 16.53 5.21 16.5 5.26C16.49 5.28 16.47 5.32 16.45 5.34C16.43 5.36 16.41 5.4 16.4 5.42C16.39 5.44 16.38 5.47 16.37 5.48C16.36 5.49 16.35 5.51 16.34 5.53C16.29 5.65 16.23 5.74 16.2 5.76C16.18 5.78 16.13 5.79 15.99 5.79C15.81 5.81 15.59 5.85 15.52 5.89C15.5 5.89 15.48 5.9 15.47 5.9C15.43 5.9 15.07 6.08 15.03 6.12C15.03 6.13 15 6.15 14.96 6.18C14.9 6.22 14.68 6.42 14.6 6.51C14.56 6.57 14.43 6.75 14.39 6.83C14.35 6.9 14.27 7.05 14.23 7.13C14.16 7.26 14.15 7.28 14.13 7.31C14.11 7.35 14.07 7.58 14.08 7.59C14.08 7.59 14.09 7.63 14.09 7.68C14.11 7.79 14.16 7.88 14.23 7.97C14.26 8.01 14.29 8.05 14.29 8.05C14.3 8.05 14.33 8.07 14.36 8.09C14.39 8.12 14.44 8.15 14.46 8.16C14.52 8.19 14.78 8.33 14.99 8.44C15.02 8.46 15.09 8.49 15.14 8.52C15.19 8.54 15.27 8.59 15.32 8.62C15.37 8.64 15.45 8.69 15.5 8.71C15.54 8.73 15.62 8.78 15.67 8.8C15.72 8.83 15.81 8.88 15.86 8.9C15.91 8.93 15.98 8.96 16.01 8.98C16.03 9 16.11 9.04 16.18 9.08C16.25 9.11 16.33 9.16 16.36 9.17C16.4 9.19 16.46 9.22 16.5 9.25C16.6 9.3 16.75 9.38 16.84 9.43C16.98 9.5 17 9.51 17.02 9.52C17.04 9.53 17.06 9.54 17.07 9.55C17.14 9.59 17.35 9.68 17.42 9.7C17.51 9.72 17.66 9.71 17.73 9.68C17.88 9.61 17.92 9.59 18.01 9.5C18.04 9.47 18.1 9.38 18.12 9.34C18.12 9.33 18.15 9.27 18.18 9.21C18.29 9.02 18.41 8.78 18.41 8.76C18.41 8.75 18.41 8.73 18.42 8.71C18.45 8.66 18.48 8.57 18.5 8.49C18.51 8.46 18.52 8.41 18.53 8.39C18.57 8.28 18.57 7.75 18.52 7.62C18.51 7.58 18.5 7.54 18.5 7.52C18.5 7.49 18.44 7.31 18.42 7.28C18.41 7.27 18.41 7.25 18.41 7.24C18.41 7.22 18.3 6.99 18.27 6.97C18.26 6.96 18.26 6.95 18.26 6.94C18.26 6.94 18.25 6.92 18.23 6.9C18.2 6.87 18.2 6.8 18.23 6.76C18.27 6.7 18.45 6.33 18.45 6.31C18.45 6.31 18.46 6.28 18.47 6.26C18.5 6.21 18.53 6.02 18.53 5.9C18.53 5.78 18.5 5.58 18.47 5.53C18.45 5.49 18.4 5.37 18.4 5.36C18.4 5.33 18.19 5.08 18.14 5.05C18.06 4.99 17.95 4.91 17.95 4.89C17.94 4.88 17.94 4.68 17.94 4.44C17.94 4.1 17.94 4.02 17.96 4C17.97 4 18.1 3.99 18.41 3.99L18.85 4L18.85 7.82C18.85 10.88 18.85 11.65 18.84 11.66C18.83 11.66 18.6 11.67 18.32 11.67C17.84 11.67 17.81 11.67 17.75 11.69C17.69 11.71 17.59 11.78 17.59 11.8C17.59 11.8 17.57 11.82 17.56 11.84C17.54 11.86 17.52 11.9 17.52 11.94C17.5 11.99 17.5 12.81 17.49 16.04C17.49 18.26 17.48 20.09 17.48 20.09C17.47 20.1 17.15 20.1 16.76 20.11L16.05 20.11L15.99 20.15C15.96 20.17 15.92 20.19 15.91 20.2C15.86 20.24 15.82 20.32 15.8 20.4C15.79 20.47 15.79 20.48 15.8 20.55C15.84 20.68 15.91 20.76 16.05 20.82C16.1 20.84 16.13 20.84 20.16 20.84L24.21 20.85L24.23 20.87C24.25 20.89 24.25 20.92 24.25 21.42L24.25 21.94L24.22 21.97L24.19 21.99L12.49 21.99C1.75 21.99 0.79 21.99 0.76 21.98L0.73 21.96L0.73 21.41C0.73 20.99 0.74 20.87 0.75 20.86C0.76 20.86 3.9 20.85 7.74 20.85L14.72 20.84L14.79 20.81C14.9 20.77 14.96 20.72 15.01 20.62C15.03 20.58 15.04 20.55 15.04 20.46C15.04 20.37 15.03 20.35 15.01 20.32C15 20.3 14.99 20.28 14.99 20.27C14.99 20.26 14.89 20.17 14.84 20.14L14.79 20.11L11.12 20.11C9.1 20.1 7.45 20.1 7.44 20.09C7.44 20.09 7.43 18.25 7.43 16C7.42 11.95 7.42 11.92 7.4 11.89C7.38 11.87 7.37 11.84 7.36 11.83C7.34 11.79 7.23 11.71 7.17 11.69C7.12 11.67 7.02 11.67 6.64 11.67C6.37 11.67 6.16 11.66 6.14 11.66L6.11 11.65L6.11 7.83C6.11 4.88 6.12 4.02 6.13 4.01C6.15 3.98 7.01 3.99 7.03 4.01ZM21.17 4.01C21.18 4.02 21.18 4.03 21.15 4.04C21.13 4.05 21.07 4.09 21.02 4.13C20.97 4.16 20.92 4.19 20.92 4.19C20.91 4.19 20.9 4.2 20.89 4.21C20.88 4.23 20.86 4.24 20.84 4.25C20.83 4.25 20.8 4.26 20.79 4.28C20.77 4.29 20.71 4.33 20.64 4.37C20.58 4.41 20.52 4.45 20.51 4.46C20.32 4.58 20.13 4.71 20.01 4.79C19.93 4.84 19.86 4.88 19.85 4.88C19.85 4.88 19.83 4.89 19.82 4.91C19.81 4.92 19.79 4.93 19.79 4.93C19.78 4.93 19.72 4.97 19.68 5C19.66 5.02 19.65 5.02 19.62 5.01L19.59 5L19.59 4.51C19.59 4.09 19.59 4.03 19.61 4.01C19.63 3.99 19.71 3.99 20.39 3.99C21.05 3.99 21.16 3.99 21.17 4.01ZM22.1 4.33C22.12 4.36 22.11 7.11 22.1 7.13C22.09 7.14 22.07 7.14 22.01 7.09C21.96 7.06 21.91 7.03 21.9 7.02C21.88 7.01 21.69 6.88 21.64 6.85C21.62 6.84 21.6 6.83 21.6 6.83C21.59 6.83 21.58 6.82 21.57 6.8C21.56 6.79 21.54 6.78 21.54 6.78C21.53 6.78 21.5 6.76 21.46 6.74C21.4 6.69 21.18 6.55 20.78 6.29C20.69 6.23 20.61 6.18 20.6 6.17C20.57 6.16 20.29 5.97 20.1 5.84L19.93 5.73L19.96 5.7C19.97 5.68 19.99 5.67 20 5.66C20.01 5.66 20.09 5.61 20.17 5.56C20.25 5.5 20.34 5.44 20.38 5.42C20.42 5.39 20.49 5.35 20.54 5.31C20.59 5.28 20.64 5.25 20.65 5.25C20.66 5.24 20.74 5.19 20.82 5.13C20.98 5.03 21.15 4.92 21.23 4.87C21.27 4.84 21.35 4.79 21.69 4.57C21.76 4.52 21.87 4.45 21.93 4.41C21.99 4.37 22.04 4.34 22.04 4.34C22.05 4.34 22.06 4.34 22.06 4.33C22.08 4.3 22.1 4.3 22.1 4.33ZM2.93 4.34C2.95 4.35 2.98 4.36 2.98 4.37C2.99 4.38 3 4.39 3.01 4.39C3.01 4.39 3.05 4.41 3.09 4.43C3.12 4.46 3.22 4.52 3.31 4.58C3.39 4.64 3.53 4.73 3.61 4.78C3.7 4.84 3.77 4.88 3.77 4.88C3.78 4.88 3.8 4.89 3.82 4.91C3.83 4.92 3.87 4.95 3.9 4.97C3.96 5.01 3.96 5 4.15 5.13C4.23 5.18 4.37 5.27 4.45 5.33C4.54 5.38 4.63 5.44 4.65 5.45C4.69 5.48 4.78 5.54 4.81 5.56C4.93 5.64 4.98 5.67 4.99 5.67C4.99 5.67 5.01 5.68 5.02 5.7L5.05 5.74L5.01 5.76C4.99 5.77 4.95 5.8 4.92 5.82C4.9 5.83 4.87 5.85 4.86 5.86C4.85 5.87 4.76 5.93 4.66 5.99C4.5 6.1 4.1 6.36 4 6.43C3.97 6.44 3.95 6.46 3.94 6.47C3.93 6.48 3.7 6.63 3.24 6.93C3.11 7.02 2.98 7.1 2.95 7.12C2.9 7.16 2.9 7.16 2.88 7.14C2.86 7.11 2.86 4.36 2.88 4.33C2.9 4.32 2.89 4.32 2.93 4.34ZM7.71 5.54C7.82 5.6 7.87 5.65 7.96 5.83L8.01 5.93L7.99 5.95C7.97 5.97 7.9 6.01 7.83 6.05C7.76 6.09 7.68 6.13 7.65 6.15C7.61 6.16 7.55 6.2 7.51 6.22C7.47 6.24 7.42 6.27 7.41 6.27C7.4 6.28 7.38 6.29 7.37 6.29C7.34 6.3 7.3 6.25 7.23 6.1C7.18 6 7.18 5.98 7.18 5.9C7.18 5.79 7.22 5.7 7.29 5.62C7.4 5.52 7.57 5.48 7.71 5.54ZM17.56 5.54C17.69 5.6 17.76 5.69 17.79 5.82C17.81 5.91 17.81 5.91 17.79 6C17.77 6.05 17.74 6.11 17.73 6.14C17.71 6.17 17.68 6.22 17.67 6.24C17.66 6.28 17.65 6.29 17.62 6.29C17.59 6.29 17.57 6.28 17.57 6.28C17.57 6.27 17.53 6.25 17.48 6.22C17.43 6.2 17.35 6.16 17.29 6.12C17.23 6.09 17.15 6.05 17.1 6.03C17.05 6 17.01 5.97 16.99 5.96L16.97 5.93L16.99 5.88C17 5.86 17.02 5.82 17.03 5.8C17.06 5.74 17.13 5.64 17.16 5.61C17.18 5.6 17.23 5.57 17.27 5.55C17.36 5.5 17.47 5.5 17.56 5.54ZM5.36 6.44C5.37 6.45 5.37 6.78 5.37 7.83C5.37 9.03 5.37 9.21 5.36 9.22C5.34 9.23 5.31 9.22 5.19 9.13C5.11 9.08 4.91 8.95 4.75 8.84C4.59 8.74 4.44 8.64 4.42 8.63C4.4 8.61 4.38 8.6 4.37 8.59C4.35 8.58 4.33 8.57 4.32 8.56C4.31 8.55 4.3 8.54 4.29 8.54C4.28 8.54 4.27 8.53 4.26 8.52C4.25 8.51 4.23 8.5 4.22 8.49C4.2 8.48 4.15 8.45 4.1 8.41C4.04 8.38 3.99 8.34 3.98 8.33C3.97 8.33 3.86 8.26 3.74 8.18C3.63 8.1 3.52 8.03 3.51 8.02C3.5 8.02 3.44 7.98 3.38 7.93C3.22 7.83 3.22 7.84 3.26 7.8C3.27 7.79 3.3 7.77 3.32 7.75C3.35 7.74 3.39 7.72 3.41 7.7C3.44 7.68 3.56 7.6 3.68 7.52C3.8 7.44 4.01 7.3 4.14 7.22C4.27 7.13 4.38 7.06 4.39 7.05C4.42 7.03 4.86 6.74 5.1 6.58C5.23 6.5 5.33 6.43 5.34 6.43C5.34 6.43 5.35 6.44 5.36 6.44ZM19.73 6.48C19.77 6.51 19.88 6.58 19.97 6.64C20.06 6.7 20.14 6.75 20.15 6.75C20.16 6.76 20.18 6.78 20.21 6.79C20.3 6.85 20.56 7.02 20.75 7.15C20.86 7.22 21.01 7.32 21.1 7.38C21.18 7.43 21.28 7.5 21.32 7.52C21.35 7.55 21.39 7.57 21.39 7.57C21.4 7.57 21.41 7.58 21.43 7.59C21.44 7.6 21.45 7.61 21.46 7.61C21.46 7.61 21.49 7.63 21.52 7.65C21.6 7.7 21.63 7.73 21.68 7.75C21.7 7.76 21.73 7.79 21.75 7.8L21.77 7.83L21.73 7.86C21.7 7.88 21.6 7.95 21.49 8.02C21.38 8.09 21.19 8.22 21.07 8.3C20.94 8.38 20.77 8.49 20.69 8.55C20.6 8.6 20.51 8.67 20.47 8.69C20.43 8.72 20.4 8.74 20.39 8.74C20.39 8.74 20.37 8.75 20.36 8.76C20.35 8.77 20.33 8.79 20.33 8.79C20.32 8.79 20.29 8.8 20.27 8.82C20.24 8.84 20.2 8.87 20.19 8.87C20.16 8.89 20.11 8.92 19.88 9.08C19.76 9.16 19.65 9.22 19.63 9.22C19.62 9.22 19.61 9.21 19.6 9.2C19.59 9.18 19.59 6.48 19.6 6.45C19.62 6.42 19.65 6.42 19.73 6.48ZM9.03 6.54C9.08 6.54 9.14 6.55 9.16 6.56C9.18 6.57 9.2 6.58 9.21 6.58C9.24 6.58 9.41 6.65 9.48 6.7C9.57 6.75 9.71 6.87 9.77 6.95C9.8 6.98 9.83 7.01 9.83 7.02C9.85 7.04 9.89 7.1 10.02 7.32C10.07 7.41 10.1 7.48 10.1 7.51C10.1 7.54 10.1 7.55 9.97 7.61C9.9 7.65 9.8 7.7 9.75 7.73C9.7 7.76 9.62 7.8 9.56 7.83C9.51 7.86 9.45 7.89 9.42 7.91C9.37 7.94 9.21 8.02 9.07 8.1C8.95 8.16 8.76 8.26 8.7 8.29C8.67 8.31 8.61 8.34 8.56 8.37C8.34 8.49 8.2 8.56 8.15 8.58C8.12 8.6 8.06 8.63 8.01 8.66C7.95 8.69 7.87 8.74 7.82 8.76C7.77 8.79 7.68 8.84 7.61 8.87C7.55 8.9 7.5 8.93 7.49 8.93C7.47 8.93 7.44 8.89 7.39 8.77C7.36 8.73 7.34 8.68 7.33 8.67C7.33 8.66 7.31 8.62 7.29 8.58C7.27 8.54 7.26 8.5 7.25 8.49C7.22 8.44 7.18 8.29 7.17 8.21C7.12 7.86 7.19 7.56 7.38 7.27C7.44 7.18 7.58 7.04 7.65 7C7.68 6.98 7.7 6.96 7.71 6.96C7.72 6.95 7.88 6.85 7.92 6.83C8.08 6.74 8.24 6.66 8.26 6.65C8.32 6.62 8.47 6.56 8.55 6.55C8.64 6.53 8.83 6.51 8.89 6.52C8.91 6.52 8.98 6.53 9.03 6.54ZM16.35 6.54C16.44 6.55 16.61 6.6 16.63 6.62C16.64 6.62 16.66 6.63 16.67 6.63C16.7 6.64 16.92 6.75 16.95 6.77C16.96 6.78 17.02 6.81 17.08 6.84C17.25 6.94 17.27 6.95 17.37 7.03C17.51 7.14 17.62 7.28 17.69 7.43C17.71 7.48 17.74 7.52 17.74 7.54C17.75 7.55 17.76 7.6 17.78 7.65C17.79 7.7 17.8 7.76 17.81 7.78C17.83 7.85 17.82 8.24 17.8 8.29C17.79 8.31 17.77 8.34 17.77 8.37C17.76 8.42 17.62 8.72 17.53 8.88C17.51 8.92 17.47 8.94 17.44 8.91C17.43 8.9 17.38 8.88 17.33 8.85C17.28 8.83 17.2 8.78 17.15 8.76C17.1 8.73 17.02 8.69 16.97 8.66C16.89 8.62 16.8 8.57 16.6 8.46C16.55 8.43 16.47 8.39 16.42 8.37C16.38 8.34 16.3 8.3 16.25 8.27C16.19 8.25 16.11 8.2 16.06 8.18C16.01 8.15 15.92 8.1 15.87 8.08C15.82 8.05 15.75 8.01 15.72 8C15.66 7.97 15.46 7.85 15.32 7.78C15.27 7.75 15.21 7.72 15.18 7.71C14.99 7.61 14.87 7.54 14.87 7.52C14.87 7.51 14.89 7.46 14.91 7.41C14.94 7.37 14.97 7.3 14.98 7.27C15.01 7.21 15.02 7.21 15.11 7.07C15.14 7.02 15.21 6.93 15.26 6.89C15.37 6.78 15.59 6.63 15.64 6.63C15.65 6.63 15.67 6.62 15.67 6.62C15.68 6.6 15.86 6.55 15.94 6.54C16.04 6.52 16.25 6.52 16.35 6.54ZM2.96 8.54C3 8.57 3.1 8.64 3.2 8.7C3.29 8.76 3.38 8.82 3.39 8.83C3.42 8.85 3.58 8.95 3.7 9.03C3.77 9.07 3.83 9.11 3.84 9.12C3.85 9.13 3.88 9.15 3.91 9.17C3.94 9.19 3.98 9.21 4 9.22C4.02 9.24 4.16 9.33 4.32 9.43C4.47 9.54 4.68 9.68 4.78 9.75C4.89 9.81 4.99 9.88 5.01 9.9C5.05 9.92 5.05 9.93 5.03 9.95C5.02 9.96 4.98 9.99 4.94 10.01C4.84 10.08 4.58 10.25 4.5 10.3C4.47 10.32 4.43 10.34 4.43 10.34C4.42 10.34 4.41 10.35 4.4 10.37C4.38 10.38 4.37 10.39 4.36 10.39C4.36 10.39 4.28 10.44 4.2 10.49C3.85 10.72 3.62 10.87 3.59 10.89C3.58 10.89 3.56 10.91 3.55 10.92C3.53 10.93 3.48 10.96 3.43 11C3.34 11.05 3.12 11.19 2.99 11.28C2.86 11.37 2.87 11.53 2.87 9.93C2.87 9.16 2.87 8.53 2.87 8.52C2.88 8.5 2.9 8.5 2.96 8.54ZM22.11 8.53C22.12 8.58 22.11 11.33 22.09 11.34C22.09 11.34 22.04 11.31 21.98 11.28C21.93 11.24 21.87 11.21 21.87 11.2C21.86 11.19 21.78 11.14 21.69 11.08C21.6 11.03 21.52 10.98 21.52 10.98C21.51 10.98 21.5 10.97 21.48 10.95C21.47 10.94 21.46 10.93 21.45 10.93C21.45 10.93 21.4 10.9 21.34 10.86C21.29 10.82 21.19 10.76 21.12 10.72C21.06 10.68 20.93 10.6 20.85 10.54C20.76 10.48 20.67 10.42 20.65 10.41C20.5 10.31 20.08 10.04 20.07 10.03C20.06 10.02 20.04 10.01 20.02 10C20 9.99 19.97 9.97 19.95 9.96L19.93 9.93L19.95 9.91C19.97 9.9 20.01 9.87 20.05 9.84C20.2 9.75 20.31 9.67 20.33 9.66C20.35 9.65 20.54 9.52 20.59 9.49C20.61 9.47 20.62 9.47 20.63 9.47C20.63 9.47 20.66 9.45 20.69 9.43C20.72 9.41 20.75 9.38 20.76 9.38C20.8 9.35 20.81 9.35 21.48 8.91C21.67 8.78 21.93 8.61 22.02 8.55C22.05 8.54 22.07 8.52 22.07 8.51C22.08 8.5 22.1 8.51 22.11 8.53ZM5.37 11.14C5.37 11.5 5.37 11.64 5.36 11.65C5.35 11.67 5.22 11.67 4.59 11.67C4.1 11.67 3.83 11.66 3.81 11.66L3.78 11.64L3.85 11.6C3.92 11.55 4.06 11.46 4.08 11.45C4.09 11.44 4.11 11.43 4.14 11.41C4.31 11.3 4.45 11.21 4.53 11.15C4.59 11.11 4.64 11.08 4.65 11.08C4.65 11.08 4.67 11.07 4.68 11.06C4.69 11.05 4.7 11.04 4.71 11.04C4.72 11.04 4.88 10.93 5.18 10.73C5.26 10.68 5.33 10.64 5.35 10.64C5.37 10.64 5.37 10.65 5.37 11.14ZM19.68 10.66C19.7 10.67 19.78 10.72 19.85 10.77C19.93 10.82 20.05 10.9 20.13 10.95C20.2 11 20.28 11.05 20.31 11.07C20.39 11.12 20.56 11.23 20.72 11.33C20.8 11.39 20.88 11.44 20.89 11.45C21.06 11.56 21.18 11.64 21.18 11.64C21.19 11.65 21.18 11.66 21.16 11.66C21.11 11.68 19.65 11.67 19.62 11.65L19.59 11.64L19.59 11.15C19.59 10.7 19.59 10.66 19.61 10.65C19.64 10.63 19.65 10.63 19.68 10.66ZM23.28 22.75C23.29 22.76 23.3 22.82 23.29 23.51L23.29 24.25L12.5 24.25C4.53 24.26 1.7 24.25 1.69 24.24C1.67 24.23 1.67 24.1 1.67 23.5L1.67 22.77L1.7 22.75C1.72 22.74 2.76 22.73 12.49 22.73C21.08 22.73 23.26 22.74 23.28 22.75Z" fill="url(#paint_linear_319_20478_0)" fill-opacity="1.000000" fill-rule="nonzero"/>
	<path id="path" d="M2.33 0.04C2.23 0.1 2.16 0.2 2.14 0.31C2.13 0.36 2.13 2.42 2.13 6.02C2.13 9.12 2.13 11.66 2.13 11.66C2.12 11.66 1.87 11.66 1.57 11.67L1.02 11.67L0.96 11.71C0.85 11.77 0.79 11.84 0.77 11.96C0.75 12.03 0.75 12.26 0.75 14.85C0.75 16.84 0.75 17.67 0.76 17.71C0.78 17.8 0.83 17.89 0.87 17.93C0.96 17.99 1.01 18.01 1.11 18.01C1.2 18.01 1.22 18.01 1.27 17.98C1.39 17.91 1.45 17.83 1.47 17.71C1.48 17.65 1.48 16.97 1.48 15.02L1.48 12.42L1.51 12.41C1.56 12.39 6.66 12.39 6.67 12.41C6.68 12.42 6.69 13.29 6.69 16.26C6.69 19.74 6.69 20.09 6.67 20.1C6.63 20.11 1.53 20.11 1.51 20.1C1.48 20.08 1.48 20.07 1.48 19.63C1.48 19.07 1.48 19 1.4 18.91C1.37 18.87 1.34 18.84 1.33 18.83C1.32 18.83 1.31 18.82 1.31 18.82C1.31 18.8 1.16 18.76 1.11 18.76C1.07 18.76 0.93 18.8 0.92 18.81C0.92 18.82 0.9 18.83 0.88 18.84C0.84 18.88 0.78 18.96 0.76 19.05C0.75 19.11 0.75 19.22 0.75 19.6C0.75 20.13 0.75 20.1 0.67 20.12C0.6 20.12 0.46 20.17 0.41 20.2C0.28 20.28 0.14 20.43 0.09 20.52C0.09 20.54 0.07 20.57 0.07 20.57C0.06 20.57 0.05 20.61 0.04 20.64C0.03 20.68 0.02 20.71 0.01 20.71C0 20.72 0 20.82 0 21.41C0 22.08 0 22.1 0.02 22.13C0.03 22.15 0.04 22.17 0.04 22.19C0.04 22.28 0.23 22.52 0.38 22.61C0.48 22.68 0.68 22.73 0.83 22.73C0.96 22.73 0.94 22.64 0.94 23.7C0.94 24.72 0.95 24.73 1.01 24.83C1.03 24.86 1.07 24.9 1.1 24.92C1.13 24.94 1.16 24.96 1.18 24.97C1.21 24.99 1.55 25 12.49 25C20.11 25 23.78 24.99 23.78 24.98C23.79 24.98 23.81 24.96 23.83 24.95C23.93 24.9 24.01 24.8 24.02 24.68C24.03 24.64 24.03 24.22 24.03 23.68L24.03 22.76L24.06 22.75C24.08 22.74 24.12 22.73 24.16 22.73C24.25 22.73 24.44 22.69 24.51 22.66C24.63 22.6 24.64 22.59 24.71 22.52C24.84 22.41 24.93 22.25 24.95 22.13C24.96 22.1 24.97 22.07 24.98 22.06C25 22.04 25 20.78 24.98 20.77C24.97 20.77 24.96 20.73 24.95 20.7C24.94 20.62 24.86 20.47 24.8 20.39C24.68 20.25 24.47 20.13 24.28 20.11C24.25 20.11 24.21 20.1 24.2 20.09C24.18 20.09 24.18 19.65 24.17 17.34C24.17 15.83 24.16 14.58 24.16 14.57C24.15 14.56 24.14 14.55 24.14 14.55C24.13 14.55 24.13 14.54 24.12 14.53C24.11 14.5 24.04 14.43 23.98 14.39C23.93 14.36 23.91 14.36 23.82 14.36C23.72 14.36 23.67 14.37 23.59 14.43C23.54 14.47 23.49 14.55 23.47 14.61C23.46 14.65 23.45 15.3 23.45 17.37C23.44 19.77 23.44 20.09 23.42 20.1C23.41 20.1 22.44 20.11 20.84 20.11C18.52 20.11 18.27 20.11 18.25 20.09C18.23 20.07 18.23 19.71 18.23 16.24L18.23 12.42L18.26 12.41C18.3 12.39 23.4 12.39 23.42 12.41C23.44 12.42 23.44 12.48 23.45 12.86C23.46 13.33 23.46 13.38 23.51 13.44C23.53 13.46 23.54 13.48 23.54 13.48C23.54 13.5 23.67 13.58 23.73 13.6C23.81 13.62 23.83 13.62 23.92 13.59C24.01 13.56 24.09 13.49 24.14 13.42L24.17 13.36L24.17 12.64L24.17 11.92L24.14 11.86C24.09 11.79 24.01 11.72 23.93 11.69C23.87 11.67 23.84 11.67 23.37 11.67C23.1 11.67 22.87 11.66 22.87 11.66C22.85 11.65 22.85 10.48 22.85 5.97L22.84 0.28L22.81 0.22C22.77 0.14 22.71 0.07 22.64 0.04C22.61 0.03 22.59 0.01 22.59 0.01C22.59 0 19.45 0 12.48 0C5.89 0 2.37 0 2.37 0.01C2.37 0.01 2.35 0.03 2.33 0.04ZM3.85 0.98C3.81 1.03 3.77 1.09 3.76 1.11C3.75 1.13 3.73 1.17 3.7 1.2C3.68 1.22 3.66 1.26 3.65 1.27C3.64 1.29 3.63 1.3 3.63 1.31C3.62 1.31 3.59 1.36 3.55 1.42C3.51 1.48 3.44 1.58 3.39 1.66C3.1 2.08 3.04 2.18 3.02 2.2C3.02 2.21 2.99 2.24 2.97 2.27C2.95 2.3 2.92 2.34 2.92 2.35C2.91 2.36 2.91 2.37 2.9 2.37C2.87 2.37 2.87 2.34 2.87 1.55C2.87 1.11 2.87 0.75 2.87 0.74C2.89 0.73 3.99 0.73 4 0.74C4 0.76 3.97 0.82 3.85 0.98ZM8.29 0.93C8.25 0.99 8.2 1.06 8.18 1.1C8.15 1.13 8.13 1.16 8.13 1.17C8.13 1.17 8.11 1.19 8.1 1.21C8.09 1.23 8.05 1.28 8.02 1.32C7.99 1.36 7.96 1.41 7.94 1.44C7.87 1.53 7.79 1.65 7.74 1.72C7.71 1.77 7.66 1.84 7.62 1.89C7.59 1.93 7.54 2.01 7.5 2.06C7.44 2.15 7.42 2.19 7.33 2.31C7.31 2.33 7.27 2.39 7.24 2.43C7.2 2.5 7.17 2.54 7.08 2.66C7.06 2.69 7.03 2.74 7.01 2.77C6.98 2.8 6.95 2.84 6.94 2.85C6.91 2.87 6.91 2.87 6.89 2.85C6.88 2.83 6.84 2.78 6.81 2.73C6.8 2.72 6.78 2.69 6.76 2.66C6.73 2.62 6.68 2.55 6.64 2.49C6.6 2.44 6.55 2.36 6.52 2.32C6.49 2.27 6.44 2.2 6.4 2.14C6.36 2.09 6.3 2 6.26 1.95C6.23 1.9 6.17 1.82 6.14 1.77C6.1 1.72 6.04 1.64 6 1.58C5.96 1.52 5.89 1.42 5.85 1.37C5.82 1.31 5.76 1.23 5.73 1.19C5.7 1.15 5.65 1.07 5.61 1.01C5.47 0.82 5.42 0.75 5.43 0.74C5.44 0.73 8.4 0.74 8.41 0.75C8.41 0.76 8.4 0.79 8.29 0.93ZM12.79 0.82C12.76 0.87 12.71 0.94 12.67 0.99C12.64 1.03 12.59 1.1 12.57 1.14C12.54 1.19 12.48 1.26 12.44 1.32C12.4 1.37 12.35 1.45 12.33 1.48C12.28 1.55 12.28 1.55 12.24 1.61C12.22 1.63 12.19 1.67 12.17 1.71C12.15 1.74 12.11 1.79 12.09 1.82C12.03 1.9 11.95 2.03 11.89 2.11C11.86 2.16 11.8 2.24 11.76 2.29C11.72 2.35 11.67 2.43 11.64 2.47C11.61 2.51 11.55 2.59 11.52 2.64C11.48 2.7 11.43 2.77 11.4 2.81C11.38 2.84 11.36 2.87 11.35 2.87C11.34 2.88 11.29 2.83 11.23 2.73C11.2 2.69 11.15 2.62 11.12 2.58C11.1 2.55 11.05 2.48 11.02 2.44C11 2.4 10.97 2.35 10.96 2.35C10.95 2.34 10.93 2.3 10.9 2.27C10.88 2.23 10.83 2.16 10.79 2.1C10.75 2.05 10.7 1.97 10.67 1.93C10.64 1.89 10.58 1.81 10.54 1.75C10.51 1.7 10.45 1.61 10.41 1.56C10.37 1.51 10.32 1.43 10.29 1.38C10.26 1.34 10.2 1.26 10.16 1.2C10.12 1.15 10.08 1.09 10.07 1.07C10.06 1.06 10.04 1.03 10.03 1.02C10.02 1.01 10 0.97 9.97 0.94C9.87 0.79 9.85 0.76 9.86 0.75C9.87 0.73 12.82 0.73 12.83 0.74C12.84 0.74 12.81 0.78 12.79 0.82ZM17.21 0.82C17.21 0.82 17.19 0.84 17.17 0.88C17.14 0.91 17.11 0.95 17.1 0.97C17.06 1.02 17.06 1.02 17.01 1.1C16.99 1.13 16.94 1.2 16.91 1.24C16.88 1.29 16.82 1.37 16.79 1.42C16.75 1.47 16.7 1.54 16.67 1.58C16.65 1.61 16.6 1.68 16.57 1.72C16.55 1.76 16.49 1.84 16.45 1.89C16.41 1.95 16.36 2.03 16.33 2.07C16.3 2.11 16.24 2.19 16.2 2.25C16.17 2.3 16.11 2.37 16.09 2.41C16.07 2.44 16.04 2.48 16.04 2.48C16.03 2.48 16.01 2.52 15.98 2.55C15.83 2.78 15.8 2.82 15.77 2.83C15.74 2.85 15.74 2.85 15.71 2.8C15.7 2.78 15.67 2.74 15.64 2.7C15.62 2.67 15.57 2.6 15.53 2.54C15.49 2.49 15.44 2.41 15.41 2.37C15.37 2.32 15.33 2.26 15.31 2.22C15.26 2.15 15.26 2.15 15.22 2.1C15.2 2.08 15.17 2.03 15.15 2C15.12 1.96 15.08 1.91 15.06 1.87C15.03 1.84 14.98 1.76 14.94 1.71C14.91 1.66 14.85 1.58 14.82 1.54C14.79 1.49 14.74 1.42 14.72 1.39C14.67 1.32 14.67 1.32 14.63 1.27C14.62 1.25 14.58 1.2 14.56 1.17C14.52 1.11 14.5 1.07 14.41 0.95C14.39 0.93 14.37 0.89 14.36 0.87C14.34 0.86 14.32 0.82 14.3 0.8C14.28 0.78 14.27 0.75 14.28 0.75C14.29 0.73 17.23 0.73 17.24 0.74C17.25 0.76 17.23 0.82 17.21 0.82ZM21.48 1.06C21.44 1.12 21.36 1.23 21.31 1.31C21.21 1.46 21.14 1.56 21.04 1.7C20.92 1.87 20.87 1.95 20.77 2.09C20.67 2.25 20.6 2.35 20.5 2.49C20.43 2.59 20.28 2.8 20.26 2.84C20.25 2.86 20.23 2.88 20.21 2.88C20.18 2.89 20.18 2.89 20.09 2.76C20.06 2.72 20.01 2.64 19.97 2.59C19.93 2.53 19.87 2.44 19.83 2.39C19.8 2.34 19.74 2.26 19.71 2.22C19.68 2.17 19.62 2.09 19.58 2.03C19.55 1.98 19.5 1.92 19.49 1.9C19.45 1.84 19.45 1.84 19.4 1.78C19.38 1.74 19.33 1.67 19.3 1.63C19.27 1.58 19.21 1.51 19.18 1.45C19.14 1.4 19.08 1.32 19.04 1.26C19 1.21 18.94 1.11 18.9 1.06C18.8 0.91 18.78 0.88 18.77 0.87C18.75 0.85 18.69 0.75 18.7 0.74C18.7 0.73 21.67 0.73 21.68 0.74C21.69 0.75 21.64 0.83 21.48 1.06ZM13.74 1.28C13.77 1.32 13.82 1.39 13.86 1.44C13.89 1.49 13.95 1.58 13.98 1.62C14.02 1.67 14.08 1.75 14.11 1.81C14.18 1.91 14.27 2.03 14.33 2.12C14.43 2.25 14.52 2.38 14.57 2.46C14.6 2.5 14.65 2.58 14.69 2.63C14.73 2.68 14.78 2.76 14.81 2.8C14.84 2.84 14.86 2.87 14.87 2.88C14.87 2.88 14.89 2.91 14.91 2.94C14.93 2.97 14.96 3 14.97 3.02C14.99 3.04 15 3.06 15.01 3.07C15.04 3.12 15.09 3.2 15.09 3.21C15.09 3.22 15.08 3.23 15.07 3.24C15.06 3.25 14.65 3.25 13.54 3.25C12.13 3.25 12.03 3.25 12.02 3.23C12.02 3.22 12.03 3.19 12.05 3.17C12.08 3.11 12.17 2.99 12.25 2.87C12.29 2.81 12.35 2.74 12.37 2.7C12.42 2.63 12.42 2.63 12.46 2.58C12.47 2.56 12.5 2.52 12.53 2.48C12.55 2.44 12.59 2.39 12.6 2.37C12.67 2.28 12.75 2.16 12.81 2.08C12.84 2.03 12.89 1.96 12.91 1.93C12.94 1.89 12.99 1.82 13.02 1.77C13.06 1.71 13.1 1.66 13.1 1.65C13.11 1.65 13.14 1.61 13.16 1.58C13.18 1.54 13.23 1.47 13.27 1.41C13.31 1.36 13.36 1.28 13.39 1.25C13.41 1.21 13.46 1.15 13.49 1.1C13.55 1.03 13.55 1.03 13.57 1.05C13.58 1.06 13.62 1.1 13.64 1.14C13.67 1.19 13.72 1.25 13.74 1.28ZM4.89 1.26C4.91 1.3 4.95 1.36 4.97 1.39C5 1.42 5.03 1.47 5.05 1.5C5.16 1.65 5.2 1.72 5.27 1.81C5.31 1.87 5.36 1.95 5.39 1.99C5.42 2.03 5.46 2.09 5.49 2.12C5.51 2.15 5.54 2.2 5.56 2.22C5.57 2.24 5.6 2.28 5.62 2.31C5.64 2.34 5.68 2.39 5.71 2.44C5.74 2.48 5.78 2.54 5.8 2.57C5.82 2.6 5.85 2.63 5.86 2.65C5.86 2.66 5.9 2.71 5.93 2.75C5.95 2.79 6.01 2.87 6.05 2.92C6.08 2.98 6.12 3.03 6.13 3.04C6.14 3.05 6.15 3.06 6.15 3.07C6.15 3.07 6.17 3.1 6.2 3.14C6.23 3.18 6.24 3.2 6.24 3.22L6.23 3.25L4.73 3.25L3.24 3.25L3.23 3.22C3.23 3.2 3.25 3.17 3.41 2.93C3.51 2.79 3.71 2.5 3.97 2.1C4.03 2.02 4.12 1.89 4.17 1.81C4.23 1.73 4.3 1.62 4.34 1.57C4.38 1.51 4.41 1.46 4.42 1.45C4.43 1.44 4.48 1.37 4.6 1.18C4.66 1.1 4.7 1.04 4.71 1.04C4.71 1.04 4.73 1.05 4.74 1.07C4.78 1.11 4.82 1.16 4.89 1.26ZM9.2 1.11C9.21 1.12 9.25 1.18 9.28 1.23C9.32 1.28 9.37 1.35 9.39 1.39C9.42 1.42 9.47 1.49 9.5 1.54C9.53 1.58 9.58 1.66 9.62 1.71C9.65 1.75 9.71 1.84 9.75 1.89C9.79 1.95 9.83 2.01 9.85 2.04C9.87 2.07 9.88 2.09 9.89 2.09C9.89 2.1 9.91 2.13 9.94 2.16C9.96 2.2 10.01 2.27 10.05 2.33C10.09 2.38 10.14 2.46 10.16 2.49C10.19 2.53 10.22 2.57 10.23 2.59C10.25 2.6 10.26 2.63 10.27 2.64C10.28 2.65 10.3 2.69 10.33 2.72C10.35 2.75 10.39 2.81 10.42 2.85C10.45 2.9 10.49 2.96 10.51 2.99C10.54 3.02 10.56 3.06 10.57 3.07C10.58 3.08 10.6 3.11 10.61 3.13C10.65 3.17 10.67 3.23 10.65 3.24C10.64 3.25 9.98 3.25 9.13 3.25L7.62 3.25L7.62 3.22C7.61 3.2 7.62 3.17 7.65 3.14C7.67 3.11 7.71 3.05 7.74 3.01C7.77 2.97 7.82 2.89 7.86 2.83C7.9 2.78 7.96 2.69 8 2.64C8.03 2.59 8.09 2.51 8.12 2.46C8.15 2.42 8.2 2.35 8.22 2.32C8.24 2.28 8.27 2.25 8.28 2.24C8.28 2.23 8.31 2.19 8.34 2.15C8.37 2.1 8.41 2.04 8.44 2C8.5 1.92 8.58 1.8 8.66 1.69C8.69 1.64 8.75 1.56 8.79 1.51C8.83 1.45 8.88 1.37 8.91 1.33C9.07 1.1 9.09 1.07 9.12 1.05C9.15 1.03 9.16 1.03 9.17 1.06C9.17 1.07 9.18 1.09 9.2 1.11ZM18.21 1.35C18.25 1.41 18.3 1.49 18.33 1.53C18.36 1.57 18.42 1.65 18.46 1.71C18.49 1.76 18.55 1.84 18.58 1.88C18.61 1.92 18.66 2 18.7 2.06C18.74 2.11 18.79 2.18 18.8 2.2C18.82 2.22 18.85 2.27 18.87 2.3C18.89 2.33 18.94 2.39 18.96 2.43C18.99 2.47 19.03 2.53 19.05 2.56C19.13 2.67 19.16 2.71 19.23 2.82C19.28 2.88 19.33 2.96 19.36 3C19.49 3.18 19.52 3.23 19.49 3.25C19.46 3.26 16.46 3.25 16.44 3.24C16.42 3.23 16.45 3.16 16.5 3.1C16.52 3.07 16.56 3.02 16.59 2.98C16.73 2.78 16.77 2.71 16.81 2.66C16.84 2.62 16.88 2.56 16.9 2.53C16.93 2.49 16.96 2.45 16.97 2.43C16.99 2.42 17 2.39 17.01 2.38C17.04 2.33 17.1 2.25 17.16 2.16C17.19 2.12 17.25 2.03 17.29 1.98C17.32 1.93 17.37 1.86 17.4 1.82C17.43 1.79 17.47 1.72 17.5 1.68C17.53 1.64 17.59 1.56 17.62 1.51C17.66 1.45 17.72 1.37 17.75 1.33C17.78 1.29 17.82 1.22 17.85 1.18C17.88 1.15 17.91 1.1 17.92 1.09C17.93 1.07 17.96 1.04 17.99 1.04C17.99 1.04 18.03 1.09 18.07 1.15C18.11 1.21 18.17 1.3 18.21 1.35ZM22.11 2.36C22.11 3.02 22.11 3.22 22.1 3.23C22.08 3.25 22.04 3.25 21.5 3.25L20.91 3.25L20.91 3.22C20.9 3.2 20.96 3.11 21.1 2.91C21.16 2.83 21.24 2.71 21.36 2.54C21.55 2.25 21.58 2.22 21.6 2.19C21.61 2.18 21.63 2.15 21.64 2.13C21.65 2.11 21.69 2.05 21.73 2C21.76 1.94 21.84 1.84 21.89 1.77C21.94 1.69 22 1.61 22.02 1.57C22.04 1.54 22.07 1.51 22.07 1.5C22.08 1.47 22.1 1.46 22.1 1.49C22.11 1.5 22.11 1.89 22.11 2.36ZM5.37 4.52C5.37 5.06 5.38 5.05 5.3 5C5.29 4.99 5.27 4.98 5.26 4.98C5.25 4.98 5.24 4.97 5.23 4.95C5.22 4.94 5.2 4.93 5.2 4.93C5.19 4.93 5.17 4.92 5.15 4.91C5.13 4.89 4.84 4.7 4.78 4.66C4.75 4.65 4.48 4.46 4.34 4.37C4.22 4.3 4.21 4.29 4.16 4.26C4.14 4.25 4.06 4.19 3.98 4.14C3.89 4.08 3.82 4.04 3.81 4.04C3.81 4.03 3.8 4.02 3.81 4.01C3.81 3.99 3.87 3.99 4.59 3.99C5.28 3.99 5.36 3.99 5.37 4.01C5.37 4.02 5.37 4.25 5.37 4.52ZM7.02 4.92C7.01 4.92 6.99 4.93 6.98 4.94C6.96 4.95 6.92 4.99 6.87 5.02C6.83 5.05 6.78 5.1 6.76 5.12C6.73 5.15 6.71 5.17 6.71 5.18C6.68 5.21 6.59 5.33 6.57 5.37C6.47 5.6 6.45 5.7 6.45 5.91C6.45 6.08 6.48 6.24 6.52 6.29C6.53 6.31 6.54 6.33 6.54 6.34C6.54 6.35 6.56 6.41 6.6 6.48C6.63 6.54 6.68 6.63 6.7 6.68C6.72 6.72 6.75 6.77 6.76 6.78C6.79 6.82 6.79 6.84 6.76 6.88C6.67 7.01 6.63 7.09 6.56 7.26C6.5 7.4 6.49 7.44 6.49 7.46C6.49 7.48 6.48 7.52 6.47 7.56C6.45 7.6 6.44 7.68 6.44 7.74C6.43 7.8 6.42 7.89 6.42 7.93C6.4 8.04 6.44 8.39 6.49 8.52C6.51 8.58 6.53 8.65 6.54 8.68C6.56 8.76 6.59 8.84 6.61 8.86C6.62 8.88 6.67 8.99 6.82 9.28C6.93 9.48 7 9.56 7.15 9.63C7.27 9.69 7.31 9.7 7.43 9.71C7.57 9.72 7.64 9.69 8.01 9.49C8.06 9.47 8.14 9.42 8.19 9.39C8.25 9.37 8.33 9.32 8.38 9.29C8.43 9.27 8.51 9.22 8.56 9.2C8.74 9.11 8.76 9.1 8.77 9.06C8.79 9.03 8.8 9.02 8.81 9.04C8.82 9.06 8.86 9.04 8.86 9.02C8.86 9 8.86 9 8.89 9C8.92 9.01 8.93 9.01 8.93 8.98C8.94 8.96 8.95 8.96 8.97 8.96C8.99 8.97 9 8.96 9.01 8.95C9.01 8.93 9.02 8.93 9.03 8.93C9.05 8.93 9.07 8.92 9.09 8.91C9.1 8.89 9.13 8.88 9.14 8.88C9.16 8.88 9.17 8.87 9.18 8.86C9.18 8.85 9.2 8.84 9.23 8.83C9.26 8.82 9.29 8.81 9.3 8.8C9.31 8.79 9.35 8.77 9.39 8.75C9.44 8.73 9.51 8.69 9.56 8.66C9.62 8.64 9.7 8.59 9.75 8.56C9.8 8.54 9.89 8.49 9.94 8.46C9.99 8.44 10.07 8.39 10.12 8.37C10.21 8.32 10.35 8.24 10.48 8.18C10.63 8.09 10.71 8.02 10.81 7.9C10.82 7.87 10.84 7.85 10.84 7.84C10.84 7.83 10.85 7.8 10.86 7.78C10.88 7.73 10.89 7.71 10.89 7.57C10.89 7.44 10.88 7.41 10.86 7.37C10.85 7.33 10.84 7.31 10.84 7.3C10.84 7.29 10.84 7.29 10.74 7.12C10.59 6.83 10.6 6.84 10.51 6.7C10.42 6.57 10.31 6.43 10.23 6.35C10.19 6.32 10.16 6.29 10.15 6.28C10.13 6.26 10 6.16 9.95 6.13C9.94 6.12 9.91 6.1 9.88 6.08C9.79 6.02 9.54 5.9 9.5 5.9C9.49 5.9 9.47 5.89 9.45 5.88C9.38 5.85 9.18 5.81 9.01 5.8C8.78 5.78 8.76 5.77 8.72 5.69C8.68 5.62 8.52 5.33 8.49 5.29C8.48 5.27 8.46 5.25 8.45 5.23C8.4 5.14 8.23 4.99 8.12 4.93C8.02 4.88 7.89 4.82 7.85 4.82C7.85 4.82 7.82 4.81 7.8 4.79L7.77 4.76L7.77 4.39C7.77 4.12 7.77 4.02 7.78 4.01C7.8 3.99 17.17 3.99 17.19 4.01C17.2 4.02 17.2 4.12 17.2 4.39C17.2 4.74 17.2 4.76 17.18 4.79C17.16 4.81 17.14 4.82 17.11 4.83C17.06 4.84 17.04 4.84 16.95 4.88C16.94 4.89 16.9 4.91 16.88 4.92C16.85 4.94 16.82 4.96 16.79 4.97C16.74 4.99 16.53 5.21 16.5 5.26C16.49 5.28 16.47 5.32 16.45 5.34C16.43 5.36 16.41 5.4 16.4 5.42C16.39 5.44 16.38 5.47 16.37 5.48C16.36 5.49 16.35 5.51 16.34 5.53C16.29 5.65 16.23 5.74 16.2 5.76C16.18 5.78 16.13 5.79 15.99 5.79C15.81 5.81 15.59 5.85 15.52 5.89C15.5 5.89 15.48 5.9 15.47 5.9C15.43 5.9 15.07 6.08 15.03 6.12C15.03 6.13 15 6.15 14.96 6.18C14.9 6.22 14.68 6.42 14.6 6.51C14.56 6.57 14.43 6.75 14.39 6.83C14.35 6.9 14.27 7.05 14.23 7.13C14.16 7.26 14.15 7.28 14.13 7.31C14.11 7.35 14.07 7.58 14.08 7.59C14.08 7.59 14.09 7.63 14.09 7.68C14.11 7.79 14.16 7.88 14.23 7.97C14.26 8.01 14.29 8.05 14.29 8.05C14.3 8.05 14.33 8.07 14.36 8.09C14.39 8.12 14.44 8.15 14.46 8.16C14.52 8.19 14.78 8.33 14.99 8.44C15.02 8.46 15.09 8.49 15.14 8.52C15.19 8.54 15.27 8.59 15.32 8.62C15.37 8.64 15.45 8.69 15.5 8.71C15.54 8.73 15.62 8.78 15.67 8.8C15.72 8.83 15.81 8.88 15.86 8.9C15.91 8.93 15.98 8.96 16.01 8.98C16.03 9 16.11 9.04 16.18 9.08C16.25 9.11 16.33 9.16 16.36 9.17C16.4 9.19 16.46 9.22 16.5 9.25C16.6 9.3 16.75 9.38 16.84 9.43C16.98 9.5 17 9.51 17.02 9.52C17.04 9.53 17.06 9.54 17.07 9.55C17.14 9.59 17.35 9.68 17.42 9.7C17.51 9.72 17.66 9.71 17.73 9.68C17.88 9.61 17.92 9.59 18.01 9.5C18.04 9.47 18.1 9.38 18.12 9.34C18.12 9.33 18.15 9.27 18.18 9.21C18.29 9.02 18.41 8.78 18.41 8.76C18.41 8.75 18.41 8.73 18.42 8.71C18.45 8.66 18.48 8.57 18.5 8.49C18.51 8.46 18.52 8.41 18.53 8.39C18.57 8.28 18.57 7.75 18.52 7.62C18.51 7.58 18.5 7.54 18.5 7.52C18.5 7.49 18.44 7.31 18.42 7.28C18.41 7.27 18.41 7.25 18.41 7.24C18.41 7.22 18.3 6.99 18.27 6.97C18.26 6.96 18.26 6.95 18.26 6.94C18.26 6.94 18.25 6.92 18.23 6.9C18.2 6.87 18.2 6.8 18.23 6.76C18.27 6.7 18.45 6.33 18.45 6.31C18.45 6.31 18.46 6.28 18.47 6.26C18.5 6.21 18.53 6.02 18.53 5.9C18.53 5.78 18.5 5.58 18.47 5.53C18.45 5.49 18.4 5.37 18.4 5.36C18.4 5.33 18.19 5.08 18.14 5.05C18.06 4.99 17.95 4.91 17.95 4.89C17.94 4.88 17.94 4.68 17.94 4.44C17.94 4.1 17.94 4.02 17.96 4C17.97 4 18.1 3.99 18.41 3.99L18.85 4L18.85 7.82C18.85 10.88 18.85 11.65 18.84 11.66C18.83 11.66 18.6 11.67 18.32 11.67C17.84 11.67 17.81 11.67 17.75 11.69C17.69 11.71 17.59 11.78 17.59 11.8C17.59 11.8 17.57 11.82 17.56 11.84C17.54 11.86 17.52 11.9 17.52 11.94C17.5 11.99 17.5 12.81 17.49 16.04C17.49 18.26 17.48 20.09 17.48 20.09C17.47 20.1 17.15 20.1 16.76 20.11L16.05 20.11L15.99 20.15C15.96 20.17 15.92 20.19 15.91 20.2C15.86 20.24 15.82 20.32 15.8 20.4C15.79 20.47 15.79 20.48 15.8 20.55C15.84 20.68 15.91 20.76 16.05 20.82C16.1 20.84 16.13 20.84 20.16 20.84L24.21 20.85L24.23 20.87C24.25 20.89 24.25 20.92 24.25 21.42L24.25 21.94L24.22 21.97L24.19 21.99L12.49 21.99C1.75 21.99 0.79 21.99 0.76 21.98L0.73 21.96L0.73 21.41C0.73 20.99 0.74 20.87 0.75 20.86C0.76 20.86 3.9 20.85 7.74 20.85L14.72 20.84L14.79 20.81C14.9 20.77 14.96 20.72 15.01 20.62C15.03 20.58 15.04 20.55 15.04 20.46C15.04 20.37 15.03 20.35 15.01 20.32C15 20.3 14.99 20.28 14.99 20.27C14.99 20.26 14.89 20.17 14.84 20.14L14.79 20.11L11.12 20.11C9.1 20.1 7.45 20.1 7.44 20.09C7.44 20.09 7.43 18.25 7.43 16C7.42 11.95 7.42 11.92 7.4 11.89C7.38 11.87 7.37 11.84 7.36 11.83C7.34 11.79 7.23 11.71 7.17 11.69C7.12 11.67 7.02 11.67 6.64 11.67C6.37 11.67 6.16 11.66 6.14 11.66L6.11 11.65L6.11 7.83C6.11 4.88 6.12 4.02 6.13 4.01C6.15 3.98 7.01 3.99 7.03 4.01C7.04 4.03 7.04 4.9 7.02 4.92ZM21.15 4.04C21.13 4.05 21.07 4.09 21.02 4.13C20.97 4.16 20.92 4.19 20.92 4.19C20.91 4.19 20.9 4.2 20.89 4.21C20.88 4.23 20.86 4.24 20.84 4.25C20.83 4.25 20.8 4.26 20.79 4.28C20.77 4.29 20.71 4.33 20.64 4.37C20.58 4.41 20.52 4.45 20.51 4.46C20.32 4.58 20.13 4.71 20.01 4.79C19.93 4.84 19.86 4.88 19.85 4.88C19.85 4.88 19.83 4.89 19.82 4.91C19.81 4.92 19.79 4.93 19.79 4.93C19.78 4.93 19.72 4.97 19.68 5C19.66 5.02 19.65 5.02 19.62 5.01L19.59 5L19.59 4.51C19.59 4.09 19.59 4.03 19.61 4.01C19.63 3.99 19.71 3.99 20.39 3.99C21.05 3.99 21.16 3.99 21.17 4.01C21.18 4.02 21.18 4.03 21.15 4.04ZM22.1 7.13C22.09 7.14 22.07 7.14 22.01 7.09C21.96 7.06 21.91 7.03 21.9 7.02C21.88 7.01 21.69 6.88 21.64 6.85C21.62 6.84 21.6 6.83 21.6 6.83C21.59 6.83 21.58 6.82 21.57 6.8C21.56 6.79 21.54 6.78 21.54 6.78C21.53 6.78 21.5 6.76 21.46 6.74C21.4 6.69 21.18 6.55 20.78 6.29C20.69 6.23 20.61 6.18 20.6 6.17C20.57 6.16 20.29 5.97 20.1 5.84L19.93 5.73L19.96 5.7C19.97 5.68 19.99 5.67 20 5.66C20.01 5.66 20.09 5.61 20.17 5.56C20.25 5.5 20.34 5.44 20.38 5.42C20.42 5.39 20.49 5.35 20.54 5.31C20.59 5.28 20.64 5.25 20.65 5.25C20.66 5.24 20.74 5.19 20.82 5.13C20.98 5.03 21.15 4.92 21.23 4.87C21.27 4.84 21.35 4.79 21.69 4.57C21.76 4.52 21.87 4.45 21.93 4.41C21.99 4.37 22.04 4.34 22.04 4.34C22.05 4.34 22.06 4.34 22.06 4.33C22.08 4.3 22.1 4.3 22.1 4.33C22.12 4.36 22.11 7.11 22.1 7.13ZM2.98 4.37C2.99 4.38 3 4.39 3.01 4.39C3.01 4.39 3.05 4.41 3.09 4.43C3.12 4.46 3.22 4.52 3.31 4.58C3.39 4.64 3.53 4.73 3.61 4.78C3.7 4.84 3.77 4.88 3.77 4.88C3.78 4.88 3.8 4.89 3.82 4.91C3.83 4.92 3.87 4.95 3.9 4.97C3.96 5.01 3.96 5 4.15 5.13C4.23 5.18 4.37 5.27 4.45 5.33C4.54 5.38 4.63 5.44 4.65 5.45C4.69 5.48 4.78 5.54 4.81 5.56C4.93 5.64 4.98 5.67 4.99 5.67C4.99 5.67 5.01 5.68 5.02 5.7L5.05 5.74L5.01 5.76C4.99 5.77 4.95 5.8 4.92 5.82C4.9 5.83 4.87 5.85 4.86 5.86C4.85 5.87 4.76 5.93 4.66 5.99C4.5 6.1 4.1 6.36 4 6.43C3.97 6.44 3.95 6.46 3.94 6.47C3.93 6.48 3.7 6.63 3.24 6.93C3.11 7.02 2.98 7.1 2.95 7.12C2.9 7.16 2.9 7.16 2.88 7.14C2.86 7.11 2.86 4.36 2.88 4.33C2.9 4.32 2.89 4.32 2.93 4.34C2.95 4.35 2.98 4.36 2.98 4.37ZM7.96 5.83L8.01 5.93L7.99 5.95C7.97 5.97 7.9 6.01 7.83 6.05C7.76 6.09 7.68 6.13 7.65 6.15C7.61 6.16 7.55 6.2 7.51 6.22C7.47 6.24 7.42 6.27 7.41 6.27C7.4 6.28 7.38 6.29 7.37 6.29C7.34 6.3 7.3 6.25 7.23 6.1C7.18 6 7.18 5.98 7.18 5.9C7.18 5.79 7.22 5.7 7.29 5.62C7.4 5.52 7.57 5.48 7.71 5.54C7.82 5.6 7.87 5.65 7.96 5.83ZM17.79 5.82C17.81 5.91 17.81 5.91 17.79 6C17.77 6.05 17.74 6.11 17.73 6.14C17.71 6.17 17.68 6.22 17.67 6.24C17.66 6.28 17.65 6.29 17.62 6.29C17.59 6.29 17.57 6.28 17.57 6.28C17.57 6.27 17.53 6.25 17.48 6.22C17.43 6.2 17.35 6.16 17.29 6.12C17.23 6.09 17.15 6.05 17.1 6.03C17.05 6 17.01 5.97 16.99 5.96L16.97 5.93L16.99 5.88C17 5.86 17.02 5.82 17.03 5.8C17.06 5.74 17.13 5.64 17.16 5.61C17.18 5.6 17.23 5.57 17.27 5.55C17.36 5.5 17.47 5.5 17.56 5.54C17.69 5.6 17.76 5.69 17.79 5.82ZM5.37 7.83C5.37 9.03 5.37 9.21 5.36 9.22C5.34 9.23 5.31 9.22 5.19 9.13C5.11 9.08 4.91 8.95 4.75 8.84C4.59 8.74 4.44 8.64 4.42 8.63C4.4 8.61 4.38 8.6 4.37 8.59C4.35 8.58 4.33 8.57 4.32 8.56C4.31 8.55 4.3 8.54 4.29 8.54C4.28 8.54 4.27 8.53 4.26 8.52C4.25 8.51 4.23 8.5 4.22 8.49C4.2 8.48 4.15 8.45 4.1 8.41C4.04 8.38 3.99 8.34 3.98 8.33C3.97 8.33 3.86 8.26 3.74 8.18C3.63 8.1 3.52 8.03 3.51 8.02C3.5 8.02 3.44 7.98 3.38 7.93C3.22 7.83 3.22 7.84 3.26 7.8C3.27 7.79 3.3 7.77 3.32 7.75C3.35 7.74 3.39 7.72 3.41 7.7C3.44 7.68 3.56 7.6 3.68 7.52C3.8 7.44 4.01 7.3 4.14 7.22C4.27 7.13 4.38 7.06 4.39 7.05C4.42 7.03 4.86 6.74 5.1 6.58C5.23 6.5 5.33 6.43 5.34 6.43C5.34 6.43 5.35 6.44 5.36 6.44C5.37 6.45 5.37 6.78 5.37 7.83ZM19.97 6.64C20.06 6.7 20.14 6.75 20.15 6.75C20.16 6.76 20.18 6.78 20.21 6.79C20.3 6.85 20.56 7.02 20.75 7.15C20.86 7.22 21.01 7.32 21.1 7.38C21.18 7.43 21.28 7.5 21.32 7.52C21.35 7.55 21.39 7.57 21.39 7.57C21.4 7.57 21.41 7.58 21.43 7.59C21.44 7.6 21.45 7.61 21.46 7.61C21.46 7.61 21.49 7.63 21.52 7.65C21.6 7.7 21.63 7.73 21.68 7.75C21.7 7.76 21.73 7.79 21.75 7.8L21.77 7.83L21.73 7.86C21.7 7.88 21.6 7.95 21.49 8.02C21.38 8.09 21.19 8.22 21.07 8.3C20.94 8.38 20.77 8.49 20.69 8.55C20.6 8.6 20.51 8.67 20.47 8.69C20.43 8.72 20.4 8.74 20.39 8.74C20.39 8.74 20.37 8.75 20.36 8.76C20.35 8.77 20.33 8.79 20.33 8.79C20.32 8.79 20.29 8.8 20.27 8.82C20.24 8.84 20.2 8.87 20.19 8.87C20.16 8.89 20.11 8.92 19.88 9.08C19.76 9.16 19.65 9.22 19.63 9.22C19.62 9.22 19.61 9.21 19.6 9.2C19.59 9.18 19.59 6.48 19.6 6.45C19.62 6.42 19.65 6.42 19.73 6.48C19.77 6.51 19.88 6.58 19.97 6.64ZM9.16 6.56C9.18 6.57 9.2 6.58 9.21 6.58C9.24 6.58 9.41 6.65 9.48 6.7C9.57 6.75 9.71 6.87 9.77 6.95C9.8 6.98 9.83 7.01 9.83 7.02C9.85 7.04 9.89 7.1 10.02 7.32C10.07 7.41 10.1 7.48 10.1 7.51C10.1 7.54 10.1 7.55 9.97 7.61C9.9 7.65 9.8 7.7 9.75 7.73C9.7 7.76 9.62 7.8 9.56 7.83C9.51 7.86 9.45 7.89 9.42 7.91C9.37 7.94 9.21 8.02 9.07 8.1C8.95 8.16 8.76 8.26 8.7 8.29C8.67 8.31 8.61 8.34 8.56 8.37C8.34 8.49 8.2 8.56 8.15 8.58C8.12 8.6 8.06 8.63 8.01 8.66C7.95 8.69 7.87 8.74 7.82 8.76C7.77 8.79 7.68 8.84 7.61 8.87C7.55 8.9 7.5 8.93 7.49 8.93C7.47 8.93 7.44 8.89 7.39 8.77C7.36 8.73 7.34 8.68 7.33 8.67C7.33 8.66 7.31 8.62 7.29 8.58C7.27 8.54 7.26 8.5 7.25 8.49C7.22 8.44 7.18 8.29 7.17 8.21C7.12 7.86 7.19 7.56 7.38 7.27C7.44 7.18 7.58 7.04 7.65 7C7.68 6.98 7.7 6.96 7.71 6.96C7.72 6.95 7.88 6.85 7.92 6.83C8.08 6.74 8.24 6.66 8.26 6.65C8.32 6.62 8.47 6.56 8.55 6.55C8.64 6.53 8.83 6.51 8.89 6.52C8.91 6.52 8.98 6.53 9.03 6.54C9.08 6.54 9.14 6.55 9.16 6.56ZM16.63 6.62C16.64 6.62 16.66 6.63 16.67 6.63C16.7 6.64 16.92 6.75 16.95 6.77C16.96 6.78 17.02 6.81 17.08 6.84C17.25 6.94 17.27 6.95 17.37 7.03C17.51 7.14 17.62 7.28 17.69 7.43C17.71 7.48 17.74 7.52 17.74 7.54C17.75 7.55 17.76 7.6 17.78 7.65C17.79 7.7 17.8 7.76 17.81 7.78C17.83 7.85 17.82 8.24 17.8 8.29C17.79 8.31 17.77 8.34 17.77 8.37C17.76 8.42 17.62 8.72 17.53 8.88C17.51 8.92 17.47 8.94 17.44 8.91C17.43 8.9 17.38 8.88 17.33 8.85C17.28 8.83 17.2 8.78 17.15 8.76C17.1 8.73 17.02 8.69 16.97 8.66C16.89 8.62 16.8 8.57 16.6 8.46C16.55 8.43 16.47 8.39 16.42 8.37C16.38 8.34 16.3 8.3 16.25 8.27C16.19 8.25 16.11 8.2 16.06 8.18C16.01 8.15 15.92 8.1 15.87 8.08C15.82 8.05 15.75 8.01 15.72 8C15.66 7.97 15.46 7.85 15.32 7.78C15.27 7.75 15.21 7.72 15.18 7.71C14.99 7.61 14.87 7.54 14.87 7.52C14.87 7.51 14.89 7.46 14.91 7.41C14.94 7.37 14.97 7.3 14.98 7.27C15.01 7.21 15.02 7.21 15.11 7.07C15.14 7.02 15.21 6.93 15.26 6.89C15.37 6.78 15.59 6.63 15.64 6.63C15.65 6.63 15.67 6.62 15.67 6.62C15.68 6.6 15.86 6.55 15.94 6.54C16.04 6.52 16.25 6.52 16.35 6.54C16.44 6.55 16.61 6.6 16.63 6.62ZM3.2 8.7C3.29 8.76 3.38 8.82 3.39 8.83C3.42 8.85 3.58 8.95 3.7 9.03C3.77 9.07 3.83 9.11 3.84 9.12C3.85 9.13 3.88 9.15 3.91 9.17C3.94 9.19 3.98 9.21 4 9.22C4.02 9.24 4.16 9.33 4.32 9.43C4.47 9.54 4.68 9.68 4.78 9.75C4.89 9.81 4.99 9.88 5.01 9.9C5.05 9.92 5.05 9.93 5.03 9.95C5.02 9.96 4.98 9.99 4.94 10.01C4.84 10.08 4.58 10.25 4.5 10.3C4.47 10.32 4.43 10.34 4.43 10.34C4.42 10.34 4.41 10.35 4.4 10.37C4.38 10.38 4.37 10.39 4.36 10.39C4.36 10.39 4.28 10.44 4.2 10.49C3.85 10.72 3.62 10.87 3.59 10.89C3.58 10.89 3.56 10.91 3.55 10.92C3.53 10.93 3.48 10.96 3.43 11C3.34 11.05 3.12 11.19 2.99 11.28C2.86 11.37 2.87 11.53 2.87 9.93C2.87 9.16 2.87 8.53 2.87 8.52C2.88 8.5 2.9 8.5 2.96 8.54C3 8.57 3.1 8.64 3.2 8.7ZM22.09 11.34C22.09 11.34 22.04 11.31 21.98 11.28C21.93 11.24 21.87 11.21 21.87 11.2C21.86 11.19 21.78 11.14 21.69 11.08C21.6 11.03 21.52 10.98 21.52 10.98C21.51 10.98 21.5 10.97 21.48 10.95C21.47 10.94 21.46 10.93 21.45 10.93C21.45 10.93 21.4 10.9 21.34 10.86C21.29 10.82 21.19 10.76 21.12 10.72C21.06 10.68 20.93 10.6 20.85 10.54C20.76 10.48 20.67 10.42 20.65 10.41C20.5 10.31 20.08 10.04 20.07 10.03C20.06 10.02 20.04 10.01 20.02 10C20 9.99 19.97 9.97 19.95 9.96L19.93 9.93L19.95 9.91C19.97 9.9 20.01 9.87 20.05 9.84C20.2 9.75 20.31 9.67 20.33 9.66C20.35 9.65 20.54 9.52 20.59 9.49C20.61 9.47 20.62 9.47 20.63 9.47C20.63 9.47 20.66 9.45 20.69 9.43C20.72 9.41 20.75 9.38 20.76 9.38C20.8 9.35 20.81 9.35 21.48 8.91C21.67 8.78 21.93 8.61 22.02 8.55C22.05 8.54 22.07 8.52 22.07 8.51C22.08 8.5 22.1 8.51 22.11 8.53C22.12 8.58 22.11 11.33 22.09 11.34ZM5.36 11.65C5.35 11.67 5.22 11.67 4.59 11.67C4.1 11.67 3.83 11.66 3.81 11.66L3.78 11.64L3.85 11.6C3.92 11.55 4.06 11.46 4.08 11.45C4.09 11.44 4.11 11.43 4.14 11.41C4.31 11.3 4.45 11.21 4.53 11.15C4.59 11.11 4.64 11.08 4.65 11.08C4.65 11.08 4.67 11.07 4.68 11.06C4.69 11.05 4.7 11.04 4.71 11.04C4.72 11.04 4.88 10.93 5.18 10.73C5.26 10.68 5.33 10.64 5.35 10.64C5.37 10.64 5.37 10.65 5.37 11.14C5.37 11.5 5.37 11.64 5.36 11.65ZM19.85 10.77C19.93 10.82 20.05 10.9 20.13 10.95C20.2 11 20.28 11.05 20.31 11.07C20.39 11.12 20.56 11.23 20.72 11.33C20.8 11.39 20.88 11.44 20.89 11.45C21.06 11.56 21.18 11.64 21.18 11.64C21.19 11.65 21.18 11.66 21.16 11.66C21.11 11.68 19.65 11.67 19.62 11.65L19.59 11.64L19.59 11.15C19.59 10.7 19.59 10.66 19.61 10.65C19.64 10.63 19.65 10.63 19.68 10.66C19.7 10.67 19.78 10.72 19.85 10.77ZM23.29 23.51L23.29 24.25L12.5 24.25C4.53 24.26 1.7 24.25 1.69 24.24C1.67 24.23 1.67 24.1 1.67 23.5L1.67 22.77L1.7 22.75C1.72 22.74 2.76 22.73 12.49 22.73C21.08 22.73 23.26 22.74 23.28 22.75C23.29 22.76 23.3 22.82 23.29 23.51Z" stroke="#000000" stroke-opacity="0" stroke-width="0.133333"/>
	<path id="path" d="M3.91 12.89C3.85 12.89 3.77 12.91 3.73 12.92C3.7 12.93 3.63 12.95 3.59 12.96C3.42 13.01 3.21 13.13 3.09 13.23C3.04 13.28 2.99 13.32 2.98 13.32C2.98 13.32 2.94 13.37 2.89 13.42C2.85 13.47 2.81 13.52 2.8 13.53C2.79 13.54 2.76 13.58 2.72 13.66C2.68 13.72 2.59 13.92 2.58 13.95C2.57 13.98 2.56 14.01 2.56 14.02C2.53 14.08 2.49 14.34 2.49 14.48C2.49 14.62 2.53 14.87 2.56 14.93C2.56 14.94 2.58 14.98 2.58 15C2.59 15.05 2.62 15.12 2.68 15.23C2.7 15.26 2.72 15.29 2.72 15.31C2.74 15.34 2.79 15.42 2.81 15.43C2.81 15.43 2.85 15.48 2.88 15.52C2.96 15.61 3.15 15.78 3.24 15.83C3.42 15.93 3.52 15.98 3.65 16.01C3.68 16.02 3.71 16.03 3.73 16.04C3.74 16.04 3.83 16.06 3.92 16.06C4.12 16.08 4.36 16.06 4.48 16.03C4.66 15.97 4.73 15.95 4.78 15.92C4.81 15.9 4.85 15.88 4.88 15.86C4.96 15.82 5.01 15.79 5.07 15.74C5.1 15.71 5.15 15.67 5.17 15.65C5.2 15.63 5.23 15.6 5.25 15.58C5.26 15.56 5.28 15.54 5.29 15.53C5.34 15.47 5.41 15.38 5.46 15.29C5.49 15.24 5.52 15.19 5.52 15.19C5.52 15.19 5.53 15.17 5.54 15.15C5.55 15.14 5.56 15.11 5.56 15.1C5.56 15.09 5.57 15.07 5.58 15.05C5.59 15.03 5.6 14.99 5.61 14.96C5.62 14.93 5.63 14.89 5.64 14.87C5.66 14.83 5.68 14.6 5.68 14.48C5.68 14.37 5.66 14.12 5.64 14.09C5.63 14.08 5.62 14.04 5.61 14.01C5.59 13.93 5.56 13.83 5.54 13.81C5.54 13.8 5.52 13.78 5.51 13.75C5.44 13.61 5.38 13.53 5.22 13.35C5.18 13.3 4.97 13.14 4.94 13.12C4.92 13.12 4.89 13.1 4.86 13.08C4.78 13.03 4.7 12.99 4.64 12.98C4.61 12.97 4.55 12.95 4.5 12.93C4.46 12.92 4.4 12.91 4.37 12.9C4.28 12.88 4.03 12.88 3.91 12.89ZM4.32 13.64C4.34 13.65 4.36 13.66 4.37 13.66C4.42 13.66 4.56 13.74 4.65 13.81C4.7 13.86 4.84 14.02 4.84 14.04C4.84 14.05 4.84 14.06 4.85 14.07C4.88 14.1 4.92 14.23 4.94 14.35C4.96 14.47 4.96 14.48 4.94 14.6C4.92 14.73 4.88 14.85 4.85 14.88C4.84 14.89 4.84 14.9 4.84 14.91C4.84 14.94 4.7 15.1 4.63 15.15C4.57 15.2 4.44 15.28 4.41 15.28C4.41 15.28 4.38 15.29 4.35 15.3C4.3 15.33 4.27 15.33 4.1 15.33C3.91 15.33 3.9 15.33 3.81 15.3C3.76 15.28 3.71 15.26 3.7 15.25C3.69 15.24 3.67 15.23 3.67 15.23C3.64 15.23 3.48 15.1 3.43 15.03C3.36 14.96 3.28 14.81 3.27 14.76C3.27 14.74 3.26 14.7 3.25 14.68C3.22 14.62 3.21 14.45 3.23 14.37C3.29 14.01 3.51 13.75 3.84 13.65C3.89 13.64 3.93 13.62 3.94 13.62C3.95 13.62 4.02 13.62 4.11 13.62C4.24 13.62 4.29 13.63 4.32 13.64Z" fill="url(#paint_linear_319_20479_0)" fill-opacity="1.000000" fill-rule="nonzero"/>
	<path id="path" d="M3.73 12.92C3.7 12.93 3.63 12.95 3.59 12.96C3.42 13.01 3.21 13.13 3.09 13.23C3.04 13.28 2.99 13.32 2.98 13.32C2.98 13.32 2.94 13.37 2.89 13.42C2.85 13.47 2.81 13.52 2.8 13.53C2.79 13.54 2.76 13.58 2.72 13.66C2.68 13.72 2.59 13.92 2.58 13.95C2.57 13.98 2.56 14.01 2.56 14.02C2.53 14.08 2.49 14.34 2.49 14.48C2.49 14.62 2.53 14.87 2.56 14.93C2.56 14.94 2.58 14.98 2.58 15C2.59 15.05 2.62 15.12 2.68 15.23C2.7 15.26 2.72 15.29 2.72 15.31C2.74 15.34 2.79 15.42 2.81 15.43C2.81 15.43 2.85 15.48 2.88 15.52C2.96 15.61 3.15 15.78 3.24 15.83C3.42 15.93 3.52 15.98 3.65 16.01C3.68 16.02 3.71 16.03 3.73 16.04C3.74 16.04 3.83 16.06 3.92 16.06C4.12 16.08 4.36 16.06 4.48 16.03C4.66 15.97 4.73 15.95 4.78 15.92C4.81 15.9 4.85 15.88 4.88 15.86C4.96 15.82 5.01 15.79 5.07 15.74C5.1 15.71 5.15 15.67 5.17 15.65C5.2 15.63 5.23 15.6 5.25 15.58C5.26 15.56 5.28 15.54 5.29 15.53C5.34 15.47 5.41 15.38 5.46 15.29C5.49 15.24 5.52 15.19 5.52 15.19C5.52 15.19 5.53 15.17 5.54 15.15C5.55 15.14 5.56 15.11 5.56 15.1C5.56 15.09 5.57 15.07 5.58 15.05C5.59 15.03 5.6 14.99 5.61 14.96C5.62 14.93 5.63 14.89 5.64 14.87C5.66 14.83 5.68 14.6 5.68 14.48C5.68 14.37 5.66 14.12 5.64 14.09C5.63 14.08 5.62 14.04 5.61 14.01C5.59 13.93 5.56 13.83 5.54 13.81C5.54 13.8 5.52 13.78 5.51 13.75C5.44 13.61 5.38 13.53 5.22 13.35C5.18 13.3 4.97 13.14 4.94 13.12C4.92 13.12 4.89 13.1 4.86 13.08C4.78 13.03 4.7 12.99 4.64 12.98C4.61 12.97 4.55 12.95 4.5 12.93C4.46 12.92 4.4 12.91 4.37 12.9C4.28 12.88 4.03 12.88 3.91 12.89C3.85 12.89 3.77 12.91 3.73 12.92ZM4.37 13.66C4.42 13.66 4.56 13.74 4.65 13.81C4.7 13.86 4.84 14.02 4.84 14.04C4.84 14.05 4.84 14.06 4.85 14.07C4.88 14.1 4.92 14.23 4.94 14.35C4.96 14.47 4.96 14.48 4.94 14.6C4.92 14.73 4.88 14.85 4.85 14.88C4.84 14.89 4.84 14.9 4.84 14.91C4.84 14.94 4.7 15.1 4.63 15.15C4.57 15.2 4.44 15.28 4.41 15.28C4.41 15.28 4.38 15.29 4.35 15.3C4.3 15.33 4.27 15.33 4.1 15.33C3.91 15.33 3.9 15.33 3.81 15.3C3.76 15.28 3.71 15.26 3.7 15.25C3.69 15.24 3.67 15.23 3.67 15.23C3.64 15.23 3.48 15.1 3.43 15.03C3.36 14.96 3.28 14.81 3.27 14.76C3.27 14.74 3.26 14.7 3.25 14.68C3.22 14.62 3.21 14.45 3.23 14.37C3.29 14.01 3.51 13.75 3.84 13.65C3.89 13.64 3.93 13.62 3.94 13.62C3.95 13.62 4.02 13.62 4.11 13.62C4.24 13.62 4.29 13.63 4.32 13.64C4.34 13.65 4.36 13.66 4.37 13.66Z" stroke="#000000" stroke-opacity="0" stroke-width="0.133333"/>
	<path id="path" d="M20.66 12.89C20.55 12.9 20.49 12.91 20.37 12.95C20.34 12.96 20.3 12.98 20.28 12.98C20.21 13 19.95 13.13 19.9 13.18C19.88 13.2 19.83 13.24 19.79 13.27C19.67 13.38 19.52 13.56 19.47 13.65C19.36 13.87 19.34 13.92 19.33 13.96C19.32 13.98 19.31 14.02 19.31 14.04C19.28 14.08 19.24 14.35 19.24 14.48C19.24 14.6 19.28 14.87 19.31 14.92C19.31 14.93 19.33 14.97 19.33 14.99C19.34 15.03 19.4 15.18 19.47 15.31C19.5 15.36 19.71 15.61 19.74 15.63C19.75 15.64 19.78 15.66 19.79 15.68C19.95 15.82 20.23 15.98 20.4 16.01C20.42 16.02 20.45 16.03 20.47 16.03C20.52 16.06 20.82 16.08 21.01 16.06C21.1 16.06 21.19 16.04 21.21 16.03C21.23 16.03 21.26 16.02 21.28 16.01C21.39 15.99 21.69 15.85 21.78 15.77C21.85 15.72 21.94 15.64 21.97 15.61C22.03 15.56 22.21 15.33 22.21 15.31C22.21 15.3 22.23 15.26 22.26 15.21C22.28 15.16 22.32 15.08 22.33 15.04C22.35 14.99 22.37 14.93 22.38 14.9C22.39 14.87 22.41 14.79 22.42 14.73C22.42 14.67 22.43 14.58 22.44 14.54C22.45 14.47 22.45 14.44 22.41 14.17C22.4 14.13 22.39 14.06 22.38 14.03C22.3 13.83 22.32 13.85 22.24 13.7C22.15 13.54 22.03 13.39 21.88 13.27C21.85 13.24 21.81 13.21 21.81 13.2C21.77 13.16 21.45 12.98 21.4 12.98C21.39 12.98 21.36 12.97 21.33 12.96C21.31 12.95 21.27 12.94 21.26 12.93C21.25 12.93 21.21 12.93 21.19 12.92C21.16 12.91 21.08 12.89 21 12.89C20.84 12.88 20.83 12.88 20.66 12.89ZM21.07 13.64C21.09 13.65 21.11 13.66 21.12 13.66C21.15 13.66 21.25 13.71 21.33 13.76C21.4 13.81 21.53 13.94 21.58 14.02C21.64 14.14 21.67 14.2 21.69 14.34L21.72 14.48L21.69 14.62C21.66 14.8 21.59 14.94 21.48 15.05C21.35 15.18 21.28 15.23 21.12 15.3C21.05 15.33 21.03 15.33 20.85 15.33C20.66 15.33 20.65 15.33 20.56 15.3C20.51 15.28 20.46 15.26 20.45 15.25C20.44 15.24 20.42 15.23 20.41 15.23C20.39 15.23 20.23 15.1 20.18 15.03C20.03 14.86 19.95 14.59 19.98 14.39C20 14.26 20.02 14.17 20.08 14.07C20.18 13.87 20.36 13.72 20.58 13.65C20.7 13.61 20.7 13.62 20.87 13.62C20.99 13.62 21.04 13.63 21.07 13.64Z" fill="url(#paint_linear_319_20480_0)" fill-opacity="1.000000" fill-rule="nonzero"/>
	<path id="path" d="M20.37 12.95C20.34 12.96 20.3 12.98 20.28 12.98C20.21 13 19.95 13.13 19.9 13.18C19.88 13.2 19.83 13.24 19.79 13.27C19.67 13.38 19.52 13.56 19.47 13.65C19.36 13.87 19.34 13.92 19.33 13.96C19.32 13.98 19.31 14.02 19.31 14.04C19.28 14.08 19.24 14.35 19.24 14.48C19.24 14.6 19.28 14.87 19.31 14.92C19.31 14.93 19.33 14.97 19.33 14.99C19.34 15.03 19.4 15.18 19.47 15.31C19.5 15.36 19.71 15.61 19.74 15.63C19.75 15.64 19.78 15.66 19.79 15.68C19.95 15.82 20.23 15.98 20.4 16.01C20.42 16.02 20.45 16.03 20.47 16.03C20.52 16.06 20.82 16.08 21.01 16.06C21.1 16.06 21.19 16.04 21.21 16.03C21.23 16.03 21.26 16.02 21.28 16.01C21.39 15.99 21.69 15.85 21.78 15.77C21.85 15.72 21.94 15.64 21.97 15.61C22.03 15.56 22.21 15.33 22.21 15.31C22.21 15.3 22.23 15.26 22.26 15.21C22.28 15.16 22.32 15.08 22.33 15.04C22.35 14.99 22.37 14.93 22.38 14.9C22.39 14.87 22.41 14.79 22.42 14.73C22.42 14.67 22.43 14.58 22.44 14.54C22.45 14.47 22.45 14.44 22.41 14.17C22.4 14.13 22.39 14.06 22.38 14.03C22.3 13.83 22.32 13.85 22.24 13.7C22.15 13.54 22.03 13.39 21.88 13.27C21.85 13.24 21.81 13.21 21.81 13.2C21.77 13.16 21.45 12.98 21.4 12.98C21.39 12.98 21.36 12.97 21.33 12.96C21.31 12.95 21.27 12.94 21.26 12.93C21.25 12.93 21.21 12.93 21.19 12.92C21.16 12.91 21.08 12.89 21 12.89C20.84 12.88 20.83 12.88 20.66 12.89C20.55 12.9 20.49 12.91 20.37 12.95ZM21.12 13.66C21.15 13.66 21.25 13.71 21.33 13.76C21.4 13.81 21.53 13.94 21.58 14.02C21.64 14.14 21.67 14.2 21.69 14.34L21.72 14.48L21.69 14.62C21.66 14.8 21.59 14.94 21.48 15.05C21.35 15.18 21.28 15.23 21.12 15.3C21.05 15.33 21.03 15.33 20.85 15.33C20.66 15.33 20.65 15.33 20.56 15.3C20.51 15.28 20.46 15.26 20.45 15.25C20.44 15.24 20.42 15.23 20.41 15.23C20.39 15.23 20.23 15.1 20.18 15.03C20.03 14.86 19.95 14.59 19.98 14.39C20 14.26 20.02 14.17 20.08 14.07C20.18 13.87 20.36 13.72 20.58 13.65C20.7 13.61 20.7 13.62 20.87 13.62C20.99 13.62 21.04 13.63 21.07 13.64C21.09 13.65 21.11 13.66 21.12 13.66Z" stroke="#000000" stroke-opacity="0" stroke-width="0.133333"/>
	<path id="path" d="M3.89 16.45C3.78 16.46 3.73 16.47 3.59 16.52C3.56 16.53 3.51 16.55 3.5 16.55C3.47 16.56 3.33 16.63 3.28 16.66C3.27 16.67 3.25 16.68 3.23 16.69C3.18 16.71 2.96 16.89 2.91 16.96C2.88 16.99 2.85 17.03 2.84 17.04C2.76 17.12 2.6 17.41 2.58 17.51C2.58 17.54 2.56 17.57 2.56 17.59C2.53 17.64 2.49 17.89 2.49 18.04C2.49 18.19 2.52 18.41 2.56 18.5C2.57 18.53 2.58 18.57 2.58 18.58C2.58 18.6 2.65 18.74 2.73 18.88C2.76 18.94 2.94 19.16 3 19.21C3.04 19.23 3.09 19.28 3.12 19.31C3.18 19.36 3.2 19.38 3.31 19.43C3.33 19.44 3.38 19.47 3.41 19.48C3.43 19.5 3.48 19.52 3.51 19.53C3.54 19.54 3.59 19.55 3.62 19.56C3.66 19.57 3.7 19.59 3.73 19.6C3.87 19.64 4.33 19.64 4.45 19.59C4.47 19.59 4.54 19.57 4.6 19.55C4.65 19.53 4.71 19.51 4.72 19.51C4.73 19.5 4.75 19.49 4.76 19.49C4.91 19.42 5.16 19.24 5.27 19.11C5.3 19.07 5.35 19.02 5.36 19.01C5.38 18.99 5.41 18.94 5.43 18.91C5.45 18.87 5.47 18.83 5.48 18.82C5.51 18.77 5.57 18.63 5.59 18.57C5.6 18.54 5.62 18.48 5.63 18.45C5.66 18.38 5.68 18.16 5.68 18.03C5.68 17.9 5.66 17.7 5.63 17.61C5.59 17.48 5.56 17.41 5.54 17.37C5.44 17.17 5.42 17.15 5.33 17.03C5.25 16.93 5.23 16.91 5.13 16.82C5.01 16.72 4.99 16.71 4.89 16.65C4.72 16.56 4.65 16.53 4.54 16.5C4.5 16.5 4.45 16.48 4.43 16.47C4.36 16.45 4.05 16.44 3.89 16.45ZM4.36 17.21C4.41 17.23 4.46 17.25 4.47 17.26C4.49 17.27 4.51 17.28 4.51 17.28C4.53 17.28 4.69 17.41 4.74 17.46C4.78 17.51 4.84 17.6 4.87 17.67C4.89 17.7 4.9 17.73 4.91 17.75C4.91 17.76 4.93 17.83 4.94 17.9C4.96 18.03 4.96 18.04 4.94 18.17C4.92 18.3 4.88 18.4 4.84 18.45C4.83 18.47 4.82 18.49 4.82 18.49C4.82 18.5 4.8 18.53 4.77 18.56C4.66 18.71 4.53 18.8 4.35 18.86C4.26 18.89 4.24 18.89 4.08 18.89C3.94 18.89 3.9 18.89 3.87 18.87C3.84 18.86 3.81 18.85 3.79 18.85C3.71 18.83 3.58 18.74 3.48 18.64C3.34 18.5 3.26 18.36 3.23 18.14C3.21 18.06 3.22 17.89 3.25 17.84C3.26 17.81 3.26 17.79 3.26 17.77C3.26 17.74 3.32 17.63 3.37 17.56C3.5 17.37 3.66 17.26 3.89 17.19C3.91 17.18 4.01 17.18 4.1 17.18C4.25 17.18 4.29 17.19 4.36 17.21Z" fill="url(#paint_linear_319_20481_0)" fill-opacity="1.000000" fill-rule="nonzero"/>
	<path id="path" d="M3.59 16.52C3.56 16.53 3.51 16.55 3.5 16.55C3.47 16.56 3.33 16.63 3.28 16.66C3.27 16.67 3.25 16.68 3.23 16.69C3.18 16.71 2.96 16.89 2.91 16.96C2.88 16.99 2.85 17.03 2.84 17.04C2.76 17.12 2.6 17.41 2.58 17.51C2.58 17.54 2.56 17.57 2.56 17.59C2.53 17.64 2.49 17.89 2.49 18.04C2.49 18.19 2.52 18.41 2.56 18.5C2.57 18.53 2.58 18.57 2.58 18.58C2.58 18.6 2.65 18.74 2.73 18.88C2.76 18.94 2.94 19.16 3 19.21C3.04 19.23 3.09 19.28 3.12 19.31C3.18 19.36 3.2 19.38 3.31 19.43C3.33 19.44 3.38 19.47 3.41 19.48C3.43 19.5 3.48 19.52 3.51 19.53C3.54 19.54 3.59 19.55 3.62 19.56C3.66 19.57 3.7 19.59 3.73 19.6C3.87 19.64 4.33 19.64 4.45 19.59C4.47 19.59 4.54 19.57 4.6 19.55C4.65 19.53 4.71 19.51 4.72 19.51C4.73 19.5 4.75 19.49 4.76 19.49C4.91 19.42 5.16 19.24 5.27 19.11C5.3 19.07 5.35 19.02 5.36 19.01C5.38 18.99 5.41 18.94 5.43 18.91C5.45 18.87 5.47 18.83 5.48 18.82C5.51 18.77 5.57 18.63 5.59 18.57C5.6 18.54 5.62 18.48 5.63 18.45C5.66 18.38 5.68 18.16 5.68 18.03C5.68 17.9 5.66 17.7 5.63 17.61C5.59 17.48 5.56 17.41 5.54 17.37C5.44 17.17 5.42 17.15 5.33 17.03C5.25 16.93 5.23 16.91 5.13 16.82C5.01 16.72 4.99 16.71 4.89 16.65C4.72 16.56 4.65 16.53 4.54 16.5C4.5 16.5 4.45 16.48 4.43 16.47C4.36 16.45 4.05 16.44 3.89 16.45C3.78 16.46 3.73 16.47 3.59 16.52ZM4.47 17.26C4.49 17.27 4.51 17.28 4.51 17.28C4.53 17.28 4.69 17.41 4.74 17.46C4.78 17.51 4.84 17.6 4.87 17.67C4.89 17.7 4.9 17.73 4.91 17.75C4.91 17.76 4.93 17.83 4.94 17.9C4.96 18.03 4.96 18.04 4.94 18.17C4.92 18.3 4.88 18.4 4.84 18.45C4.83 18.47 4.82 18.49 4.82 18.49C4.82 18.5 4.8 18.53 4.77 18.56C4.66 18.71 4.53 18.8 4.35 18.86C4.26 18.89 4.24 18.89 4.08 18.89C3.94 18.89 3.9 18.89 3.87 18.87C3.84 18.86 3.81 18.85 3.79 18.85C3.71 18.83 3.58 18.74 3.48 18.64C3.34 18.5 3.26 18.36 3.23 18.14C3.21 18.06 3.22 17.89 3.25 17.84C3.26 17.81 3.26 17.79 3.26 17.77C3.26 17.74 3.32 17.63 3.37 17.56C3.5 17.37 3.66 17.26 3.89 17.19C3.91 17.18 4.01 17.18 4.1 17.18C4.25 17.18 4.29 17.19 4.36 17.21C4.41 17.23 4.46 17.25 4.47 17.26Z" stroke="#000000" stroke-opacity="0" stroke-width="0.133333"/>
	<path id="path" d="M20.64 16.45C20.53 16.46 20.48 16.47 20.34 16.52C20.31 16.53 20.26 16.55 20.25 16.55C20.22 16.56 20.08 16.63 20.03 16.66C20.02 16.67 20 16.68 19.98 16.69C19.95 16.7 19.85 16.78 19.79 16.83C19.77 16.85 19.75 16.87 19.74 16.87C19.74 16.87 19.7 16.92 19.65 16.97C19.6 17.03 19.56 17.08 19.55 17.09C19.54 17.1 19.51 17.14 19.47 17.22C19.42 17.29 19.34 17.48 19.33 17.52C19.33 17.54 19.31 17.58 19.31 17.6C19.28 17.65 19.24 17.91 19.24 18.04C19.24 18.16 19.28 18.43 19.31 18.48C19.31 18.49 19.33 18.53 19.33 18.55C19.35 18.64 19.48 18.89 19.56 19C19.67 19.13 19.89 19.34 19.97 19.38C19.99 19.39 20.04 19.42 20.08 19.44C20.23 19.52 20.24 19.53 20.43 19.58C20.56 19.62 20.67 19.63 20.92 19.62C21.08 19.62 21.16 19.61 21.19 19.6C21.22 19.59 21.29 19.57 21.34 19.55C21.4 19.53 21.47 19.51 21.49 19.5C21.55 19.47 21.66 19.41 21.69 19.39C21.75 19.36 21.96 19.18 22.03 19.1C22.15 18.96 22.17 18.94 22.24 18.8C22.3 18.69 22.31 18.68 22.33 18.61C22.39 18.45 22.41 18.38 22.42 18.28C22.42 18.23 22.43 18.15 22.44 18.11C22.44 18.06 22.44 18 22.44 17.96C22.43 17.93 22.42 17.85 22.42 17.79C22.41 17.73 22.39 17.65 22.38 17.62C22.37 17.58 22.35 17.53 22.34 17.49C22.32 17.43 22.26 17.3 22.23 17.24C22.11 17.04 21.99 16.91 21.82 16.77C21.73 16.7 21.7 16.68 21.58 16.62C21.54 16.6 21.5 16.58 21.49 16.57C21.48 16.56 21.46 16.56 21.44 16.55C21.42 16.55 21.38 16.53 21.34 16.52C21.2 16.47 21.15 16.46 21.03 16.45C20.88 16.44 20.79 16.44 20.64 16.45ZM21.11 17.21C21.26 17.27 21.33 17.31 21.46 17.44C21.59 17.57 21.66 17.7 21.69 17.9L21.72 18.04L21.69 18.17C21.65 18.39 21.58 18.52 21.42 18.67C21.36 18.73 21.19 18.84 21.16 18.84C21.15 18.84 21.11 18.85 21.08 18.87C21.02 18.89 20.99 18.89 20.83 18.89C20.69 18.89 20.64 18.89 20.62 18.87C20.6 18.86 20.56 18.85 20.54 18.85C20.46 18.83 20.32 18.73 20.22 18.64C20.15 18.56 20.11 18.52 20.08 18.44C19.94 18.17 19.94 17.9 20.08 17.64C20.17 17.46 20.36 17.29 20.54 17.22C20.66 17.18 20.68 17.18 20.86 17.18C21.01 17.19 21.05 17.19 21.11 17.21Z" fill="url(#paint_linear_319_20482_0)" fill-opacity="1.000000" fill-rule="nonzero"/>
	<path id="path" d="M20.34 16.52C20.31 16.53 20.26 16.55 20.25 16.55C20.22 16.56 20.08 16.63 20.03 16.66C20.02 16.67 20 16.68 19.98 16.69C19.95 16.7 19.85 16.78 19.79 16.83C19.77 16.85 19.75 16.87 19.74 16.87C19.74 16.87 19.7 16.92 19.65 16.97C19.6 17.03 19.56 17.08 19.55 17.09C19.54 17.1 19.51 17.14 19.47 17.22C19.42 17.29 19.34 17.48 19.33 17.52C19.33 17.54 19.31 17.58 19.31 17.6C19.28 17.65 19.24 17.91 19.24 18.04C19.24 18.16 19.28 18.43 19.31 18.48C19.31 18.49 19.33 18.53 19.33 18.55C19.35 18.64 19.48 18.89 19.56 19C19.67 19.13 19.89 19.34 19.97 19.38C19.99 19.39 20.04 19.42 20.08 19.44C20.23 19.52 20.24 19.53 20.43 19.58C20.56 19.62 20.67 19.63 20.92 19.62C21.08 19.62 21.16 19.61 21.19 19.6C21.22 19.59 21.29 19.57 21.34 19.55C21.4 19.53 21.47 19.51 21.49 19.5C21.55 19.47 21.66 19.41 21.69 19.39C21.75 19.36 21.96 19.18 22.03 19.1C22.15 18.96 22.17 18.94 22.24 18.8C22.3 18.69 22.31 18.68 22.33 18.61C22.39 18.45 22.41 18.38 22.42 18.28C22.42 18.23 22.43 18.15 22.44 18.11C22.44 18.06 22.44 18 22.44 17.96C22.43 17.93 22.42 17.85 22.42 17.79C22.41 17.73 22.39 17.65 22.38 17.62C22.37 17.58 22.35 17.53 22.34 17.49C22.32 17.43 22.26 17.3 22.23 17.24C22.11 17.04 21.99 16.91 21.82 16.77C21.73 16.7 21.7 16.68 21.58 16.62C21.54 16.6 21.5 16.58 21.49 16.57C21.48 16.56 21.46 16.56 21.44 16.55C21.42 16.55 21.38 16.53 21.34 16.52C21.2 16.47 21.15 16.46 21.03 16.45C20.88 16.44 20.79 16.44 20.64 16.45C20.53 16.46 20.48 16.47 20.34 16.52ZM21.46 17.44C21.59 17.57 21.66 17.7 21.69 17.9L21.72 18.04L21.69 18.17C21.65 18.39 21.58 18.52 21.42 18.67C21.36 18.73 21.19 18.84 21.16 18.84C21.15 18.84 21.11 18.85 21.08 18.87C21.02 18.89 20.99 18.89 20.83 18.89C20.69 18.89 20.64 18.89 20.62 18.87C20.6 18.86 20.56 18.85 20.54 18.85C20.46 18.83 20.32 18.73 20.22 18.64C20.15 18.56 20.11 18.52 20.08 18.44C19.94 18.17 19.94 17.9 20.08 17.64C20.17 17.46 20.36 17.29 20.54 17.22C20.66 17.18 20.68 17.18 20.86 17.18C21.01 17.19 21.05 17.19 21.11 17.21C21.26 17.27 21.33 17.31 21.46 17.44Z" stroke="#000000" stroke-opacity="0" stroke-width="0.133333"/>
</svg>
