<svg width="20.002441" height="20.011719" viewBox="0 0 20.0024 20.0117" fill="none" xmlns="http://www.w3.org/2000/svg" xmlns:xlink="http://www.w3.org/1999/xlink">
	<desc>
			Created with Pixso.
	</desc>
	<defs>
		<linearGradient x1="-0.000000" y1="10.006028" x2="20.002279" y2="4.893666" id="paint_linear_343_14625_0" gradientUnits="userSpaceOnUse">
			<stop stop-color="#7D3172"/>
			<stop offset="0.690480" stop-color="#AE3C6F"/>
		</linearGradient>
	</defs>
	<path id="path" d="M9.29 0C9.22 0.01 8.99 0.04 8.78 0.06C7.49 0.2 6.06 0.69 4.91 1.38C3.44 2.25 2.24 3.45 1.37 4.92C0.68 6.06 0.23 7.39 0.04 8.79C-0.02 9.27 -0.02 10.74 0.04 11.22C0.36 13.66 1.44 15.72 3.25 17.41C4.26 18.35 5.5 19.07 6.86 19.52C7.94 19.88 8.79 20.01 10 20.01C10.89 20.01 11.28 19.97 12.07 19.81C14.77 19.26 17.18 17.53 18.63 15.1C19.31 13.95 19.77 12.62 19.95 11.22C20.01 10.74 20.01 9.27 19.95 8.79C19.77 7.39 19.31 6.06 18.63 4.92C17.75 3.45 16.56 2.25 15.09 1.38C13.96 0.7 12.6 0.24 11.25 0.06C10.9 0.01 9.53 -0.02 9.29 0ZM9.4 5.25C9.37 5.29 6.42 5.1 6.37 5.06C6.34 5.04 6.7 4.19 6.9 3.79C7.54 2.5 8.4 1.59 9.25 1.29L9.39 1.25L9.4 3.24C9.4 4.34 9.4 5.24 9.4 5.25ZM11.06 1.43C11.78 1.79 12.53 2.66 13.09 3.79C13.34 4.27 13.65 5.04 13.62 5.07C13.59 5.1 11.98 5.22 11.26 5.24L10.58 5.27L10.58 3.25L10.58 1.24L10.73 1.29C10.82 1.32 10.96 1.38 11.06 1.43ZM6.72 1.83C6.71 1.86 6.61 1.99 6.51 2.14C6.08 2.73 5.63 3.6 5.32 4.47C5.23 4.71 5.15 4.88 5.12 4.88C4.95 4.88 3.2 4.48 3.16 4.43C3.12 4.4 3.54 3.94 3.9 3.6C4.55 2.97 5.26 2.48 6.1 2.07C6.7 1.77 6.77 1.75 6.72 1.83ZM13.89 2.07C14.73 2.48 15.43 2.97 16.1 3.6C16.47 3.96 16.9 4.45 16.86 4.49C16.79 4.55 14.87 4.95 14.84 4.91C14.83 4.9 14.76 4.71 14.68 4.48C14.36 3.62 13.92 2.73 13.48 2.14C13.26 1.83 13.23 1.78 13.27 1.78C13.29 1.78 13.57 1.91 13.89 2.07ZM2.78 5.56C3.15 5.67 4.18 5.91 4.57 5.98L4.83 6.02L4.82 6.16C4.8 6.24 4.75 6.54 4.7 6.83C4.58 7.47 4.49 8.25 4.45 8.92L4.42 9.42L2.8 9.42L1.19 9.42L1.19 9.28C1.19 8.83 1.41 7.77 1.64 7.09C1.84 6.52 2.35 5.46 2.43 5.46C2.45 5.46 2.61 5.51 2.78 5.56ZM17.96 6.18C18.25 6.76 18.44 7.3 18.59 7.9C18.69 8.33 18.81 9.05 18.81 9.28L18.81 9.42L17.19 9.42L15.57 9.42L15.54 8.92C15.51 8.25 15.42 7.48 15.3 6.83C15.24 6.54 15.19 6.25 15.18 6.18L15.16 6.06L15.44 6.01C15.83 5.95 16.86 5.72 17.28 5.6C17.68 5.5 17.61 5.44 17.96 6.18ZM6.64 6.27C7.12 6.32 7.79 6.36 8.95 6.43L9.41 6.45L9.41 7.93L9.41 9.42L7.51 9.42L5.61 9.42L5.61 9.21C5.61 8.41 5.94 6.21 6.06 6.21C6.09 6.21 6.35 6.23 6.64 6.27ZM13.99 6.26C13.99 6.27 14.03 6.45 14.07 6.65C14.23 7.44 14.38 8.68 14.38 9.21L14.38 9.42L12.48 9.42L10.58 9.42L10.58 7.93L10.58 6.45L11.22 6.43C11.97 6.4 13.57 6.29 13.59 6.26C13.62 6.24 13.99 6.24 13.99 6.26ZM4.47 11.27C4.52 12.01 4.63 12.83 4.75 13.42C4.84 13.84 4.83 13.92 4.71 13.92C4.57 13.92 3.28 14.2 2.85 14.31C2.62 14.38 2.41 14.43 2.38 14.43C2.29 14.43 1.82 13.44 1.62 12.86C1.39 12.14 1.19 11.17 1.19 10.73L1.19 10.59L2.8 10.59L4.42 10.59L4.47 11.27ZM9.41 12.06L9.41 13.53L8.95 13.53C8.39 13.53 7.4 13.59 6.61 13.67C6.29 13.7 6.03 13.72 6.02 13.72C6.01 13.71 5.96 13.48 5.91 13.21C5.79 12.61 5.67 11.68 5.63 11.05L5.6 10.59L7.51 10.59L9.41 10.59L9.41 12.06ZM14.37 11.05C14.33 11.68 14.21 12.63 14.08 13.22C14.03 13.49 13.97 13.72 13.97 13.73C13.96 13.74 13.83 13.74 13.69 13.72C13.07 13.64 12.04 13.57 11.34 13.54L10.58 13.52L10.58 12.05L10.58 10.59L12.49 10.59L14.39 10.59L14.37 11.05ZM18.81 10.73C18.81 11.18 18.61 12.14 18.37 12.86C18.16 13.49 17.65 14.52 17.57 14.49C17.29 14.39 15.32 13.92 15.15 13.92C15.14 13.92 15.17 13.77 15.21 13.58C15.33 13.01 15.47 12 15.53 11.27L15.57 10.59L17.19 10.59L18.81 10.59L18.81 10.73ZM9.41 16.7C9.41 17.8 9.4 18.7 9.39 18.7C9.36 18.7 9.06 18.57 8.88 18.48C8.17 18.1 7.41 17.21 6.88 16.12C6.68 15.71 6.34 14.9 6.37 14.88C6.38 14.87 7.86 14.75 8.18 14.73C8.3 14.72 8.63 14.72 8.91 14.71L9.41 14.71L9.41 16.7ZM12.68 14.8C13.02 14.83 13.38 14.87 13.47 14.88L13.63 14.9L13.48 15.29C12.88 16.83 12 18.01 11.11 18.48C10.93 18.57 10.63 18.7 10.6 18.7C10.59 18.7 10.58 17.8 10.58 16.7L10.58 14.69L11.32 14.72C11.72 14.74 12.33 14.78 12.68 14.8ZM5.24 15.26C5.57 16.25 6.06 17.18 6.78 18.19C6.84 18.27 6.83 18.27 6.64 18.19C5.72 17.83 4.68 17.15 3.89 16.4C3.53 16.06 3.04 15.5 3.07 15.47C3.13 15.42 5.09 15.02 5.15 15.05C5.16 15.05 5.2 15.15 5.24 15.26ZM15.32 15.16C15.79 15.25 16.82 15.49 16.86 15.52C16.9 15.56 16.46 16.07 16.05 16.45C15.28 17.17 14.24 17.85 13.36 18.19C13.16 18.27 13.16 18.27 13.21 18.19C13.93 17.18 14.43 16.25 14.75 15.26C14.81 15.08 14.83 15.06 14.9 15.08C14.95 15.08 15.14 15.12 15.32 15.16Z" fill="url(#paint_linear_343_14625_0)" fill-opacity="1.000000" fill-rule="nonzero"/>
	<path id="path" d="M8.78 0.06C7.49 0.2 6.06 0.69 4.91 1.38C3.44 2.25 2.24 3.45 1.37 4.92C0.68 6.06 0.23 7.39 0.04 8.79C-0.02 9.27 -0.02 10.74 0.04 11.22C0.36 13.66 1.44 15.72 3.25 17.41C4.26 18.35 5.5 19.07 6.86 19.52C7.94 19.88 8.79 20.01 10 20.01C10.89 20.01 11.28 19.97 12.07 19.81C14.77 19.26 17.18 17.53 18.63 15.1C19.31 13.95 19.77 12.62 19.95 11.22C20.01 10.74 20.01 9.27 19.95 8.79C19.77 7.39 19.31 6.06 18.63 4.92C17.75 3.45 16.56 2.25 15.09 1.38C13.96 0.7 12.6 0.24 11.25 0.06C10.9 0.01 9.53 -0.02 9.29 0C9.22 0.01 8.99 0.04 8.78 0.06ZM6.37 5.06C6.34 5.04 6.7 4.19 6.9 3.79C7.54 2.5 8.4 1.59 9.25 1.29L9.39 1.25L9.4 3.24C9.4 4.34 9.4 5.24 9.4 5.25C9.37 5.29 6.42 5.1 6.37 5.06ZM13.09 3.79C13.34 4.27 13.65 5.04 13.62 5.07C13.59 5.1 11.98 5.22 11.26 5.24L10.58 5.27L10.58 3.25L10.58 1.24L10.73 1.29C10.82 1.32 10.96 1.38 11.06 1.43C11.78 1.79 12.53 2.66 13.09 3.79ZM6.51 2.14C6.08 2.73 5.63 3.6 5.32 4.47C5.23 4.71 5.15 4.88 5.12 4.88C4.95 4.88 3.2 4.48 3.16 4.43C3.12 4.4 3.54 3.94 3.9 3.6C4.55 2.97 5.26 2.48 6.1 2.07C6.7 1.77 6.77 1.75 6.72 1.83C6.71 1.86 6.61 1.99 6.51 2.14ZM16.1 3.6C16.47 3.96 16.9 4.45 16.86 4.49C16.79 4.55 14.87 4.95 14.84 4.91C14.83 4.9 14.76 4.71 14.68 4.48C14.36 3.62 13.92 2.73 13.48 2.14C13.26 1.83 13.23 1.78 13.27 1.78C13.29 1.78 13.57 1.91 13.89 2.07C14.73 2.48 15.43 2.97 16.1 3.6ZM4.57 5.98L4.83 6.02L4.82 6.16C4.8 6.24 4.75 6.54 4.7 6.83C4.58 7.47 4.49 8.25 4.45 8.92L4.42 9.42L2.8 9.42L1.19 9.42L1.19 9.28C1.19 8.83 1.41 7.77 1.64 7.09C1.84 6.52 2.35 5.46 2.43 5.46C2.45 5.46 2.61 5.51 2.78 5.56C3.15 5.67 4.18 5.91 4.57 5.98ZM18.59 7.9C18.69 8.33 18.81 9.05 18.81 9.28L18.81 9.42L17.19 9.42L15.57 9.42L15.54 8.92C15.51 8.25 15.42 7.48 15.3 6.83C15.24 6.54 15.19 6.25 15.18 6.18L15.16 6.06L15.44 6.01C15.83 5.95 16.86 5.72 17.28 5.6C17.68 5.5 17.61 5.44 17.96 6.18C18.25 6.76 18.44 7.3 18.59 7.9ZM8.95 6.43L9.41 6.45L9.41 7.93L9.41 9.42L7.51 9.42L5.61 9.42L5.61 9.21C5.61 8.41 5.94 6.21 6.06 6.21C6.09 6.21 6.35 6.23 6.64 6.27C7.12 6.32 7.79 6.36 8.95 6.43ZM14.07 6.65C14.23 7.44 14.38 8.68 14.38 9.21L14.38 9.42L12.48 9.42L10.58 9.42L10.58 7.93L10.58 6.45L11.22 6.43C11.97 6.4 13.57 6.29 13.59 6.26C13.62 6.24 13.99 6.24 13.99 6.26C13.99 6.27 14.03 6.45 14.07 6.65ZM4.75 13.42C4.84 13.84 4.83 13.92 4.71 13.92C4.57 13.92 3.28 14.2 2.85 14.31C2.62 14.38 2.41 14.43 2.38 14.43C2.29 14.43 1.82 13.44 1.62 12.86C1.39 12.14 1.19 11.17 1.19 10.73L1.19 10.59L2.8 10.59L4.42 10.59L4.47 11.27C4.52 12.01 4.63 12.83 4.75 13.42ZM9.41 13.53L8.95 13.53C8.39 13.53 7.4 13.59 6.61 13.67C6.29 13.7 6.03 13.72 6.02 13.72C6.01 13.71 5.96 13.48 5.91 13.21C5.79 12.61 5.67 11.68 5.63 11.05L5.6 10.59L7.51 10.59L9.41 10.59L9.41 12.06L9.41 13.53ZM14.08 13.22C14.03 13.49 13.97 13.72 13.97 13.73C13.96 13.74 13.83 13.74 13.69 13.72C13.07 13.64 12.04 13.57 11.34 13.54L10.58 13.52L10.58 12.05L10.58 10.59L12.49 10.59L14.39 10.59L14.37 11.05C14.33 11.68 14.21 12.63 14.08 13.22ZM18.37 12.86C18.16 13.49 17.65 14.52 17.57 14.49C17.29 14.39 15.32 13.92 15.15 13.92C15.14 13.92 15.17 13.77 15.21 13.58C15.33 13.01 15.47 12 15.53 11.27L15.57 10.59L17.19 10.59L18.81 10.59L18.81 10.73C18.81 11.18 18.61 12.14 18.37 12.86ZM9.39 18.7C9.36 18.7 9.06 18.57 8.88 18.48C8.17 18.1 7.41 17.21 6.88 16.12C6.68 15.71 6.34 14.9 6.37 14.88C6.38 14.87 7.86 14.75 8.18 14.73C8.3 14.72 8.63 14.72 8.91 14.71L9.41 14.71L9.41 16.7C9.41 17.8 9.4 18.7 9.39 18.7ZM13.47 14.88L13.63 14.9L13.48 15.29C12.88 16.83 12 18.01 11.11 18.48C10.93 18.57 10.63 18.7 10.6 18.7C10.59 18.7 10.58 17.8 10.58 16.7L10.58 14.69L11.32 14.72C11.72 14.74 12.33 14.78 12.68 14.8C13.02 14.83 13.38 14.87 13.47 14.88ZM6.78 18.19C6.84 18.27 6.83 18.27 6.64 18.19C5.72 17.83 4.68 17.15 3.89 16.4C3.53 16.06 3.04 15.5 3.07 15.47C3.13 15.42 5.09 15.02 5.15 15.05C5.16 15.05 5.2 15.15 5.24 15.26C5.57 16.25 6.06 17.18 6.78 18.19ZM16.86 15.52C16.9 15.56 16.46 16.07 16.05 16.45C15.28 17.17 14.24 17.85 13.36 18.19C13.16 18.27 13.16 18.27 13.21 18.19C13.93 17.18 14.43 16.25 14.75 15.26C14.81 15.08 14.83 15.06 14.9 15.08C14.95 15.08 15.14 15.12 15.32 15.16C15.79 15.25 16.82 15.49 16.86 15.52Z" stroke="#000000" stroke-opacity="0" stroke-width="0.133333"/>
</svg>
