<svg width="14.983398" height="31.994141" viewBox="0 0 14.9834 31.9941" fill="none" xmlns="http://www.w3.org/2000/svg" xmlns:xlink="http://www.w3.org/1999/xlink">
	<desc>
			Created with Pixso.
	</desc>
	<defs>
		<linearGradient x1="0.000002" y1="15.997189" x2="14.983628" y2="7.823613" id="paint_linear_319_20484_0" gradientUnits="userSpaceOnUse">
			<stop stop-color="#7D3172"/>
			<stop offset="0.690480" stop-color="#AE3C6F"/>
		</linearGradient>
	</defs>
	<path id="path" d="M3.72 0.14C2.7 0.49 2.05 1.23 1.88 2.27C1.84 2.52 1.81 3.91 1.81 5.65L1.81 8.62L1.03 8.62C0.32 8.62 0.23 8.63 0.12 8.76C0 8.89 0 9.05 0 13.05C0 16.88 0 17.24 0.11 17.63C0.49 18.94 1.39 20.03 2.57 20.58C3.22 20.89 3.74 21 4.9 21.05L5.9 21.09L5.89 24.05L5.87 27L5.18 27.08C2.77 27.37 1.13 28.05 0.69 28.93C0.12 30.1 1.43 31.2 3.98 31.7C5.24 31.94 5.84 32 7.52 31.99C8.73 31.99 9.38 31.96 9.96 31.88C12.36 31.53 13.94 30.84 14.31 29.94C14.6 29.26 14.25 28.56 13.33 28.04C12.63 27.63 11.17 27.24 9.8 27.08L9.1 27L9.08 24.05L9.07 21.09L10.07 21.05C11.23 21 11.75 20.89 12.4 20.58C13.59 20.03 14.48 18.94 14.86 17.63C14.97 17.24 14.98 16.88 14.98 13.05C14.98 9.05 14.97 8.89 14.85 8.76C14.74 8.63 14.66 8.62 13.94 8.62L13.16 8.62L13.16 5.65C13.16 3.91 13.14 2.52 13.09 2.27C12.92 1.19 12.15 0.36 11.08 0.09C10.83 0.01 10 0 7.45 0C4.2 0 4.15 0 3.72 0.14ZM5.9 1.63C5.9 2.45 5.97 2.59 6.33 2.59C6.71 2.59 6.79 2.42 6.81 1.61L6.84 0.9L7.49 0.9L8.13 0.9L8.16 1.61C8.18 2.41 8.27 2.59 8.63 2.59C9.01 2.59 9.07 2.46 9.07 1.64L9.07 0.9L9.53 0.9L10 0.9L10 1.63C10 2.45 10.06 2.59 10.42 2.59C10.79 2.59 10.88 2.41 10.91 1.65L10.93 0.98L11.12 1.05C11.44 1.16 11.88 1.59 12.04 1.95C12.17 2.25 12.2 2.41 12.2 3.04L12.21 3.79L10.32 3.81C8.52 3.82 8.42 3.83 8.31 3.95C8.14 4.14 8.15 4.46 8.34 4.61C8.48 4.72 8.64 4.73 10.36 4.73L12.24 4.73L12.24 5.15L12.24 5.57L10.36 5.57C8.64 5.57 8.48 5.58 8.34 5.69C8.13 5.86 8.13 6.19 8.34 6.36C8.48 6.47 8.64 6.48 10.36 6.48L12.24 6.48L12.24 6.9L12.24 7.32L10.36 7.32C8.64 7.32 8.48 7.33 8.34 7.44C8.24 7.52 8.19 7.63 8.19 7.78C8.19 7.92 8.24 8.03 8.34 8.11C8.48 8.22 8.64 8.23 10.36 8.23L12.24 8.23L12.24 8.65L12.24 9.07L10.36 9.07C8.64 9.07 8.48 9.08 8.34 9.19C8.13 9.36 8.13 9.7 8.34 9.86C8.48 9.97 8.64 9.98 10.36 9.98L12.24 9.98L12.24 10.4L12.24 10.82L10.44 10.82C9.45 10.82 8.58 10.84 8.49 10.86C8.29 10.92 8.13 11.23 8.21 11.42C8.33 11.73 8.36 11.73 10.33 11.74L12.21 11.76L12.23 12.17L12.25 12.57L10.43 12.57C9.24 12.57 8.56 12.6 8.46 12.65C8.15 12.78 8.09 13.19 8.36 13.4C8.43 13.46 9 13.48 10.33 13.5L12.21 13.52L12.2 14.16C12.19 14.92 12.07 15.25 11.7 15.63C11.28 16.04 11.06 16.11 10.02 16.13L9.07 16.15L9.07 15.43C9.07 14.8 9.06 14.7 8.94 14.58C8.77 14.42 8.54 14.42 8.34 14.58C8.19 14.7 8.18 14.76 8.16 15.42L8.13 16.14L7.49 16.14L6.84 16.14L6.81 15.42C6.79 14.76 6.78 14.7 6.64 14.58C6.44 14.42 6.2 14.42 6.03 14.58C5.92 14.7 5.9 14.8 5.9 15.43L5.9 16.15L4.97 16.13C3.91 16.11 3.72 16.05 3.29 15.64C2.91 15.27 2.78 14.92 2.77 14.16L2.77 13.52L4.64 13.5C5.98 13.48 6.54 13.46 6.62 13.4C6.88 13.19 6.83 12.78 6.52 12.65C6.41 12.6 5.73 12.57 4.54 12.57L2.73 12.57L2.75 12.17L2.77 11.76L4.64 11.74C6.62 11.73 6.65 11.73 6.77 11.42C6.85 11.23 6.69 10.92 6.48 10.86C6.4 10.84 5.52 10.82 4.54 10.82L2.73 10.82L2.73 10.4L2.73 9.98L4.61 9.98C6.33 9.98 6.5 9.97 6.64 9.86C6.84 9.7 6.84 9.36 6.64 9.19C6.5 9.08 6.33 9.07 4.61 9.07L2.73 9.07L2.73 8.65L2.73 8.23L4.61 8.23C6.33 8.23 6.5 8.22 6.64 8.11C6.84 7.94 6.84 7.61 6.64 7.44C6.5 7.33 6.33 7.32 4.61 7.32L2.73 7.32L2.73 6.9L2.73 6.48L4.61 6.48C6.33 6.48 6.5 6.47 6.64 6.36C6.84 6.19 6.84 5.86 6.64 5.69C6.5 5.58 6.33 5.57 4.61 5.57L2.73 5.57L2.73 5.15L2.73 4.73L4.61 4.73C6.33 4.73 6.5 4.72 6.64 4.61C6.82 4.46 6.83 4.14 6.66 3.95C6.55 3.83 6.45 3.82 4.66 3.81L2.77 3.79L2.77 3.04C2.77 2.41 2.8 2.25 2.93 1.95C3.09 1.59 3.53 1.16 3.85 1.05L4.04 0.98L4.07 1.65C4.09 2.41 4.19 2.59 4.54 2.59C4.92 2.59 4.98 2.46 4.98 1.64L4.98 0.9L5.44 0.9L5.9 0.9L5.9 1.63ZM1.81 13.01C1.81 14.93 1.84 16.69 1.88 16.91C2 17.77 2.64 18.61 3.41 18.96C3.97 19.21 4.51 19.25 7.49 19.25C10.46 19.25 11 19.21 11.56 18.96C12.34 18.61 12.97 17.77 13.1 16.91C13.13 16.69 13.16 14.93 13.16 13.01L13.16 9.53L13.63 9.53L14.09 9.53L14.07 13.33C14.05 16.8 14.03 17.18 13.93 17.5C13.5 18.77 12.63 19.62 11.34 20.01C10.99 20.12 10.66 20.13 7.49 20.13C4.31 20.13 3.99 20.12 3.63 20.01C2.35 19.62 1.47 18.77 1.04 17.5C0.94 17.18 0.93 16.8 0.9 13.33L0.88 9.53L1.34 9.53L1.81 9.53L1.81 13.01ZM3.11 16.66C3.73 17.05 3.76 17.05 7.49 17.05C11.22 17.05 11.24 17.05 11.87 16.66C12.04 16.55 12.2 16.47 12.21 16.48C12.26 16.53 12.11 17.18 12.01 17.37C11.86 17.66 11.46 18.02 11.12 18.18C10.83 18.31 10.75 18.31 7.49 18.31C4.23 18.31 4.15 18.31 3.85 18.18C3.47 18 3.08 17.63 2.93 17.28C2.82 17.02 2.7 16.47 2.77 16.47C2.78 16.47 2.94 16.56 3.11 16.66ZM8.15 25.06L8.15 29.04L7.49 29.04L6.83 29.04L6.83 25.06L6.83 21.07L7.49 21.07L8.15 21.07L8.15 25.06ZM5.9 28.8C5.9 29.27 5.93 29.69 5.96 29.73C6.08 29.92 6.33 29.95 7.49 29.95C8.65 29.95 8.89 29.92 9.02 29.73C9.04 29.69 9.07 29.27 9.07 28.8L9.07 27.94L9.29 27.94C9.4 27.94 9.8 27.99 10.16 28.04C11.99 28.31 13.49 28.97 13.49 29.51C13.49 29.58 13.39 29.74 13.26 29.86C12.48 30.58 10.01 31.12 7.49 31.12C4.98 31.12 2.48 30.58 1.7 29.86C1.43 29.6 1.42 29.45 1.65 29.18C2.1 28.66 4.29 27.98 5.63 27.95L5.9 27.94L5.9 28.8Z" fill="url(#paint_linear_319_20484_0)" fill-opacity="1.000000" fill-rule="nonzero"/>
	<path id="path" d="M1.88 2.27C1.84 2.52 1.81 3.91 1.81 5.65L1.81 8.62L1.03 8.62C0.32 8.62 0.23 8.63 0.12 8.76C0 8.89 0 9.05 0 13.05C0 16.88 0 17.24 0.11 17.63C0.49 18.94 1.39 20.03 2.57 20.58C3.22 20.89 3.74 21 4.9 21.05L5.9 21.09L5.89 24.05L5.87 27L5.18 27.08C2.77 27.37 1.13 28.05 0.69 28.93C0.12 30.1 1.43 31.2 3.98 31.7C5.24 31.94 5.84 32 7.52 31.99C8.73 31.99 9.38 31.96 9.96 31.88C12.36 31.53 13.94 30.84 14.31 29.94C14.6 29.26 14.25 28.56 13.33 28.04C12.63 27.63 11.17 27.24 9.8 27.08L9.1 27L9.08 24.05L9.07 21.09L10.07 21.05C11.23 21 11.75 20.89 12.4 20.58C13.59 20.03 14.48 18.94 14.86 17.63C14.97 17.24 14.98 16.88 14.98 13.05C14.98 9.05 14.97 8.89 14.85 8.76C14.74 8.63 14.66 8.62 13.94 8.62L13.16 8.62L13.16 5.65C13.16 3.91 13.14 2.52 13.09 2.27C12.92 1.19 12.15 0.36 11.08 0.09C10.83 0.01 10 0 7.45 0C4.2 0 4.15 0 3.72 0.14C2.7 0.49 2.05 1.23 1.88 2.27ZM6.33 2.59C6.71 2.59 6.79 2.42 6.81 1.61L6.84 0.9L7.49 0.9L8.13 0.9L8.16 1.61C8.18 2.41 8.27 2.59 8.63 2.59C9.01 2.59 9.07 2.46 9.07 1.64L9.07 0.9L9.53 0.9L10 0.9L10 1.63C10 2.45 10.06 2.59 10.42 2.59C10.79 2.59 10.88 2.41 10.91 1.65L10.93 0.98L11.12 1.05C11.44 1.16 11.88 1.59 12.04 1.95C12.17 2.25 12.2 2.41 12.2 3.04L12.21 3.79L10.32 3.81C8.52 3.82 8.42 3.83 8.31 3.95C8.14 4.14 8.15 4.46 8.34 4.61C8.48 4.72 8.64 4.73 10.36 4.73L12.24 4.73L12.24 5.15L12.24 5.57L10.36 5.57C8.64 5.57 8.48 5.58 8.34 5.69C8.13 5.86 8.13 6.19 8.34 6.36C8.48 6.47 8.64 6.48 10.36 6.48L12.24 6.48L12.24 6.9L12.24 7.32L10.36 7.32C8.64 7.32 8.48 7.33 8.34 7.44C8.24 7.52 8.19 7.63 8.19 7.78C8.19 7.92 8.24 8.03 8.34 8.11C8.48 8.22 8.64 8.23 10.36 8.23L12.24 8.23L12.24 8.65L12.24 9.07L10.36 9.07C8.64 9.07 8.48 9.08 8.34 9.19C8.13 9.36 8.13 9.7 8.34 9.86C8.48 9.97 8.64 9.98 10.36 9.98L12.24 9.98L12.24 10.4L12.24 10.82L10.44 10.82C9.45 10.82 8.58 10.84 8.49 10.86C8.29 10.92 8.13 11.23 8.21 11.42C8.33 11.73 8.36 11.73 10.33 11.74L12.21 11.76L12.23 12.17L12.25 12.57L10.43 12.57C9.24 12.57 8.56 12.6 8.46 12.65C8.15 12.78 8.09 13.19 8.36 13.4C8.43 13.46 9 13.48 10.33 13.5L12.21 13.52L12.2 14.16C12.19 14.92 12.07 15.25 11.7 15.63C11.28 16.04 11.06 16.11 10.02 16.13L9.07 16.15L9.07 15.43C9.07 14.8 9.06 14.7 8.94 14.58C8.77 14.42 8.54 14.42 8.34 14.58C8.19 14.7 8.18 14.76 8.16 15.42L8.13 16.14L7.49 16.14L6.84 16.14L6.81 15.42C6.79 14.76 6.78 14.7 6.64 14.58C6.44 14.42 6.2 14.42 6.03 14.58C5.92 14.7 5.9 14.8 5.9 15.43L5.9 16.15L4.97 16.13C3.91 16.11 3.72 16.05 3.29 15.64C2.91 15.27 2.78 14.92 2.77 14.16L2.77 13.52L4.64 13.5C5.98 13.48 6.54 13.46 6.62 13.4C6.88 13.19 6.83 12.78 6.52 12.65C6.41 12.6 5.73 12.57 4.54 12.57L2.73 12.57L2.75 12.17L2.77 11.76L4.64 11.74C6.62 11.73 6.65 11.73 6.77 11.42C6.85 11.23 6.69 10.92 6.48 10.86C6.4 10.84 5.52 10.82 4.54 10.82L2.73 10.82L2.73 10.4L2.73 9.98L4.61 9.98C6.33 9.98 6.5 9.97 6.64 9.86C6.84 9.7 6.84 9.36 6.64 9.19C6.5 9.08 6.33 9.07 4.61 9.07L2.73 9.07L2.73 8.65L2.73 8.23L4.61 8.23C6.33 8.23 6.5 8.22 6.64 8.11C6.84 7.94 6.84 7.61 6.64 7.44C6.5 7.33 6.33 7.32 4.61 7.32L2.73 7.32L2.73 6.9L2.73 6.48L4.61 6.48C6.33 6.48 6.5 6.47 6.64 6.36C6.84 6.19 6.84 5.86 6.64 5.69C6.5 5.58 6.33 5.57 4.61 5.57L2.73 5.57L2.73 5.15L2.73 4.73L4.61 4.73C6.33 4.73 6.5 4.72 6.64 4.61C6.82 4.46 6.83 4.14 6.66 3.95C6.55 3.83 6.45 3.82 4.66 3.81L2.77 3.79L2.77 3.04C2.77 2.41 2.8 2.25 2.93 1.95C3.09 1.59 3.53 1.16 3.85 1.05L4.04 0.98L4.07 1.65C4.09 2.41 4.19 2.59 4.54 2.59C4.92 2.59 4.98 2.46 4.98 1.64L4.98 0.9L5.44 0.9L5.9 0.9L5.9 1.63C5.9 2.45 5.97 2.59 6.33 2.59ZM1.88 16.91C2 17.77 2.64 18.61 3.41 18.96C3.97 19.21 4.51 19.25 7.49 19.25C10.46 19.25 11 19.21 11.56 18.96C12.34 18.61 12.97 17.77 13.1 16.91C13.13 16.69 13.16 14.93 13.16 13.01L13.16 9.53L13.63 9.53L14.09 9.53L14.07 13.33C14.05 16.8 14.03 17.18 13.93 17.5C13.5 18.77 12.63 19.62 11.34 20.01C10.99 20.12 10.66 20.13 7.49 20.13C4.31 20.13 3.99 20.12 3.63 20.01C2.35 19.62 1.47 18.77 1.04 17.5C0.94 17.18 0.93 16.8 0.9 13.33L0.88 9.53L1.34 9.53L1.81 9.53L1.81 13.01C1.81 14.93 1.84 16.69 1.88 16.91ZM7.49 17.05C11.22 17.05 11.24 17.05 11.87 16.66C12.04 16.55 12.2 16.47 12.21 16.48C12.26 16.53 12.11 17.18 12.01 17.37C11.86 17.66 11.46 18.02 11.12 18.18C10.83 18.31 10.75 18.31 7.49 18.31C4.23 18.31 4.15 18.31 3.85 18.18C3.47 18 3.08 17.63 2.93 17.28C2.82 17.02 2.7 16.47 2.77 16.47C2.78 16.47 2.94 16.56 3.11 16.66C3.73 17.05 3.76 17.05 7.49 17.05ZM8.15 29.04L7.49 29.04L6.83 29.04L6.83 25.06L6.83 21.07L7.49 21.07L8.15 21.07L8.15 25.06L8.15 29.04ZM5.96 29.73C6.08 29.92 6.33 29.95 7.49 29.95C8.65 29.95 8.89 29.92 9.02 29.73C9.04 29.69 9.07 29.27 9.07 28.8L9.07 27.94L9.29 27.94C9.4 27.94 9.8 27.99 10.16 28.04C11.99 28.31 13.49 28.97 13.49 29.51C13.49 29.58 13.39 29.74 13.26 29.86C12.48 30.58 10.01 31.12 7.49 31.12C4.98 31.12 2.48 30.58 1.7 29.86C1.43 29.6 1.42 29.45 1.65 29.18C2.1 28.66 4.29 27.98 5.63 27.95L5.9 27.94L5.9 28.8C5.9 29.27 5.93 29.69 5.96 29.73Z" stroke="#000000" stroke-opacity="0" stroke-width="0.133333"/>
</svg>
